<svg width="36" height="36" viewBox="0 0 36 36" fill="none" xmlns="http://www.w3.org/2000/svg">
<path fill-rule="evenodd" clip-rule="evenodd" d="M17.8209 35.6418C27.6631 35.6418 35.6418 27.6631 35.6418 17.8209C35.6418 7.9787 27.6631 0 17.8209 0C7.9787 0 0 7.9787 0 17.8209C0 27.6631 7.9787 35.6418 17.8209 35.6418ZM18.1692 7C24.3278 7 29.3383 12.0104 29.3383 18.1692C29.3383 23.0896 26.1387 27.274 21.712 28.759C21.7047 28.7616 21.6974 28.7643 21.6902 28.767C21.6727 28.7736 21.6553 28.7802 21.637 28.7844C20.5446 29.1422 19.3796 29.3383 18.1692 29.3383C16.9586 29.3383 15.7936 29.1422 14.7012 28.7844C14.6835 28.7802 14.6666 28.7739 14.6497 28.7675C14.6424 28.7648 14.6351 28.762 14.6277 28.7595C10.2001 27.2749 7 23.0901 7 18.1692C7 12.0104 12.0104 7 18.1692 7ZM18.8913 22.9393V27.8646C19.6176 27.8109 20.3224 27.6789 20.996 27.4738C21.9327 25.9095 22.6162 24.2488 23.0439 22.5428C21.6786 22.7733 20.2877 22.9049 18.8913 22.9393ZM13.2957 22.5467C13.7233 24.2513 14.4066 25.9108 15.3425 27.4739C16.0161 27.679 16.7208 27.8109 17.4471 27.8646V22.9398C16.0512 22.9065 14.6607 22.776 13.2957 22.5467ZM8.57836 16.5671C8.49152 17.0887 8.44408 17.6234 8.44408 18.1692C8.44408 18.715 8.49152 19.2497 8.57836 19.7712C9.51274 20.1359 10.4883 20.4408 11.492 20.689C11.3849 19.8602 11.3283 19.0228 11.3283 18.1807C11.3283 17.3305 11.3857 16.4851 11.4949 15.6485C10.4902 15.8969 9.51366 16.202 8.57836 16.5671ZM17.4471 14.8658C15.9417 14.9026 14.4428 15.0516 12.9867 15.3221C12.6819 17.2085 12.6806 19.1288 12.9828 21.0154C14.4402 21.2864 15.9404 21.4357 17.4471 21.4725V14.8658ZM17.4471 13.3983V8.47374C16.7267 8.52692 16.0278 8.65743 15.3591 8.85964C14.419 10.4235 13.7327 12.0843 13.3021 13.7905C14.6651 13.5618 16.0534 13.4315 17.4471 13.3983ZM23.0375 13.7944C22.6069 12.0868 21.9202 10.4248 20.9794 8.85971C20.3107 8.65746 19.6116 8.52692 18.8913 8.47374V13.3989C20.2855 13.4332 21.6742 13.5645 23.0375 13.7944ZM27.7616 19.7621C27.8474 19.2434 27.8942 18.7118 27.8942 18.1692C27.8942 17.6266 27.8474 17.0949 27.7616 16.5762C26.8263 16.2099 25.8493 15.9042 24.8444 15.6547C24.9529 16.4893 25.0102 17.3326 25.0102 18.1807C25.0102 19.0207 24.9538 19.8561 24.8472 20.6828C25.8512 20.4335 26.8272 20.1281 27.7616 19.7621ZM18.8913 21.472C20.3985 21.4339 21.8989 21.2828 23.3564 21.0104C23.6576 19.1271 23.6564 17.2102 23.3527 15.3271C21.8964 15.0551 20.3972 14.9043 18.8913 14.8663V21.472ZM24.5839 22.2414C24.2705 23.7184 23.7847 25.1551 23.1379 26.5247C25.055 25.3803 26.5474 23.5961 27.3172 21.468C26.4288 21.774 25.5146 22.0299 24.5839 22.2414ZM24.5783 14.0957C25.5109 14.3075 26.4269 14.5637 27.3171 14.8703C26.5454 12.7369 25.0474 10.9493 23.1234 9.80523C23.774 11.1767 24.2623 12.616 24.5783 14.0957ZM11.7614 14.0906C12.0774 12.6126 12.5653 11.1749 13.2152 9.80503C11.2939 10.9473 9.79716 12.7312 9.0244 14.8605C9.91396 14.5552 10.8297 14.3013 11.7614 14.0906ZM11.7557 22.2465C10.8261 22.0361 9.91212 21.7824 9.0244 21.4778C9.79526 23.6017 11.2863 25.3822 13.2007 26.5249C12.5546 25.1569 12.0693 23.7218 11.7557 22.2465Z" fill="#E0881E"/>
</svg>
