<svg width="36" height="36" viewBox="0 0 36 36" fill="none" xmlns="http://www.w3.org/2000/svg">
<path fill-rule="evenodd" clip-rule="evenodd" d="M17.8209 35.6418C27.6631 35.6418 35.6418 27.6631 35.6418 17.8209C35.6418 7.9787 27.6631 0 17.8209 0C7.9787 0 0 7.9787 0 17.8209C0 27.6631 7.9787 35.6418 17.8209 35.6418ZM22.048 8.99354C20.9179 8.94198 20.579 8.93109 17.7173 8.93109C14.8556 8.93109 14.5167 8.94198 13.3866 8.99354C12.3417 9.04123 11.7742 9.21583 11.3966 9.36256C10.8963 9.55698 10.5392 9.78926 10.1642 10.1643C9.78922 10.5393 9.55693 10.8963 9.36256 11.3966C9.21579 11.7743 9.04119 12.3417 8.9935 13.3867C8.94194 14.5168 8.93105 14.8557 8.93105 17.7174C8.93105 20.579 8.94194 20.918 8.9935 22.0481C9.04119 23.093 9.21579 23.6605 9.36256 24.0382C9.55693 24.5384 9.78922 24.8954 10.1642 25.2704C10.5392 25.6455 10.8963 25.8777 11.3966 26.0721C11.7742 26.2189 12.3417 26.3935 13.3866 26.4412C14.5165 26.4927 14.8555 26.5036 17.7173 26.5036C20.5792 26.5036 20.9181 26.4927 22.048 26.4412C23.0929 26.3935 23.6604 26.2189 24.0381 26.0721C24.5383 25.8777 24.8954 25.6455 25.2704 25.2704C25.6454 24.8954 25.8777 24.5384 26.0721 24.0382C26.2188 23.6605 26.3934 23.093 26.4411 22.0481C26.4927 20.918 26.5036 20.579 26.5036 17.7174C26.5036 14.8557 26.4927 14.5168 26.4411 13.3866C26.3934 12.3417 26.2188 11.7743 26.0721 11.3966C25.8777 10.8963 25.6454 10.5393 25.2704 10.1643C24.8954 9.78926 24.5383 9.55698 24.0381 9.36256C23.6604 9.21583 23.0929 9.04123 22.048 8.99354ZM13.2986 7.06449C14.4417 7.01234 14.8066 7 17.7173 7C20.628 7 20.993 7.01234 22.136 7.06449C23.2768 7.11657 24.0559 7.29771 24.7376 7.56267C25.4424 7.83656 26.04 8.20302 26.6358 8.79883C27.2317 9.39463 27.5981 9.99231 27.872 10.6971C28.137 11.3788 28.3181 12.1579 28.3702 13.2986C28.4223 14.4417 28.4347 14.8067 28.4347 17.7174C28.4347 20.628 28.4223 20.993 28.3702 22.1361C28.3181 23.2769 28.137 24.0559 27.872 24.7376C27.5981 25.4424 27.2317 26.0401 26.6358 26.6359C26.04 27.2317 25.4424 27.5982 24.7376 27.872C24.0559 28.137 23.2768 28.3181 22.136 28.3702C20.993 28.4224 20.628 28.4347 17.7173 28.4347C14.8066 28.4347 14.4417 28.4224 13.2986 28.3702C12.1578 28.3181 11.3788 28.137 10.697 27.872C9.99227 27.5982 9.39459 27.2317 8.79878 26.6359C8.20298 26.0401 7.83651 25.4424 7.56262 24.7376C7.29767 24.0559 7.11652 23.2769 7.06445 22.1361C7.01229 20.993 7 20.628 7 17.7174C7 14.8067 7.01229 14.4417 7.06445 13.2986C7.11652 12.1579 7.29767 11.3788 7.56262 10.6971C7.83651 9.99231 8.20298 9.39463 8.79878 8.79883C9.39459 8.20302 9.99227 7.83656 10.697 7.56267C11.3788 7.29771 12.1578 7.11657 13.2986 7.06449ZM12.2138 17.7174C12.2138 14.6779 14.6778 12.2138 17.7173 12.2138C20.7568 12.2138 23.2208 14.6779 23.2208 17.7174C23.2208 20.7569 20.7568 23.2209 17.7173 23.2209C14.6778 23.2209 12.2138 20.7569 12.2138 17.7174ZM14.1448 17.7174C14.1448 19.6904 15.7443 21.2898 17.7173 21.2898C19.6903 21.2898 21.2898 19.6904 21.2898 17.7174C21.2898 15.7444 19.6903 14.1449 17.7173 14.1449C15.7443 14.1449 14.1448 15.7444 14.1448 17.7174ZM23.4383 13.2825C24.1486 13.2825 24.7243 12.7067 24.7243 11.9964C24.7243 11.2861 24.1486 10.7103 23.4383 10.7103C22.728 10.7103 22.1522 11.2861 22.1522 11.9964C22.1522 12.7067 22.728 13.2825 23.4383 13.2825Z" fill="#FBFBFB"/>
</svg>
