<svg width="26" height="26" viewBox="0 0 26 26" fill="none" xmlns="http://www.w3.org/2000/svg">
<path d="M13 0C5.80667 0 0 5.80667 0 13C0 20.1933 5.80667 26 13 26C20.1933 26 26 20.1933 26 13C26 5.80667 20.1933 0 13 0ZM13 23.7178C7.07778 23.7178 2.28222 18.8933 2.28222 13C2.28222 7.07778 7.10667 2.28222 13 2.28222C18.8933 2.28222 23.7178 7.07778 23.7178 13C23.7178 18.9222 18.9222 23.7178 13 23.7178Z" fill="white"/>
<path d="M15.167 14.0122C16.5248 13.2611 17.4492 11.8167 17.4492 10.1411C17.4492 7.71444 15.4848 5.75 13.0581 5.75C10.6314 5.75 8.667 7.71444 8.667 10.17C8.667 11.8456 9.59145 13.29 10.9492 14.0411C9.04256 14.6767 7.48256 16.1211 6.73145 17.97C8.23367 19.8189 10.5159 21.0033 13.0581 21.0033C15.6292 21.0033 17.9114 19.8189 19.4137 17.9411L19.3848 17.97C18.6337 16.0922 17.0737 14.6478 15.167 14.0122Z" fill="white"/>
</svg>
