<svg width="36" height="36" viewBox="0 0 36 36" fill="none" xmlns="http://www.w3.org/2000/svg">
<path fill-rule="evenodd" clip-rule="evenodd" d="M17.8209 35.8096C27.6631 35.8096 35.6418 27.7934 35.6418 17.9048C35.6418 8.01625 27.6631 0 17.8209 0C7.9787 0 0 8.01625 0 17.9048C0 27.7934 7.9787 35.8096 17.8209 35.8096ZM20.9998 12H27.9998V10H20.9998V12ZM24.6248 25C27.6968 25 29.2837 23.297 29.7257 22H26.5578C25.4528 23.283 22.0998 23.182 21.9698 19.971H29.9967C30.0107 19.019 29.9797 18.337 29.9017 17.831C29.4907 15.187 27.6088 13.405 24.5268 13.405C21.3858 13.405 19.0609 15.415 19.0609 19.325C19.0609 23.271 21.5508 25 24.6248 25ZM27.0048 18H22.0398C22.2508 16.549 23.0618 15.781 24.5278 15.781C25.8688 15.781 26.8998 16.453 27.0048 18ZM6 24.988H12.4659C19.2499 24.988 19.1339 18.187 15.6729 16.927C18.5329 15.465 18.4289 10.102 12.9529 10.021H6V24.988ZM12.5839 16H8.99997V13H12.2719C15.4899 13 15.0919 16 12.5839 16ZM8.99997 19H12.3909C15.2089 19 15.3959 22.016 12.3409 22.016H8.99997V19Z" fill="white"/>
</svg>
