<svg width="28" height="26" viewBox="0 0 28 26" fill="none" xmlns="http://www.w3.org/2000/svg">
<path fill-rule="evenodd" clip-rule="evenodd" d="M1.66667 0C0.746192 0 0 0.746192 0 1.66667V14.3333C0 15.2538 0.746193 16 1.66667 16H3.83338V19.9976C3.83338 20.9976 4.83338 20.8309 5.16672 20.4976C5.40712 20.2572 8.55537 17.6508 10.5571 16H18.6667C19.5871 16 20.3333 15.2538 20.3333 14.3333V1.66667C20.3333 0.746192 19.5871 0 18.6667 0H1.66667ZM20.3829 21.6625H14.0001C13.0796 21.6625 12.3334 20.9163 12.3334 19.9958V17.9997H21.3333C22.2537 17.9997 22.9999 17.2535 22.9999 16.333V8.99579H26.3334C27.2539 8.99579 28.0001 9.74198 28.0001 10.6625V19.9958C28.0001 20.9163 27.2539 21.6625 26.3334 21.6625H25.3332V24.7556C25.3332 25.5164 24.6059 25.3896 24.3635 25.136C24.1862 24.9506 21.8348 22.9147 20.3829 21.6625Z" fill="#CCFF00"/>
</svg>
