<svg width="33" height="26" viewBox="0 0 33 26" fill="none" xmlns="http://www.w3.org/2000/svg">
<path d="M31.4302 0H0.972068C0.43203 0 0 0.43203 0 0.972068V19.7114C0 20.2514 0.43203 20.6835 0.972068 20.6835H31.4302C31.9702 20.6835 32.4023 20.2514 32.4023 19.7114V0.972068C32.4023 0.43203 31.9702 0 31.4302 0ZM30.9982 19.2794H1.4041V1.4041H30.9982V19.2794ZM24.6257 24.5717V25.9218H7.77655V24.5717C7.77655 23.9237 8.31658 23.3836 8.96463 23.3836H12.6369V21.2775H19.8194V23.3836H23.4916C24.0857 23.3296 24.6257 23.8697 24.6257 24.5717Z" fill="#CCFF00"/>
</svg>
