<svg width="26" height="26" viewBox="0 0 26 26" fill="none" xmlns="http://www.w3.org/2000/svg">
<path fill-rule="evenodd" clip-rule="evenodd" d="M0 13C0 5.80667 5.80667 0 13 0C20.1933 0 26 5.80667 26 13C26 20.1933 20.1933 26 13 26C5.80667 26 0 20.1933 0 13ZM2.28222 13C2.28222 18.8933 7.07778 23.7178 13 23.7178C18.9222 23.7178 23.7178 18.9222 23.7178 13C23.7178 7.07778 18.8933 2.28222 13 2.28222C7.10667 2.28222 2.28222 7.07778 2.28222 13ZM17.4492 10.1411C17.4492 11.8167 16.5248 13.2611 15.167 14.0122C17.0737 14.6478 18.6337 16.0922 19.3848 17.97L19.4137 17.9411C17.9114 19.8189 15.6292 21.0033 13.0581 21.0033C10.5159 21.0033 8.23367 19.8189 6.73145 17.97C7.48256 16.1211 9.04256 14.6767 10.9492 14.0411C9.59145 13.29 8.667 11.8456 8.667 10.17C8.667 7.71444 10.6314 5.75 13.0581 5.75C15.4848 5.75 17.4492 7.71444 17.4492 10.1411Z" fill="white"/>
</svg>
