<svg width="36" height="36" viewBox="0 0 36 36" fill="none" xmlns="http://www.w3.org/2000/svg">
<path fill-rule="evenodd" clip-rule="evenodd" d="M17.8209 35.6418C27.6631 35.6418 35.6418 27.6631 35.6418 17.8209C35.6418 7.9787 27.6631 0 17.8209 0C7.9787 0 0 7.9787 0 17.8209C0 27.6631 7.9787 35.6418 17.8209 35.6418ZM12.4605 10.2302C12.4605 11.462 11.462 12.4605 10.2302 12.4605C8.99851 12.4605 8 11.462 8 10.2302C8 8.99851 8.99851 8 10.2302 8C11.462 8 12.4605 8.99851 12.4605 10.2302ZM8.35547 14.2422H12.1023V26.5531H8.35547V14.2422ZM17.9909 14.2422H14.2441V26.5531H17.9909V19.5503C18.3117 18.1513 19.4181 17.4518 20.3972 17.4518C21.2001 17.4518 22.8058 17.9871 22.8058 19.8605V26.462H26.4634V18.3439C26.4634 15.6676 24.0548 13.9727 21.6461 13.9727C19.7149 13.9727 18.5213 15.1054 17.9909 15.7345V14.2422Z" fill="#CCFF00"/>
</svg>
