<svg width="33" height="21" viewBox="0 0 33 21" fill="none" xmlns="http://www.w3.org/2000/svg">
<path d="M2.3906 0C1.92069 0 1.48938 0.140593 1.12059 0.372019L15.265 12.2891C15.9125 12.8352 16.7851 12.8351 17.4315 12.2891L31.551 0.372019C31.1822 0.140593 30.7509 0 30.2809 0H2.3906ZM0.136981 1.59966C0.0517165 1.84489 0 2.10612 0 2.38092V18.2537C0 18.7319 0.144273 19.1712 0.386002 19.5434L10.5087 10.3546L0.136981 1.59966ZM32.5346 1.59966L22.1878 10.3421L32.2855 19.5434C32.5273 19.1712 32.6715 18.7319 32.6715 18.2537V2.38092C32.6715 2.10612 32.6198 1.84489 32.5346 1.59966ZM20.9676 11.3838L18.4525 13.5043C17.236 14.5321 15.4481 14.5306 14.2316 13.5043L11.7289 11.3962L1.68091 20.5231C1.90575 20.5924 2.1423 20.6347 2.3906 20.6347H30.2809C30.5293 20.6347 30.7658 20.5924 30.9906 20.5231L20.9676 11.3838Z" fill="#CCFF00"/>
</svg>
