<svg width="29" height="26" viewBox="0 0 29 26" fill="none" xmlns="http://www.w3.org/2000/svg">
<path fill-rule="evenodd" clip-rule="evenodd" d="M19.3333 4.83333H24.1667C25.4485 4.83333 26.6779 5.34256 27.5844 6.24898C28.4908 7.15541 29 8.38479 29 9.66667V12.8889H17.7222C17.7222 12.4616 17.5525 12.0518 17.2503 11.7497C16.9482 11.4475 16.5384 11.2778 16.1111 11.2778H12.8889C12.4616 11.2778 12.0518 11.4475 11.7497 11.7497C11.4475 12.0518 11.2778 12.4616 11.2778 12.8889H0V9.66667C0 8.38479 0.509225 7.15541 1.41565 6.24898C2.32208 5.34256 3.55145 4.83333 4.83333 4.83333H9.66667V3.22222C9.66667 2.36764 10.0062 1.54805 10.6104 0.943767C11.2147 0.339483 12.0343 0 12.8889 0H16.1111C16.9657 0 17.7853 0.339483 18.3896 0.943767C18.9939 1.54805 19.3333 2.36764 19.3333 3.22222V4.83333ZM11.2778 4.83333H17.7222V3.22222C17.7217 2.79508 17.5518 2.38557 17.2498 2.08354C16.9478 1.7815 16.5383 1.6116 16.1111 1.61111H12.8889C12.4617 1.6116 12.0522 1.7815 11.7502 2.08354C11.4482 2.38557 11.2783 2.79508 11.2778 3.22222V4.83333ZM12.8889 16.9162H16.1111C16.5384 16.9162 16.9482 16.7465 17.2503 16.4443C17.5525 16.1422 17.7222 15.7324 17.7222 15.3051H29V20.944C29 22.2259 28.4908 23.4552 27.5844 24.3617C26.6779 25.2681 25.4485 25.7773 24.1667 25.7773H4.83333C3.55145 25.7773 2.32208 25.2681 1.41565 24.3617C0.509225 23.4552 0 22.2259 0 20.944V15.3051H11.2778C11.2778 15.7324 11.4475 16.1422 11.7497 16.4443C12.0518 16.7465 12.4616 16.9162 12.8889 16.9162Z" fill="white"/>
</svg>
