<svg width="23" height="23" viewBox="0 0 23 23" fill="none" xmlns="http://www.w3.org/2000/svg">
<path d="M10.4334 0.303087L0.799337 6.26186C0.302537 6.56935 0 7.1116 0 7.69412V21.7501C0 22.4406 0.562392 23 1.25534 23H7.80538C8.15185 23 8.43305 22.7203 8.43305 22.375V17.6191C8.43305 15.9283 9.80074 14.5657 11.4995 14.5657C13.1993 14.5657 14.5676 15.9283 14.5676 17.6191V22.375C14.5676 22.7203 14.8488 23 15.1952 23H21.7447C22.4376 23 23 22.4406 23 21.7501V7.69412C23 7.1116 22.6975 6.56935 22.1991 6.26186L12.5669 0.303087C11.8899 -0.117099 11.058 -0.084633 10.4334 0.303087Z" fill="white"/>
</svg>
