<svg width="21" height="28" viewBox="0 0 21 28" fill="none" xmlns="http://www.w3.org/2000/svg">
<path fill-rule="evenodd" clip-rule="evenodd" d="M14.5926 4.61461C14.5926 5.60997 15.3779 6.41953 16.3434 6.41953H21.0094V26.2325C21.0094 27.1955 20.2274 27.9833 19.2586 27.9833H1.75078C0.787873 27.9833 0 27.1955 0 26.2325V1.75078C0 0.787837 0.787873 0 1.75078 0H14.5926V4.61461ZM9.92202 2.33438H2.9189V10.5047H9.92202V2.33438ZM2.9189 23.9273H18.0923V22.7602H2.9189V23.9273ZM2.9189 20.4258H18.0923V19.2586H2.9189V20.4258ZM2.9189 16.9242H18.0923V15.757H2.9189V16.9242ZM2.9189 13.4227H18.0923V12.2555H2.9189V13.4227ZM11.6728 9.3375H18.0923V8.17031H11.6728V9.3375ZM16.3434 5.25157C16.0217 5.25157 15.7599 4.96547 15.7599 4.61384V0.370954C15.7716 0.380053 15.7833 0.389045 15.7951 0.398037C15.8423 0.43403 15.8894 0.470013 15.9322 0.512792L20.5017 5.08234C20.543 5.12357 20.5778 5.16949 20.6126 5.21542C20.6217 5.2275 20.6309 5.23958 20.6401 5.25157H16.3434Z" fill="#071017"/>
</svg>
