<svg width="34" height="34" viewBox="0 0 34 34" fill="none" xmlns="http://www.w3.org/2000/svg">
<mask id="mask0_1404_990" style="mask-type:alpha" maskUnits="userSpaceOnUse" x="0" y="0" width="34" height="34">
<path d="M16.6281 33.2562C25.8115 33.2562 33.2562 25.8115 33.2562 16.6281C33.2562 7.44465 25.8115 0 16.6281 0C7.44466 0 0 7.44465 0 16.6281C0 25.8115 7.44466 33.2562 16.6281 33.2562Z" fill="#FFE500"/>
</mask>
<g mask="url(#mask0_1404_990)">
<path d="M16.6281 33.2562C25.8115 33.2562 33.2562 25.8115 33.2562 16.6281C33.2562 7.44465 25.8115 0 16.6281 0C7.44466 0 0 7.44465 0 16.6281C0 25.8115 7.44466 33.2562 16.6281 33.2562Z" fill="#FFE500"/>
<path d="M3.39122 -9.05078H-0.00195312V40.7157H3.39122V-9.05078Z" fill="#E52024"/>
<path d="M14.1377 -9.05078H8.48242V40.7157H14.1377V-9.05078Z" fill="#E52024"/>
<path d="M24.8828 -9.05078H19.2275V40.7157H24.8828V-9.05078Z" fill="#E52024"/>
<path d="M33.3668 -9.05078H29.9736V40.7157H33.3668V-9.05078Z" fill="#E52024"/>
</g>
</svg>
