<svg width="3080" height="1044" viewBox="0 0 3080 1044" fill="none" xmlns="http://www.w3.org/2000/svg">
<path fill-rule="evenodd" clip-rule="evenodd" d="M2289 367.044C2287.5 367.377 2284.3 368.244 2283.5 369.044C2283.29 369.255 2283.06 369.511 2282.79 369.806C2281.78 370.91 2280.26 372.572 2277.5 374.544C2276.29 375.407 2275.38 375.913 2274.52 376.39C2272.89 377.295 2271.45 378.098 2268.5 381.044C2265.97 383.578 2265.02 385.32 2263.87 387.43C2262.98 389.066 2261.97 390.923 2260 393.544C2257.35 397.074 2254.19 403.545 2251.72 408.581C2250 412.105 2248.62 414.926 2248 415.544C2246.8 416.744 2244.5 419.377 2243.5 420.544C2243.5 420.044 2243.2 419.044 2242 419.044C2238.5 422.044 2238 422.544 2238 424.544C2238 425.185 2236.77 430.444 2235.09 437.593C2231.54 452.759 2226 476.427 2226 482.544C2226 485.843 2225.53 490.42 2224.96 495.977C2223.97 505.579 2222.68 518.109 2223 532.044C2223.37 548.277 2223.19 579.481 2223.08 600.349C2223.03 607.764 2223 613.874 2223 617.544C2223 628.48 2227.88 647.045 2230.26 656.076C2230.92 658.606 2231.39 660.387 2231.5 661.044C2231.74 662.5 2232.34 663.956 2232.89 665.298C2233.47 666.72 2234 668.015 2234 669.044V675.044V681.044C2234 681.999 2233.64 682.443 2233.32 682.823C2232.82 683.437 2232.45 683.881 2234 686.044C2236.5 689.544 2238 692.544 2238 693.544C2238 694.544 2248 724.044 2250.5 727.544C2251.75 729.294 2252.75 731.044 2253.75 732.794C2254.75 734.544 2255.75 736.294 2257 738.044C2259.5 741.544 2263.5 746.544 2267.5 750.544C2269.84 752.887 2275.79 757.804 2280.72 761.877C2284.2 764.757 2287.17 767.215 2288 768.044C2288.52 768.568 2288.95 769.333 2289.43 770.22C2290.81 772.721 2292.73 776.199 2299 778.044C2303.87 779.477 2308.75 781.403 2312.96 783.069C2316.1 784.309 2318.87 785.404 2321 786.044C2325 787.244 2329 788.211 2330.5 788.544L2329 784.044C2329.17 783.877 2330.1 784.044 2332.5 786.044C2334.36 787.592 2339.48 788.374 2343.46 788.982C2345.91 789.355 2347.93 789.663 2348.5 790.044C2348.58 790.098 2348.68 790.165 2348.79 790.241C2350.76 791.572 2357.33 796.017 2363 795.544C2366.84 795.224 2374.97 793.881 2382.17 792.693C2386.22 792.024 2389.98 791.404 2392.5 791.044C2399.5 790.044 2412.5 780.544 2416 777.044C2419.5 773.544 2428.5 763.044 2431.5 758.044C2431.68 757.751 2431.86 757.436 2432.07 757.101C2435.3 751.715 2441.65 741.163 2444 735.044C2444.16 734.641 2444.31 734.234 2444.47 733.824C2446.86 727.621 2449.53 720.703 2450 715.544C2450.5 710.044 2451 706.544 2453.5 702.544C2455.5 699.344 2458.67 692.544 2460 689.544C2468.33 697.211 2486.1 713.644 2490.5 718.044C2492.32 719.859 2493.8 721.729 2495.31 723.617C2498.36 727.45 2501.47 731.359 2507.5 735.044C2516.5 740.544 2520.5 742.544 2526 744.544C2527.55 745.108 2528.55 745.513 2529.34 745.838C2531.37 746.663 2532.12 746.967 2537.5 748.044C2542.39 749.021 2543.66 748.725 2545.07 748.4C2545.82 748.226 2546.61 748.044 2548 748.044C2550.93 748.044 2553.32 749.116 2556.35 750.475C2557.46 750.972 2558.66 751.508 2560 752.044C2562.61 753.089 2563.86 753.588 2565.1 754.111C2566.23 754.59 2567.35 755.089 2569.5 756.044C2571.15 756.775 2572.39 757.507 2573.55 758.19C2575.57 759.373 2577.33 760.41 2580.5 761.044C2585.5 762.044 2604.5 762.044 2613 759.044C2619.8 756.644 2622.83 754.377 2623.5 753.544L2621 750.544C2625.5 751.377 2636 752.244 2642 749.044C2646.04 746.89 2651.24 745.025 2655.41 743.529C2658.99 742.248 2661.81 741.236 2662.5 740.544C2664 739.044 2666 738.544 2666.5 740.544C2666.64 741.084 2666.88 741.478 2667.12 741.874C2667.79 742.945 2668.46 744.029 2667 748.044C2666.23 750.169 2665.38 750.876 2664.75 751.404C2663.74 752.244 2663.27 752.634 2664.5 757.544C2665.2 760.353 2665.9 762.053 2666.54 763.595C2667.72 766.445 2668.68 768.758 2669 776.544C2669.35 785.023 2667.96 792.005 2667.11 796.254C2666.76 798.018 2666.5 799.31 2666.5 800.044C2666.5 802.544 2667 803.044 2669 801.544C2669.7 801.016 2670.22 801.045 2670.58 801.066C2671.23 801.103 2671.32 801.108 2671 797.544C2670.67 793.913 2670.78 792.679 2670.89 791.396C2670.94 790.736 2671 790.063 2671 789.044V782.044C2671 779.744 2670.83 778.406 2670.69 777.408C2670.51 776.02 2670.42 775.29 2671 773.544C2672.84 773.544 2673.71 773.544 2674.13 773.98C2674.5 774.373 2674.5 775.121 2674.5 776.544C2674.5 777.725 2674.73 778.441 2674.92 779.027C2675.22 779.931 2675.41 780.528 2674.5 782.044C2673 784.544 2672 789.044 2672.5 791.044C2672.68 791.765 2672.93 792.356 2673.17 792.935C2673.59 793.96 2674 794.945 2674 796.544C2674 797.499 2673.93 797.87 2673.86 798.187C2673.76 798.7 2673.69 799.072 2674 801.544C2674.17 802.936 2674.11 804.085 2674.05 805.056C2673.94 806.875 2673.87 808.066 2675.5 809.044C2675.72 809.176 2675.93 809.3 2676.12 809.417C2678.17 810.636 2679 811.132 2679 812.044V815.544C2679 818.544 2678.5 819.544 2677 820.544C2676.68 820.759 2676.15 820.974 2675.54 821.22C2673.33 822.113 2670.15 823.405 2672.5 826.544C2674.32 828.966 2674.85 829.188 2675.43 829.431C2675.81 829.588 2676.21 829.755 2677 830.544C2677.63 831.175 2678.26 831.557 2678.77 831.863C2679.86 832.527 2680.37 832.833 2679 834.544C2677.14 835.781 2676.22 835.913 2675.68 835.991C2674.9 836.103 2674.88 836.105 2674 839.044C2672.96 842.497 2673.36 843.804 2673.7 844.941C2673.86 845.45 2674 845.925 2674 846.544C2674 847.004 2673.92 847.729 2673.83 848.512C2673.55 851.13 2673.19 854.393 2675.5 850.544C2676.94 847.837 2677.74 846.107 2678.25 844.978C2679.17 842.979 2679.22 842.864 2680.5 842.544C2681.47 842.301 2681.85 842.53 2682.16 842.716C2682.49 842.912 2682.73 843.058 2683.5 842.544C2685 841.544 2686 843.544 2684 845.044C2683.66 845.301 2683.3 845.559 2682.95 845.808C2681.27 847.015 2679.84 848.044 2681.5 848.044C2682.73 848.044 2683.2 848.044 2683.38 848.275C2683.5 848.42 2683.5 848.657 2683.5 849.044C2683.5 850.044 2683.5 850.544 2682.5 850.544C2681.5 850.544 2679 851.544 2678.5 853.044C2678.31 853.623 2678.34 854.053 2678.36 854.391C2678.4 854.93 2678.42 855.237 2677.5 855.544C2676.88 855.749 2676.44 855.617 2676.02 855.494C2675.42 855.318 2674.88 855.16 2674 856.044C2673.6 856.441 2673.24 856.698 2672.93 856.917C2672.08 857.525 2671.63 857.839 2672 860.044C2672.25 861.544 2672.5 862.169 2672.75 862.794C2673 863.419 2673.25 864.044 2673.5 865.544C2673.75 867.07 2674.27 867.949 2674.71 868.708C2675.14 869.441 2675.5 870.061 2675.5 871.044C2675.5 873.044 2677.5 872.544 2677 869.544C2676.83 868.544 2676.67 867.877 2676.54 867.359C2676.28 866.322 2676.17 865.877 2676.5 864.544C2676.73 863.631 2676.54 863.447 2676.55 863.279C2676.57 863.08 2676.87 862.902 2678.5 861.544C2680.33 860.017 2681.05 859.982 2681.32 859.617C2681.5 859.384 2681.5 859.017 2681.5 858.044C2681.5 855.544 2681.5 854.044 2682.5 856.044C2683.35 857.738 2683.12 858.356 2682.72 859.417C2682.65 859.609 2682.58 859.815 2682.5 860.044C2682.32 860.57 2682.15 860.727 2681.95 860.903C2681.59 861.23 2681.15 861.622 2680.5 864.544C2680.15 866.124 2679.86 867.15 2679.65 867.88C2679.27 869.229 2679.18 869.571 2679.5 870.544C2679.88 871.669 2679.69 874.481 2679.57 876.239C2679.53 876.825 2679.5 877.294 2679.5 877.544V881.044C2679.5 883.044 2680.5 886.044 2681.5 884.544C2681.73 884.195 2681.91 883.901 2682.06 883.654C2682.55 882.839 2682.73 882.544 2683.5 882.544C2683.67 882.544 2683.84 882.529 2684.01 882.515C2684.81 882.446 2685.5 882.387 2685.5 884.044C2685.5 884.73 2685.44 885.358 2685.38 885.967C2685.27 887.132 2685.17 888.23 2685.5 889.544C2686 891.544 2686 892.544 2686 893.544C2686 893.753 2685.98 893.94 2685.96 894.118C2685.88 894.796 2685.81 895.357 2687 896.544C2687.45 896.991 2687.72 897.438 2687.91 897.766C2688.38 898.538 2688.45 898.65 2689.5 896.544C2690.36 894.823 2690.56 894.254 2690.96 893.893C2691.25 893.624 2691.65 893.47 2692.5 893.044C2694.3 889.744 2695.02 888.064 2695.42 887.14C2695.68 886.524 2695.8 886.244 2696 886.044C2696.5 885.544 2699 885.044 2698.5 889.544C2698.29 891.465 2698.07 892.202 2697.9 892.804C2697.66 893.612 2697.5 894.179 2697.5 897.044C2697.5 899.157 2697.32 900.02 2697.19 900.652C2697.01 901.514 2696.92 901.946 2697.5 904.544C2698 906.794 2698 910.794 2698 914.669C2698 918.544 2698 922.294 2698.5 924.044C2698.73 924.842 2698.96 925.562 2699.18 926.263C2699.93 928.638 2700.61 930.798 2701 935.044C2701.17 936.937 2701.34 938.593 2701.5 940.053C2701.53 940.373 2701.56 940.684 2701.59 940.986C2701.7 944.332 2702 947.092 2702 946.544C2702 945.093 2701.83 943.306 2701.59 940.986C2701.5 938.23 2701.55 935.076 2702 933.044C2702.41 931.212 2702.65 931.12 2702.79 930.947C2703 930.695 2703 930.27 2703 924.044V912.044C2703 911.1 2702.78 910.49 2702.54 909.846C2702.28 909.126 2702 908.364 2702 907.044C2702 906.054 2702.08 905.769 2702.14 905.539C2702.24 905.187 2702.3 904.96 2702 902.544C2701.77 900.686 2701.64 898.181 2701.53 895.83C2701.39 893.12 2701.27 890.615 2701 889.544C2700.82 888.818 2700.37 888.421 2699.98 888.067C2699.28 887.445 2698.73 886.954 2700 885.044C2701.21 883.227 2701.32 882.327 2701.44 881.345C2701.52 880.705 2701.61 880.03 2702 879.044C2702.29 878.321 2702.54 877.138 2702.77 876.039C2703.33 873.338 2703.79 871.147 2704.5 877.544C2705.5 886.544 2705.5 889.044 2705.5 895.044C2705.5 898.259 2705.21 899.321 2704.95 900.306C2704.72 901.159 2704.5 901.955 2704.5 904.044C2704.5 906.744 2705.04 908.364 2705.47 909.66C2705.76 910.524 2706 911.244 2706 912.044C2706 914.044 2707.5 927.044 2708 928.544C2708.06 928.734 2708.13 928.909 2708.19 929.08C2708.62 930.26 2709 931.306 2709 936.544C2709 939.681 2709.14 941.587 2709.27 943.407C2709.39 945.069 2709.5 946.658 2709.5 949.044C2709.5 951.544 2709.75 952.419 2710 953.294C2710.25 954.169 2710.5 955.044 2710.5 957.544C2710.5 958.94 2710.46 960.18 2710.43 961.276C2710.34 964.102 2710.28 965.963 2711 967.044C2711.18 967.319 2711.38 967.594 2711.59 967.875C2712.5 969.127 2713.5 970.502 2713.5 972.544C2713.5 973.534 2713.11 974.524 2712.79 975.328C2712.3 976.554 2711.99 977.346 2713.5 977.044C2714.25 976.893 2714.78 976.969 2715.17 977.026C2716.09 977.159 2716.3 977.189 2717 974.044C2718 969.544 2718 968.544 2718 966.044C2718 965.233 2717.84 964.58 2717.71 964.05C2717.45 962.948 2717.31 962.382 2719 962.044C2721.5 961.544 2722.5 962.544 2721.5 969.544C2721.21 971.568 2720.88 973.091 2720.62 974.305C2719.97 977.29 2719.72 978.412 2721.5 980.544C2722.2 981.379 2722.74 981.982 2723.17 982.46C2724.28 983.699 2724.64 984.101 2725 985.544C2725.2 986.347 2725.08 987.23 2724.99 987.87C2724.86 988.826 2724.8 989.241 2726 988.044C2726.24 987.8 2726.47 987.586 2726.67 987.393C2728.11 985.999 2728.44 985.678 2728 983.044C2727.82 981.974 2727.45 981.286 2727.14 980.707C2726.58 979.662 2726.21 978.974 2727.5 977.044C2728.32 975.818 2728.63 974.257 2728.86 973.148C2729.18 971.544 2729.32 970.883 2730.5 973.544C2732.13 977.21 2732.1 978.885 2732.03 982.625C2732.02 983.475 2732 984.432 2732 985.544C2732 987.751 2731.86 989.214 2731.77 990.256C2731.6 992.047 2731.55 992.596 2732.5 993.544C2733.2 994.246 2733.47 994.291 2733.6 994.447C2733.75 994.625 2733.73 994.947 2734 996.544C2734.1 997.172 2734.19 997.756 2734.26 998.282C2734.54 1000.27 2734.71 1001.44 2735.5 1001.04C2735.83 1000.88 2736.28 1001.38 2736.71 1001.87C2737.56 1002.83 2738.33 1003.7 2738 999.044C2737.59 993.292 2737.52 992.942 2736.95 990.225C2736.82 989.636 2736.68 988.935 2736.5 988.044C2736.06 985.83 2735.81 985.283 2735.67 984.709C2735.5 983.987 2735.5 983.223 2735.5 979.044C2735.5 975.573 2735.71 972.744 2735.89 970.36C2736.1 967.593 2736.27 965.424 2736 963.544C2735.88 962.703 2735.76 962.094 2735.67 961.624C2735.38 960.14 2735.36 960.064 2736.5 958.544C2736.75 958.206 2737.04 957.868 2737.32 957.527C2738.72 955.854 2740.16 954.121 2738.5 952.044C2737.58 950.893 2736.98 950.908 2736.59 950.917C2736.15 950.929 2736 950.932 2736 949.044V942.544C2736 941.505 2735.7 940.287 2735.43 939.2C2734.93 937.147 2734.54 935.563 2736.5 936.544C2739.5 938.044 2741 941.044 2741 945.544C2741 947.132 2740.88 948.098 2740.78 948.836C2740.61 950.189 2740.53 950.779 2741.5 953.044C2742.03 954.288 2742.38 955.47 2742.64 956.386C2743.13 958.045 2743.36 958.833 2744 957.544C2744.4 956.737 2744.64 957.07 2744.76 957.031C2744.92 956.974 2744.8 956.105 2744.5 949.544C2744.27 944.487 2743.93 941.755 2743.69 939.745C2743.4 937.382 2743.23 936.016 2743.5 933.044C2743.72 930.661 2744.4 928.935 2745.07 927.256C2745.94 925.06 2746.78 922.944 2746.5 919.544C2746.1 914.774 2746.02 914.428 2745.5 912.225C2745.37 911.658 2745.21 910.966 2745 910.044C2744.57 908.108 2744.69 906.635 2744.82 905.186C2744.98 903.268 2745.14 901.393 2744 898.544C2743.28 896.75 2742.76 895.148 2742.36 893.925C2741.64 891.74 2741.32 890.762 2741 892.044C2740.74 893.079 2740.75 893.177 2740.82 893.93C2740.88 894.633 2741 895.907 2741 899.044C2741 901.675 2741.16 903.077 2741.29 904.179C2741.48 905.799 2741.6 906.77 2741 910.044C2740.58 912.371 2740.6 913.892 2740.62 914.987C2740.64 916.479 2740.65 917.178 2739.5 918.044C2738.73 918.618 2738.26 919.412 2737.94 919.949C2737.43 920.815 2737.31 921.013 2737 918.544C2736.82 917.1 2736.64 917.155 2736.48 917.203C2736.2 917.287 2736 917.35 2736 909.044C2736 901.167 2736.37 889.803 2736.66 880.846C2736.84 875.019 2737 870.211 2737 868.044V835.044C2737 833.044 2737.5 829.544 2738 828.544C2738.07 828.408 2738.15 828.208 2738.25 827.98C2738.88 826.526 2740 823.926 2740 829.544V838.544C2740 841.106 2740 842.209 2740.28 843.238C2740.49 844.016 2740.85 844.752 2741.5 846.044C2741.79 846.629 2742.05 847.196 2742.28 847.702C2743.21 849.791 2743.7 850.861 2744.5 848.044C2744.97 846.396 2745.22 845.967 2745.35 845.505C2745.5 844.986 2745.5 844.425 2745.5 842.044C2745.5 840.167 2745.41 839.16 2745.35 838.406C2745.26 837.352 2745.21 836.793 2745.5 835.044C2745.81 833.169 2746.13 832.27 2746.44 831.372C2746.63 830.833 2746.81 830.294 2747 829.544C2747.1 829.146 2747.3 828.49 2747.55 827.663C2748.56 824.338 2750.4 818.248 2750 815.044C2749.85 813.851 2749.79 813.014 2749.74 812.307C2749.62 810.644 2749.55 809.702 2748.5 806.544C2747.45 803.398 2747.14 802.451 2747.04 801.483C2747 801.066 2747 800.646 2747 800.044C2747 799.425 2746.9 798.998 2746.8 798.54C2746.57 797.517 2746.31 796.342 2747 792.544C2747.46 790.034 2747.08 787.315 2746.77 785.101C2746.41 782.465 2746.14 780.544 2747.5 780.544C2748.73 780.544 2749.6 781.152 2750.22 781.588C2750.86 782.037 2751.25 782.304 2751.5 781.544C2751.85 780.498 2751.71 777.994 2751.6 775.895C2751.55 774.984 2751.5 774.149 2751.5 773.544C2751.5 771.544 2751.5 763.544 2751 762.044C2750.75 761.294 2750.63 760.794 2750.5 760.294C2750.38 759.794 2750.25 759.294 2750 758.544C2749.89 758.213 2749.76 757.931 2749.63 757.665C2749.18 756.726 2748.83 755.993 2750 754.044C2750.81 752.702 2751.18 752.224 2751.35 751.683C2751.5 751.216 2751.5 750.702 2751.5 749.544C2751.5 748.589 2751.57 748.072 2751.64 747.63C2751.74 746.915 2751.81 746.398 2751.5 744.544C2751.35 743.669 2751.12 743.007 2750.92 742.421C2750.42 740.997 2750.08 740.023 2751.5 737.544C2752.3 736.144 2753.1 735.544 2753.64 735.136C2754.46 734.524 2754.7 734.344 2753.5 732.544C2752.83 728.544 2753.06 726.322 2753.28 724.099C2753.39 722.988 2753.5 721.877 2753.5 720.544C2753.5 716.544 2753.5 715.544 2754 711.044C2754.39 707.535 2754.17 704.026 2754.06 702.176C2754.02 701.654 2754 701.264 2754 701.044C2754 700.044 2754.5 570.544 2756.5 551.544C2757.54 541.71 2756.56 535.627 2755.87 531.283C2755.22 527.234 2754.81 524.697 2756.5 522.044C2760 516.544 2760 515.544 2760 509.544C2760 503.544 2760 488.544 2759 480.044C2758.57 476.348 2757.94 475.299 2757.5 474.554C2756.92 473.585 2756.65 473.131 2757.5 468.044C2758.31 463.184 2758.39 459.054 2758.45 455.967C2758.5 453.337 2758.54 451.464 2759 450.544C2759.55 449.447 2759.34 437.216 2759.13 424.416C2758.96 413.882 2758.77 402.961 2759 397.544C2759.29 390.546 2759.58 389.499 2759.58 388.455C2759.57 387.708 2759.42 386.962 2759 384.044C2758.6 381.231 2757.95 378.903 2757.33 376.637C2756.39 373.264 2755.5 370.03 2755.5 365.544V350.044C2755.5 339.544 2755.5 314.044 2757.5 305.544C2758.92 299.516 2759.08 296.003 2759.23 292.686C2759.29 291.325 2759.35 289.998 2759.5 288.544C2759.57 287.811 2759.66 287.003 2759.75 286.137C2760.27 281.095 2761 274.091 2761 268.544C2761 262.356 2761.45 261.153 2762.79 257.6C2762.86 257.421 2762.93 257.236 2763 257.044C2763.52 255.67 2764.09 254.767 2764.62 253.932C2765.64 252.336 2766.5 250.982 2766.5 247.044V216.044C2766.5 211.044 2764.5 194.544 2762 181.544C2760 171.144 2757.5 168.211 2756.5 168.044C2755.33 164.877 2752.4 157.344 2750 152.544C2747.79 148.131 2746.4 147.505 2745.02 146.885C2744.52 146.663 2744.03 146.441 2743.5 146.044C2743 145.669 2742.5 145.325 2742 144.981C2740.5 143.95 2739 142.919 2737.5 141.044C2734 137.044 2726.5 132.044 2721.5 131.044C2719.59 130.662 2717.97 130.499 2716.59 130.36C2714.35 130.134 2712.74 129.971 2711.5 129.044C2709.46 128.118 2708.32 127.33 2707.56 126.805C2706.26 125.913 2706.07 125.785 2704.5 127.044C2703.25 128.044 2702.38 128.044 2701.44 128.044C2700.5 128.044 2699.5 128.044 2698 129.044C2692.73 130.362 2691.15 130.811 2689.54 130.965C2688.71 131.044 2687.86 131.044 2686.5 131.044C2685.1 131.044 2684.62 130.8 2684.29 130.632C2683.66 130.317 2683.56 130.264 2679 132.543C2676.34 133.873 2674.69 134.625 2673.59 135.13C2671.78 135.952 2671.43 136.113 2670.5 137.043C2670.07 137.474 2669.72 137.781 2669.32 138.131C2668.34 138.997 2667.06 140.124 2663.5 144.043C2662.24 145.428 2661.3 146.4 2660.58 147.145C2658.44 149.357 2658.25 149.552 2657.5 152.544C2657.04 154.366 2657.32 155.15 2657.6 155.984C2657.95 156.981 2658.32 158.049 2657.5 161.043C2657.01 162.84 2656.63 163.836 2656.35 164.555C2655.78 166.037 2655.66 166.34 2656 170.043C2656.32 173.609 2656.23 175.493 2656.12 177.604C2656.06 178.749 2656 179.961 2656 181.543C2656 183.631 2656.32 184.212 2656.67 184.835C2657.07 185.553 2657.5 186.328 2657.5 189.543C2657.5 192.68 2658.18 194.586 2658.84 196.406C2659.43 198.068 2660 199.657 2660 202.043V213.543C2660 213.905 2659.9 216.491 2659.72 220.727C2658.71 245.735 2655.36 328.239 2657.5 350.044C2660 375.543 2663.5 491.543 2663 494.043C2662.84 494.853 2663.04 495.401 2663.31 496.112C2663.87 497.594 2664.69 499.784 2663 506.543C2660.5 516.543 2660.5 521.043 2660.5 524.043C2660.5 525.694 2661.56 547.197 2662.51 566.526C2663.29 582.309 2664 596.644 2664 597.543V617.043V636.043V650.043C2664 651.543 2651.5 659.043 2650 659.543C2648.8 659.943 2646.17 660.71 2645 661.043L2642 659.543C2641.33 659.043 2639.8 658.343 2639 659.543C2638 661.043 2633.5 665.543 2632 666.043C2631.4 666.244 2631.12 666.607 2630.74 667.1C2630.17 667.831 2629.39 668.848 2627 670.043C2625.49 670.797 2625.12 671.267 2624.87 671.586C2624.45 672.114 2624.36 672.232 2620 672.543C2616.77 672.773 2615.67 672.791 2614.59 672.94C2613.32 673.113 2612.08 673.465 2607.5 674.543C2602.4 675.743 2601.08 676.403 2599.98 676.955C2599.24 677.323 2598.6 677.643 2597 678.043C2595.46 678.428 2595.03 678.664 2594.72 678.839C2594.21 679.117 2594 679.235 2590 679.543C2579.6 678.343 2579.67 680.71 2581 682.043C2577.5 679.376 2570.1 673.243 2568.5 670.043C2564 664.793 2561.75 662.543 2560.25 661.043C2558.75 659.543 2558 658.793 2556.5 656.543C2553.5 652.043 2544.5 640.043 2542.5 638.043C2540.5 636.043 2535.5 629.043 2532.5 623.043C2531.7 621.452 2529.33 617.046 2526.08 611.04C2517.1 594.401 2501.48 565.473 2494.5 550.043C2485 529.043 2473 483.543 2472.5 481.543C2472.31 480.8 2472.54 479.711 2472.8 478.483C2473.24 476.405 2473.76 473.928 2472.5 472.043C2471.58 470.66 2471.19 469.808 2470.84 469.047C2470.43 468.157 2470.08 467.391 2469 466.043C2468.24 465.088 2467.69 464.279 2467.23 463.588C2466.47 462.47 2465.93 461.661 2465 461.043C2461.12 456.779 2460.25 455.22 2459.59 454.035C2459.4 453.692 2459.22 453.38 2459 453.043C2458.59 452.424 2457.41 451.805 2456.1 451.116C2454.23 450.135 2452.09 449.011 2451.5 447.543C2450.96 446.196 2450.42 445.429 2449.96 444.774C2449.57 444.214 2449.23 443.735 2449 443.043C2447.43 441.786 2447.04 441.714 2446.35 441.586C2445.94 441.51 2445.43 441.414 2444.5 441.043C2443.61 440.688 2443.04 440.585 2442.63 440.511C2441.87 440.375 2441.65 440.334 2441 439.043C2439.62 437.385 2439.46 436.643 2439 436.312C2438.63 436.043 2438.07 436.043 2436.5 436.043C2433.32 434.021 2432.48 433.835 2431.86 433.363C2431.4 433.018 2431.06 432.521 2430 431.043C2429.18 429.901 2428.69 429.132 2428.32 428.561C2427.56 427.383 2427.35 427.053 2426 426.043C2421.91 424.34 2421.07 423.797 2420.16 423.624C2419.74 423.543 2419.3 423.543 2418.5 423.543C2417.47 423.543 2417.03 423.713 2416.7 423.843C2416.23 424.028 2415.97 424.13 2414.5 423.543C2413.41 423.109 2413.37 422.675 2413.33 422.363C2413.29 421.957 2413.26 421.76 2411 422.043C2408.97 422.297 2408.36 422.68 2407.85 422.996C2407.36 423.301 2406.98 423.543 2405.5 423.543H2401C2398.33 421.876 2396.11 418.876 2393.89 415.876C2392.78 414.376 2391.67 412.876 2390.5 411.543C2388.81 409.61 2384.2 405.226 2379.27 400.534C2373.99 395.515 2368.34 390.143 2365.5 387.043C2364.14 385.562 2363.12 384.355 2362.26 383.34C2359.63 380.242 2358.52 378.925 2354 377.043C2350.83 375.722 2349.75 375.658 2348.7 375.596C2347.77 375.541 2346.86 375.487 2344.5 374.544C2341.4 373.304 2339.07 372.64 2336.67 371.957C2335.21 371.539 2333.71 371.113 2332 370.543C2330.4 370.011 2329.56 369.543 2328.87 369.159C2327.62 368.46 2326.87 368.043 2323 368.043C2319.86 368.043 2318.09 368.317 2316.4 368.578C2314.86 368.816 2313.39 369.044 2311 369.044C2308.06 369.044 2307.54 369.216 2306.5 369.561C2305.76 369.803 2304.77 370.13 2302.5 370.543C2299.75 371.043 2299.12 371.293 2298.5 371.543C2297.87 371.793 2297.25 372.043 2294.5 372.543C2291.1 373.161 2290.18 373.588 2288.92 374.178C2288.14 374.543 2287.22 374.97 2285.5 375.543C2281 377.043 2281 376.042 2284.5 372.543C2287.3 369.744 2288.67 367.711 2289 367.044ZM2337.53 429.733C2335.19 431.369 2330.84 434.413 2323.5 443.043C2319.62 447.603 2318.24 448.836 2317.18 450.298C2315.91 452.042 2315.08 454.112 2311 462.543C2310.19 464.222 2309.42 465.784 2308.7 467.252C2302.78 479.329 2300 485.006 2300 497.043C2300 505.143 2298.2 523.503 2296.76 538.191C2295.8 547.983 2295 556.143 2295 558.543C2295 560.602 2294.82 561.66 2294.65 562.687C2294.32 564.652 2294.02 566.504 2295 575.043C2295.75 581.543 2295.75 593.918 2295.75 605.543C2295.75 617.168 2295.75 628.043 2296.5 631.543C2297.09 634.317 2297.3 635.677 2297.51 637.118C2297.84 639.313 2298.19 641.694 2300 649.543C2303 662.543 2311.5 691.043 2313.5 694.043C2314.15 695.011 2315.21 696.918 2316.42 699.09C2318.96 703.645 2322.15 709.366 2323.5 710.043C2324.24 710.411 2324.57 710.779 2324.96 711.221C2325.64 711.981 2326.52 712.962 2330 714.543C2333.13 715.637 2335.32 716.487 2336.93 717.108C2340.46 718.473 2341.13 718.73 2342.5 718.043C2344.1 717.243 2346.17 716.71 2347 716.543H2349.5L2348.5 719.043C2347.17 720.21 2345 722.443 2347 722.043C2349.5 721.543 2357.5 714.043 2358.5 713.043C2359.5 712.043 2363.5 709.043 2366 707.543C2366.58 707.193 2367.06 706.951 2367.48 706.737C2368.87 706.031 2369.7 705.609 2372 702.543C2375 698.543 2383 672.543 2384.5 663.543C2386 654.543 2387 651.543 2389 649.543C2389.46 649.078 2389.85 648.802 2390.17 648.571C2391.23 647.808 2391.62 647.532 2392 642.543C2392.31 638.475 2392.23 637.736 2392.13 636.772C2392.07 636.196 2392 635.54 2392 634.043C2392 632.354 2392.45 628.349 2392.92 624.058C2393.58 618.185 2394.29 611.776 2394 610.043C2393.83 609.043 2393.56 608.21 2393.26 607.321C2392.67 605.543 2392 603.543 2392 599.543V590.043V578.043V562.043C2392 553.043 2389.5 536.043 2387 524.043C2385.07 514.787 2381.36 500.773 2379.3 493.011C2378.69 490.71 2378.23 488.958 2378 488.043C2377.63 486.571 2376.99 484.557 2376.33 482.474C2375.2 478.899 2374 475.123 2374 473.543C2374 472.645 2374.19 472.005 2374.37 471.415C2374.69 470.361 2374.96 469.466 2374 467.543C2373.52 466.592 2373.5 466.294 2373.48 466.076C2373.45 465.606 2373.44 465.507 2369 460.043C2365.93 456.26 2362.07 451.807 2358.6 447.793C2354.72 443.317 2351.32 439.388 2350 437.543C2349.21 436.444 2348.87 435.69 2348.6 435.095C2348.02 433.796 2347.77 433.258 2344 431.543L2338.5 429.043C2338.23 429.248 2337.91 429.473 2337.53 429.733Z" fill="white"/>
<path fill-rule="evenodd" clip-rule="evenodd" d="M2917.29 356.761C2916.23 357.01 2914.65 357.38 2912 358.043C2906 359.543 2899.5 364.543 2898 366.043C2897.29 366.75 2895.14 369.568 2892.7 372.769C2889.96 376.358 2886.85 380.429 2885 382.543C2881.5 386.543 2871 405.043 2866 417.043C2861 429.043 2838.5 493.543 2837 503.543C2836.45 507.177 2834.92 511.737 2833.16 516.957C2830.08 526.099 2826.32 537.267 2826 549.043C2825.77 557.514 2824.91 566.613 2824.05 575.766C2823.03 586.603 2822 597.514 2822 607.543C2822 626.043 2822.5 643.043 2826 656.043C2827.03 659.866 2827.93 664.554 2828.89 669.56C2831.2 681.576 2833.85 695.425 2839.5 703.543C2842.69 708.135 2844.85 711.93 2846.74 715.247C2849.58 720.234 2851.8 724.139 2856 728.043C2859.48 731.275 2862.22 734.754 2864.52 737.681C2866.85 740.641 2868.74 743.037 2870.5 744.043C2871.83 744.801 2874.88 747.21 2878.4 749.992C2884.17 754.551 2891.21 760.111 2894 761.043C2895.8 761.642 2897.91 762.161 2900.09 762.696C2903.37 763.501 2906.8 764.341 2909.5 765.543C2910.13 765.823 2910.74 766.122 2911.36 766.426C2915.17 768.294 2919.32 770.333 2930.5 769.043C2936.66 768.332 2939.79 767.509 2942.33 766.84C2945.16 766.097 2947.26 765.543 2952 765.543H2976C2982 765.543 2999 760.543 3005.5 754.043C3008.53 751.009 3012.33 749.391 3016.02 747.817C3020.25 746.018 3024.33 744.276 3027 740.543C3028.87 737.918 3030.19 735.996 3031.25 734.435C3033.03 731.832 3034.12 730.23 3036 728.043C3038.4 725.243 3046.67 718.543 3050.5 715.543L3058 693.043V687.043C3060.5 685.543 3065.8 680.243 3067 671.043C3067.62 666.275 3068.59 664.171 3069.54 662.095C3070.89 659.164 3072.21 656.287 3072.5 646.043C3072.72 638.392 3074.18 631.793 3075.71 624.865C3077.69 615.948 3079.78 606.488 3079.5 593.543C3079.09 574.488 3079.36 561.61 3079.46 556.616C3079.49 555.582 3079.5 554.886 3079.5 554.543C3079.5 552.543 3076 517.543 3065 500.043C3056.2 486.043 3039 465.543 3031.5 457.043C3027.67 456.043 3018.7 453.543 3013.5 451.543C3008.3 449.543 3002 448.71 2999.5 448.543L2982.5 442.543H2969.5L2974.5 429.043L2969.5 425.043C2971.33 422.876 2975.4 416.043 2977 406.043C2978.37 397.481 2976.69 394.08 2975.5 391.662C2974.95 390.55 2974.5 389.646 2974.5 388.543C2974.5 386.262 2975.56 382.92 2976.3 380.591C2976.7 379.346 2977 378.391 2977 378.043C2977 377.243 2978.67 376.71 2979.5 376.543C2977.5 375.876 2973.1 374.243 2971.5 373.043C2969.5 371.543 2969.5 371.043 2969.5 369.043C2969.5 368.472 2969.58 368.023 2969.65 367.638C2969.83 366.676 2969.93 366.114 2968.5 365.043C2967.74 364.473 2967.7 364.119 2967.67 363.845C2967.62 363.399 2967.6 363.163 2964.5 362.543C2962.61 362.165 2961.58 362.144 2960.86 362.13C2959.68 362.105 2959.37 362.099 2957.5 360.543C2956 359.293 2955 358.293 2954.12 357.418C2953.25 356.543 2952.5 355.793 2951.5 355.043C2950.68 354.427 2950.53 353.811 2950.4 353.264C2950.22 352.479 2950.06 351.838 2948 351.543C2944.5 351.043 2941 350.543 2938 350.543C2936.61 350.543 2936.19 350.543 2935.79 350.641C2935.32 350.756 2934.88 351.005 2933 351.543C2931.05 352.1 2930.19 352.502 2929.28 352.922C2928.57 353.256 2927.83 353.6 2926.5 354.043C2924.1 354.843 2922.17 355.71 2921.5 356.043H2920C2919.16 356.322 2918.64 356.445 2917.29 356.761ZM2931 536.542C2928.67 542.875 2923.7 556.642 2922.5 561.042C2921.81 563.584 2921.65 565.912 2921.48 568.373C2921.28 571.236 2921.08 574.277 2920 578.042C2919.43 580.054 2919.06 581.075 2918.78 581.852C2918.08 583.778 2917.93 584.21 2916.5 594.542C2915.04 605.113 2914.91 607.711 2914.76 610.862C2914.7 612.033 2914.64 613.28 2914.5 615.042C2914.18 619.253 2914.27 621.575 2914.38 624.184C2914.44 625.602 2914.5 627.105 2914.5 629.042C2914.5 630.549 2914.35 633.334 2914.17 636.614C2913.7 645.299 2913.05 657.453 2914.5 658.542C2916.5 660.042 2920 675.042 2920 676.042C2920 676.519 2920.23 676.882 2920.52 677.348C2920.84 677.86 2921.24 678.496 2921.5 679.542C2921.68 680.259 2921.79 680.913 2921.91 681.594C2922.13 682.811 2922.36 684.118 2923 686.042C2924 689.042 2928 697.042 2929.5 697.042C2929.98 697.042 2930.21 697.145 2930.44 697.252C2930.93 697.478 2931.45 697.72 2934.5 697.042C2937.1 696.465 2940.02 694.89 2943.38 693.085C2945.84 691.76 2948.54 690.311 2951.5 689.042C2958.5 686.042 2968.5 657.042 2970.5 646.042C2972.18 636.827 2973.15 629.366 2974.01 622.778C2974.18 621.502 2974.34 620.259 2974.5 619.042C2975.5 611.542 2977 601.542 2978.5 598.042C2979.79 595.025 2978.86 560.813 2978.57 550.457C2978.53 548.796 2978.5 547.749 2978.5 547.542C2978.5 546.438 2977.96 545.604 2977.07 544.245C2976.76 543.757 2976.4 543.202 2976 542.542C2974.5 540.042 2974.5 538.042 2974.5 536.542C2974.5 535.342 2972.17 535.375 2971 535.542C2971 535.709 2970.8 536.343 2970 537.543C2969.75 537.918 2969.59 538.231 2969.45 538.512C2969.03 539.356 2968.75 539.919 2966.5 541.043C2964.34 542.121 2963.22 542.683 2962.39 543.099C2962.06 543.262 2961.78 543.403 2961.5 543.543C2960.82 543.885 2959.9 543.759 2959.07 543.646C2958.68 543.593 2958.32 543.543 2958 543.543C2954.89 538.885 2952.39 539.952 2950.73 540.663C2950.25 540.868 2949.84 541.043 2949.5 541.043C2948 541.043 2945 541.043 2943 543.543C2941 546.043 2938.5 546.043 2937.5 543.543C2936.7 541.543 2935.83 538.71 2935.5 537.543L2931 536.542Z" fill="white"/>
<path fill-rule="evenodd" clip-rule="evenodd" d="M46.5 200.041L17 212.541L12.5 222.541L17 221.541L21.5 224.041L14 229.541L12.5 232.541V236.041L6.5 237.041L0 245.041L2 248.042L8 245.041L3.5 251.042L12.5 249.042V253.542L8 257.542L27.5 276.542L31 274.542L41.5 283.042L44.5 281.542V293.542L46 306.042V378.542L40 455.542L36 465.042V488.042L33.5 511.042L30 567.542L24.5 650.042L25.5 680.042L23 709.542L25.5 736.542L23 749.042L25.5 751.042L23 755.042V763.042L25.5 766.042V784.542L27.5 790.042L29 784.542C29.6667 787.708 31.2 795.042 32 799.042C32.8 803.042 34.3333 813.375 35 818.042C31 820.875 22.8 827.242 22 830.042C21.2 832.842 23 835.875 24 837.042C22.6667 838.208 19.6 840.542 18 840.542C16.4 840.542 16.3333 843.208 16.5 844.542L14 847.042L15 850.042L21 851.542L22 856.042L16.5 855.042V858.042H14C14.3333 859.375 15.4 862.342 17 863.542C18.6 864.742 20.3333 865.042 21 865.042L16.5 867.542L17 869.542C19 869.708 23.4 870.342 25 871.542C26.6 872.742 28 874.375 28.5 875.042H26C26.5 876.542 28.3 879.942 31.5 881.542C34.7 883.142 37.1667 883.542 38 883.542L42.5 888.542H37L39 892.542L47.5 897.042L54 909.042L56.5 916.042H58.5L59 906.042H62.5L68 916.042L69 924.542L77 943.542L85.5 959.042L93 956.042V952.042L87.5 943.542L91.5 944.542L93 942.042L98.5 950.542L104.5 955.042L108.5 961.042H115.5L117 957.542L121 960.042L123 965.042L122 966.542L123 967.542H138.5L151.5 974.542L163 969.042L157 962.042L161 955.042C175.5 947.208 208.6 929.742 225 922.542C241.4 915.342 263.167 909.875 272 908.042L270 910.542C262.667 913.208 247.3 919.042 244.5 921.042C241.7 923.042 239.333 926.208 238.5 927.542C241.167 927.542 248.6 926.242 257 921.042C265.4 915.842 276.833 913.542 281.5 913.042L291 910.542L287 916.542C298.667 913.208 324.8 905.842 336 903.042C345.189 900.744 375.057 896.293 412.737 890.677L412.741 890.677L412.757 890.675L412.804 890.668C432.515 887.73 454.36 884.474 476.5 881.042C477.418 880.899 478.329 880.758 479.232 880.618L481.812 880.219L482.854 880.058C542.803 870.785 568.753 866.771 590.5 844.542L590.65 844.388C613.002 821.539 613.502 821.028 614.5 815.042C615.5 809.042 617.5 797.542 619.5 793.542C621.5 789.542 623.5 784.542 622.5 775.042C622.154 771.754 621.868 767.688 621.579 763.59C621.034 755.845 620.481 747.984 619.5 745.042C618 740.542 598.5 704.042 589 691.042C584.863 685.381 583.002 681.995 580.939 678.243C578.264 673.378 575.25 667.897 566.5 656.042C562.688 650.876 557 643.564 550.411 635.093L550.41 635.091C530.212 609.122 501.548 572.269 492.5 553.042C480.78 528.137 481.937 521.832 482.929 516.428L482.971 516.202L483 516.042C484 510.542 490 500.542 509 492.042C524.2 485.242 539.333 482.542 545 482.042C546.167 484.375 549.2 489.042 552 489.042H559.5C560.667 489.542 563 491.042 563 493.042C563 495.042 568.667 497.208 571.5 498.042L578.5 495.542H592.5L596 498.042H600L604.5 493.542L623 494.542L630 487.542C631.5 487.208 634.7 485.742 635.5 482.542C636.026 480.439 636.69 479.718 637.419 478.925C638.077 478.211 638.789 477.439 639.5 475.542C640.7 472.341 643 468.875 644 467.542C645.833 466.208 649.2 463.042 648 461.042C646.8 459.042 645.833 457.208 645.5 456.542L638.5 457.542C639.667 456.708 642.1 454.042 642.5 450.042C643 445.042 641.5 439.542 640.5 438.542C640.134 438.175 640.17 437.408 640.215 436.434C640.294 434.747 640.402 432.443 638.5 430.542C637.207 429.249 636.193 427.677 635.257 426.227C634.021 424.313 632.923 422.611 631.5 422.042C630.223 421.531 629.467 419.845 628.634 417.985C627.836 416.204 626.967 414.264 625.5 413.042C623.837 411.656 620.33 410.731 617.279 409.926C614.827 409.279 612.668 408.71 612 408.042C611.856 407.898 611.684 407.717 611.481 407.503C609.567 405.486 604.848 400.514 594 395.542C582 390.042 556 386.042 545 386.042C544.37 386.042 543.729 386.04 543.076 386.038H543.071H543.066C532.316 386.01 517.956 385.973 484.5 393.042C449 400.542 425 416.042 412.5 424.542C400 433.042 391.5 444.042 385.5 453.042C379.5 462.042 379 464.542 378.5 468.042C378.373 468.932 378.246 470.212 378.102 471.657L378.102 471.659L378.101 471.661C377.68 475.894 377.118 481.551 376 483.042C374.5 485.042 373.5 486.542 373 489.042C372.5 491.542 371.5 493.542 370.5 495.042C369.7 496.242 371.167 498.542 372 499.542C372.333 503.208 373.3 511.642 374.5 516.042C374.99 517.838 375.48 520.967 376.039 524.541C377.193 531.912 378.643 541.174 381 544.542C383.8 548.542 386.5 551.208 387.5 552.042C387.667 554.042 388.5 558.642 390.5 561.042C390.715 561.3 390.923 561.543 391.128 561.784C393.31 564.34 395.231 566.59 403 583.042C409.532 596.875 421.675 613.366 437.614 635.01L437.614 635.011C442.415 641.531 447.56 648.518 453 656.042C460.789 666.814 467.205 675.224 472.667 682.383L472.672 682.391L472.673 682.391C483.685 696.826 490.816 706.173 497.5 719.542C500.329 725.199 503.078 730.297 505.543 734.868C511.792 746.456 516.217 754.663 515.5 760.042C514.5 767.542 506.5 775.542 488.5 784.542C473.878 791.853 447.378 795.534 429.638 797.999L429.637 797.999L429.636 797.999L429.634 797.999L429.631 798C425.536 798.569 421.907 799.073 419 799.542C403.5 802.042 367.5 806.542 350.5 808.542C343.575 809.356 337.479 810.503 332.315 811.475L332.313 811.475C324.801 812.888 319.259 813.93 316 813.042C313.25 812.292 313.625 811.167 314.062 809.854C314.5 808.542 315 807.042 312.5 805.542C308.951 803.412 287.262 804.306 270.325 805.004C263.401 805.289 257.272 805.542 253.5 805.542C249.091 805.542 244.509 805.311 240.008 805.085H240.007H240.006C231.238 804.645 222.777 804.22 216.5 805.542C208.9 807.142 193 810.875 186 812.542H174C169.667 814.375 157.8 818.042 145 818.042H114C112.5 814.375 109.5 803.642 109.5 790.042V714.042C111 697.042 114 661.742 114 656.542C114 651.997 116.689 651.607 120.186 651.101H120.186C121.691 650.883 123.346 650.643 125 650.042C129.4 648.442 160.833 646.042 176 645.042L171.5 644.042C179 643.542 195.7 641.642 202.5 638.042C207.626 635.328 215.661 634.796 223.865 634.253C229.264 633.896 234.737 633.534 239.5 632.542C247.815 630.809 248.478 629.702 247.532 629.22C250.565 630.192 256.364 631.301 259 629.042C261.8 626.642 269.167 624.042 272.5 623.042L275.5 620.542L270.5 618.542L282.5 612.042V609.042C287.5 607.542 298.3 604.542 301.5 604.542C305.5 604.542 309.5 604.542 309.5 602.542C309.5 600.942 307.833 600.542 307 600.542C312.5 600.542 324.7 599.842 329.5 597.042C334.3 594.242 343.5 590.542 347.5 589.042L332.5 587.542L343 581.042C338.5 580.708 329.8 579.642 331 578.042C332.2 576.442 340.5 574.375 344.5 573.542H332.5C331.495 573.542 330.416 573.616 329.462 573.682C326.143 573.912 324.344 574.037 332.5 570.542C337.183 568.534 340.872 567.82 343.61 567.29C347.011 566.632 348.946 566.257 349.5 564.042C350.3 560.842 347.5 558.708 346 558.042C345 558.708 342.1 560.042 338.5 560.042H318C309.2 560.042 290.667 561.708 282.5 562.542C286.167 561.042 293.9 557.542 295.5 555.542C297.1 553.542 292.5 552.375 290 552.042H282.5H270.5C269.645 552.042 269.064 552.772 268.523 553.453C267.799 554.365 267.145 555.187 266 554.042C264.4 552.442 259 552.042 256.5 552.042H226C223.595 552.042 220.106 552.764 215.75 553.667C212.86 554.266 209.589 554.943 206 555.542C197 557.042 182 558.542 179 557.042C176.908 555.996 172.629 556.408 169.043 556.754C167.486 556.904 166.06 557.042 165 557.042H148C146 557.042 130.167 559.042 122.5 560.042C124.333 529.375 128.8 455.242 132 404.042C135.2 352.842 137.333 306.708 138 290.042L142 270.042L144 266.042V262.042C144.167 260.708 147.3 257.442 158.5 255.042C165.028 253.643 182.429 250.613 200.461 247.473L200.462 247.473L200.463 247.473C221.1 243.879 242.562 240.142 249.5 238.541C259.9 236.141 264.5 232.541 265.5 231.041H258.5C259.167 229.208 262.3 224.842 269.5 222.041C276.7 219.241 285.833 215.208 289.5 213.541C306.833 208.375 342.4 197.741 346 196.541C349.6 195.341 351.833 191.041 352.5 189.041H346C347 187.708 350.4 184.741 356 183.541C357.525 183.215 359.05 182.912 360.534 182.617C365.86 181.558 370.654 180.606 373 179.041C375.4 177.441 375.667 175.375 375.5 174.541L364 177.041H356L370.5 160.541L367 158.541L362.5 156.541C357.667 156.541 346.6 156.941 341 158.541C335.4 160.141 327 161.875 323.5 162.541C324.167 161.041 326.7 157.741 331.5 156.541C336.3 155.341 337.5 152.708 337.5 151.541C334.167 151.041 326.7 150.341 323.5 151.541C320.3 152.741 315.833 153.042 314 153.043L297 156.043C295.333 155.043 290.8 153.343 286 154.543C281.2 155.743 271.333 158.043 267 159.043L265.5 154.543L211.5 167.543H205C200.6 167.543 193.5 170.21 190.5 171.543L164 173.043L126 177.043L114 178.543L110.5 177.043H104.5V178.543L101 177.043H96C93.6667 176.543 88.3 175.843 85.5 177.043C82.7 178.243 81 179.876 80.5 180.543L76 178.543C75.3333 179.71 73.1 182.043 69.5 182.043C65.9 182.043 62.6667 181.043 61.5 180.543C60.5 181.043 58.2 183.043 57 187.043C55.8 191.043 56.5 193.043 57 193.543H49L46.5 200.041ZM844 481.043L834.5 474.043C833.5 468.043 830 453.443 824 443.043C818 432.643 815.833 429.71 815.5 429.543C812.5 435.043 806.1 446.843 804.5 450.043C802.9 453.243 800.5 456.043 799.5 457.043C796.333 466.376 788.6 492.243 783 521.043C776 557.043 775.5 588.543 787.5 621.543C799.5 654.543 822 674.043 830.5 678.543C832.589 679.649 834.466 680.966 836.444 682.354C842.515 686.613 849.53 691.535 866.5 693.043C884.5 694.643 896.333 692.043 900 690.543C902 691.876 908.8 693.243 920 688.043C928.4 684.143 936.8 680.783 943.04 678.287C947.2 676.623 950.4 675.343 952 674.543C953.072 674.007 953.964 673.471 954.792 672.974C957.055 671.615 958.84 670.543 962.5 670.543C965.915 670.543 969.096 668.91 972.045 667.398L972.045 667.397L972.046 667.397C973.414 666.695 974.732 666.018 976 665.543C977.631 664.931 978.764 663.904 979.906 662.868C981.564 661.363 983.243 659.839 986.5 659.543C990.346 659.193 993.458 657.377 997.033 655.291C998.571 654.393 1000.2 653.445 1002 652.543C1008 649.543 1023.5 641.543 1029 638.543C1033.4 636.143 1038.17 634.543 1040 634.043L1045 631.043C1043.33 623.376 1040 604.943 1040 592.543C1040 590.512 1039.99 587.94 1039.98 584.938L1039.98 584.511L1039.98 584.455V584.453C1039.91 564.402 1039.78 525.971 1041.5 500.543C1043.5 471.043 1051.5 437.043 1054 430.043C1056 424.443 1058.83 419.71 1060 418.043V421.043C1066.33 410.876 1080.5 388.943 1086.5 382.543C1092.5 376.143 1102.33 369.21 1106.5 366.543L1098.5 377.043C1102.67 375.876 1111.6 373.443 1114 373.043C1115.09 372.861 1116.51 372.415 1118.24 371.873C1121.26 370.924 1125.23 369.679 1130 369.043C1132.19 368.751 1133.74 368.289 1135.11 367.88C1138.44 366.888 1140.71 366.21 1148.5 369.043C1151.06 369.972 1153.64 370.767 1156.21 371.558C1164.71 374.172 1173.09 376.75 1180 384.043C1183.86 388.113 1188.08 392.09 1192.08 395.859C1197.42 400.887 1202.36 405.542 1205.5 409.543C1209.9 415.143 1213 418.876 1214 420.043L1217.5 424.543C1219.83 423.876 1225.1 422.543 1227.5 422.543C1229.9 422.543 1232.5 423.876 1233.5 424.543H1242C1243.5 425.71 1246.9 428.743 1248.5 431.543C1250.1 434.343 1252.17 437.376 1253 438.543H1259L1263.5 442.543H1267L1272 449.043L1279 454.543V459.043C1281.33 459.71 1286.4 463.343 1288 472.543C1290 484.043 1292 491.543 1295.5 502.043C1295.87 503.14 1296.33 504.635 1296.92 506.489L1296.93 506.539L1296.93 506.542C1301.94 522.486 1315.22 564.814 1342.5 609.543C1366.9 649.543 1390.33 674.21 1399 681.543C1413 677.876 1441.3 670.543 1442.5 670.543C1444 670.543 1452 664.043 1454.5 661.543C1455.04 661.001 1455.51 660.435 1455.95 659.917C1457.5 658.047 1458.54 656.802 1460.5 659.543C1462.81 662.778 1465.12 661.314 1468.62 659.1C1468.9 658.919 1469.2 658.732 1469.5 658.543C1473.2 656.228 1478.62 653.913 1482.18 652.392L1482.19 652.391L1482.19 652.39L1482.61 652.208L1483 652.043C1485.8 650.843 1488.5 647.543 1489.5 646.043C1490 648.543 1491.9 653.243 1495.5 652.043C1497.67 651.32 1499.6 649.67 1501.25 648.264C1503.02 646.752 1504.46 645.525 1505.5 646.043C1507.1 646.843 1508.5 648.71 1509 649.543L1513 646.043C1513.33 647.876 1513.5 652.343 1511.5 655.543C1509.5 658.743 1509 661.876 1509 663.043C1510.5 662.043 1514 660.343 1516 661.543C1518.5 663.043 1517.5 666.043 1516 669.543C1514.8 672.343 1512.5 679.376 1511.5 682.543C1512.33 680.376 1514.8 676.143 1518 676.543C1522 677.043 1520 680.543 1518 683.543C1516.4 685.943 1514 689.21 1513 690.543C1512.83 692.376 1511.8 696.743 1509 699.543C1507.28 701.26 1502.92 704.661 1498.74 707.917L1498.74 707.922L1498.73 707.923L1498.73 707.924L1498.73 707.925C1494.4 711.304 1490.26 714.525 1489.5 715.543C1488 717.543 1488.5 719.543 1492.5 717.543C1493.47 717.056 1494.33 716.598 1495.1 716.185C1497.5 714.901 1499.11 714.043 1501 714.043C1502.13 714.043 1503.06 712.808 1504.11 711.412C1505.38 709.731 1506.81 707.816 1509 707.543C1512.2 707.143 1513 708.376 1513 709.043C1511.83 710.543 1509 713.943 1507 715.543C1505 717.143 1501.5 720.876 1500 722.543C1500.67 721.876 1502.7 720.543 1505.5 720.543C1508.3 720.543 1509.67 721.876 1510 722.543L1500 728.043C1498.83 730.376 1495.1 735.443 1489.5 737.043C1483.9 738.643 1480.5 739.71 1479.5 740.043C1477.17 742.376 1470.3 747.443 1461.5 749.043C1452.7 750.643 1441.5 751.376 1437 751.543L1440 754.543C1437.83 757.043 1428.8 761.743 1410 760.543C1391.2 759.343 1371.5 752.376 1364 749.043H1356.5C1349.67 746.376 1332.7 738.643 1319.5 729.043C1306.3 719.443 1285.67 698.376 1277 689.043L1268.5 707.543C1268 714.21 1265.1 731.243 1257.5 746.043C1248 764.543 1241.5 776.043 1226 783.543C1210.5 791.043 1202.5 794.043 1188.5 794.543C1177.3 794.943 1156.17 787.376 1147 783.543V787.543C1135 783.876 1109 774.543 1101 766.543C1091 756.543 1075 738.543 1069.5 729.043C1065.1 721.443 1056.33 699.21 1052.5 689.043L1042 695.043C1042.5 695.376 1042.1 697.043 1036.5 701.043C1030.9 705.043 1013.83 716.71 1006 722.043L1009 723.043L1014 722.043C1011 724.71 1002.1 731.043 990.5 735.043C978.9 739.043 969 741.71 965.5 742.543C964 744.21 959.3 748.343 952.5 751.543C945.7 754.743 939 758.21 936.5 759.543C941.5 759.71 952.9 760.143 958.5 760.543C964.1 760.943 966.833 760.71 967.5 760.543C965.167 761.876 957.8 764.843 947 766.043C936.2 767.243 921.167 766.543 915 766.043L896 770.543C890.667 768.543 879.3 764.543 876.5 764.543C873.7 764.543 868.667 763.876 866.5 763.543L864.5 767.043C870.167 768.71 883.6 772.143 892 772.543C900.4 772.943 908.833 771.376 912 770.543C912.167 771.21 911.8 772.543 909 772.543C905.5 772.543 904.5 772.543 901.5 774.543C901.279 774.69 901.069 774.837 900.867 774.983C900.688 775.111 900.515 775.238 900.345 775.363C898.089 777.02 896.392 778.266 889.5 776.543C883.1 774.943 875.5 773.21 872.5 772.543V775.543C869.167 773.376 862 769.043 860 769.043C858.801 769.043 858.752 768.928 858.585 768.532C858.403 768.103 858.081 767.344 856 766.043C852.8 764.043 848.333 763.543 846.5 763.543H840L843.5 767.043C835.833 764.876 819 759.643 813 756.043C807 752.443 803.167 749.876 802 749.043C800.667 749.21 796.2 748.843 789 746.043C780 742.543 776.5 738.543 774 735.543C772.925 734.253 770 733.24 766.499 732.028C761.859 730.421 756.205 728.463 752.5 725.043C750.774 723.45 748.836 721.715 746.762 719.858L746.76 719.857C741.024 714.722 734.242 708.652 728 702.043C721.2 694.843 721.833 691.376 723 690.543C719.667 687.543 712.1 680.143 708.5 674.543C704.9 668.943 699.667 659.876 697.5 656.043V659.543L694 656.043C692.667 653.543 689.8 647.743 689 644.543C688.702 643.349 688.492 642.423 688.292 641.537C687.822 639.456 687.403 637.603 686 633.043C684 626.543 681.5 617.043 681 607.543C680.782 603.402 680.184 600.021 679.537 596.364C678.7 591.633 677.782 586.44 677.5 578.543C677.412 576.074 677.308 573.683 677.205 571.315L677.205 571.298L677.204 571.28V571.28V571.279C676.724 560.231 676.266 549.676 677.5 534.043C679 515.043 682 496.045 685.5 478.543C688.3 464.542 699 430.709 704 415.543L702 410.043C707.5 397.876 719.2 372.743 722 369.543C723.551 367.771 724.12 366.489 724.664 365.264C725.349 363.723 725.994 362.271 728.5 360.043C731.236 357.611 732.678 354.625 734.062 351.759C734.955 349.91 735.824 348.111 737 346.543C739.4 343.343 753.333 337.21 760 334.543C764 332.376 772.4 327.843 774 327.043C775.6 326.243 781.667 323.376 784.5 322.043H794L797.5 319.543C801.833 319.376 812.6 319.643 821 322.043C831.5 325.043 866.5 339.543 887 361.043C907.5 382.543 924 406.043 935 437.043C943.8 461.843 949.333 485.376 951 494.043V510.543L947 512.543V519.043L950.5 523.043V529.543L948.5 530.543L942 524.043L941 529.543L936 535.043L930 532.543C929.5 534.876 928.1 539.643 926.5 540.043C924.5 540.543 920.5 540.543 920 538.043C919.6 536.043 919.5 535.21 919.5 535.043C917.667 537.376 913.9 542.143 913.5 542.543C913.1 542.943 909.667 542.043 908 541.543C907.667 544.043 906.7 549.343 905.5 550.543C904 552.043 900.5 552.543 900 551.543C899.6 550.743 897.167 548.543 896 547.543L898 545.043L894.5 542.543L893.5 545.043L890 543.043C888.333 543.043 884.8 543.143 884 543.543C883 544.043 879.5 545.043 872 540.043C870.216 538.854 868.404 537.778 866.658 536.741C861.062 533.418 856.143 530.497 855 525.543C853.8 520.343 847.167 493.71 844 481.043ZM1120 496.043C1110.5 547.543 1109 632.043 1121.5 668.543C1133.56 703.753 1145.62 712.442 1151.39 716.603C1151.6 716.755 1151.81 716.901 1152 717.043C1156.4 720.243 1163.5 718.376 1166.5 717.043L1164.5 722.043C1168.17 720.876 1175.8 717.743 1177 714.543C1178.2 711.343 1180.17 710.543 1181 710.543C1184.17 707.543 1191.2 699.443 1194 691.043C1197.5 680.543 1205 658.043 1206 653.543C1206.8 649.943 1209 648.043 1210 647.543L1211.5 611.543L1208.5 604.043C1209.33 604.709 1210.5 599.843 1208.5 575.043C1207.96 568.356 1207.51 562.018 1207.09 556.004C1205.55 534.137 1204.31 516.552 1200 502.043C1197.31 492.984 1194.97 487.402 1193.23 483.242C1191.42 478.906 1190.26 476.115 1190 472.543C1189.6 466.943 1188.83 463.543 1188.5 462.543C1184.17 455.876 1174 441.443 1168 437.043C1162 432.643 1159.83 432.209 1159.5 432.543C1159.83 431.543 1159.6 429.643 1156 430.043C1152 431.21 1143.4 435.043 1141 441.043C1138.6 447.043 1132.67 457.876 1130 462.543C1125.99 471.131 1122.29 483.636 1120 496.043Z" fill="white"/>
<path d="M1194.5 219.043C1190.5 223.543 1142 252.543 1138.5 253.043C1131.7 256.436 1132.33 262.79 1133.5 265.543C1132.67 266.21 1130.8 268.243 1130 271.043C1129 274.543 1133.5 273.543 1136.5 273.543C1139.5 273.543 1140.5 269.543 1143 277.043C1145 283.043 1142.17 286.543 1140.5 287.543L1143 290.543L1142 297.043L1148.5 295.043C1149.33 298.043 1151.7 304.043 1154.5 304.043C1158 304.043 1158.5 306.543 1161.5 306.543C1163.9 306.543 1168.83 304.876 1171 304.043L1173.5 306.543H1178.5L1181 311.043L1197.5 304.043L1191.5 309.043L1181 317.543C1181.33 318.21 1182.6 319.443 1185 319.043C1187.4 318.643 1191.67 316.21 1193.5 315.043C1193.83 315.543 1195.1 316.743 1197.5 317.543C1200.5 318.543 1202 316.543 1207 314.043C1212 311.543 1262 285.043 1291.5 265.543C1321 246.043 1336 237.543 1369 207.043C1395.4 182.643 1418.33 158.543 1426.5 149.543C1427.17 149.71 1429.6 149.243 1434 146.043C1439.5 142.043 1446.5 133.043 1456 124.043C1465.5 115.043 1491.5 87.543 1497 83.543C1501.4 80.343 1502.5 76.8763 1502.5 75.543L1511.5 67.043C1511.33 65.3763 1511.1 61.143 1511.5 57.543C1511.9 53.943 1510 50.043 1509 48.543V43.043L1502.5 26.5433L1491.5 20.543C1490.67 18.0431 1487.8 11.9432 1483 7.54297C1478.2 3.14274 1471.67 3.04306 1469 3.54325C1466.83 2.54325 1461.4 0.443253 1457 0.0432526C1451.5 -0.456747 1441.5 3.54325 1437.5 3.54325C1433.5 3.54325 1424 7.54325 1419.5 13.0433C1415.9 17.4433 1404.67 23.8766 1399.5 26.5433C1388.83 36.3766 1361.2 63.0433 1336 91.0433C1304.5 126.043 1247 179.043 1224.5 194.543C1202 210.043 1198.5 214.543 1194.5 219.043Z" fill="white"/>
<path d="M1557.5 388.043L1562 344.043C1562 342.21 1562.6 337.543 1565 333.543C1568 328.543 1571.5 323.543 1577.5 318.543C1583.5 313.543 1583 315.543 1587.5 313.543C1592 311.543 1590 313.043 1605 313.543C1620 314.043 1613.5 311.543 1618.5 312.043C1623.5 312.543 1629.5 318.543 1632 320.043C1634 321.243 1639.5 322.876 1642 323.543C1643.33 325.543 1646.3 329.943 1647.5 331.543C1648.7 333.143 1652.33 336.21 1654 337.543C1654.33 338.71 1655.5 342.043 1657.5 346.043C1659.5 350.043 1663.67 352.71 1665.5 353.543L1664 357.543C1663.83 373.876 1663.6 409.443 1664 421.043C1664.5 435.543 1663 426.043 1660.5 434.043C1658.5 440.443 1659.67 452.043 1660.5 457.043L1658 462.543L1656.5 484.543L1656 522.043C1656.5 521.543 1658.1 518.843 1660.5 512.043C1663.5 503.543 1664 500.543 1666 493.043C1668 485.543 1687 434.043 1689.5 431.043C1692 428.043 1692.5 427.043 1693 421.043C1693.5 415.043 1698 408.543 1700.5 404.543C1703 400.543 1702.5 399.543 1703.5 395.543C1704.5 391.543 1707 386.043 1710 381.043C1712.4 377.043 1718.33 372.043 1721 370.043C1720.83 368.876 1720.6 366.443 1721 366.043C1721.5 365.543 1724.5 360.543 1728 359.043C1731.5 357.543 1733 356.543 1736 355.543C1738.4 354.743 1740.33 352.876 1741 352.043C1743.17 351.21 1748.7 349.343 1753.5 348.543C1758.3 347.743 1765.5 348.21 1768.5 348.543H1777.5C1778.67 348.043 1781.4 347.343 1783 348.543C1784.6 349.743 1782.33 352.376 1781 353.543C1782.33 353.376 1785.6 353.143 1788 353.543C1791 354.043 1791.5 357.043 1793.5 359.043C1795.1 360.643 1796.83 360.71 1797.5 360.543L1807.5 370.043C1809.67 372.043 1814.8 376.943 1818 380.543C1821.2 384.143 1829.67 395.71 1833.5 401.043L1832 406.543L1836 419.543C1836.33 420.543 1837.3 423.143 1838.5 425.543C1840 428.543 1841 434.543 1842 437.543C1843 440.543 1841.5 440.543 1840 443.543C1838.8 445.943 1842.5 452.876 1844.5 456.043C1844.33 457.71 1844.3 462.243 1845.5 467.043C1847 473.043 1850 490.043 1851.5 496.543C1853 503.043 1852.5 501.043 1851 503.043C1849.5 505.043 1852.5 507.043 1853.5 510.043C1854.5 513.043 1854.5 521.043 1854.5 524.543C1854.5 528.043 1854.5 529.043 1856.5 533.043C1858.5 537.043 1856.5 541.043 1856.5 546.543C1856.5 550.943 1855.17 553.043 1854.5 553.543V568.043C1855.17 568.71 1856.1 570.543 1854.5 572.543C1852.5 575.043 1854 578.543 1855.5 580.043C1857 581.543 1856.5 582.543 1855.5 584.043C1854.5 585.543 1853 586.543 1853 589.043C1853 591.543 1852.5 593.043 1850.5 594.543C1848.5 596.043 1850.5 609.043 1850.5 612.543C1850.5 616.043 1850.5 618.543 1848.5 619.543C1846.9 620.343 1848.5 627.21 1849.5 630.543L1850.5 633.543L1848.5 638.043L1852.5 641.543L1850.5 643.043L1852.5 644.543L1850.5 645.543V648.543L1854 651.043L1850.5 652.043L1850 662.543L1853 665.043C1852.5 668.543 1851.8 676.643 1853 681.043C1854.5 686.543 1853.5 691.543 1851.5 692.543C1849.9 693.343 1847.5 687.21 1846.5 684.043H1844.5L1845.5 675.543C1846.47 677.072 1848.26 680.084 1848.82 681.738C1848.37 678.824 1847.17 669.388 1846.5 664.043L1844.5 668.043L1844 673.043L1840.5 673.543L1843 680.043V693.043L1844 699.543V703.543C1844 705.043 1844 705.543 1845.5 707.043C1847 708.543 1847.5 711.543 1846.5 712.543C1845.7 713.343 1843.83 712.21 1843 711.543L1844.5 718.543C1844.33 719.376 1844.5 721.043 1846.5 721.043C1849 721.043 1848.5 723.043 1848.5 724.543C1848.5 726.043 1844.5 726.043 1846.5 728.043C1848.5 730.043 1848.5 731.543 1847.5 733.043C1846.5 734.543 1847 735.043 1848.5 739.543C1850 744.043 1849 744.543 1847 742.543C1845.4 740.943 1843.67 735.21 1843 732.543C1843 737.376 1843.2 747.343 1844 748.543C1845 750.043 1844 750.543 1844 751.543V757.543C1844 760.043 1845 760.043 1845.5 762.543C1846 765.043 1845 768.043 1845 772.043C1845 775.243 1845.67 778.043 1846 779.043C1845.33 777.876 1843.7 775.043 1842.5 773.043C1841 770.543 1841 767.543 1841 765.543V762.043C1841 761.243 1839 754.043 1838 750.543C1837.67 750.876 1836.4 751.343 1834 750.543C1831.6 749.743 1830.33 744.876 1830 742.543C1830 744.71 1829.7 749.343 1828.5 750.543C1827 752.043 1826.5 750.543 1825 746.043C1823.5 741.543 1822 727.043 1821.5 725.543C1821 724.043 1819.5 721.543 1817.5 719.543C1815.5 717.543 1814 713.543 1814 709.543C1814 705.543 1811 704.043 1809.5 702.543C1808 701.043 1808 707.043 1806.5 707.043C1805 707.043 1804.5 705.543 1805.5 702.543C1806.3 700.143 1804.5 696.876 1803.5 695.543C1802.67 698.21 1800.8 703.943 1800 705.543C1799 707.543 1798 708.543 1795.5 707.043C1793.5 705.843 1794.33 712.876 1795 716.543C1793.83 714.376 1791.6 709.443 1792 707.043C1792.5 704.043 1791.5 702.043 1790.5 700.543C1789.5 699.043 1788 696.043 1788 693.043C1788 690.043 1787 688.043 1785 685.543C1783.4 683.543 1781.67 673.043 1781 668.043V682.543C1780.17 675.21 1778.3 659.643 1777.5 656.043C1776.5 651.543 1775 651.543 1772.5 649.043C1770 646.543 1771.5 641.543 1770.5 633.043C1769.5 624.543 1768 611.543 1767.5 602.043C1767 592.543 1766 583.043 1764 578.543C1762 574.043 1761.5 558.543 1760 541.043C1758.8 527.043 1755.83 519.21 1754.5 517.043L1752.5 518.543C1753 517.543 1754.1 514.843 1754.5 512.043C1755 508.543 1753.5 509.043 1752.5 510.543C1751.5 512.043 1750 514.043 1750.5 517.043C1751 520.043 1749.5 521.543 1748 523.543C1746.5 525.543 1748 527.043 1746.5 531.043C1745.3 534.243 1742 535.71 1740.5 536.043C1741.33 536.21 1743.1 536.943 1743.5 538.543C1744 540.543 1741 544.043 1740.5 547.043C1740 550.043 1739.5 551.543 1736.5 553.043C1734.67 553.958 1735.05 551.44 1735.78 549.085C1734.2 553.598 1732 560.329 1732 562.043C1732 564.543 1734.5 560.543 1733.5 558.543C1732.7 556.943 1735.17 556.21 1736.5 556.043L1738 573.043L1734.5 571.543C1733.83 572.376 1732.4 574.643 1732 577.043C1731.6 579.443 1731.17 585.376 1731 588.043L1727 591.043L1730 593.043L1727 597.043L1730 600.543C1728.67 602.21 1726 605.743 1726 606.543V611.543L1723 615.543C1722.5 618.043 1720.4 626.143 1716 638.543C1711.6 650.943 1710.17 659.71 1710 662.543L1714.5 653.543C1714.67 654.21 1714.9 656.543 1714.5 660.543C1714 665.543 1709.5 677.543 1705 688.043C1700.5 698.543 1695.5 715.043 1692.5 721.543C1689.5 728.043 1685.5 740.543 1681.5 752.043C1677.5 763.543 1668 772.543 1665.5 776.043C1663 779.543 1669 778.543 1668 782.043C1667 785.543 1662 783.543 1657.5 784.543C1653.9 785.343 1650.33 790.21 1649 792.543C1648.67 792.876 1648 793.643 1648 794.043C1648 794.443 1646.67 796.876 1646 798.043V803.543L1648 806.043L1646 810.043L1645 811.043L1643 809.043L1641 805.043L1637.5 804.043L1637 807.043H1639L1641 811.043L1637 812.043L1636 816.043L1631.5 807.043L1628.5 809.043L1631.5 815.043L1624 816.043L1617.5 809.043V812.043H1613.5L1607.5 807.043L1602 803.543L1600.5 807.043H1595.5L1591 799.543H1584.5V797.043L1576 789.043L1574 791.543H1571V789.043L1567 783.543L1562.5 773.543L1565 764.543L1559.5 761.043L1558.5 753.543C1556.33 748.043 1552 733.643 1552 720.043C1552 706.443 1550 673.043 1549 658.043L1552 577.543L1554 477.043L1557.5 388.043Z" fill="white"/>
<path fill-rule="evenodd" clip-rule="evenodd" d="M2001 21.044V31.044L2006 44.044L2001 53.544L2003.5 93.044L2001 98.044L2006 101.544V169.544L2009 172.544C2008.17 194.377 2007 241.344 2009 254.544C2011 267.744 2013.17 285.044 2014 292.044L2009 300.544C2012.17 308.044 2018.5 325.344 2018.5 334.544C2018.5 346.044 2020.5 376.544 2023.5 385.044C2025.9 391.844 2027.83 399.877 2028.5 403.044C2027.83 408.044 2026.9 419.744 2028.5 426.544C2030.1 433.344 2031.5 438.044 2032 439.544C2030.67 441.877 2028.8 447.444 2032 451.044C2035.2 454.644 2036.33 459.211 2036.5 461.044L2039.5 482.544L2034 486.544C2028.83 488.044 2017.6 491.744 2014 494.544C2010.4 497.344 2006.83 500.377 2005.5 501.544C2003.67 500.377 1999.1 498.744 1995.5 501.544C1991.9 504.344 1990.33 510.044 1990 512.544C1986.83 512.211 1979.5 512.944 1975.5 518.544C1972.61 522.595 1970.72 525.641 1968.67 528.942C1967.18 531.346 1965.61 533.884 1963.5 537.044C1962.18 539.023 1960.03 541.664 1957.34 544.958C1949.84 554.144 1938.2 568.406 1929 587.544C1919 608.344 1914.17 619.877 1913 623.044L1915 626.544C1913.33 628.711 1910.3 635.844 1911.5 647.044C1912.7 658.244 1914.33 664.377 1915 666.044C1915.5 673.711 1917.3 690.644 1920.5 697.044C1923.07 702.19 1926.27 705.06 1929.15 707.651C1930.75 709.088 1932.25 710.439 1933.5 712.044C1936.3 715.644 1948.67 730.544 1954.5 737.544L1964 743.044L1985.5 761.544H1989.5C1995.5 763.877 2009.9 769.944 2019.5 775.544C2021.24 776.562 2022.81 777.495 2024.24 778.347C2032.63 783.353 2036.31 785.544 2044 785.544C2051.2 785.544 2054.33 783.211 2055 782.044C2060.83 783.877 2073.9 787.144 2079.5 785.544C2086.5 783.544 2090 782.544 2090 788.544C2090 791.203 2091.28 797.498 2092.66 804.292C2094.39 812.826 2096.28 822.147 2096 826.044C2095.64 831.084 2097.61 834.309 2098.93 836.467C2099.45 837.306 2099.86 837.984 2100 838.544C2100.17 839.21 2100.17 839.988 2100.17 840.914C2100.17 842.766 2100.17 845.21 2101.5 848.544C2103.5 853.544 2107.5 856.044 2107.5 851.544V840.044C2107.5 837.644 2106.5 829.711 2106 826.044C2107.17 832.044 2109.8 844.944 2111 848.544C2112.06 851.734 2111.62 853.919 2111.27 855.634C2111.13 856.338 2111 856.962 2111 857.544C2111 858.783 2111.96 860.214 2112.81 861.48C2113.33 862.258 2113.81 862.973 2114 863.544C2114.38 864.675 2114.19 869.502 2114.07 872.451C2114.03 873.413 2114 874.175 2114 874.544C2114 875.24 2114.65 876.367 2115.34 877.575C2116.14 878.969 2117 880.472 2117 881.544V887.544C2117 890.735 2118.35 892.243 2119.67 893.728C2120.63 894.802 2121.58 895.864 2122 897.544C2122.37 899.01 2122.67 901.014 2122.97 903.063C2123.5 906.603 2124.05 910.277 2125 911.544C2126.5 913.544 2129 917.044 2129.5 919.044C2129.8 920.23 2129.74 921.064 2129.65 922.486C2129.58 923.461 2129.5 924.713 2129.5 926.544C2129.5 928.231 2129.08 929.497 2128.71 930.604C2128.09 932.45 2127.63 933.856 2129.5 936.044C2132.5 939.544 2136 945.544 2136 951.544C2136 956.433 2139.65 962.981 2141.82 966.862C2142.31 967.744 2142.72 968.488 2143 969.044C2143.17 969.385 2143.36 969.758 2143.57 970.165C2145.18 973.34 2147.84 978.567 2150.5 986.544C2151.73 990.23 2152.62 993.665 2153.35 996.47C2154.4 1000.51 2155.11 1003.25 2156 1003.54C2157.5 1004.04 2159 1005.04 2160 1006.54C2160.43 1007.19 2160.03 1007.83 2159.63 1008.47C2159.1 1009.33 2158.57 1010.19 2160 1011.04C2163.09 1011.97 2164.08 1011.75 2165.45 1011.45C2166.29 1011.26 2167.28 1011.04 2169 1011.04C2173.29 1011.04 2176.67 1013.31 2178.27 1014.39C2178.35 1014.45 2178.43 1014.5 2178.5 1014.54C2179.06 1014.92 2180.04 1015.22 2181.05 1015.53C2182.74 1016.06 2184.5 1016.6 2184.5 1017.54V1022.04C2192.5 1027.04 2195 1031.04 2197.5 1036.04C2199.5 1040.04 2204.67 1042.71 2207 1043.54C2207.17 1041.38 2206.5 1036.44 2202.5 1034.04C2197.5 1031.04 2200 1028.54 2202.5 1028.04C2203.53 1027.84 2204.64 1028.14 2205.7 1028.43C2207.22 1028.84 2208.62 1029.22 2209.5 1028.04C2210.7 1026.44 2211.67 1023.38 2212 1022.04L2209 1017.04L2208.5 1011.04L2203.5 1015.54C2202.17 1013.54 2199.6 1009.54 2200 1009.54C2200.4 1009.54 2204.17 1006.54 2206 1005.04L2204.5 1003.54L2202.5 1006.54V1002.54C2202.67 1001.54 2203.3 999.544 2204.5 999.544C2206 999.544 2209.5 1000.54 2210 1003.54C2210.26 1005.1 2209.98 1005.45 2209.72 1005.77C2209.48 1006.06 2209.26 1006.34 2209.5 1007.54C2209.58 1007.94 2209.64 1008.29 2209.7 1008.61C2210.02 1010.33 2210.16 1011.04 2211 1011.04C2211.38 1011.04 2211.76 1010.82 2212.09 1010.64C2212.62 1010.34 2213 1010.12 2213 1011.04C2213 1011.54 2212.94 1012.04 2212.89 1012.54C2212.78 1013.54 2212.67 1014.54 2213 1015.54C2213.15 1016.01 2213.21 1016.43 2213.27 1016.79C2213.38 1017.62 2213.46 1018.2 2214.5 1018.54C2214.9 1018.68 2215.3 1018.78 2215.68 1018.87C2216.7 1019.12 2217.5 1019.31 2217.5 1020.04C2217.5 1020.36 2217.45 1020.73 2217.4 1021.11C2217.28 1021.94 2217.16 1022.86 2217.5 1023.54C2218 1024.54 2218.5 1025.54 2219 1024.54C2219.15 1024.23 2219.26 1023.88 2219.37 1023.53C2219.6 1022.76 2219.81 1022.04 2220.5 1022.04C2220.7 1022.04 2220.91 1022.02 2221.13 1022C2222.03 1021.92 2223 1021.84 2223 1023.04C2223 1023.71 2222.8 1024.08 2222.67 1024.33C2222.51 1024.64 2222.44 1024.76 2223 1025.04C2224 1025.54 2225 1026.04 2226.5 1026.04C2227.7 1026.04 2230.33 1022.38 2231.5 1020.54C2232.67 1022.54 2236.3 1026.54 2241.5 1026.54C2246.7 1026.54 2248.33 1023.88 2248.5 1022.54C2248.17 1021.71 2247.8 1019.94 2249 1019.54C2249.45 1019.39 2250.27 1019.52 2251.26 1019.66C2253.55 1020.01 2256.75 1020.49 2258.5 1018.04C2260.5 1015.24 2260.33 1011.21 2260 1009.54C2259.83 1009.71 2258.8 1010.14 2256 1010.54C2252.5 1011.04 2251.5 1011.04 2251.5 1008.04C2251.5 1006.39 2251.8 1005.04 2252.08 1003.83C2252.3 1002.84 2252.5 1001.94 2252.5 1001.04C2252.5 999.044 2252 998.544 2250.5 997.044C2250.06 996.604 2249.71 996.294 2249.41 996.036C2248.71 995.415 2248.35 995.104 2248 994.044C2247.8 993.444 2248 993.244 2248.18 993.06C2248.46 992.784 2248.7 992.544 2247.5 991.044C2246.3 989.544 2246 989.304 2245.52 988.92C2245.2 988.664 2244.8 988.344 2244 987.544C2242 985.544 2241.5 984.544 2241 983.044C2240.5 981.544 2240 980.544 2239 981.544C2238.56 981.988 2238.11 982.038 2237.67 982.087C2237.11 982.149 2236.56 982.21 2236 983.044C2235.66 983.554 2235.49 984.006 2235.36 984.362C2235.11 985.051 2234.99 985.374 2234 985.044C2233.25 984.794 2232.88 984.669 2232.63 984.419C2232.38 984.169 2232.25 983.794 2232 983.044C2231.82 982.51 2231.77 982.356 2231.76 982.199C2231.73 981.915 2231.82 981.619 2231.5 979.044C2231.25 977.044 2231.25 976.044 2231.25 975.294C2231.25 974.544 2231.25 974.044 2231 973.044C2230.81 972.274 2230.84 971.726 2230.86 971.287C2230.9 970.585 2230.92 970.159 2230 969.544C2229.33 969.096 2229.06 968.849 2228.74 968.712C2228.35 968.544 2227.88 968.544 2226.5 968.544C2225.69 968.544 2225.2 968.648 2224.85 968.722C2224.11 968.877 2224.02 968.898 2223 967.544C2221.5 965.544 2218 952.544 2218 951.544C2218 950.544 2215.5 936.044 2214.5 934.544C2214.15 934.022 2213.92 933.257 2213.71 932.545C2213.32 931.213 2212.98 930.066 2212 931.044C2211.25 931.794 2211.25 932.044 2211.25 932.294C2211.25 932.544 2211.25 932.794 2210.5 933.544C2210.11 933.939 2209.78 934.334 2209.51 934.656C2208.77 935.556 2208.5 935.886 2208.5 934.044C2208.5 933.145 2208.37 932.634 2208.27 932.255C2208.1 931.58 2208.04 931.325 2209 930.044C2209.43 929.466 2209.78 929.097 2210.05 928.815C2210.71 928.124 2210.86 927.966 2210.5 926.544C2210.18 925.249 2210.06 924.792 2209.89 924.767C2209.79 924.753 2209.68 924.868 2209.5 925.044C2209.35 925.196 2209.29 925.439 2209.24 925.65C2209.12 926.132 2209.04 926.437 2208 925.044C2205.28 923.139 2204.34 923.159 2203.8 923.171C2203.35 923.18 2203.18 923.184 2202.5 922.044C2202.18 921.503 2201.9 921.079 2201.67 920.726C2200.83 919.45 2200.61 919.111 2201 917.544C2201.33 916.237 2201.23 915.571 2201.12 914.848C2201.06 914.464 2201 914.064 2201 913.544C2201 912.935 2201.08 912.903 2201.08 912.879C2201.08 912.844 2200.89 912.827 2200 911.044C2199.35 909.749 2198.8 909.386 2198.38 909.11C2197.82 908.746 2197.5 908.534 2197.5 906.544C2197.5 905.285 2197.63 904.673 2197.73 904.219C2197.9 903.411 2197.96 903.105 2197 900.544C2196.1 898.154 2195.92 897.192 2195.71 896.058C2195.56 895.294 2195.4 894.453 2195 893.044C2194 889.544 2190.5 871.044 2189.5 859.544C2189.39 858.33 2189.29 857.182 2189.2 856.099C2188.4 846.922 2188 842.333 2188 840.544C2188 838.544 2189.5 836.544 2189.5 837.544C2189.5 838.071 2189.78 838.46 2190.11 838.929C2190.42 839.35 2190.76 839.835 2191 840.544C2192.22 842.068 2191.95 842.849 2191.78 843.339C2191.68 843.653 2191.61 843.849 2192 844.044C2193 844.544 2194.5 843.044 2194 841.544C2193.8 840.936 2193.76 840.328 2193.72 839.688C2193.66 838.746 2193.59 837.734 2193 836.544C2192.75 836.052 2192.54 835.682 2192.35 835.35C2191.75 834.333 2191.38 833.684 2191 831.044C2190.6 828.244 2190.5 825.877 2190.5 825.044C2190.33 823.877 2189.9 821.044 2189.5 819.044C2189.31 818.078 2189.26 817.187 2189.22 816.399C2189.16 815.148 2189.11 814.157 2188.5 813.544C2188.12 813.162 2187.95 812.853 2187.82 812.589C2187.59 812.162 2187.43 811.853 2186.5 811.544C2186 811.377 2185.67 811.377 2185.37 811.377C2184.78 811.377 2184.33 811.377 2183 810.044C2181 808.044 2180.5 807.544 2180.5 806.544V801.044C2180.5 799.538 2180.69 798.865 2180.82 798.388C2180.99 797.756 2181.07 797.468 2180.5 796.044C2180 794.794 2179.75 794.044 2179.56 793.481C2179.38 792.919 2179.25 792.544 2179 792.044C2178.82 791.683 2178.57 791.583 2178.33 791.484C2177.91 791.31 2177.5 791.142 2177.5 789.544C2177.5 788.512 2177.41 787.82 2177.35 787.294C2177.26 786.546 2177.21 786.131 2177.5 785.544C2177.6 785.353 2177.67 785.18 2177.74 785.033C2178.02 784.408 2178.1 784.235 2178.5 785.044C2178.66 785.358 2178.81 785.573 2178.96 785.767C2179.26 786.192 2179.5 786.515 2179.5 787.544C2179.5 789.044 2179.5 789.544 2180 791.044C2180.19 791.617 2180.31 792.044 2180.41 792.409C2180.57 792.999 2180.69 793.426 2181 794.044C2181.25 794.544 2181.25 794.919 2181.25 795.294C2181.25 795.669 2181.25 796.044 2181.5 796.544C2181.65 796.837 2181.71 797.044 2181.76 797.215C2181.88 797.63 2181.94 797.837 2183 798.544C2183.92 799.16 2184.09 799.396 2184.31 799.487C2184.45 799.544 2184.62 799.544 2185 799.544C2185.43 799.544 2185.68 799.544 2185.82 799.422C2186 799.263 2186 798.895 2186 798.044C2186 797.434 2186 797.073 2185.93 796.724C2185.83 796.214 2185.59 795.731 2185 794.544C2184.56 793.661 2184.41 793.363 2184.34 793.047C2184.25 792.647 2184.28 792.219 2184 790.544C2183.82 789.462 2183.57 788.38 2183.33 787.322C2182.91 785.445 2182.5 783.642 2182.5 782.044C2182.5 779.544 2182.5 779.044 2182 777.044C2181.79 776.223 2181.51 775.991 2181.3 775.831C2181.02 775.601 2180.91 775.517 2181.5 774.044C2182.5 771.544 2183 771.044 2184 770.044C2184.35 769.69 2184.46 769.461 2184.55 769.246C2184.73 768.856 2184.89 768.512 2186.5 767.544C2187.39 766.948 2188.11 766.53 2188.64 766.223C2189.87 765.499 2190.05 765.395 2189 765.044C2187.5 764.544 2187 764.544 2186 764.544C2185.62 764.544 2185.31 764.617 2185.05 764.679C2184.62 764.78 2184.31 764.853 2184 764.544C2183.5 764.044 2183 763.544 2184 762.544C2185 761.544 2184.5 760.544 2184 760.544C2183.5 760.544 2182.5 760.544 2182.5 760.044C2182.5 759.856 2182.29 759.88 2182.08 759.903C2181.73 759.942 2181.38 759.981 2182 759.044C2182.29 758.604 2182.5 758.251 2182.67 757.958C2183.09 757.251 2183.29 756.897 2184 756.544C2185 756.044 2189 754.044 2189 753.044C2189 752.566 2189 752.316 2188.89 752.131C2188.77 751.93 2188.52 751.805 2188 751.544C2187.61 751.349 2187.07 751.382 2186.67 751.406C2186.05 751.444 2185.78 751.46 2187 750.544C2189 749.044 2194 744.544 2194.5 743.044C2194.8 742.131 2196.22 741.589 2197.84 740.966C2198.89 740.565 2200.02 740.131 2201 739.544C2202.13 738.867 2203.97 738.088 2205.83 737.299C2208.1 736.34 2210.4 735.367 2211.5 734.544C2212.73 733.623 2214.33 732.702 2215.74 731.897C2216.62 731.39 2217.42 730.93 2218 730.544C2219.03 729.86 2219.82 728.944 2220.53 728.112C2220.87 727.727 2221.18 727.36 2221.5 727.044C2222.5 726.044 2223 724.044 2222.5 723.544C2222.35 723.389 2222.09 723.282 2221.85 723.179C2221.31 722.948 2220.81 722.734 2221.5 722.044C2221.88 721.662 2221.46 721.426 2221.1 721.224C2220.52 720.898 2220.1 720.662 2223.5 720.044C2226.93 719.421 2227.44 719.186 2228.43 718.734C2229.03 718.461 2229.8 718.109 2231.5 717.544C2236 716.044 2237.5 715.044 2237.5 713.544C2237.5 712.044 2236.5 711.544 2235.5 711.544H2232.5C2231.26 711.544 2230.88 711.544 2230.51 711.604C2230.13 711.666 2229.76 711.791 2228.5 712.044C2226 712.544 2225.5 712.544 2224.5 712.544C2224.3 712.544 2224.06 712.564 2223.82 712.584C2222.86 712.664 2221.9 712.744 2223.5 711.544C2225.5 710.044 2228 708.544 2229 708.044C2230 707.544 2231.5 706.544 2232.5 704.544C2233.5 702.544 2233.5 701.544 2233 700.544C2232.8 700.146 2232.36 699.985 2231.97 699.842C2231.38 699.625 2230.9 699.447 2231.5 698.544C2233.5 696.144 2235 694.211 2235.5 693.544C2233.67 692.377 2229.7 689.944 2228.5 689.544C2227.57 689.235 2227.03 689.117 2226.27 688.954C2225.81 688.853 2225.26 688.735 2224.5 688.544C2223.97 687.487 2224.56 686.709 2224.94 686.211C2225.27 685.766 2225.44 685.544 2224.5 685.544H2218C2217.85 685.544 2217.59 685.688 2217.35 685.827C2216.81 686.137 2216.31 686.425 2217 685.044C2217.2 684.634 2217.41 684.267 2217.59 683.946C2218.28 682.697 2218.59 682.146 2217 682.544C2216 682.794 2215.75 682.919 2215.5 683.044C2215.25 683.169 2215 683.294 2214 683.544C2212.59 683.897 2212.42 684.001 2212.09 684.208C2211.96 684.294 2211.79 684.397 2211.5 684.544C2211 684.794 2210.88 684.919 2210.75 685.044C2210.63 685.169 2210.5 685.294 2210 685.544C2209 686.044 2208 686.544 2207.5 685.044C2207.15 683.301 2207.29 682.53 2207.4 681.884C2207.45 681.604 2207.5 681.347 2207.5 681.044C2207.5 680.718 2207.66 680.445 2207.79 680.226C2208.05 679.771 2208.19 679.544 2206.5 679.544C2204.25 680.294 2203.38 680.294 2202.81 680.294C2202.25 680.294 2202 680.294 2201 681.044C2199.85 681.91 2199.69 681.943 2199.38 682.008C2199.15 682.056 2198.85 682.121 2198 682.544C2194 683.544 2192 684.044 2187 682.544C2182.9 681.315 2180.15 682.1 2179.01 682.423C2178.76 682.495 2178.59 682.544 2178.5 682.544C2178.1 682.544 2175 683.211 2173.5 683.544C2172.5 683.544 2170.2 683.844 2169 685.044C2168.64 685.403 2168.34 685.761 2168.06 686.093C2167.18 687.147 2166.52 687.924 2165 687.544C2163.09 686.273 2161.9 685.809 2161.13 685.507C2160.08 685.097 2159.79 684.985 2159.5 683.544C2159.27 682.4 2159.15 681.989 2158.98 681.449C2158.79 680.808 2158.54 679.985 2158 677.544C2157.56 675.579 2157.13 674.663 2156.77 673.921C2156.32 672.964 2156 672.298 2156 670.044C2156 668.353 2155.64 667.466 2155.38 666.817C2155.02 665.931 2154.85 665.487 2156 664.044C2156.86 662.181 2157.56 660.892 2158.09 659.909C2159.41 657.461 2159.71 656.897 2159 654.044C2158.5 652.044 2158.5 651.294 2158.5 650.731C2158.5 650.169 2158.5 649.794 2158 648.544C2157.58 647.503 2156.99 646.982 2156.34 646.404C2155.42 645.593 2154.38 644.67 2153.5 642.044C2152.69 639.628 2152.32 638.797 2152.15 637.927C2152 637.176 2152 636.396 2152 634.544V627.544C2152 626.276 2151.73 625.901 2151.54 625.627C2151.27 625.252 2151.13 625.065 2152 623.044C2152.54 621.785 2153.08 620.915 2153.48 620.269C2154.19 619.12 2154.46 618.684 2153.5 618.044C2152.95 617.676 2152.6 617.579 2152.33 617.504C2151.86 617.374 2151.63 617.309 2151 616.044C2150.67 615.387 2150.34 615.162 2150.05 614.961C2149.45 614.549 2149 614.239 2149 610.544C2149 605.044 2149 602.544 2150.5 598.544C2150.67 596.476 2150.9 595.061 2151.07 594.034C2151.39 592.08 2151.48 591.527 2150.5 590.544C2149 589.044 2148.5 586.044 2149.5 585.044C2150.5 584.044 2151.5 582.544 2152 581.544C2152.18 581.192 2152.48 581.026 2152.83 580.827C2153.49 580.462 2154.35 579.987 2155 578.044C2155.42 576.796 2155.49 576.067 2155.53 575.57C2155.6 574.871 2155.62 574.628 2156.5 574.044C2157.1 573.647 2157.61 573.565 2158.11 573.486C2158.87 573.365 2159.6 573.25 2160.5 572.044C2162 570.044 2162.5 569.044 2163 567.044C2163.07 566.758 2163.14 566.462 2163.21 566.166C2163.64 564.391 2164.07 562.615 2164.5 563.044C2164.75 563.294 2164.75 563.544 2164.75 564.044C2164.75 564.544 2164.75 565.294 2165 566.544C2165.18 567.468 2165.23 568.187 2165.27 568.752C2165.34 569.715 2165.37 570.229 2166 570.544C2166.8 570.944 2167.67 570.711 2168 570.544C2168.33 570.544 2169 570.044 2169 568.044C2169 566.923 2168.8 566.406 2168.62 565.95C2168.4 565.389 2168.22 564.923 2168.5 563.544C2168.83 561.898 2168.51 561.119 2168.25 560.493C2168.12 560.169 2168 559.885 2168 559.544C2168 559.227 2167.95 558.911 2167.9 558.578C2167.78 557.86 2167.66 557.069 2168 556.044C2168.19 555.471 2168.45 555.117 2168.68 554.814C2169.05 554.325 2169.31 553.971 2169 553.044C2168.78 552.377 2168.16 551.315 2167.54 550.254C2166.77 548.927 2166 547.599 2166 547.044C2166 546.044 2160.5 538.044 2156.5 533.544C2152.5 529.044 2147 523.044 2144.5 521.044C2143.25 520.044 2142.38 519.044 2141.5 518.044C2140.63 517.044 2139.75 516.044 2138.5 515.044C2137.88 514.544 2137.38 514.169 2136.97 513.864C2135.75 512.95 2135.38 512.669 2135 511.544C2134.84 511.073 2134.69 510.996 2134.54 510.927C2134.24 510.776 2134 510.661 2134 506.544C2134 503.959 2133.72 500.075 2133.44 496.212C2133.08 491.106 2132.72 486.036 2133 484.044C2133.27 482.169 2133.25 481.873 2133.17 480.695C2133.11 479.675 2133 477.992 2133 474.044C2133 469.233 2132.68 466.985 2132.4 465.033C2132.19 463.537 2132 462.214 2132 460.044C2132 455.044 2130.5 443.544 2130 440.544C2129.72 438.879 2129.6 436.753 2129.46 434.335C2129.35 432.396 2129.22 430.269 2129 428.044C2128.79 425.901 2128.48 424.217 2128.2 422.678C2127.83 420.626 2127.5 418.83 2127.5 416.544C2127.5 414.331 2126.43 410.282 2125.39 406.344C2124.55 403.163 2123.72 400.055 2123.5 398.044C2123.43 397.435 2123.36 396.854 2123.3 396.295C2122.88 392.714 2122.57 390.003 2123 386.544C2123.5 382.544 2121 363.044 2120 359.044C2119.64 357.612 2119.48 357.398 2119.37 357.254C2119.17 356.995 2119.14 356.965 2118.5 350.544C2118 345.544 2117.63 342.169 2117.31 339.356C2117 336.544 2116.75 334.294 2116.5 331.544C2116.25 328.794 2116.25 327.294 2116.25 325.919C2116.25 324.544 2116.25 323.294 2116 321.044C2115.89 320.046 2115.38 315.996 2114.67 310.233C2112.15 290.017 2107 248.713 2107 244.044V217.044C2107 203.038 2104.94 187.742 2103.77 179.123C2103.32 175.742 2103 173.389 2103 172.544C2103 170.144 2105.67 166.211 2107 164.544L2103 135.544V85.544L2100.5 60.044C2101.83 57.544 2103.7 51.144 2100.5 45.544C2097.62 40.5019 2095 39.0916 2093.57 38.3234C2093.01 38.0251 2092.64 37.8237 2092.5 37.544C2092.4 37.3528 2092.46 36.9972 2092.52 36.5225C2092.81 34.5142 2093.4 30.3749 2084.5 27.544C2073.5 24.044 2056.5 21.044 2050.5 21.044H2031.5H2020C2017.7 21.044 2016.01 20.8692 2014.75 20.7388C2013 20.5574 2012.08 20.4621 2011.5 21.044C2010.5 22.044 2009.5 23.0448 2009 24.5448C2006 22.5448 2006 22.0448 2006 20.5448C2006 19.2839 2004.59 19.4363 2003.84 19.5169C2003.7 19.5321 2003.58 19.5448 2003.5 19.5448C2003.43 19.5448 2003.34 19.5359 2003.23 19.5252C2002.5 19.4558 2001 19.3126 2001 21.044ZM2055 595.543C2048.33 601.376 2034.6 613.743 2033 616.543C2032 618.293 2031 620.293 2030 622.293C2029 624.293 2028 626.293 2027 628.043C2026.46 628.981 2026 629.775 2025.57 630.512C2024.39 632.526 2023.46 634.115 2022 637.043C2021.46 638.115 2021.04 638.864 2020.68 639.492C2019.7 641.206 2019.23 642.017 2018.5 646.043C2017.5 651.543 2016.5 657.043 2016.5 663.043C2016.5 664.957 2016.19 666.107 2015.94 667.063C2015.4 669.103 2015.09 670.254 2018.5 676.043C2020.39 679.25 2021.42 681.532 2022.22 683.292C2023.53 686.195 2024.2 687.675 2027 689.543C2028.63 690.629 2029.67 691.651 2030.59 692.558C2032.22 694.157 2033.49 695.405 2037 696.043C2039.89 696.569 2042.65 697.648 2045.7 698.844C2048.45 699.922 2051.44 701.095 2055 702.043C2062.5 704.043 2068.5 705.543 2070.5 705.043C2071.81 704.716 2071.4 700.106 2070.97 695.137C2070.74 692.513 2070.5 689.789 2070.5 687.543C2070.5 684.293 2070.25 683.043 2069.88 681.168C2069.5 679.293 2069 676.793 2068.5 671.043C2068.22 667.793 2068.13 665.821 2068.07 664.302C2067.91 660.449 2067.87 659.521 2065 648.043C2064.46 645.873 2063.96 643.896 2063.51 642.087C2060.61 630.56 2059.43 625.865 2059 621.543C2058.8 619.519 2059.41 618.396 2059.96 617.412C2060.75 615.965 2061.38 614.817 2059 611.543C2056.77 608.483 2055.79 607.899 2055.35 607.037C2055 606.348 2055 605.483 2055 603.043V595.543Z" fill="white"/>
</svg>
