<svg width="131" height="60" viewBox="0 0 131 60" fill="none" xmlns="http://www.w3.org/2000/svg">
<path fill-rule="evenodd" clip-rule="evenodd" d="M15.1567 4.37654C15.9807 4.37654 16.6982 3.92118 17.0715 3.2484L17.0713 3.28146C17.0713 4.64107 18.1735 5.74326 19.5331 5.74326C20.0773 5.74326 20.5802 5.56671 20.9877 5.26777C20.9313 5.50892 20.9014 5.76029 20.9014 6.01864C20.9014 7.83147 22.371 9.30105 24.1838 9.30105C25.9966 9.30105 27.4662 7.83147 27.4662 6.01864C27.4662 4.20582 25.9966 2.73624 24.1838 2.73624C23.3336 2.73624 22.5588 3.05953 21.9758 3.5899C21.9884 3.48886 21.9949 3.38592 21.9949 3.28146C21.9949 1.92184 20.8927 0.819653 19.5331 0.819653C18.5803 0.819653 17.7539 1.36092 17.3447 2.15275C17.3257 0.960581 16.3534 0 15.1567 0C14.0959 0 13.2114 0.754866 13.011 1.75675C12.6515 1.04024 11.9101 0.548467 11.0539 0.548467C9.84535 0.548467 8.86563 1.52819 8.86563 2.73674C8.86563 2.84009 8.87279 2.94178 8.88666 3.04132C8.56008 2.84751 8.17877 2.73624 7.77148 2.73624C6.56293 2.73624 5.58321 3.71596 5.58321 4.92451C5.58321 6.13306 6.56293 7.11278 7.77148 7.11278C8.98003 7.11278 9.95975 6.13306 9.95975 4.92451C9.95975 4.82115 9.95258 4.71947 9.93872 4.61992C10.2653 4.81373 10.6466 4.92501 11.0539 4.92501C12.1147 4.92501 12.9993 4.17014 13.1996 3.16825C13.5591 3.88476 14.3005 4.37654 15.1567 4.37654ZM4.76166 20.5144C4.62489 22.8394 6.53963 25.7115 8.59113 27.3527C9.09262 27.6719 10.5606 28.2556 12.4206 28.0368C14.7457 27.7633 15.703 25.9853 15.9766 24.7544C16.1 24.1991 16.0286 23.5883 15.9506 22.9217C15.8558 22.1106 15.7514 21.217 15.9766 20.2411C16.2294 19.1456 17.0532 18.777 17.9684 18.3676C18.5386 18.1125 19.1443 17.8415 19.6693 17.369C21.037 16.1381 22.1311 14.3601 21.9943 11.488C21.8576 8.61589 18.9855 6.42742 17.481 5.88035C15.9766 5.33328 10.2324 4.23915 7.49703 9.02599C5.0671 13.2784 4.9037 17.207 4.80162 19.6612C4.78879 19.9696 4.77693 20.2548 4.76166 20.5144ZM8.29371 35.9633C9.00632 35.548 9.39708 34.7921 9.37995 34.022L9.39707 34.0519C10.0817 35.2266 11.5889 35.6239 12.7636 34.9393C13.2333 34.6655 13.5787 34.2603 13.7803 33.7974C13.8529 34.0331 13.9534 34.2643 14.083 34.4866C14.9958 36.0529 17.0054 36.5826 18.5717 35.6698C20.1379 34.757 20.6676 32.7473 19.7548 31.1811C18.842 29.6148 16.8324 29.0851 15.2661 29.9979C14.5319 30.4258 14.0254 31.0948 13.7886 31.8462C13.7489 31.7534 13.7031 31.6621 13.651 31.5727C12.9664 30.398 11.4591 30.0007 10.2844 30.6853C9.46048 31.1655 9.01901 32.0505 9.06509 32.9415C8.44874 31.9201 7.12434 31.5793 6.09002 32.1821C5.17388 32.716 4.78969 33.8128 5.12027 34.779C4.44885 34.3407 3.56048 34.289 2.82055 34.7202C1.77638 35.3288 1.42323 36.6685 2.03177 37.7127C2.08397 37.8023 2.14156 37.8868 2.20387 37.966C1.82414 37.963 1.43867 38.0589 1.08678 38.2639C0.0426185 38.8725 -0.31053 40.2122 0.298002 41.2564C0.906534 42.3006 2.24631 42.6537 3.29047 42.0452C4.33464 41.4367 4.68778 40.0969 4.07925 39.0527C4.02705 38.9631 3.96946 38.8787 3.90714 38.7994C4.28688 38.8024 4.67234 38.7066 5.02424 38.5015C5.94037 37.9676 6.32456 36.8707 5.99398 35.9045C6.6654 36.3428 7.55377 36.3945 8.29371 35.9633ZM7.43946 55.1394C8.492 57.2171 11.5925 58.7344 14.1913 59.1194C14.7853 59.1426 16.3475 58.9078 17.8444 57.7821C19.7154 56.3751 19.6473 54.3569 19.2639 53.1557C19.0909 52.6139 18.7216 52.122 18.3187 51.5854C17.8283 50.9323 17.2881 50.2129 16.9913 49.2563C16.6581 48.1826 17.1843 47.4493 17.7689 46.6347C18.1331 46.1272 18.5199 45.5881 18.7356 44.9155C19.2974 43.1633 19.3475 41.0763 17.7832 38.6637C16.2188 36.2511 12.6354 35.8065 11.0602 36.0914C9.48489 36.3762 3.97108 38.3233 4.01808 43.8363C4.05984 48.7338 5.8968 52.2103 7.04437 54.3821C7.1886 54.6551 7.32194 54.9074 7.43946 55.1394ZM33.3611 22.8124C33.3439 23.5825 33.7347 24.3384 34.4473 24.7537C35.1872 25.1849 36.0756 25.1332 36.747 24.6949C36.4164 25.6611 36.8006 26.758 37.7168 27.2919C38.0687 27.497 38.4541 27.5928 38.8339 27.5898C38.7715 27.6691 38.714 27.7536 38.6618 27.8431C38.0532 28.8873 38.4064 30.2271 39.4505 30.8356C40.4947 31.4441 41.8345 31.091 42.443 30.0468C43.0515 29.0027 42.6984 27.6629 41.6542 27.0543C41.3023 26.8493 40.9169 26.7534 40.5371 26.7564C40.5995 26.6772 40.657 26.5927 40.7092 26.5031C41.3178 25.459 40.9646 24.1192 39.9205 23.5106C39.1805 23.0794 38.2922 23.1311 37.6207 23.5694C37.9513 22.6032 37.5671 21.5064 36.651 20.9725C35.6167 20.3697 34.2923 20.7105 33.6759 21.7319C33.722 20.8409 33.2805 19.956 32.4566 19.4758C31.2819 18.7912 29.7746 19.1885 29.09 20.3631C29.0379 20.4525 28.9921 20.5438 28.9524 20.6366C28.7156 19.8852 28.2091 19.2163 27.4749 18.7883C25.9086 17.8755 23.899 18.4053 22.9862 19.9715C22.0734 21.5377 22.6031 23.5474 24.1693 24.4602C25.7356 25.373 27.7452 24.8433 28.658 23.277C28.7876 23.0547 28.8881 22.8235 28.9607 22.5878C29.1623 23.0507 29.5077 23.4559 29.9774 23.7297C31.1521 24.4143 32.6593 24.017 33.3439 22.8423L33.3611 22.8124ZM28.5489 47.9111C31.1477 47.5261 34.2482 46.0088 35.3008 43.9311C35.4183 43.6991 35.5516 43.4468 35.6958 43.1738C36.8434 41.002 38.6804 37.5255 38.7221 32.628C38.7691 27.115 33.2553 25.1679 31.6801 24.8831C30.1048 24.5982 26.5214 25.0428 24.9571 27.4554C23.3927 29.868 23.4428 31.9551 24.0046 33.7072C24.2203 34.3798 24.6072 34.9189 24.9714 35.4264C25.5559 36.241 26.0821 36.9743 25.7489 38.048C25.4521 39.0046 24.9119 39.724 24.4216 40.3771C24.0186 40.9137 23.6493 41.4056 23.4764 41.9474C23.0929 43.1486 23.0248 45.1668 24.8959 46.5738C26.3927 47.6995 27.9549 47.9344 28.5489 47.9111ZM56.7331 26.9447L55.6389 3.69428C55.9807 3.61114 56.3705 3.50292 56.7916 3.386C58.4484 2.92593 60.5902 2.33123 62.2037 2.60015C63.8449 2.87368 65.2126 3.69428 66.17 4.92519C67.1273 6.15609 67.6744 7.93406 67.2641 10.6694C66.9359 12.8577 64.8479 14.8636 63.8449 15.593C64.4376 16.0489 65.7323 17.0974 66.17 17.6445C66.717 18.3283 68.2215 22.9784 65.8964 24.8931C64.0364 26.4249 59.0125 26.8991 56.7331 26.9447ZM59.1949 24.9541L58.9213 4.02882C60.289 3.07145 64.6168 3.48163 65.3494 6.08032C66.082 8.67901 66.0332 10.3201 64.6655 12.7819C63.5714 14.7513 61.2008 15.3348 60.1522 15.3804V16.3378C60.6537 16.2467 61.8208 16.119 62.4773 16.3378C63.2979 16.6114 63.9817 17.0217 64.9391 18.2526C65.8964 19.4835 65.8964 22.4923 64.6655 23.86C63.6808 24.9541 60.6081 25.0453 59.1949 24.9541ZM68.2216 24.7556L73.9658 8.61708H76.7011L79.71 25.0291H75.607L74.9231 17.9172H71.7775L68.9054 25.0291H68.0848L68.2216 24.7556ZM72.0513 17.0952L74.2396 10.5304L74.9234 17.0952H72.0513ZM83.8129 3.00925C83.129 3.00925 81.4878 3.28279 81.4878 4.24016L82.9923 24.0714C84.132 24.3449 86.6576 24.892 87.6423 24.892C88.8732 24.892 90.464 23.51 90.6512 22.2934C90.9247 20.5154 90.9247 15.455 90.6512 13.9506C90.4555 12.8741 89.2835 11.352 88.0526 11.352C87.0679 11.352 85.8188 12.4462 85.3173 12.9932C85.1805 10.6226 84.9344 5.63518 85.0438 4.65046C85.1805 3.41955 84.4967 3.00925 83.8129 3.00925ZM86.2746 22.2929C85.8643 21.062 85.3719 16.2753 85.7275 14.4972C86.001 13.1295 86.9584 12.7193 87.9158 12.5825C88.8732 12.4457 89.8305 13.5399 89.9673 14.4972C90.0659 15.1876 90.0223 17.7982 89.9903 19.7135L89.9903 19.7154C89.9779 20.4553 89.9673 21.0913 89.9673 21.4723C89.9673 22.84 88.8732 23.6606 88.1893 23.7974C87.5055 23.9341 86.6849 23.5238 86.2746 22.2929ZM108.979 15.731H100.226C100.271 16.5972 100.663 18.7672 101.867 20.5178C103.371 22.7061 104.739 22.7061 105.286 22.7061C105.833 22.7061 106.927 22.2958 107.611 21.7487C108.158 21.3111 108.751 20.7458 108.979 20.5178C108.659 21.7943 107.474 24.3473 105.286 24.3473C102.551 24.3473 100.773 22.9796 99.8152 21.7487C98.8579 20.5178 97.627 18.4663 97.627 15.731C97.627 12.9957 99.6785 9.02942 104.192 9.02942C108.705 9.02942 108.979 15.1839 108.979 15.731ZM100.362 14.5005H107.885C107.748 13.1329 106.845 10.3975 104.329 10.3975C101.812 10.3975 100.636 13.1329 100.362 14.5005ZM118.279 12.3086H117.321C117.412 11.2601 117.048 9.163 114.859 9.163C112.124 9.163 111.987 12.3086 113.765 13.9498C114.075 14.236 114.41 14.5222 114.752 14.8143L114.752 14.8143L114.753 14.8151L114.753 14.8153C116.371 16.1975 118.142 17.7098 118.142 19.9676C118.142 22.7029 116.09 24.2074 114.312 24.2074C112.534 24.2074 110.209 23.1132 110.209 20.9249C110.209 19.9676 111.121 18.7367 111.577 18.7367C110.848 20.1043 110.264 22.8123 113.765 22.7029C118.142 22.5661 115.954 17.2322 113.902 15.591C111.851 13.9498 110.209 12.3086 110.209 10.2571C110.209 8.20563 112.398 6.97472 113.902 6.97472C115.406 6.97472 118.005 8.06886 118.279 12.3086ZM89.0107 50.7431L89.421 49.5122L88.7371 27.3559C89.6033 27.0368 91.4451 26.3986 91.8828 26.3986C91.9544 26.3986 92.0214 26.3892 92.0873 26.3799C92.5249 26.3186 92.9183 26.2635 94.3446 28.9971C95.6575 31.5136 98.5387 39.7105 99.8152 43.4944V36.109C99.8152 34.3584 99.2682 28.1765 98.9946 25.3044H100.362C100.499 26.3074 100.773 28.9971 100.773 31.7325V50.7431H99.8152C99.2682 48.5548 97.9552 43.2756 97.0799 39.6649C96.2046 36.0543 94.1622 31.8692 93.2504 30.228V50.7431H89.0107ZM70.0001 33.1001C70.3192 31.4589 70.1642 28.1492 66.9912 28.0398C63.0249 27.903 60.5631 34.331 60.5631 39.9385C60.5631 45.5459 64.5294 51.8372 66.9912 51.8372C69.453 51.8372 70.5471 50.0592 70.5471 47.1871V43.4944H72.8722V42.2635H66.9912V43.4944H69.3162V47.4607C69.3162 49.7857 68.3589 50.6063 67.4015 50.196L67.3763 50.1852C66.3971 49.7662 63.7088 48.6159 63.7088 39.9385C63.7088 31.1854 65.0764 29.4074 66.9912 29.4074C68.9059 29.4074 69.3162 31.0486 69.3162 31.7325C69.3162 32.2795 69.1339 32.8722 69.0427 33.1001H70.0001ZM48.5277 28.3133V45.5459C48.5277 48.418 51.263 51.8372 54.9557 51.8372C58.6484 51.8372 58.9219 47.871 58.9219 45.5459C58.9219 43.6859 59.1955 33.2825 59.3322 28.3133H57.9646C58.0102 34.2399 57.9919 46.4759 57.5543 48.0077C57.0072 49.9225 55.7763 50.4695 54.9557 50.196C54.1351 49.9225 51.8101 48.1445 51.6733 43.4944C51.5639 39.7744 51.3542 31.8237 51.263 28.3133H48.5277ZM101.73 29.2707C101.958 32.6898 102.441 40.3214 102.551 43.4944C102.627 45.7025 102.703 47.19 102.755 48.2165L102.755 48.2168L102.755 48.2172C102.797 49.0341 102.824 49.5588 102.824 49.9225C102.824 50.7431 103.781 51.2901 105.696 51.1534C105.744 51.15 105.795 51.1465 105.85 51.1428L105.85 51.1428C108.014 50.9963 115.824 50.4678 116.09 39.6649C116.364 28.5868 106.243 27.7662 105.696 27.7662C105.613 27.7662 105.458 27.7439 105.258 27.7149C104.143 27.5536 101.594 27.1847 101.73 29.2707ZM104.876 29.2706C105.195 32.2339 105.86 38.8443 105.97 41.5796C106.079 44.3149 106.015 48.0076 105.97 49.5121C109.07 49.5121 115.215 47.652 114.996 40.2119C114.723 30.9118 108.021 28.7235 104.876 29.2706ZM118.416 50.6039H117.185C117.823 48.051 119.291 42.2065 120.057 39.2523C120.823 36.2981 123.203 29.1771 124.297 25.9859H126.348C126.896 29.3139 128.126 37.1461 128.674 41.8509C129.221 46.5556 130.178 49.8289 130.588 50.8775C130.406 51.0142 129.85 51.2878 129.084 51.2878C128.126 51.2878 127.443 51.151 127.032 50.3304C126.704 49.6739 125.893 44.4038 125.528 41.8509H120.468L118.416 50.6039ZM120.468 40.8924L124.023 29.1304L125.528 40.8924H120.468ZM74.2396 51.4251H75.4705L77.522 42.672H82.5824C82.9471 45.225 83.7586 50.4951 84.0868 51.1516C84.4971 51.9722 85.1809 52.109 86.1383 52.109C86.9042 52.109 87.4604 51.8354 87.6427 51.6987C87.2324 50.6501 86.2751 47.3768 85.728 42.672C85.1809 37.9673 83.95 30.1351 83.403 26.8071H81.3515C80.2573 29.9983 77.8776 37.1193 77.1117 40.0735C76.3458 43.0276 74.8778 48.8721 74.2396 51.4251ZM81.078 29.9516L77.522 41.7136H82.5824L81.078 29.9516ZM93.3869 3.01053C92.4296 3.01053 92.0193 3.9679 92.0193 4.65173C92.0193 5.33557 92.4296 6.15617 93.1134 6.15617C93.7972 6.15617 94.4811 5.33557 94.4811 4.65173C94.4811 3.9679 94.0708 3.01053 93.3869 3.01053ZM92.0193 10.3959C92.7487 10.168 94.3443 9.71211 94.8914 9.71211C95.4384 9.71211 95.7576 9.98564 95.8488 10.1224L96.2591 24.2094H93.1134C93.0222 20.152 92.7578 11.9551 92.4296 11.6268C92.0193 11.2165 92.0193 10.6695 92.0193 10.3959Z" fill="white"/>
</svg>
