<svg width="72" height="72" viewBox="0 0 72 72" fill="none" xmlns="http://www.w3.org/2000/svg">
<path fill-rule="evenodd" clip-rule="evenodd" d="M72 36C72 55.8823 55.8822 72 36 72C16.1177 72 0 55.8823 0 36C0 16.1177 16.1177 0 36 0C55.8822 0 72 16.1177 72 36ZM36 69.5647C54.5373 69.5647 69.5647 54.5373 69.5647 36C69.5647 17.4627 54.5373 2.43529 36 2.43529C17.4627 2.43529 2.43529 17.4627 2.43529 36C2.43529 54.5373 17.4627 69.5647 36 69.5647ZM37.5885 47.9664V40.6544C38.0375 39.4443 38.9541 38.8059 40.2882 38.8059C42.247 38.8059 42.8823 40.2353 42.8823 41.6118V43.4647H42.8826V47.9664C42.8826 48.4342 43.2618 48.8134 43.7296 48.8134H45.6355C46.1033 48.8134 46.4826 48.4342 46.4826 47.9664V42.9899L46.4823 42.9698V40.9765C46.4823 39.5471 45.9 38.1706 44.8941 37.1647C43.8882 36.1588 42.8294 35.7353 41.2411 35.7353C39.6529 35.7353 38.7 36.2647 38.1706 36.6353C37.882 36.8373 37.6917 36.8214 37.583 36.7516C37.5349 36.3295 37.1765 36.0017 36.7415 36.0017H34.8356C34.3678 36.0017 33.9885 36.3809 33.9885 36.8487V47.9664C33.9885 48.4342 34.3678 48.8134 34.8356 48.8134H36.7415C37.2093 48.8134 37.5885 48.4342 37.5885 47.9664ZM19.4831 41.2927V43.7828C19.4831 45.7416 20.3831 47.8064 22.2889 48.6005C24.1204 49.3636 25.4141 49.1001 25.9821 48.9844L26.0478 48.9711C26.5772 48.8652 27.5831 48.2828 27.8478 48.124C28.1125 47.9652 28.3772 48.0711 28.4831 48.3358C28.5889 48.6005 28.8007 48.7593 29.3301 48.7593H31.3419C31.8184 48.7593 32.0831 48.4417 32.0831 47.5946C32.0831 47.4421 32.0822 47.1294 32.081 46.7154V46.7144V46.7136V46.7134V46.7129V46.7121V46.7114V46.711V46.7103V46.7098V46.709C32.077 45.3104 32.0697 42.7651 32.0823 41.3274C32.0827 41.3159 32.083 41.3043 32.083 41.2927V41.2508L32.0831 41.2416L32.083 41.2416V36.8456C32.083 36.3778 31.7037 35.9986 31.2359 35.9986H29.2242C28.7563 35.9986 28.3771 36.3778 28.3771 36.8456V41.2927L28.3772 41.305V43.9946C28.3772 45.3181 26.9478 46.0064 25.7301 46.0064C24.5125 46.0064 23.0831 45.424 23.0831 43.624V41.2927V40.5005V36.8456C23.0831 36.3778 22.7038 35.9986 22.236 35.9986H20.3301C19.8623 35.9986 19.4831 36.3778 19.4831 36.8456V41.2416V41.2927ZM51.0352 27.8471C52.0878 27.8471 52.9411 26.9938 52.9411 25.9412C52.9411 24.8886 52.0878 24.0353 51.0352 24.0353C49.9826 24.0353 49.1293 24.8886 49.1293 25.9412C49.1293 26.9938 49.9826 27.8471 51.0352 27.8471ZM20.3298 16.3082C20.3298 15.8404 20.7091 15.4612 21.1769 15.4612H30.071C30.5388 15.4612 30.9181 15.8404 30.9181 16.3082V17.8965C30.9181 18.3643 30.5388 18.7435 30.071 18.7435H27.5706C27.3943 18.8552 27.3177 19.0587 27.3177 19.3772V28.5889C27.3177 28.9066 27.6353 29.1184 27.953 29.0125C28.1118 28.9595 28.2971 28.8801 28.4824 28.8007C28.6677 28.7213 28.853 28.6419 29.0118 28.5889C29.1073 28.5571 29.2124 28.5157 29.3199 28.4733C29.5698 28.3748 29.8326 28.2713 30.0177 28.2713C30.2824 28.2713 30.5471 28.4831 30.5471 29.0125V31.1301C30.5471 31.3948 29.9118 32.4537 27.6353 32.4537C25.3589 32.4537 23.7177 31.5536 23.7177 29.1184V25.1478V19.3772C23.7177 19.0443 23.5113 18.8495 23.2857 18.7435H21.1769C20.7091 18.7435 20.3298 18.3643 20.3298 17.8965V16.3082ZM9.74106 36.0005C9.27324 36.0005 8.894 36.3797 8.894 36.8475V38.4358C8.894 38.9036 9.27324 39.2828 9.74106 39.2828H11.0119V43.3572V44.049V44.0983C11.0119 44.7336 11.0754 46.2054 11.3296 47.0101C11.6472 48.016 12.2825 48.8631 13.8178 49.0748C15.3531 49.2866 16.7825 48.8631 17.206 48.5983C17.6296 48.3336 17.8943 48.016 17.8943 47.2219C17.8943 47.0583 17.8965 46.897 17.8987 46.7407V46.7406V46.7405V46.7404V46.7403V46.7402V46.7401V46.7401C17.9071 46.1378 17.9145 45.6101 17.7884 45.316C17.6296 44.9454 17.206 44.9983 16.7296 45.1042C16.4925 45.1569 16.1899 45.3013 15.9 45.4397C15.6073 45.5794 15.3275 45.7129 15.1413 45.7395C14.7707 45.7925 14.6119 45.5278 14.6119 44.9454V44.0489V43.3572V39.2828H16.9411C17.4089 39.2828 17.7881 38.9036 17.7881 38.4358V36.8475C17.7881 36.3797 17.4089 36.0005 16.9411 36.0005H14.6119V33.0372C14.6119 32.5694 14.2327 32.1901 13.7649 32.1901H11.859C11.3912 32.1901 11.0119 32.5694 11.0119 33.0372V36.0005H9.74106ZM58.8706 36.8466V36.9266C58.737 37.011 58.5269 37.0371 58.2353 36.8515C57.6529 36.4809 56.3823 35.7399 54.4764 35.7399C52.5706 35.7399 47.9117 36.6397 47.9117 42.0397C47.9117 47.4397 52.4647 48.4987 54.847 48.4987C57.2294 48.4987 58.1294 47.8634 58.3941 47.6516C58.4302 47.6227 58.4792 47.6007 58.5375 47.5851C59.0866 47.4614 59.1822 48.0401 58.9234 49.0239C58.6586 50.0298 57.8116 50.9298 56.0645 50.9298C54.5344 50.9298 53.7759 50.3612 53.3977 50.0778C53.3441 50.0376 53.2981 50.0031 53.2586 49.9768C52.941 49.7651 52.6763 49.818 52.4116 49.9768C52.1998 50.1039 51.441 50.5239 51.088 50.718C50.6998 50.9121 50.0821 51.438 50.7174 51.9886C51.5115 52.6768 53.3115 53.5239 53.9468 53.6827C54.5821 53.8415 57.388 54.4768 59.9821 52.9945C61.8303 51.9384 62.4161 49.7402 62.5097 48.4491C62.5191 48.3687 62.5235 48.2797 62.5235 48.181V48.1277C62.5239 48.0951 62.5239 48.0634 62.5235 48.0326V47.281V46.0634V44.7397V41.4044L62.4706 41.3339V36.8466C62.4706 36.3788 62.0914 35.9995 61.6236 35.9995H59.7177C59.2499 35.9995 58.8706 36.3788 58.8706 36.8466ZM41.3476 20.1702C41.6032 20.3328 41.7961 20.333 41.9298 20.2737V20.1162C41.9298 19.6484 42.3091 19.2692 42.7769 19.2692H44.7887C45.2565 19.2692 45.6357 19.6484 45.6357 20.1162V24.7229L45.6359 24.7231V28.0584C45.6359 28.5878 45.9006 28.7996 46.2182 28.9584C46.5359 29.1173 46.6418 29.329 46.6418 29.8055V31.0761C46.6418 31.9761 46.2182 32.2408 45.1065 32.1349C43.9947 32.029 43.2535 31.5526 42.9888 31.2349C42.7241 30.9173 42.1418 30.8643 41.8771 31.0761C41.6124 31.2878 40.1829 32.3996 37.8006 32.3996C35.4182 32.3996 31.6065 31.0231 31.6065 25.6231C31.6065 20.2231 35.8947 19.0055 37.8006 19.0055C39.5587 19.0055 40.596 19.6812 41.2034 20.0769L41.2036 20.077C41.2546 20.1102 41.3025 20.1415 41.3476 20.1702ZM41.0301 23.1337C41.3767 23.4033 41.7514 23.785 41.9298 24.6659V25.0927C41.9298 25.2347 41.9648 25.3686 42.0266 25.4862C42.0328 25.6125 42.036 25.7459 42.036 25.8867C42.036 27.5574 40.987 28.2703 40.413 28.6604C40.3686 28.6906 40.327 28.7189 40.2889 28.7455C39.8023 29.0862 38.8682 29.0689 38.5972 29.0639C38.5734 29.0635 38.5547 29.0631 38.5419 29.0631C38.3831 29.0631 36.5831 29.0102 35.8948 28.1631C35.2066 27.3161 35.0478 26.3102 35.0478 25.5161C35.0478 24.722 35.3654 23.8749 36.1595 23.1337C36.9536 22.3926 38.1713 22.3926 38.5419 22.3926C40.0772 22.3926 40.5537 22.7631 41.0301 23.1337ZM55.1118 38.8095C56.6471 38.8095 57.1236 39.1801 57.6001 39.5507C58.0765 39.9213 58.606 40.5036 58.606 42.3036C58.606 43.9636 57.6154 44.633 57.0461 45.0178L57.0458 45.018C56.9979 45.0504 56.9529 45.0807 56.9118 45.1095C56.4461 45.4355 55.5298 45.3928 55.2079 45.3778C55.1639 45.3757 55.1309 45.3742 55.1118 45.3742L55.0848 45.3744C54.8097 45.377 53.1253 45.393 52.4648 44.5801C51.7765 43.733 51.6177 42.7272 51.6177 41.933C51.6177 41.1389 51.9354 40.2919 52.7295 39.5507C53.5236 38.8095 54.7412 38.8095 55.1118 38.8095Z" fill="white"/>
</svg>
