<svg width="193" height="52" viewBox="0 0 193 52" fill="none" xmlns="http://www.w3.org/2000/svg">
<path fill-rule="evenodd" clip-rule="evenodd" d="M115.196 18.9884C113.547 26.1946 106.403 31.6162 97.8401 31.6162C88.0564 31.6162 80.1251 24.5386 80.1251 15.808C80.1251 7.07751 88.0564 0 97.8401 0C106.403 0 113.547 5.42155 115.196 12.6278H108.44C106.943 8.65923 102.722 5.79944 97.748 5.79944C91.5222 5.79944 86.4748 10.2805 86.4748 15.8081C86.4748 21.3357 91.5222 25.8167 97.748 25.8167C102.722 25.8167 106.943 22.957 108.44 18.9884H115.196ZM0.0162845 0.748093H20.262C28.1303 0.748093 31.213 4.30255 31.213 8.0441C31.213 11.7856 30.2009 13.7032 28.6364 14.7321C30.293 15.3401 33.6519 17.0238 33.6519 21.9346C33.6519 26.8454 31.9955 30.8208 20.262 30.8208H0.0162845V0.748093ZM5.99806 6.26691H20.4001C23.8511 6.26691 25.0014 6.73461 25.0014 9.3537C25.0014 11.6922 23.9892 12.4405 20.4001 12.4405H5.99806V6.26691ZM21.8536 17.9593H5.95203V25.0682H21.8536C25.8163 25.0682 26.934 24.507 26.934 21.5138C26.934 18.5205 25.6639 17.9593 21.8536 17.9593ZM131.887 45.8066C131.992 45.9446 132.168 46.1228 132.32 46.2676C132.346 46.2789 132.371 46.2961 132.392 46.3203C132.441 46.3751 132.64 46.5637 132.94 46.8433C133.487 46.6564 133.999 46.4705 134.205 46.3807C134.621 46.1992 135.246 45.8066 135.275 45.2626C135.305 44.719 134.859 44.2354 134.294 43.9636C133.73 43.6915 133.106 43.6915 132.362 44.2354C131.619 44.7794 131.679 45.5345 131.887 45.8066ZM131.673 47.2522L131.419 47.0174C131.397 46.999 131.375 46.978 131.352 46.9546C130.846 46.4411 130.43 45.6254 130.43 45.2626C130.43 44.9002 130.549 42.7552 133.611 42.7552C136.673 42.7552 136.732 44.5378 136.732 45.2626C136.732 45.9878 136.078 46.7432 133.819 47.3173C133.72 47.3422 133.625 47.3677 133.534 47.3931C134.26 48.0626 135.234 48.9527 136.171 49.8064C136.927 49.1354 137.071 48.1636 136.999 47.559H138.337C138.297 48.0019 138.188 48.967 138.069 49.2811C137.997 49.4736 137.724 50.0803 137.096 50.6489C137.51 51.0246 137.893 51.3731 138.218 51.6678H136.435L136.069 51.329C135.485 51.6017 134.747 51.7889 133.819 51.7889C130.698 51.7889 129.509 50.4895 129.509 49.2811C129.509 48.0724 130.757 47.4986 131.441 47.3173C131.509 47.2993 131.587 47.2771 131.673 47.2522ZM131.146 48.6919C131.249 48.5453 131.488 48.203 132.297 47.8317L135.06 50.3936C134.708 50.4931 134.297 50.55 133.819 50.55C130.282 50.55 130.995 48.8882 131.114 48.7372C131.123 48.7253 131.134 48.7102 131.146 48.6919ZM183.042 42.9663V51.5772H189.849C192.465 51.5772 193 50.3382 193 49.311C193 48.2838 192.168 47.0452 191.127 47.0452C192.138 46.6825 192.257 45.4741 192.257 45.0814C192.257 44.6885 191.841 42.9663 189.849 42.9663H183.042ZM184.528 44.175V46.4106H189.374C190.503 46.4106 190.741 45.7459 190.741 45.2626C190.741 44.7791 190.414 44.175 189.374 44.175H184.528ZM184.558 50.3986V47.7402H189.89C191.035 47.7402 191.395 48.4585 191.395 49.0336C191.395 49.6083 191.133 50.3986 189.89 50.3986H184.558ZM135.018 31.6162C143.582 31.6162 150.725 26.1946 152.375 18.9884H145.619C144.122 22.957 139.9 25.8167 134.927 25.8167C128.701 25.8167 123.653 21.3357 123.653 15.8081C123.653 10.2805 128.701 5.79944 134.927 5.79944C139.9 5.79944 144.122 8.65923 145.619 12.6278H152.375C150.726 5.42155 143.582 0 135.018 0C125.235 0 117.304 7.07751 117.304 15.808C117.304 24.5386 125.235 31.6162 135.018 31.6162ZM154.206 30.6334L170.218 0.700908H176.983L192.857 30.6334H186.001L182.554 24.226H164.726L161.292 30.6334H154.206ZM168.134 17.8654H179.133L173.623 7.62276L168.134 17.8654ZM52.1033 0.888567C54.0493 0.888567 55.4325 1.68434 56.1818 2.11535C56.46 2.27543 56.6508 2.38519 56.7504 2.38519C56.8501 2.38519 57.0409 2.27543 57.3191 2.11535C58.0684 1.68434 59.4519 0.888567 61.3979 0.888567C63.9863 0.888567 65.6223 2.16451 66.4322 2.79604L66.4334 2.79692C66.4581 2.81619 66.482 2.83486 66.5053 2.85288C67.2875 3.46089 69.9563 6.12673 71.4286 7.67011C72.5223 8.81662 73.5908 9.78243 74.5018 10.606L74.5032 10.6072C74.8179 10.8919 75.1141 11.1595 75.3857 11.4117C76.444 12.3938 77.6405 14.1243 77.6405 16.416C77.6405 18.7077 76.3059 20.5785 75.6158 21.28C75.1878 21.715 73.6634 23.3725 72.3469 24.8035L72.3443 24.8065L72.3431 24.8079L72.3414 24.8097C71.537 25.6842 70.8113 26.4732 70.4623 26.8455C69.542 27.8277 67.6094 29.605 64.9867 30.5404C62.4734 31.4367 61.3122 31.3023 60.4907 31.2072C60.4552 31.2031 60.4199 31.1989 60.3855 31.1951C60.0453 31.1566 59.5113 31.0393 58.9423 30.9144C58.1261 30.7352 57.2384 30.5404 56.7504 30.5404C56.2625 30.5404 55.3748 30.7352 54.5585 30.9144C53.9899 31.0393 53.4556 31.1566 53.1153 31.1951C53.0915 31.1977 53.0673 31.2007 53.0428 31.2034L53.0102 31.2072C52.1887 31.3023 51.0274 31.4367 48.5142 30.5404C45.8915 29.605 43.9588 27.8277 43.0386 26.8455C42.689 26.4725 41.9613 25.6813 41.1552 24.8048L41.154 24.8035C39.8378 23.3725 38.313 21.715 37.8851 21.28C37.195 20.5785 35.8604 18.7077 35.8604 16.416C35.8604 14.1243 37.0569 12.3938 38.1152 11.4117C38.3868 11.1596 38.6824 10.8922 38.9971 10.6078L38.9979 10.607L38.9982 10.6069L38.9985 10.6065L38.9988 10.6064L38.9991 10.606C39.9101 9.78252 40.9786 8.81662 42.0723 7.67011C43.5449 6.12673 46.2134 3.46089 46.9956 2.85288C47.0192 2.83459 47.0436 2.81563 47.0687 2.79604C47.8786 2.16452 49.5146 0.888567 52.1033 0.888567ZM55.3241 8.27811C55.8762 8.4278 56.5052 8.46519 56.7504 8.46519C56.9957 8.46519 57.6247 8.4278 58.1768 8.27811C58.8672 8.09103 59.4192 7.76365 60.2935 7.20244C61.1677 6.64119 62.3182 6.92182 62.8702 7.38952C63.1269 7.60689 63.5027 8.01623 63.9472 8.50016L63.9475 8.50046L63.9478 8.50079C64.4594 9.05789 65.0615 9.71371 65.6771 10.2892C66.8272 11.3649 71.0604 15.5274 71.3826 15.8547C71.7048 16.1822 71.8426 16.5095 71.6128 16.8369C71.3826 17.1643 66.4133 22.4492 65.447 23.3378C64.4806 24.2265 62.8702 25.3022 61.3979 25.3022C60.5353 25.3022 59.8781 25.1096 59.3336 24.95C58.9485 24.8372 58.6198 24.7409 58.3148 24.7409H56.7504H55.1861C54.881 24.7409 54.5524 24.8372 54.1673 24.95C53.6228 25.1096 52.9656 25.3022 52.1033 25.3022C50.6307 25.3022 49.0202 24.2265 48.0539 23.3378C47.0876 22.4492 42.1183 17.1643 41.8881 16.8369C41.6583 16.5095 41.7964 16.1822 42.1183 15.8547C42.4405 15.5274 46.6737 11.3649 47.8241 10.2892C48.4394 9.71362 49.0418 9.05768 49.5534 8.50052C49.9979 8.01647 50.374 7.60692 50.6307 7.38952C51.183 6.92182 52.3331 6.64119 53.2074 7.20244C54.0817 7.76365 54.634 8.09103 55.3241 8.27811ZM48.7517 49.6131L47.6781 51.6373H45.9838L50.6802 42.9056H52.4934L57.1303 51.6373H55.3766L54.3275 49.6131H48.7517ZM49.5528 48.1023H53.5448L51.5719 44.2955L49.5528 48.1023ZM86.4384 51.6373L87.5122 49.6131H93.088L94.1371 51.6373H95.8908L91.2539 42.9056H89.4407L84.744 51.6373H86.4384ZM92.3053 48.1023H88.3133L90.3324 44.2955L92.3053 48.1023ZM0 42.8455H6.03404C7.93639 42.8455 9.24428 44.4167 9.24428 45.8066C9.24428 47.1962 7.99585 48.6768 6.86631 48.6768C7.53216 49.4742 8.72905 50.9426 9.24428 51.5772H7.31218L4.93425 48.6768H1.24842V51.5772H0V42.8455ZM12.3653 42.8455V51.5772H20.8962V50.2778H13.9407V47.8006H19.8558V46.4106H13.9407V44.2958H20.8962V42.8455H12.3653ZM46.2212 42.8455H36.7988V44.2958H40.7817V51.5772H42.3869V44.2958H46.2212V42.8455ZM59.6567 42.8455V47.9214C59.6567 50.3687 62.1833 51.9396 64.6802 51.9396C67.1768 51.9396 69.5549 50.3687 69.5549 47.9214V42.8455H67.9794V47.9214C67.9794 49.8852 65.7799 50.5198 64.6802 50.5198C63.5805 50.5198 61.2916 49.8248 61.2916 47.9214V42.8455H59.6567ZM98.4766 51.6678V42.8455H100.111L106.74 49.4016V42.8455H108.286V51.6678H106.74L100.111 45.172V51.6678H98.4766ZM159.976 42.8455H161.462V50.2778H167.645V51.6678H159.976V42.8455ZM120.919 42.9059H111.496V44.3562H115.479V51.6376H117.084V44.3562H120.919V42.9059ZM169.874 42.8455V47.9214C169.874 50.3687 172.401 51.9396 174.898 51.9396C177.395 51.9396 179.773 50.3687 179.773 47.9214V42.8455H178.197V47.9214C178.197 49.8852 175.998 50.5198 174.898 50.5198C173.798 50.5198 171.509 49.8248 171.509 47.9214V42.8455H169.874ZM1.24842 44.2958V47.4076H6.12321C7.37164 47.4076 7.60941 46.3804 7.60941 45.8972C7.60941 45.4137 7.22301 44.2958 6.12321 44.2958H1.24842ZM79.0665 42.8467H73.0324V51.5783H74.281V48.678H77.9667L80.3445 51.5783H82.2768C81.7615 50.9438 80.5645 49.4754 79.8988 48.678C81.0282 48.678 82.2768 47.1974 82.2768 45.8075C82.2768 44.4178 80.9688 42.8467 79.0665 42.8467ZM74.3404 47.4088V44.297H79.2151C80.3148 44.297 80.7014 45.4148 80.7014 45.8984C80.7014 46.3816 80.4637 47.4088 79.2151 47.4088H74.3404ZM33.9156 45.7761H32.3401C32.3104 44.8697 30.7349 44.0539 28.9217 44.0539C27.1086 44.0539 26.3357 44.4466 26.1574 44.5677C25.979 44.6885 23.4227 46.6221 28.9217 46.6221C34.0976 46.6221 33.954 48.4423 33.9193 48.8829C33.9179 48.9024 33.9164 48.9196 33.9159 48.9335C33.9156 48.9388 33.9156 48.9439 33.9156 48.9483C33.9156 48.9536 33.9156 48.9596 33.9159 48.9664C33.9159 48.9747 33.9161 48.9838 33.9167 48.9942C33.9327 49.4437 34.0242 52 28.9217 52C24.6652 52 23.7794 49.7842 23.8686 48.6765H25.5332V49.1902C25.5332 49.311 25.8304 50.5195 28.9217 50.5195C32.0129 50.5195 32.3401 49.3714 32.3401 48.9483C32.3401 48.5255 32.3401 48.1023 28.9217 48.1023C25.5034 48.1023 23.8686 47.5587 23.8686 45.7761C23.8686 43.9935 25.0576 42.6338 28.9217 42.6338C30.5863 42.6643 33.9156 43.335 33.9156 45.7761ZM151.772 51.9088C154.171 51.9088 156.191 50.475 156.792 48.5249H155.228C154.687 49.7641 153.357 50.64 151.802 50.64C149.766 50.64 148.116 49.1384 148.116 47.2862C148.116 45.4341 149.766 43.9325 151.802 43.9325C153.382 43.9325 154.729 44.8371 155.254 46.108H156.792C156.191 44.1578 154.171 42.7241 151.772 42.7241C148.899 42.7241 146.57 44.7803 146.57 47.3164C146.57 49.8529 148.899 51.9088 151.772 51.9088Z" fill="white"/>
</svg>
