<svg width="1066" height="377" viewBox="0 0 1066 377" fill="none" xmlns="http://www.w3.org/2000/svg">
<path fill-rule="evenodd" clip-rule="evenodd" d="M26.9419 68.5L34.4419 0L152.442 15.5C143.942 15.1667 119.142 17 87.9419 27C56.7417 37 34.2754 58.8333 26.9419 68.5ZM46.4419 80.0012L331.442 100.501C323.942 78.1677 287.742 31.9011 202.942 25.5012C96.9419 17.5012 51.4419 71.5012 46.4419 80.0012ZM5.4419 97C4.1084 103 1.2417 118.2 0.441895 131C-0.358398 143.8 0.108399 156 0.441895 160.5L347.942 151.5C348.108 147.167 348.542 137.1 348.942 131.5C349.342 125.9 350.442 118.167 350.942 115L5.4419 97ZM39.4419 198C39.4419 190.4 37.7754 180.167 36.9419 176L368.442 158.5C368.275 161.5 367.842 170.2 367.442 181C367.042 191.8 366.608 214.833 366.442 225L39.4419 217V198ZM42.4419 230L327.942 236.5C317.442 257.833 274.142 300 184.942 298C73.4419 295.5 45.4419 237 42.4419 230ZM262.442 26L348.942 32.5V87C344.942 78.8333 332.642 59.8999 315.442 49.5C293.942 36.5 283.442 31.5 262.442 26ZM8.4419 301.5L21.4419 233.5C40.6421 279.5 101.442 299 129.442 303L8.4419 301.5ZM255.942 302.5L344.442 300L348.442 244.5C341.275 259.333 312.742 291.7 255.942 302.5ZM455.442 343C454.642 338.6 452.108 331.167 450.942 328H1065.44L1056.44 377L456.442 358.5C456.442 355.167 456.242 347.4 455.442 343ZM733.942 212.5H760.442C760.442 184.5 733.942 172.5 712.942 172.5C691.942 172.5 665.942 180 663.442 208.5C660.942 237 689.942 245 712.942 249.5C731.342 253.1 735.942 260.333 735.942 263.5C736.608 269 732.942 280 712.942 280C692.942 280 687.275 265.667 686.942 258.5H659.442C659.442 295 694.942 302.5 712.942 302.5C730.942 302.5 764.442 296 764.442 263.5C764.442 233.727 740.524 228.292 718.828 223.361L717.014 222.948C716.332 222.792 715.653 222.636 714.977 222.479C714.294 222.321 713.616 222.161 712.942 222C691.524 216.878 691.785 211.757 691.922 209.058C691.933 208.858 691.942 208.672 691.942 208.5C691.942 206 692.942 195 712.942 195C728.942 195 733.608 206.667 733.942 212.5ZM401.942 174.5V299.5H429.442V249.5H470.942V299.5H500.442V174.5H470.942V224.5H429.442V174.5H401.942ZM770.942 174.5V199H806.442V299.5H834.442V199H870.442V174.5H770.942ZM881.942 299.5V174.5H955.442V199H909.942V224.5H952.942V249.5H909.942V274.5H955.442V299.5H881.942ZM976.942 174.5V299.5H1049.94V274.5H1004.94V174.5H976.942ZM647.942 236.5C647.942 272.398 618.84 301.5 582.942 301.5C547.043 301.5 517.942 272.398 517.942 236.5C517.942 200.602 547.043 171.5 582.942 171.5C618.84 171.5 647.942 200.602 647.942 236.5ZM619.942 236.5C619.942 256.935 603.376 273.5 582.942 273.5C562.507 273.5 545.942 256.935 545.942 236.5C545.942 216.065 562.507 199.5 582.942 199.5C603.376 199.5 619.942 216.065 619.942 236.5ZM404.942 155V29.5H446.942C458.442 29.5 477.442 40 477.442 59C477.442 76.7686 467.384 83.1677 463.626 85.5583C463.366 85.7241 463.136 85.8704 462.942 86C465.442 86 486.942 94 486.942 117.5C486.942 141 466.942 155 446.942 155H404.942ZM513.942 29.5H501.442V117.5C501.442 145 524.942 156.5 550.442 156.5C575.942 156.5 594.942 138 594.942 117.5V29.5H582.442V117.5C582.442 135 562.442 144 550.442 144C538.442 144 513.942 138.5 513.942 117.5V29.5ZM619.942 29.5V154.5H632.942V105H647.942L684.442 154.5H701.942L663.442 105C675.608 104.333 699.942 95.8 699.942 67C699.942 38.2 675.608 30 663.442 29.5H619.942ZM866.442 154.5V29.5H940.942V41.5H879.442V86.5H938.442V98.5H879.442V142.5H940.942V154.5H866.442ZM967.942 29.5V154.5H980.942V105H995.942L1032.44 154.5H1049.94L1011.44 105C1023.61 104.333 1047.94 95.8 1047.94 67C1047.94 38.2 1023.61 30 1011.44 29.5H967.942ZM417.442 42V81H444.442C459.442 81 464.942 69.5 464.942 60.5C464.942 51.5 456.942 42 444.442 42H417.442ZM417.442 94V142.5H444.442C464.942 142.5 473.942 130.5 473.942 117.5C473.942 104.5 463.942 94 444.442 94H417.442ZM632.942 93V42H659.942C677.442 42 687.442 51 687.442 67.5C687.442 84 674.442 93 659.942 93H632.942ZM1010.94 42H981.942V93H1010.94C1025.94 93 1035.94 80 1035.94 66.5C1035.94 53 1025.94 42 1010.94 42ZM843.748 96.5C841.177 129.509 813.369 155.5 779.442 155.5C743.819 155.5 714.942 126.846 714.942 91.5C714.942 56.1538 743.819 27.5 779.442 27.5C808.766 27.5 833.519 46.9167 841.356 73.5H828.742C821.419 53.6523 802.333 39.5 779.942 39.5C751.223 39.5 727.942 62.7812 727.942 91.5C727.942 120.219 751.223 143.5 779.942 143.5C803.078 143.5 822.686 128.39 829.434 107.5H778.942V96.5H831.705H833.942H843.748Z" fill="white"/>
</svg>
