<svg width="170" height="37" viewBox="0 0 170 37" fill="none" xmlns="http://www.w3.org/2000/svg">
<path fill-rule="evenodd" clip-rule="evenodd" d="M87.1532 7.23167C85.4163 5.36075 83.3177 3.87003 80.9873 2.85186C86.3537 6.42842 90.1361 11.9697 91.5377 18.3081C91.2374 18.6078 90.8449 18.7951 90.425 18.8389C90.4278 17.8951 90.2089 16.9641 89.7862 16.1224C89.4107 16.1475 89.0336 16.1265 88.6632 16.0599C80.2641 14.4583 78.5122 8.55173 76.5273 1.85943C76.3452 1.24533 76.1611 0.624613 75.9697 0C79.9414 0.270601 82.8236 0.816993 85.1495 2.68635C85.0966 2.6264 85.0434 2.56667 84.99 2.50715L85.7731 0.0820312H94.5101L105.998 35.6054H74.1924L81.1161 14.1644C83.0116 15.8701 85.4316 16.8627 87.9676 16.9746L84.4028 28.5278H95.7362L90.9422 13.3412C90.0832 11.0773 88.7967 9.0021 87.1532 7.23167ZM90.1265 10.7569L90.0489 10.5111L89.921 10.2091C89.9897 10.3884 90.0582 10.571 90.1265 10.7569ZM12.611 8.87836C10.761 8.85153 8.94541 9.38438 7.39763 10.4084V0.15625H0V34.212L0.123637 34.2849C2.29759 35.4818 6.78975 36.429 10.3649 36.429C18.5147 36.429 22.8214 31.2249 22.8214 21.4619C22.8214 13.4684 19.102 8.87836 12.611 8.87836ZM10.6637 30.923C9.54204 30.9122 8.43302 30.6824 7.39763 30.2465V17.486C7.41271 17.0618 7.51325 16.6451 7.6931 16.2615C7.87295 15.8779 8.12833 15.5353 8.44366 15.2548C8.75898 14.9742 9.12762 14.7616 9.52704 14.6298C9.92647 14.498 10.3483 14.4499 10.7667 14.4884C13.9401 14.4884 15.4238 17.0176 15.4238 22.4299C15.4238 28.2273 13.9092 30.923 10.6637 30.923ZM24.6963 22.7323C24.6963 12.5302 30.94 8.8849 36.7983 8.87891C42.0699 8.88365 48.2389 11.1696 48.2389 22.0141C48.2389 30.9132 43.5613 36.4295 36.0297 36.4295C28.7351 36.4295 24.6963 31.5585 24.6963 22.7323ZM36.7983 8.87891L36.8127 8.87891H36.7818L36.7983 8.87891ZM40.594 22.7739C40.594 17.0182 39.3576 14.4473 36.4727 14.4473L36.4315 14.4369C32.6812 14.4369 32.1248 19.1206 32.1248 21.9204C32.1248 26.0629 32.5988 30.8091 36.3388 30.8091C39.2031 30.8091 40.594 28.1862 40.594 22.7739ZM63.9117 8.87628C62.4979 8.82618 61.0921 9.11176 59.8073 9.71008C58.5226 10.3084 57.3946 11.2028 56.5141 12.3214L56.0608 9.63609H49.8789L50.3013 14.5696V35.6671H57.699V19.0139C57.681 18.4559 57.7743 17.8999 57.9734 17.3791C58.1724 16.8583 58.4732 16.3832 58.8577 15.9822C59.2421 15.5811 59.7026 15.2623 60.2115 15.0447C60.7205 14.827 61.2675 14.715 61.8202 14.7153C64.2105 14.7153 64.6845 16.4743 64.6845 19.3158V35.6671H72.0924V17.9731C72.0924 12.0092 69.2591 8.85547 63.922 8.85547L63.9117 8.87628ZM119.808 8.87825C121.281 8.83871 122.741 9.16013 124.064 9.815L124.218 9.89826L122.868 16.4242L122.601 16.2785C121.542 15.7042 120.361 15.4004 119.159 15.3938C116.81 15.3938 115.296 16.9967 115.203 19.5571V35.6691H107.805V14.2801L107.27 9.60683H113.359L113.925 12.7293C114.451 11.5958 115.281 10.634 116.321 9.95329C117.361 9.27254 118.569 8.90009 119.808 8.87825ZM142.738 28.3319L142.511 28.488C140.74 29.8153 138.607 30.5602 136.402 30.6217C135.092 30.6972 133.803 30.2724 132.789 29.4316C131.776 28.5909 131.112 27.3958 130.931 26.0837C139.977 25.6466 144.562 22.4096 144.562 16.4769C144.562 11.7204 141.378 8.87891 136.051 8.87891C127.355 8.87891 123.389 16.352 123.389 23.2839C123.358 34.1501 129.983 36.4295 135.505 36.4295C138.819 36.4772 142.064 35.4683 144.778 33.5464L144.902 33.4424L142.738 28.3319ZM135.722 14.2912C136.027 14.2513 136.336 14.2808 136.629 14.3776C136.921 14.4744 137.188 14.636 137.41 14.8506C137.632 15.0651 137.804 15.3272 137.913 15.6177C138.022 15.9081 138.065 16.2195 138.04 16.529C138.04 19.8388 133.506 20.557 130.622 20.6923C130.838 17.5698 132.497 14.312 135.722 14.312V14.2912ZM168.916 10.8148V30.3511L169.432 35.6801H163.044L162.693 33.1509C161.92 34.2081 160.901 35.0559 159.725 35.6188C158.55 36.1818 157.255 36.4424 155.955 36.3775C151.422 36.3775 146.033 34.2022 146.033 23.7939C146.033 14.312 150.937 8.87891 159.499 8.87891C162.67 9.0009 165.801 9.63698 168.772 10.7628L168.916 10.8148ZM153.4 23.388C153.4 28.4568 154.77 30.8195 157.707 30.8195C158.193 30.8534 158.682 30.7874 159.143 30.6255C159.604 30.4637 160.027 30.2093 160.388 29.8777C160.749 29.5461 161.04 29.1442 161.243 28.6961C161.446 28.248 161.558 27.763 161.57 27.2703V15.0094C160.633 14.6803 159.646 14.5217 158.655 14.541C156.254 14.541 153.4 16.1022 153.4 23.388Z" fill="white"/>
</svg>
