<svg width="72" height="72" viewBox="0 0 72 72" fill="none" xmlns="http://www.w3.org/2000/svg">
<path fill-rule="evenodd" clip-rule="evenodd" d="M30.5739 10.8019C30.5739 7.88918 32.9396 5.52184 35.8481 5.52184C38.7585 5.52184 41.1173 7.88918 41.1173 10.8019C41.1173 13.7206 38.7585 16.081 35.8481 16.081C32.9396 16.081 30.5739 13.7206 30.5739 10.8019ZM35.8432 71.8576C55.6381 71.8576 71.6932 55.7756 71.6932 35.9366C71.6932 16.081 55.6381 0 35.8432 0C16.0551 0 0 16.081 0 35.9366C0 55.7756 16.0551 71.8576 35.8432 71.8576ZM47.0639 29.1585C46.7606 28.9138 46.5889 28.5286 46.5889 28.0658C46.5889 26.9927 47.489 26.1141 48.3302 25.9166C48.7867 25.8065 49.2519 25.8999 49.5749 26.1564C49.8752 26.3932 50.0284 26.7539 50.0284 27.202C50.0284 28.1699 49.252 29.1497 48.2841 29.3826C47.8159 29.4887 47.379 29.414 47.0639 29.1585ZM38.6236 33.9256C39.5384 32.6855 40.5445 31.9209 41.6272 31.6723C42.1858 31.5435 42.652 31.6113 42.9789 31.8816C43.345 32.1725 43.5443 32.6855 43.5443 33.3537C43.5443 33.7822 43.4726 34.2814 43.3283 34.9241L42.3222 39.529L43.3951 39.2755C43.5315 39.2519 43.6346 39.2549 43.6955 39.306C43.7671 39.3639 43.776 39.4593 43.776 39.5113L43.7308 39.7727L43.5237 40.8989C43.4589 41.2547 43.2734 41.3343 43.081 41.3805L41.4976 41.746C40.7791 41.918 40.253 41.8856 39.9576 41.6497C39.7622 41.4895 39.6611 41.236 39.6611 40.8871C39.6611 40.6434 39.7072 40.3968 39.7602 40.155L39.7946 39.9683L40.6447 35.9608L40.683 35.7603C40.7536 35.4233 40.8135 35.1 40.8135 34.7816C40.8135 34.5939 40.7683 34.4612 40.6554 34.3816C40.5445 34.2932 40.3875 34.2706 40.1931 34.3158C39.1919 34.5496 38.3948 35.9844 37.8756 38.4608L37.0569 42.4162C37.0049 42.713 36.8939 42.8388 36.6142 42.8997L34.8493 43.3213C34.756 43.3341 34.6333 43.3508 34.5421 43.2899C34.4841 43.2456 34.4714 43.1582 34.4714 43.111C34.4596 43.0972 34.4517 43.0353 34.4517 43.0353L34.4841 42.8388L35.7985 36.7303L35.8368 36.5544L35.843 36.5264L35.843 36.5263C35.9148 36.2015 35.9904 35.8594 36.0086 35.4793L36.0301 35.3378L35.0397 35.5726C34.9023 35.6031 34.7992 35.5933 34.7344 35.5441C34.6667 35.4862 34.6539 35.3958 34.6539 35.3397L34.6942 35.0774L34.9131 33.9581C34.9632 33.623 35.1153 33.5306 35.3735 33.4677L37.9001 32.8751C37.9934 32.8535 38.065 32.8604 38.1386 32.9075C38.2967 33.0255 38.4007 33.3537 38.44 33.8696L38.4606 34.1497L38.6236 33.9256ZM31.3509 32.9793C31.0407 32.7375 30.8689 32.3395 30.8689 31.8836C30.8689 30.8036 31.7769 29.9339 32.6103 29.7314C33.0756 29.6253 33.5349 29.7137 33.8549 29.9722C34.1671 30.2189 34.3202 30.5815 34.3202 31.0227C34.3202 31.9926 33.5349 32.9695 32.5661 33.1955C32.0959 33.3065 31.663 33.2259 31.3509 32.9793ZM22.645 37.0634C22.7304 36.3844 23.6816 36.2212 23.6816 36.2212L24.4934 36.0316L24.6936 34.929C24.9793 33.3095 25.5152 31.5386 28.2578 30.895C28.5808 30.8183 29.8598 30.606 30.221 30.8969C30.277 30.9461 30.3064 30.9991 30.3064 31.0718L30.2642 31.2674L29.7999 32.7493C29.6949 32.9881 29.5506 33.0461 29.4858 33.0628C29.3857 33.0844 29.2895 33.0746 29.1442 33.0579L29.0952 33.0536C28.8951 33.036 28.6517 33.0146 28.3364 33.0844C27.5619 33.2672 27.4264 33.7792 27.2331 34.6607L27.0868 35.4233L32.9499 34.0396C33.0441 34.019 33.1639 34.0003 33.2375 34.0652C33.2974 34.1133 33.315 34.2165 33.315 34.2706L33.2689 34.5605L31.7602 42.0202L32.8351 41.7647C32.9499 41.7362 33.0696 41.7509 33.1295 41.8079C33.1982 41.8502 33.2198 41.916 33.2198 42.0015L33.1796 42.259L32.9666 43.3852C32.9077 43.7134 32.7545 43.8097 32.5121 43.8667L30.9513 44.2342C30.221 44.4042 29.6988 44.3718 29.4014 44.135C29.207 43.9787 29.104 43.7213 29.104 43.3783C29.104 43.0648 29.1658 42.7572 29.2286 42.4536L30.4046 36.6585L26.704 37.5361L25.1883 45.5766C24.8271 47.4654 24.0585 49.706 21.3591 50.3447C20.0732 50.6503 19.7032 50.5472 19.5923 50.4538C19.5363 50.4145 19.5363 50.3821 19.5363 50.3241L19.5706 50.0961L19.5873 50.0519L19.98 48.6122C20.0507 48.4265 20.1488 48.3184 20.2803 48.2889C20.3049 48.2889 20.4217 48.2791 20.4217 48.2791C20.5513 48.2751 20.7829 48.2633 21.0627 48.1955C22.1464 47.9449 22.3908 47.258 22.6588 45.8744L24.1086 38.1405L23.3076 38.3331C23.1515 38.3704 22.9984 38.3567 22.8914 38.3223C22.701 38.2712 22.5685 38.1238 22.5685 37.7916L22.5761 37.7311C22.587 37.6715 22.5881 37.6354 22.5881 37.6354L22.5761 37.7311C22.5323 37.9695 22.3306 38.5839 21.4082 38.7773L20.0016 39.1104L18.4968 47.1588C18.1297 49.0377 17.3699 51.2822 14.6656 51.922C13.3866 52.2246 13.0077 52.1264 12.8938 52.0389C12.8428 52.0016 12.8428 51.9554 12.8428 51.8965V51.8964L12.8761 51.6665L12.8909 51.6272L13.2884 50.1845C13.362 50.0047 13.4553 49.8966 13.5956 49.8642L13.7301 49.8543C13.8577 49.8524 14.1022 49.8426 14.377 49.7797C15.4479 49.5212 15.6963 48.8451 15.9701 47.4546L17.417 39.7246L16.2264 40.0037C16.1253 40.0224 15.9898 40.041 15.9161 39.9732C15.8327 39.9084 15.8229 39.7944 15.8229 39.7727L15.872 39.5015L16.0987 38.3753C16.1409 38.1631 16.2077 37.9803 16.5404 37.9056L17.7999 37.6098L17.896 37.0772C17.9608 36.7303 17.9854 36.5701 17.9922 36.4905L18.0011 36.5072C18.2799 34.8956 18.8237 33.1139 21.5564 32.4702C21.8823 32.3946 23.1741 32.1882 23.5334 32.4742C23.5883 32.5184 23.6178 32.5764 23.6178 32.6481C23.608 32.653 23.5815 32.8437 23.5815 32.8437L23.1123 34.3276C22.9984 34.5654 22.8571 34.6214 22.7874 34.644C22.7019 34.6626 22.6172 34.6542 22.5075 34.6434L22.4527 34.6381C22.2426 34.6096 21.9834 34.586 21.6516 34.6607C20.8683 34.8464 20.7309 35.3535 20.5415 36.2379C20.5356 36.2635 20.5326 36.2861 20.5326 36.3126V36.3077L20.3932 36.9956L21.7822 36.6733C22.0247 36.6074 22.2426 36.6074 22.3643 36.6585C22.3643 36.6585 22.6735 36.7794 22.6166 37.1912L22.645 37.0634ZM10.8831 44.5892C10.8831 44.5892 11.4534 41.7846 11.5182 41.4868L11.5003 41.4763C11.2228 41.3129 10.8815 41.1119 10.3962 41.2264C9.04948 41.5458 8.19843 44.7297 8.19843 46.7885C8.19843 47.3713 8.37609 47.6248 8.73241 47.5462C10.2284 47.1855 10.7555 45.1946 10.8831 44.5892ZM14.5769 39.0182L13.3165 45.2899C13.2177 45.7365 13.1666 46.1219 13.1431 46.299L13.1378 46.3384L13.1221 46.4809L14.09 46.2559C14.2176 46.2274 14.3236 46.2392 14.3884 46.2932C14.4473 46.3453 14.4591 46.4298 14.4591 46.4829L14.4237 46.7551L14.2176 47.8715C14.1626 48.1928 14.0056 48.2999 13.7631 48.3549L12.5558 48.6389C11.8412 48.807 11.3916 48.7932 11.1177 48.5819C10.941 48.4463 10.8439 48.2272 10.8105 47.895L10.782 47.6051L10.6132 47.8469C10.0478 48.695 9.0966 49.7769 7.73904 50.1002C7.33462 50.1877 6.75351 50.229 6.29608 49.8654C5.76013 49.4467 5.5 48.6016 5.5 47.3536C5.5 43.5082 7.64481 39.7494 10.1872 39.1489C11.2021 38.9023 11.7803 39.2187 12.1287 39.4772L12.2358 39.5607L12.3202 39.3307C12.331 39.3121 12.331 39.2865 12.331 39.2629L12.3437 39.2728C12.4213 39.0497 12.5558 38.9151 12.7658 38.861L14.2785 38.5072C14.3963 38.4866 14.4876 38.4935 14.5415 38.5377C14.6093 38.5917 14.624 38.6704 14.624 38.7097L14.5769 39.0182ZM60.1639 27.5093C60.2993 27.4788 60.4033 27.4837 60.4642 27.5387C60.529 27.581 60.5575 27.6763 60.5849 27.8159L60.953 32.2361C61.0227 32.7982 61.0581 33.5775 61.0807 34.1239L61.2848 34.1573L62.0455 32.0513C62.0455 32.0513 64.1462 26.8901 64.2414 26.6602V26.6533C64.3052 26.4558 64.4299 26.332 64.6046 26.2877L64.8421 26.274C64.8343 26.274 64.9521 26.2671 64.9521 26.2671L66.4127 26.1944C66.6434 26.1973 66.7366 26.2602 66.7366 26.4135C66.7366 26.5059 66.6944 26.5944 66.6522 26.6671L66.6355 26.7251L62.8564 35.3915L62.5148 36.1974L62.5088 36.2116C61.5655 38.4506 60.3979 41.2222 57.8423 41.8253C57.0502 42.0101 55.9224 41.9157 55.5709 41.6426C55.5081 41.5885 55.4738 41.5335 55.4738 41.4765C55.4738 41.445 55.5218 41.2701 55.5218 41.2701L55.5376 41.2377L55.5592 41.1984L56.2335 39.8226L56.2551 39.7901L56.2578 39.7856C56.3266 39.671 56.3977 39.5528 56.5643 39.514C56.6848 39.4878 56.7858 39.5088 56.9425 39.5414L56.9667 39.5464C57.2347 39.6093 57.5626 39.6762 57.9886 39.5759C58.7503 39.4 59.1194 38.9598 59.4551 38.3672L59.9577 37.2803L59.4276 37.4032L59.413 37.4067C59.3401 37.4247 59.215 37.4555 59.1233 37.3904C59.0733 37.353 59.036 37.2646 59.0213 37.1486L58.1624 30.0073L54.232 30.933L53.3417 35.5223C53.2563 35.8967 53.2122 36.1708 53.2122 36.4244C53.2122 36.5502 53.2269 36.7054 53.3545 36.7968C53.4438 36.8833 53.593 36.8921 53.8246 36.8361C54.4126 36.7015 54.9614 36.3477 55.2519 36.1551C55.4021 36.0568 55.4738 36.0156 55.5376 35.9998C55.7182 35.9576 55.7673 36.0411 55.8065 36.1433C55.8065 36.1433 56.0951 37.2784 56.0951 37.2901L56.1079 37.3265L56.1098 37.3786L56.1255 37.5063C56.1255 38.0694 53.8374 39.0482 52.9098 39.2644C52.0273 39.4767 51.3903 39.4177 50.9809 39.0993C50.656 38.8359 50.4853 38.3947 50.4853 37.7825C50.4853 37.3786 50.5412 36.9619 50.6462 36.4971L51.6406 31.5403L48.6899 32.2361L47.4845 38.2021L48.5554 37.9407C48.6673 37.921 48.7891 37.9358 48.8548 37.9928C48.9078 38.0321 48.9363 38.093 48.9363 38.1785L48.897 38.4438L48.6791 39.5651C48.631 39.8953 48.4779 39.9877 48.2197 40.0437L46.6649 40.4112C45.9346 40.5891 45.4241 40.5527 45.1208 40.3159C44.9215 40.1606 44.8224 39.9041 44.8224 39.5582C44.8224 39.3009 44.8657 39.0408 44.908 38.7866C44.9162 38.7369 44.9244 38.6875 44.9323 38.6384L46.1191 32.8404L45.164 33.0704C45.0275 33.1048 44.9324 33.0586 44.8744 33.0154C44.8018 32.9613 44.8018 32.8611 44.8018 32.808L44.8371 32.5427L45.0452 31.4283C45.0452 31.0596 45.4077 30.9842 45.6568 30.9324C45.6899 30.9255 45.721 30.9191 45.749 30.9124L52.0636 29.4187L52.0735 29.3508C52.1491 28.9587 52.527 27.0906 52.527 27.0906C52.5905 26.7898 52.7996 26.697 52.9129 26.6467L52.9246 26.6415L54.6541 25.988L54.6836 25.9831L54.7641 25.9526L54.9319 25.9015C55.0045 25.8858 55.0595 25.8966 55.1057 25.933C55.1606 25.9743 55.1911 26.0539 55.1911 26.1413L55.1498 26.4607L54.6885 28.6482L54.662 28.8094L60.1639 27.5093Z" fill="white"/>
</svg>
