<svg width="76" height="73" viewBox="0 0 76 73" fill="none" xmlns="http://www.w3.org/2000/svg">
<path fill-rule="evenodd" clip-rule="evenodd" d="M23.7489 10.4163C23.1735 10.7933 22.8982 11.4307 22.8609 11.8921C22.8476 12.1346 23.1227 12.337 23.3883 12.5323C23.6171 12.7007 23.8389 12.8638 23.863 13.0429C23.9374 13.4422 23.8134 13.6927 23.5009 14.0821C23.2007 14.4814 23.1387 14.6327 23.4761 14.6079L23.4867 14.6071C23.8273 14.5822 24.4974 14.5332 26.3408 13.3182C28.2183 12.1054 27.7173 10.7288 27.2039 9.65244C26.6781 8.58843 24.3268 10.0518 23.7489 10.4163ZM40.1286 8.12711C41.6937 7.57651 43.1198 6.324 43.0057 6.11318C42.8792 5.89989 39.6028 4.52337 39.0646 4.56058C38.8203 4.57158 38.7855 4.41028 38.7448 4.22197C38.6937 3.98581 38.6335 3.70716 38.1394 3.67266C37.2515 3.61066 34.8977 3.84876 34.2975 4.24807C34.1056 4.37317 33.6015 4.53649 33.0356 4.71988C31.795 5.12186 30.257 5.62024 31.0558 6.0239C32.5653 6.78173 34.3473 8.5169 35.6086 9.74512L35.6086 9.74515C36.3865 10.5026 36.9664 11.0673 37.1622 11.091C37.2477 11.103 37.3945 10.9561 37.5545 10.796C37.7241 10.6263 37.9085 10.4419 38.0502 10.4163C38.1285 10.4072 38.2472 10.4707 38.4101 10.5577C38.6909 10.7077 39.1029 10.9277 39.6648 10.9669C41.383 11.1101 41.9532 10.7163 42.27 10.4975C42.3153 10.4662 42.3555 10.4384 42.3931 10.4163C42.9685 10.0914 43.544 9.71692 43.4571 9.22832C43.4302 9.07086 42.5867 8.91527 41.7335 8.75789C40.6246 8.55335 39.4992 8.34578 40.1286 8.12711ZM31.2071 3.88596C30.7091 4.10428 30.2887 4.52364 29.9811 4.83042C29.7786 5.03248 29.625 5.1857 29.5304 5.20047C29.2799 5.22527 27.6032 4.49857 27.4147 3.21134C27.2262 1.93652 27.628 1.11061 28.2407 0.708816C28.8533 0.309502 30.1926 -0.0550874 31.0806 0.00691778C31.5149 0.0372467 32.0062 0.145904 32.4592 0.246105C32.9324 0.350756 33.3639 0.446183 33.6452 0.433513C33.7908 0.426954 33.9303 0.413284 34.0591 0.400667C34.4174 0.365573 34.6924 0.338626 34.7836 0.495518C34.8358 0.595222 34.8116 0.713893 34.7889 0.824681C34.7631 0.950901 34.7395 1.06689 34.8332 1.13293C34.8774 1.16258 35.1209 1.24921 35.4557 1.36834C36.5491 1.75738 38.6166 2.49299 37.8989 2.72274C37.2322 2.94205 36.0403 2.97692 35.2635 2.99964C34.9334 3.0093 34.6783 3.01676 34.5703 3.03525C34.38 3.06045 34.296 3.19257 34.2152 3.31971C34.1369 3.44281 34.0616 3.56125 33.8957 3.57345C33.8168 3.58215 33.6728 3.58407 33.4879 3.58653C32.8822 3.59461 31.8374 3.60853 31.2046 3.88596H31.2071ZM33.9596 10.0916C30.9436 6.22498 24.8743 3.42235 24.3634 3.31074C23.8376 3.18673 23.7508 4.06224 24.3262 4.83606C24.914 5.59997 25.3406 6.51268 24.6387 7.08809C23.9393 7.6759 22.9621 9.11442 24.4502 8.99041C25.9508 8.86392 28.4906 8.95321 28.5427 10.9051C28.593 12.4992 26.5101 14.2501 24.7263 15.7495C24.312 16.0978 23.9138 16.4325 23.5623 16.7485C23.2784 17.0054 22.9235 17.2845 22.526 17.5972L22.526 17.5973C20.329 19.3255 16.8308 22.0773 16.8308 27.7457C16.8308 34.4398 20.1841 37.3689 22.9869 39.6582C24.5936 40.9777 26.8297 42.3102 28.8885 43.5371C30.4209 44.4503 31.855 45.3049 32.8584 46.0521C35.0236 47.6667 37.6502 49.9932 39.2153 51.9203C39.6667 52.4709 39.7535 51.9079 39.5154 51.3945C39.2153 50.7571 36.9508 47.2029 33.1585 44.0258C31.6275 42.7482 30.093 41.5927 28.6705 40.5216L28.6704 40.5216C26.5692 38.9393 24.7124 37.5412 23.473 36.2057C21.5086 34.0901 19.8444 31.5628 19.8444 27.5597C19.8444 23.6039 21.518 21.857 22.9098 20.4042L22.9596 20.3522C23.2028 20.0983 23.5647 19.7504 23.9968 19.3351C26.0544 17.3574 29.7034 13.85 29.7034 11.669C29.7034 9.03009 26.613 7.51469 26.613 7.51469C26.613 7.51469 25.8243 7.27659 26.1864 6.63917C26.5609 5.98936 26.9255 6.26466 27.2008 6.47796C27.2274 6.49855 27.2907 6.54058 27.3847 6.60301L27.3847 6.60302C28.2648 7.18749 31.8375 9.56002 33.1932 12.8719C34.6814 16.5377 34.9319 20.8681 34.8327 23.5591C34.795 24.7261 34.6888 25.5371 34.5846 26.3327L34.5846 26.3328V26.3328C34.4486 27.3719 34.3159 28.3846 34.344 30.1292C34.406 33.1451 35.8074 37.3119 39.1111 37.3119C41.9634 37.3119 43.3772 35.0723 44.1535 33.8346C44.8676 32.705 45.5828 31.1355 46.343 29.467C48.2602 25.2592 50.4643 20.4217 53.6629 20.4217C59.7445 20.4217 60.6945 30.2929 60.6945 30.2929C60.6945 30.6798 61.1211 31.2552 61.1583 30.2557C61.1831 29.2289 60.9078 17.9191 53.6381 17.9191C48.1901 17.9191 46.1769 24.6289 45.1058 28.1989C44.8901 28.918 44.7125 29.5098 44.5528 29.8936C43.6153 32.1828 41.9882 36.0867 39.2103 36.0867C36.4324 36.0867 36.3084 33.7726 36.5465 31.6322C36.6144 31.0524 36.7712 30.2331 36.956 29.2682C37.4532 26.6712 38.1522 23.0198 37.8611 20.1464C37.4741 16.2053 36.2092 13.0009 33.9571 10.0991L33.9596 10.0916ZM12.3245 62.4725L12.3989 57.9437C12.3055 57.9079 12.2074 57.8664 12.1009 57.8213C11.4243 57.5349 10.4096 57.1054 8.10802 57.1054C6.55537 57.1054 5.17881 57.4179 3.95356 58.0181C2.7407 58.6307 1.77836 59.5062 1.07644 60.6446C0.374522 61.783 0.0124014 63.1595 0 64.7494C0.0124014 66.3243 0.374522 67.6636 1.08884 68.7772C1.81308 69.8784 2.77791 70.7291 3.99076 71.3169C5.20362 71.9047 6.41895 72.118 7.93192 72.118C13.8002 72.118 15.7919 67.2742 15.6654 63.3456H8.05841V66.6492H9.27127C9.19686 67.1998 8.25931 67.4999 7.82031 67.4875C6.40655 67.4875 5.35491 66.0366 5.35491 64.9602C5.35491 64.36 5.46652 63.8094 5.69223 63.296C5.91793 62.785 6.25525 62.3708 6.69426 62.0583C7.13079 61.7334 7.74342 61.3961 8.48254 61.3961C8.52072 61.3961 8.56348 61.3956 8.61066 61.3949C9.22862 61.3868 10.6031 61.3688 12.3245 62.4725ZM22.2828 71.6567L22.7342 69.4171H26.0082L26.4472 71.6567H31.9162L27.6129 57.4675H20.9062L16.6526 71.6567H22.2828ZM34.699 57.3311V71.6071V71.6096H44.2084V67.2792H40.0167V57.3311H34.699ZM71.1839 57.9065C69.9958 57.2939 68.6565 56.9937 67.1931 56.9813C65.7173 56.9937 64.3904 57.2939 63.2024 57.9065C62.0143 58.5191 61.052 59.3698 60.35 60.4834C59.6481 61.597 59.2736 62.9115 59.2612 64.4244C59.2736 65.9622 59.6357 67.2767 60.3376 68.3779C61.0495 69.4667 61.9895 70.3174 63.1899 70.8928C64.378 71.4806 65.7173 71.7807 67.1931 71.7807C68.6689 71.7807 69.9958 71.4806 71.1963 70.8928C72.3843 70.3174 73.3368 69.4667 74.0362 68.3779C74.7505 67.2767 75.1126 65.9647 75.125 64.4244C75.1126 62.9115 74.7505 61.597 74.0362 60.4834C73.3368 59.3698 72.3843 58.5191 71.1839 57.9065ZM65.4792 62.5866C65.8935 62.098 66.4416 61.8475 67.1559 61.8351C67.8826 61.8475 68.4332 62.098 68.8326 62.5866C69.2443 63.0752 69.4452 63.6754 69.4452 64.4021C69.4328 65.1636 69.2195 65.7638 68.8078 66.2276C68.3936 66.6914 67.8454 66.9171 67.1559 66.9295C66.4813 66.9171 65.9307 66.6914 65.504 66.2276C65.0923 65.7662 64.879 65.166 64.8666 64.4021C64.879 63.6754 65.0799 63.0752 65.4792 62.5866ZM25.2765 65.5629H23.3865L24.1628 62.0707H24.3513L25.2765 65.5629ZM47.5865 57.3311V71.6071V71.6096H57.0835V67.2792H52.9043V57.3311H47.5865Z" fill="white"/>
</svg>
