<svg width="229" height="161" viewBox="0 0 229 161" fill="none" xmlns="http://www.w3.org/2000/svg">
<path fill-rule="evenodd" clip-rule="evenodd" d="M114.819 37.0512L140.098 0L160.619 81.4717H138.673L130.894 49.7963L114.871 73.3522L98.7436 49.7898L90.9904 81.4717H69.0122L89.5653 0L114.819 37.0512ZM22.5208 115.69L34.9416 97.4766L45.0351 137.522H34.2421L30.4243 121.954L22.5469 133.534L14.6173 121.954L10.8061 137.522H0L10.1066 97.4766L22.5208 115.69ZM61.6449 100.381C64.1106 99.3393 66.7647 98.8246 69.4386 98.8699C72.1125 98.8246 74.7665 99.3393 77.2323 100.381C79.698 101.424 81.9215 102.97 83.7617 104.923C85.5126 106.653 86.9034 108.716 87.8528 110.992C88.8022 113.269 89.2912 115.713 89.2912 118.182C89.2912 120.651 88.8022 123.095 87.8528 125.371C86.9034 127.648 85.5126 129.711 83.7617 131.44C81.8944 133.358 79.6658 134.881 77.2064 135.921C74.747 136.961 72.1062 137.496 69.4386 137.496C66.771 137.496 64.1302 136.961 61.6708 135.921C59.2114 134.881 56.9828 133.358 55.1155 131.44C53.3646 129.711 51.9738 127.648 51.0244 125.371C50.075 123.095 49.5859 120.651 49.5859 118.182C49.5859 115.713 50.075 113.269 51.0244 110.992C51.9738 108.716 53.3646 106.653 55.1155 104.923C56.9557 102.97 59.1792 101.424 61.6449 100.381ZM69.4386 108.431C66.9184 108.431 64.4986 109.425 62.6987 111.201C60.9622 113.108 59.999 115.601 59.999 118.188C59.999 120.776 60.9622 123.269 62.6987 125.176C64.4986 126.952 66.9184 127.946 69.4386 127.946C71.9588 127.946 74.3785 126.952 76.1785 125.176C77.915 123.269 78.8782 120.776 78.8782 118.188C78.8782 115.601 77.915 113.108 76.1785 111.201C74.3785 109.425 71.9588 108.431 69.4386 108.431ZM133.61 152.163C133.587 150.45 134.086 148.77 135.04 147.351C135.993 145.931 137.356 144.839 138.944 144.222C141.273 143.343 143.839 143.343 146.168 144.222C147.227 144.635 148.194 145.257 149.011 146.051C149.805 146.827 150.436 147.756 150.868 148.781C151.756 150.948 151.756 153.379 150.868 155.545C150.436 156.571 149.805 157.499 149.011 158.276C148.194 159.071 147.228 159.693 146.168 160.105C143.839 160.984 141.273 160.984 138.944 160.105C137.359 159.484 135.999 158.391 135.046 156.972C134.093 155.553 133.592 153.876 133.61 152.163ZM138.009 152.163C138.003 152.782 138.127 153.394 138.375 153.96C138.847 155.042 139.723 155.893 140.814 156.328C141.937 156.774 143.187 156.774 144.311 156.328C144.852 156.111 145.347 155.792 145.769 155.388C146.193 154.983 146.533 154.498 146.769 153.96C147.01 153.393 147.134 152.783 147.134 152.167C147.134 151.55 147.01 150.94 146.769 150.374C146.532 149.836 146.193 149.351 145.769 148.946C145.115 148.332 144.302 147.918 143.424 147.751C142.545 147.585 141.638 147.673 140.807 148.005C139.716 148.441 138.84 149.292 138.369 150.374C138.126 150.938 138.006 151.548 138.016 152.163H138.009ZM99.4437 148.138C100.07 148.45 100.616 148.905 101.037 149.466L101.096 144.432C100.463 144.155 99.8063 143.934 99.1344 143.774C98.5095 143.638 97.8717 143.569 97.2321 143.57C95.5727 143.564 93.9474 144.045 92.5544 144.952C91.1615 145.86 90.0611 147.156 89.3874 148.683C88.9236 149.776 88.6846 150.952 88.6846 152.141C88.6846 153.329 88.9236 154.505 89.3874 155.598C89.8361 156.623 90.4726 157.554 91.2636 158.342C92.836 159.891 94.9467 160.762 97.1471 160.77C97.7024 160.768 98.2562 160.713 98.801 160.606C99.4143 160.483 100.017 160.313 100.605 160.099L101.037 159.948V154.934C100.589 155.465 100.034 155.894 99.4081 156.193C98.7825 156.491 98.1008 156.652 97.4086 156.664C96.8177 156.669 96.2323 156.55 95.6893 156.316C95.1681 156.092 94.6958 155.768 94.2997 155.36C93.9037 154.952 93.5917 154.47 93.3817 153.94C93.155 153.369 93.0417 152.759 93.0483 152.144C93.0436 151.538 93.1569 150.936 93.3817 150.374C93.5876 149.846 93.8969 149.366 94.2911 148.961C94.6853 148.557 95.1563 148.236 95.6762 148.018C96.2306 147.783 96.8267 147.665 97.4282 147.67C98.1271 147.666 98.8172 147.826 99.4437 148.138ZM42.4504 144.016H36.1812V160.315H42.9145C43.6984 160.325 44.4798 160.223 45.2352 160.012C45.8756 159.835 46.4722 159.526 46.9872 159.104C47.4685 158.699 47.851 158.188 48.1051 157.61C48.3808 156.969 48.5168 156.276 48.5039 155.577C48.5072 155.111 48.4501 154.647 48.3339 154.195C48.223 153.773 48.0297 153.377 47.7652 153.031C47.492 152.672 47.1496 152.372 46.7584 152.149C46.2776 151.892 45.7589 151.714 45.2222 151.623C45.781 151.29 46.2431 150.816 46.5623 150.247C46.8755 149.615 47.0261 148.914 47.0003 148.208C47.0381 147.636 46.9545 147.063 46.755 146.526C46.5555 145.989 46.2446 145.502 45.8432 145.095C44.8902 144.314 43.6766 143.928 42.4504 144.016ZM41.1625 150.412H40.3911V147.254H41.1625C42.47 147.254 43.1237 147.78 43.1237 148.833C43.1237 149.886 42.47 150.412 41.1625 150.412ZM41.3129 156.992H40.3911V153.544H41.3129C42.0931 153.487 42.8751 153.628 43.5879 153.952C43.7995 154.099 43.9726 154.296 44.0921 154.525C44.2117 154.754 44.2741 155.009 44.2741 155.268C44.2741 155.527 44.2117 155.782 44.0921 156.011C43.9726 156.24 43.7995 156.437 43.5879 156.584C42.8752 156.909 42.0931 157.049 41.3129 156.992ZM55.8918 160.307L56.8593 157.478H62.8736L63.828 160.307H68.3125L62.1479 144.016H57.5718L51.4072 160.307H55.8918ZM59.8664 148.839L61.7557 154.26H57.9772L59.8664 148.839ZM85.7771 160.315H80.5473L76.5269 154.045V160.309H72.3169V144.017H78.8541C79.6588 144.001 80.4593 144.137 81.2141 144.418C81.8253 144.644 82.3798 145.002 82.8384 145.467C83.297 145.932 83.6486 146.493 83.8682 147.109C84.0967 147.742 84.2096 148.411 84.2016 149.083C84.2515 150.16 83.9382 151.222 83.3125 152.097C82.6489 152.91 81.724 153.464 80.6976 153.663L85.7771 160.315ZM76.5269 151.334H77.3179C77.9938 151.377 78.665 151.195 79.2268 150.814C79.4387 150.629 79.6087 150.4 79.7252 150.143C79.8417 149.885 79.9019 149.606 79.9019 149.324C79.9019 149.041 79.8417 148.762 79.7252 148.505C79.6087 148.247 79.4387 148.018 79.2268 147.833C78.665 147.452 77.9938 147.27 77.3179 147.313H76.5269V151.334ZM115.49 147.602H110.522V150.326H115.248V153.912H110.522V156.721H115.523V160.307H106.286V144.016H115.49V147.602ZM125.289 156.721V144.016H121.086V160.307H130.336V156.721H125.289ZM156.34 144.016V160.314L160.55 160.307V150.345L168.323 160.307H172.507V144.016H168.323V153.964L160.55 144.016H156.34ZM181.999 157.478L181.031 160.307H176.54L182.705 144.016H187.281L193.445 160.307H188.961L188.013 157.478H181.999ZM186.895 154.26L185.006 148.839L183.117 154.26H186.895ZM157.438 109.245H167.25V136.927H177.252V109.245H187.019V99.4414H157.438V109.245ZM138.274 99.4414H148.276V136.933H138.274V99.4414ZM228.825 99.4414H196.204V109.245H211.305L193.975 136.927H227.576V127.426H211.2L228.825 99.4414ZM117.853 121.114C117.869 121.102 117.92 121.076 117.999 121.035C118.997 120.522 124.573 117.655 124.573 110.691C124.545 107.702 123.341 104.847 121.225 102.75C119.109 100.653 116.253 99.4863 113.283 99.5056L97.0903 99.4727V136.978H107.249V124.022H107.994L117.055 136.925H129.711L117.853 121.114ZM107.249 107.711H110.067C113.577 107.711 114.832 109.329 114.832 111.073C114.832 112.922 113.571 114.633 109.936 114.633H107.249V107.711Z" fill="white"/>
</svg>
