<svg width="183" height="34" viewBox="0 0 183 34" fill="none" xmlns="http://www.w3.org/2000/svg">
<path fill-rule="evenodd" clip-rule="evenodd" d="M126.299 26.6573C125.947 26.9702 126.103 27.3221 126.299 27.5567C126.309 27.569 126.329 27.596 126.358 27.6361C126.89 28.3645 130.585 33.4224 138.108 33.4224C146.046 33.4224 150.465 28.5734 150.465 23.2552C150.465 18.5213 146.189 16.6379 144.753 16.0054C144.576 15.9274 144.442 15.8684 144.365 15.8254C143.891 15.5623 141.028 14.6797 138.705 13.9636C137.575 13.6153 136.573 13.3063 136.036 13.1272C134.393 12.5798 131.578 11.3284 131.578 8.94305C131.578 6.55769 133.768 4.17232 138.186 4.17232C142.134 4.17232 144.958 6.82474 145.738 7.558C145.832 7.64558 145.896 7.70578 145.929 7.73082C146.242 7.96544 146.789 8.12186 147.102 7.84813C147.328 7.65027 148.188 6.75775 148.721 6.20435C148.925 5.99214 149.081 5.82979 149.136 5.7756C149.331 5.58008 149.253 5.18903 148.901 4.8371C148.886 4.82242 148.865 4.80074 148.838 4.77266C148.215 4.12749 144.332 0.105469 138.186 0.105469C131.773 0.105469 127.12 3.9768 127.12 8.94305C127.12 13.9093 131.421 15.8645 134.823 16.9594C136.718 17.5692 138.297 18.0335 139.588 18.4129C140.616 18.7149 141.46 18.9631 142.136 19.1884C143.661 19.6967 146.281 21.3782 146.281 23.2552C146.281 25.1323 145.499 26.7355 143.622 27.8305C141.745 28.9254 140.298 29.3164 138.812 29.3164C137.326 29.3164 134.276 28.6125 133.064 27.8305C131.852 27.0484 130.014 25.5624 129.74 25.2496C129.466 24.9367 128.958 24.3893 128.41 24.8194C127.972 25.1635 126.82 26.1881 126.299 26.6573ZM62.7935 0.615033C62.4479 0.615033 62.1678 0.895156 62.1678 1.2407V32.2896C62.1678 32.6351 62.4479 32.9152 62.7935 32.9152H65.6872C66.0327 32.9152 66.3128 32.6351 66.3128 32.2896V6.9804C72.984 15.9079 84.8231 31.763 85.122 32.2113C85.513 32.7979 85.9041 32.9152 86.0605 32.9152H86.1778H86.3342H89.0716C89.4171 32.9152 89.6972 32.6351 89.6972 32.2896V1.2407C89.6972 0.895155 89.4171 0.615033 89.0716 0.615033H86.1778C85.8323 0.615033 85.5522 0.895156 85.5522 1.2407V25.8148L67.0558 1.35802C66.8863 1.11035 66.4692 0.615033 66.1564 0.615033H65.6872H65.648H62.7935ZM0.5 1.58968C0.5 1.19864 0.851939 0.651176 1.32119 0.651176H15.3597C18.5662 0.651176 23.2196 4.13146 23.2196 8.9804C23.2196 12.8596 21.3426 15.1589 20.4041 15.8237C21.9161 16.7491 24.9402 19.5542 24.9402 23.3708C24.9402 28.1415 21.0298 32.8341 16.611 32.8341H1.32119C0.891043 32.8341 0.5 32.4039 0.5 32.0911V1.58968ZM14.4603 4.75617H4.76246V14.2194H14.4603C17.8233 14.2194 18.9573 10.7782 18.9573 9.44869C18.9573 8.11915 18.2535 4.75617 14.4603 4.75617ZM4.76246 18.4437H15.6091C19.8516 18.4437 20.6388 22.1402 20.6388 23.6016C20.6388 25.063 19.3705 28.8454 15.6091 28.8454H4.76246V18.4437ZM28.3821 31.5884C28.5521 31.1541 31.348 24.4465 34.2647 17.4493L34.2657 17.4471C37.3889 9.95443 40.6502 2.1304 40.9737 1.32162C41.091 0.969678 41.4039 0.695948 41.7167 0.695948H43.8284C44.063 0.695948 44.4149 0.969678 44.5713 1.32162C44.6398 1.47567 47.0085 7.19662 49.6669 13.6175L49.6751 13.6373L49.6783 13.6451L49.6834 13.6575L49.6962 13.6883L49.697 13.6903C53.1046 21.9207 56.9751 31.269 57.0847 31.5102C57.2803 31.9403 57.3194 32.9179 56.7328 32.9179H53.9173C53.2525 32.9179 52.9788 32.6051 52.7833 32.1358C52.6268 31.7604 51.0496 27.9647 50.2806 26.1138H35.069C34.4433 27.704 33.1372 31.0253 32.9183 31.5884C32.6445 32.2923 32.3317 32.9179 31.6669 32.9179H29.0078C28.343 32.9179 28.0302 32.4878 28.3821 31.5884ZM36.7507 22.0075L42.851 7.06966L48.7166 22.0075H36.7507ZM95.0048 31.5884C95.1747 31.1541 97.9707 24.4465 100.887 17.4493C104.011 9.95596 107.273 2.13048 107.596 1.32162C107.714 0.969678 108.027 0.695948 108.339 0.695948H110.451C110.686 0.695948 111.038 0.969678 111.194 1.32162C111.263 1.47624 113.649 7.23873 116.319 13.6883L116.32 13.6903C119.727 21.9207 123.598 31.269 123.707 31.5102C123.903 31.9403 123.942 32.9179 123.355 32.9179H120.54C119.875 32.9179 119.601 32.6051 119.406 32.1358C119.25 31.7604 117.672 27.9647 116.903 26.1138H101.692C101.066 27.704 99.7599 31.0253 99.5409 31.5884C99.2672 32.2923 98.9544 32.9179 98.2896 32.9179H95.6305C94.9657 32.9179 94.6529 32.4878 95.0048 31.5884ZM103.373 22.0075L109.474 7.06966L115.339 22.0075H103.373ZM156.331 1.2407C156.331 0.895156 156.611 0.615033 156.956 0.615033H159.85C160.196 0.615033 160.476 0.895155 160.476 1.2407V13.7548L178.855 13.7548V1.2407C178.855 0.895156 179.135 0.615033 179.481 0.615033H182.374C182.72 0.615033 183 0.895155 183 1.2407V32.2896C183 32.6351 182.72 32.9152 182.374 32.9152H179.481C179.135 32.9152 178.855 32.6351 178.855 32.2896V17.8999L160.476 17.8999V32.2896C160.476 32.6351 160.196 32.9152 159.85 32.9152H156.956C156.611 32.9152 156.331 32.6351 156.331 32.2896V1.2407Z" fill="white"/>
</svg>
