<svg width="128" height="68" viewBox="0 0 128 68" fill="none" xmlns="http://www.w3.org/2000/svg">
<path fill-rule="evenodd" clip-rule="evenodd" d="M36.8404 4.05608C36.4448 1.4506 34.0119 -0.340868 31.4065 0.0547283C28.801 0.450325 27.0095 2.88318 27.4051 5.48866L32.1768 36.9161C32.5724 39.5216 35.0053 41.3131 37.6108 40.9175C40.2162 40.5219 42.0077 38.089 41.6121 35.4835L36.8404 4.05608ZM89.054 24.1857C89.054 32.3643 82.4239 38.9944 74.2452 38.9944C66.0666 38.9944 59.4365 32.3643 59.4365 24.1857C59.4365 16.007 66.0666 9.37692 74.2452 9.37692C82.4239 9.37692 89.054 16.007 89.054 24.1857ZM79.8398 24.1851C79.8398 27.2748 77.3351 29.7795 74.2454 29.7795C71.1557 29.7795 68.651 27.2748 68.651 24.1851C68.651 21.0953 71.1557 18.5906 74.2454 18.5906C77.3351 18.5906 79.8398 21.0953 79.8398 24.1851ZM21.2635 46.8949L18.96 47.7176V67.6272H108.471V47.7176L106.332 46.0722V65.4881H21.2635V46.8949ZM29.6555 50.0244H28.3392V58.2514H31.7946V57.0996H29.6555V50.0244ZM40.8443 50.0244H39.528V58.2514H40.8443V50.0244ZM48.9069 58.2514V50.0244H50.8814L51.8686 55.9479L52.6913 50.0244H54.5013V58.2514H53.3495V52.3279L52.3623 58.2514H51.2105L50.2232 52.3279V58.2514H48.9069ZM75.7272 50.0244H71.6136V51.1761H73.0945V58.2514H74.4108V51.1761H75.7272V50.0244ZM83.4606 50.0244H87.0805V51.1761H84.777V53.4797H86.5869V54.6315H84.777V57.0996H87.0805V58.2514H83.4606V50.0244ZM94.9785 58.2514V50.0244H97.6112C98.2694 50.0244 99.0921 50.6825 99.0921 51.9989V56.4415C99.0921 57.2642 98.4339 58.2514 97.2821 58.2514H94.9785ZM62.5638 50.0244H63.8802V58.2514H62.5638V50.0244ZM96.2947 51.1749V57.0984H97.1174C97.611 57.0984 97.7756 56.7693 97.7756 56.2757V51.8331C97.7756 51.1749 97.2819 51.1749 97.1174 51.1749H96.2947ZM11.8848 36.036C15.2854 34.3906 22.7117 30.7377 25.2127 29.2898C28.339 27.4798 28.8326 24.189 26.0354 21.2272C23.2382 18.2655 17.8083 13.9874 8.92309 17.1137C0.0378408 20.24 -2.43028 33.2386 2.50597 39.4912C7.44221 45.7438 15.3401 47.0601 20.2764 44.9211C25.2127 42.7821 28.9971 38.9979 29.4907 36.036C29.9843 33.0741 28.3388 31.4287 27.1871 31.0996C26.0354 30.7705 24.2254 31.0996 22.4154 33.0741L22.1712 33.3408C20.5124 35.1536 19.52 36.2381 17.4792 37.0231C15.3401 37.8458 12.7076 37.0234 11.8848 36.036ZM17.9732 25.8354L8.92341 30.4426C8.86856 29.3456 9.41703 26.8227 12.0497 25.5063C15.3405 23.8609 17.4796 25.3418 17.9732 25.8354ZM49.8617 10.8811C51.0601 10.1309 53.3111 9.05119 55.4874 9.05119C58.6137 9.05119 59.93 12.0129 60.0946 13.3293C60.2591 14.6456 59.601 16.9492 57.1328 18.101C56.5405 18.3774 56.0144 18.5212 55.5411 18.6505C54.2417 19.0056 53.3394 19.2521 52.5519 21.8377L53.9756 34.3457C54.2737 36.9641 52.3926 39.3284 49.7742 39.6264C47.1557 39.9244 44.7915 38.0434 44.4934 35.4249L42.1898 15.1863C41.8918 12.5679 43.7729 10.2036 46.3913 9.90559C47.6823 9.75865 48.9115 10.1414 49.8617 10.8811ZM101.066 15.6663C101.13 12.9408 98.8006 10.9109 96.0751 10.8471C93.3497 10.7832 91.0885 12.9408 91.0246 15.6663L90.7 36.6954C90.6508 38.7952 92.0241 40.0718 93.9908 40.809C95.9576 41.5461 98.2422 41.272 99.5852 39.6572L106.002 30.7719L106.331 41.4671C106.331 43.4416 108.742 45.5644 110.774 46.0743C112.807 46.5842 114.556 45.8484 115.71 44.0998L126.57 26.9875C128.072 24.7125 127.858 21.2732 125.583 19.7709C123.308 18.2686 120.163 19.1785 118.661 21.4534L114.203 29.4389V19.7709C114.203 17.7731 112.845 15.8966 110.939 15.305C109.032 14.7135 106.769 15.5334 105.492 17.0682L100.243 25.6711L101.066 15.6663Z" fill="white"/>
</svg>
