<svg width="913" height="1196" viewBox="0 0 913 1196" fill="none" xmlns="http://www.w3.org/2000/svg">
<mask id="path-1-inside-1_1336_1082" fill="white">
<path fill-rule="evenodd" clip-rule="evenodd" d="M543.148 106.742L517.739 201.567L719.757 255.698L547.7 897.826L415.051 974.411L508.399 626.033L409.451 599.52L249.821 1195.27L634.044 973.436L826.401 255.55L912.655 205.751L543.148 106.742ZM144.78 0.000361883L513.257 98.7334L381.107 591.925L330.602 578.393L367.574 642.43L221.477 1187.67L0.399927 804.756L193.447 84.2942L144.78 0.000361883ZM114.936 789.594L186.239 913.094L254.041 660.057L182.738 536.556L114.936 789.594ZM288.645 141.305L385.531 167.265L305.992 464.108L209.106 438.148L288.645 141.305Z"/>
</mask>
<path d="M517.739 201.567L515.808 201.049L515.29 202.981L517.222 203.499L517.739 201.567ZM543.148 106.742L543.665 104.81L541.733 104.293L541.216 106.225L543.148 106.742ZM719.757 255.698L721.689 256.215L722.207 254.283L720.275 253.766L719.757 255.698ZM547.7 897.826L548.7 899.558L549.417 899.144L549.631 898.344L547.7 897.826ZM415.051 974.411L413.119 973.893L411.87 978.557L416.051 976.143L415.051 974.411ZM508.399 626.033L510.331 626.551L510.848 624.619L508.916 624.101L508.399 626.033ZM409.451 599.52L409.969 597.588L408.037 597.07L407.519 599.002L409.451 599.52ZM249.821 1195.27L247.889 1194.75L246.64 1199.41L250.821 1197L249.821 1195.27ZM634.044 973.436L635.044 975.168L635.762 974.754L635.976 973.953L634.044 973.436ZM826.401 255.55L825.401 253.818L824.684 254.232L824.469 255.033L826.401 255.55ZM912.655 205.751L913.655 207.484L917.837 205.069L913.173 203.82L912.655 205.751ZM513.257 98.7334L515.189 99.251L515.706 97.3192L513.775 96.8016L513.257 98.7334ZM144.78 0.000361883L145.298 -1.93149L140.634 -3.18118L143.048 1.00036L144.78 0.000361883ZM381.107 591.925L380.589 593.857L382.521 594.375L383.038 592.443L381.107 591.925ZM330.602 578.393L331.12 576.461L326.456 575.211L328.87 579.393L330.602 578.393ZM367.574 642.43L369.506 642.948L369.72 642.147L369.306 641.43L367.574 642.43ZM221.477 1187.67L219.745 1188.67L222.159 1192.85L223.408 1188.19L221.477 1187.67ZM0.399927 804.756L-1.53192 804.239L-1.74634 805.039L-1.33212 805.756L0.399927 804.756ZM193.447 84.2942L195.379 84.8118L195.593 84.0116L195.179 83.2942L193.447 84.2942ZM186.239 913.094L184.507 914.094L186.921 918.276L188.171 913.612L186.239 913.094ZM114.936 789.594L113.005 789.077L112.79 789.877L113.204 790.594L114.936 789.594ZM254.041 660.057L255.972 660.574L256.187 659.774L255.773 659.057L254.041 660.057ZM182.738 536.556L184.47 535.556L182.056 531.375L180.806 536.039L182.738 536.556ZM385.531 167.265L387.463 167.783L387.98 165.851L386.048 165.333L385.531 167.265ZM288.645 141.305L289.162 139.373L287.23 138.855L286.713 140.787L288.645 141.305ZM305.992 464.108L305.474 466.04L307.406 466.558L307.924 464.626L305.992 464.108ZM209.106 438.148L207.174 437.63L206.656 439.562L208.588 440.079L209.106 438.148ZM519.671 202.085L545.08 107.26L541.216 106.225L515.808 201.049L519.671 202.085ZM720.275 253.766L518.257 199.635L517.222 203.499L719.24 257.629L720.275 253.766ZM549.631 898.344L721.689 256.215L717.826 255.18L545.768 897.309L549.631 898.344ZM416.051 976.143L548.7 899.558L546.7 896.094L414.051 972.679L416.051 976.143ZM506.467 625.515L413.119 973.893L416.983 974.929L510.331 626.551L506.467 625.515ZM408.934 601.452L507.881 627.965L508.916 624.101L409.969 597.588L408.934 601.452ZM251.753 1195.78L411.383 600.038L407.519 599.002L247.889 1194.75L251.753 1195.78ZM633.044 971.704L248.821 1193.53L250.821 1197L635.044 975.168L633.044 971.704ZM824.469 255.033L632.112 972.918L635.976 973.953L828.333 256.068L824.469 255.033ZM911.655 204.019L825.401 253.818L827.401 257.282L913.655 207.484L911.655 204.019ZM542.63 108.674L912.138 207.683L913.173 203.82L543.665 104.81L542.63 108.674ZM513.775 96.8016L145.298 -1.93149L144.263 1.93221L512.739 100.665L513.775 96.8016ZM383.038 592.443L515.189 99.251L511.325 98.2158L379.175 591.408L383.038 592.443ZM330.084 580.325L380.589 593.857L381.624 589.994L331.12 576.461L330.084 580.325ZM369.306 641.43L332.334 577.393L328.87 579.393L365.842 643.43L369.306 641.43ZM223.408 1188.19L369.506 642.948L365.642 641.912L219.545 1187.15L223.408 1188.19ZM-1.33212 805.756L219.745 1188.67L223.209 1186.67L2.13197 803.756L-1.33212 805.756ZM191.515 83.7765L-1.53192 804.239L2.33178 805.274L195.379 84.8118L191.515 83.7765ZM143.048 1.00036L191.715 85.2942L195.179 83.2942L146.512 -0.999638L143.048 1.00036ZM187.971 912.094L116.668 788.594L113.204 790.594L184.507 914.094L187.971 912.094ZM252.109 659.539L184.307 912.577L188.171 913.612L255.972 660.574L252.109 659.539ZM181.006 537.556L252.309 661.057L255.773 659.057L184.47 535.556L181.006 537.556ZM116.868 790.112L184.67 537.074L180.806 536.039L113.005 789.077L116.868 790.112ZM386.048 165.333L289.162 139.373L288.127 143.237L385.013 169.197L386.048 165.333ZM307.924 464.626L387.463 167.783L383.599 166.748L304.06 463.59L307.924 464.626ZM208.588 440.079L305.474 466.04L306.51 462.176L209.623 436.216L208.588 440.079ZM286.713 140.787L207.174 437.63L211.038 438.665L290.576 141.822L286.713 140.787Z" fill="#0E2433" mask="url(#path-1-inside-1_1336_1082)"/>
</svg>
