<svg width="77" height="72" viewBox="0 0 77 72" fill="none" xmlns="http://www.w3.org/2000/svg">
<path fill-rule="evenodd" clip-rule="evenodd" d="M7.98894 9.77011C7.98894 9.77011 4.78684 13.5621 4.44986 19.9957C4.11289 26.4293 4.72744 31.7125 4.72744 31.7125C3.65666 29.8036 2.79557 27.7793 2.15987 25.6766C1.19696 22.444 0.771997 18.4335 0.771997 18.4335C0.771997 18.4335 -4.26411 38.9064 11.3892 51.5246C24.1431 61.8056 38.2446 71.9758 38.2446 71.9758C38.2446 71.9758 55.8061 59.1001 66.0715 50.5304C80.6532 38.3575 75.7172 18.2204 75.7172 18.2204C75.7172 18.2204 75.0961 23.1109 74.1905 26.1026C73.1309 29.6035 71.8312 31.8545 71.8312 31.8545C71.8312 31.8545 72.718 23.7841 71.9006 18.2914C71.1233 13.0681 68.5697 9.84113 68.5697 9.84113C68.5697 9.84113 71.7285 16.8544 65.4469 23.1912C59.1175 29.5763 48.3067 37.8905 48.3067 37.8905C48.3067 37.8905 45.0632 40.9724 43.8655 46.8379C42.5678 53.1941 43.4491 60.543 43.4491 60.543L38.3834 64.3066L32.9707 60.1879C32.9707 60.1879 33.9755 55.2655 33.1789 49.2522C32.4939 44.0796 29.0846 38.8846 29.0846 38.8846C29.0846 38.8846 18.3633 30.1244 11.875 24.1143C4.66415 17.4353 7.98894 9.77011 7.98894 9.77011ZM29.7786 61.3951C29.7786 61.3951 31.0089 48.7104 27.1416 43.7844C25.506 41.7007 15.0671 33.7008 15.0671 33.7008C15.0671 33.7008 13.0252 31.8493 12.222 31.1444C11.4187 30.4396 10.3483 30.8968 10.3483 32.6357C10.3483 34.3745 10.4949 40.2314 11.3198 42.5772C12.1448 44.9231 12.771 46.01 17.0101 49.3233C21.2492 52.6366 28.8764 58.3417 28.8764 58.3417L29.7786 61.3951ZM46.5718 61.1111C46.5718 61.1111 46.2443 53.7188 46.8494 50.7435C47.4545 47.7681 48.3303 44.5437 50.1803 42.8613C52.0304 41.1788 63.6982 31.5705 64.4754 31.0024C65.2526 30.4343 66.2359 31.4685 66.1409 32.5647C66.0458 33.6609 66.2644 40.4496 64.8224 43.4293C63.3804 46.4091 63.1764 46.5648 60.4506 48.6842C57.7248 50.8035 47.6821 58.3417 47.6821 58.3417L46.5718 61.1111ZM32.6931 29.1561C32.6931 29.1561 27.8695 11.3018 27.7662 10.9063C27.6628 10.5108 27.406 10.413 27.0028 10.8353C26.5996 11.2575 22.6775 15.3262 22.0759 15.9481C21.4742 16.5699 20.9957 17.448 22.4228 18.8595C23.85 20.2711 32.6931 29.1561 32.6931 29.1561ZM43.6115 29.1213C43.6115 29.1213 48.4358 11.2671 48.5385 10.8715C48.6412 10.4759 48.8986 10.3783 49.3018 10.8005C49.705 11.2227 53.6271 15.2914 54.2287 15.9133C54.8304 16.5351 55.3092 17.4132 53.8818 18.8247C52.4543 20.2362 43.6115 29.1213 43.6115 29.1213ZM38.0364 29.5112C38.0364 29.5112 32.1581 7.27905 31.9992 6.71664C31.8403 6.15423 32.0186 5.52181 32.3461 5.29642C32.6737 5.07103 36.7374 0.736871 37.2037 0.396657C37.67 0.0564436 38.6471 -0.354142 39.4243 0.53868C40.2015 1.4315 43.8419 5.05498 44.1431 5.36743C44.4442 5.67988 44.4352 6.20877 44.2125 7.14271C43.9897 8.07664 38.0364 29.5112 38.0364 29.5112Z" fill="white"/>
</svg>
