<svg width="27" height="24" viewBox="0 0 27 24" fill="none" xmlns="http://www.w3.org/2000/svg">
<path fill-rule="evenodd" clip-rule="evenodd" d="M17.5 4.37499H21.8749C23.0353 4.37499 24.1481 4.83592 24.9685 5.65639C25.789 6.47686 26.2499 7.58966 26.2499 8.74998V11.6666H16.0416C16.0416 11.2799 15.888 10.9089 15.6145 10.6354C15.341 10.362 14.9701 10.2083 14.5833 10.2083H11.6666C11.2799 10.2083 10.9089 10.362 10.6354 10.6354C10.362 10.9089 10.2083 11.2799 10.2083 11.6666H0V8.74998C0 7.58966 0.460935 6.47686 1.2814 5.65639C2.10187 4.83592 3.21467 4.37499 4.37499 4.37499H8.74998V2.91666C8.74998 2.14311 9.05727 1.40125 9.60425 0.85427C10.1512 0.30729 10.8931 0 11.6666 0H14.5833C15.3568 0 16.0987 0.30729 16.6457 0.85427C17.1927 1.40125 17.5 2.14311 17.5 2.91666V4.37499ZM10.2083 4.37499H16.0416V2.91666C16.0412 2.53002 15.8874 2.15935 15.614 1.88595C15.3406 1.61256 14.9699 1.45877 14.5833 1.45833H11.6666C11.28 1.45877 10.9093 1.61256 10.6359 1.88595C10.3625 2.15935 10.2088 2.53002 10.2083 2.91666V4.37499ZM11.6666 15.3138H14.5833C14.9701 15.3138 15.341 15.1602 15.6145 14.8867C15.888 14.6132 16.0416 14.2423 16.0416 13.8555H26.2499V18.9596C26.2499 20.12 25.789 21.2328 24.9685 22.0532C24.1481 22.8737 23.0353 23.3346 21.8749 23.3346H4.37499C3.21467 23.3346 2.10187 22.8737 1.2814 22.0532C0.460935 21.2328 0 20.12 0 18.9596V13.8555H10.2083C10.2083 14.2423 10.362 14.6132 10.6354 14.8867C10.9089 15.1602 11.2799 15.3138 11.6666 15.3138Z" fill="#CCFF00"/>
</svg>
