<svg width="273" height="279" viewBox="0 0 273 279" fill="none" xmlns="http://www.w3.org/2000/svg">
<path fill-rule="evenodd" clip-rule="evenodd" d="M120.361 1.27598C123.194 0.252287 126.715 -0.487056 129.84 0.38799C131.294 0.794943 134.017 2.04486 137.604 3.89183C141.301 5.79542 146.177 8.47199 152.075 11.9059C163.874 18.7754 179.814 28.7055 198.675 41.6063C236.629 67.5653 266.492 103.135 270.015 107.956C272.387 111.202 272.519 115.184 271.95 118.621C271.374 122.105 269.999 125.547 268.698 128.24C267.918 129.855 265.9 132.673 263.515 135.803C261.046 139.044 257.95 142.916 254.79 146.777C248.487 154.478 241.826 162.26 239.271 164.998C236.312 168.169 233.013 169.597 229.752 169.566C226.584 169.535 223.876 168.129 221.964 166.443C220.538 165.184 219.925 163.568 219.671 162.111C219.426 160.701 219.479 159.227 219.558 157.991C219.588 157.53 219.62 157.107 219.651 156.707V156.706L219.651 156.706L219.651 156.704L219.651 156.702C219.711 155.915 219.765 155.216 219.777 154.489C219.794 153.43 219.702 152.731 219.533 152.267C219.003 150.81 217.318 148.032 214.766 145.163C212.239 142.323 209.161 139.735 206.066 138.376C202.769 136.928 198.514 135.882 194.256 135.442C189.97 134.999 185.957 135.197 183.09 136.027C180.573 136.756 176.266 139.807 172.508 144.599C168.813 149.311 166.095 155.151 166.095 161C166.095 172.96 174.064 180.935 183.02 183.291C187.748 184.536 190.201 184.371 191.831 183.984C192.705 183.776 193.444 183.483 194.39 183.108L194.399 183.104C195.314 182.742 196.442 182.294 197.789 182.014C200.207 181.51 203.685 181.255 206.881 181.767C209.854 182.242 213.845 183.61 215.24 187.483C216.002 189.599 215.538 191.778 214.809 193.603C214.063 195.472 212.851 197.439 211.449 199.416C209.413 202.286 206.704 205.543 203.872 208.946C202.83 210.199 201.771 211.472 200.723 212.753C193.88 221.117 182.807 236.083 176.919 244.042L176.919 244.043L176.918 244.044L176.913 244.05C175.985 245.305 175.185 246.386 174.552 247.238C171.865 250.856 167.468 254.005 163.171 256.106C160.994 257.171 158.745 258.015 156.624 258.522C154.551 259.017 152.373 259.245 150.443 258.859C148.51 258.472 146.497 257.362 144.656 256.127C142.749 254.849 140.724 253.227 138.727 251.524C136.77 249.854 134.781 248.055 132.905 246.357L132.777 246.241C130.845 244.493 129.049 242.871 127.46 241.539C124.189 238.799 118.671 234.246 113.046 230.212C110.232 228.194 107.434 226.338 104.908 224.912C102.319 223.45 100.256 222.58 98.8544 222.319C97.5832 222.082 97.2635 222.38 97.2352 222.406L97.2336 222.407C97.0986 222.524 96.7991 222.921 96.6172 223.995C96.31 225.809 96.5416 227.989 96.7519 229.967C96.8019 230.439 96.8508 230.899 96.8909 231.339C96.9164 231.62 96.9836 232.03 97.0692 232.554L97.0692 232.554C97.3906 234.518 97.9713 238.067 97.5775 242.249C97.0581 247.764 94.9413 254.689 89.0778 262.973C82.8935 271.709 71.1909 277.745 59.3857 278.668C47.4425 279.601 34.8826 275.314 27.6138 262.741L27.5783 262.68L27.5458 262.617C17.5321 243.238 20.1046 229.216 26.6344 219.77C32.9523 210.631 42.5962 206.327 46.0415 205.314C49.1018 204.414 52.2656 203.436 54.7919 201.979C57.2878 200.539 58.6788 198.914 59.0071 196.89C59.3799 194.591 58.6801 192.048 56.9008 189.129C55.1197 186.207 52.4457 183.219 49.3795 180.153C46.4274 177.201 38.1923 170.392 29.6541 163.744C21.0747 157.063 12.6424 150.901 9.27675 149.095C5.24253 146.93 2.54308 144.285 1.13183 141.169C-0.285095 138.04 -0.225233 134.829 0.510727 131.885C0.970837 130.045 2.3074 127.857 3.80488 125.696C5.38352 123.417 7.45455 120.74 9.76148 117.823C10.6447 116.706 11.5652 115.551 12.5125 114.362C16.5568 109.285 21.0887 103.597 25.2819 97.6981L25.307 97.6629L25.333 97.6284C30.001 91.4469 36.1748 85.0528 41.6234 80.159C44.3502 77.7098 46.9422 75.5943 49.1177 74.049C50.2023 73.2787 51.2285 72.6178 52.1466 72.1242C52.971 71.681 54.0363 71.1878 55.1055 71.0809C57.0256 70.8889 59.7612 70.9041 61.662 73.1461C63.324 75.1064 63.6372 78.0317 63.5479 81.2459C63.5272 81.9905 63.4996 82.7314 63.472 83.4691C63.251 89.3885 63.0376 95.1049 66.4978 100.918C68.2374 103.841 72.5528 106.938 77.4981 109.249C79.8919 110.367 82.2728 111.225 84.302 111.747C86.4455 112.298 87.8295 112.377 88.4082 112.273C90.6249 111.877 96.7516 110.292 102.861 106.735C108.97 103.178 114.727 97.856 116.919 90.1041C119.234 81.9213 118.489 75.6421 116.536 70.7969C114.56 65.8959 111.25 62.2287 108.081 59.4766C105.419 57.1646 101.932 56.2497 98.2408 56.1294C94.5535 56.0091 90.9522 56.6931 88.3754 57.2944C85.1918 58.0372 82.0263 57.8038 79.5189 56.3851C76.8991 54.9029 75.2906 52.2681 75.2906 49.0504C75.2906 47.1957 76.082 45.3541 76.9647 43.7911C77.8899 42.1531 79.1465 40.428 80.5226 38.7192C82.7583 35.9432 85.5118 32.9679 88.0559 30.2187L88.0576 30.2169L88.0679 30.2058L88.075 30.1982L88.0801 30.1926C88.6475 29.5795 89.2044 28.9776 89.7427 28.3919C92.7956 25.0696 97.7048 19.9824 102.244 15.4207C106.71 10.933 111.036 6.73124 112.819 5.34422C114.675 3.90067 117.439 2.33194 120.361 1.27598ZM122.4 6.91888C120.044 7.77014 117.84 9.04006 116.503 10.0803C115.093 11.1771 111.08 15.0479 106.497 19.6529C101.989 24.1838 97.1399 29.2095 94.1606 32.4516C93.5797 33.0838 92.9903 33.7209 92.399 34.36L92.3984 34.3606L92.3983 34.3607C89.861 37.1034 87.2884 39.884 85.1956 42.4827C83.9105 44.0783 82.8828 45.5134 82.1891 46.7418C81.4529 48.0452 81.2906 48.7761 81.2906 49.0504C81.2906 50.0907 81.7225 50.7381 82.4735 51.163C83.337 51.6516 84.8731 51.9504 87.012 51.4513C89.7576 50.8107 93.9626 49.9867 98.4364 50.1326C102.907 50.2783 107.936 51.4037 112.015 54.9464C115.588 58.0491 119.641 62.4543 122.1 68.5531C124.582 74.7076 125.346 82.3556 122.693 91.737C119.918 101.549 112.723 107.936 105.88 111.92C99.0385 115.903 92.2139 117.689 89.463 118.18C87.5578 118.52 85.1274 118.155 82.8078 117.558C80.3739 116.932 77.643 115.939 74.9582 114.684C72.0923 113.345 69.076 111.614 66.4932 109.573L61.1026 111.609C60.5526 111.817 59.9383 111.54 59.7306 110.99C59.5228 110.44 59.8002 109.826 60.3502 109.618L64.6532 107.992C64.118 107.49 63.6134 106.972 63.1463 106.44L57.9092 108.418C57.3592 108.626 56.745 108.348 56.5372 107.798C56.3294 107.248 56.6068 106.634 57.1568 106.426L61.7814 104.679C61.6273 104.451 61.4807 104.22 61.3421 103.987C61.0762 103.54 60.8274 103.093 60.5947 102.646L54.7158 104.867C54.1659 105.075 53.5516 104.798 53.3438 104.248C53.1361 103.698 53.4135 103.083 53.9635 102.876L59.6851 100.714C59.3951 100.028 59.1395 99.3435 58.9146 98.6617L51.877 101.32C51.327 101.528 50.7127 101.251 50.505 100.701C50.2972 100.151 50.5746 99.5365 51.1246 99.3288L58.3236 96.6091C58.1824 96.039 58.0605 95.4719 57.9553 94.9086L55.4095 95.826C54.8564 96.0253 54.2465 95.7385 54.0472 95.1854C53.8479 94.6323 54.1347 94.0224 54.6878 93.8231L57.6292 92.7631C57.5502 92.0984 57.4913 91.4409 57.4486 90.7921L51.89 92.9759C51.3428 93.1908 50.725 92.9215 50.51 92.3743C50.295 91.8271 50.5644 91.2093 51.1115 90.9943L57.3587 88.5401C57.35 87.9972 57.3499 87.4623 57.3558 86.9362L50.1156 89.7805C49.5684 89.9955 48.9506 89.7262 48.7356 89.179C48.5206 88.6318 48.7899 88.0139 49.3371 87.799L57.4146 84.6257C57.4325 84.1355 57.4524 83.6554 57.4719 83.1862L57.472 83.1858L57.472 83.1856L57.4859 82.8502L48.8734 86.2337C48.3262 86.4486 47.7084 86.1793 47.4934 85.6321C47.2784 85.0849 47.5478 84.4671 48.0949 84.2521L57.5602 80.5336C57.5703 79.3444 57.4953 78.4933 57.3763 77.893C57.2751 77.3829 57.1606 77.1487 57.1107 77.0646C56.9809 77.0249 56.6158 76.9648 55.7682 77.0447L55.7684 77.0449C55.7687 77.0461 55.7586 77.0499 55.7374 77.0578C55.6576 77.0877 55.4201 77.1765 54.9877 77.4089C54.3665 77.7429 53.5618 78.252 52.5921 78.9407C50.6594 80.3134 48.2505 82.2716 45.6327 84.6228C40.4022 89.3207 34.5245 95.4197 30.1469 101.21C25.8554 107.245 21.2052 113.081 17.1645 118.152C16.2288 119.326 15.3259 120.46 14.4676 121.545C12.1617 124.46 10.1965 127.006 8.73691 129.113C7.19615 131.337 6.49243 132.697 6.33158 133.341C5.82563 135.364 5.88549 137.121 6.59756 138.694C7.3153 140.279 8.87383 142.07 12.1137 143.808C16.022 145.905 24.8878 152.428 33.3403 159.009C41.8341 165.623 50.3647 172.653 53.6222 175.91C56.7655 179.053 59.8575 182.452 62.024 186.006C64.1922 189.563 65.6214 193.584 64.9297 197.85C64.1934 202.39 61.0604 205.289 57.7902 207.176C54.5505 209.045 50.7064 210.196 47.7345 211.07C45.1477 211.831 36.8727 215.511 31.5699 223.182C26.485 230.538 23.7355 242.133 32.8432 259.798C38.7082 269.888 48.749 273.481 58.9182 272.686C69.2456 271.879 79.1876 266.56 84.1806 259.506C89.4943 252 91.1919 246.062 91.6039 241.686C91.9146 238.387 91.5448 236.097 91.225 234.116L91.225 234.116C91.0994 233.338 90.9815 232.608 90.9155 231.883C90.8923 231.627 90.8573 231.312 90.817 230.949L90.8168 230.947L90.8167 230.946C90.6021 229.013 90.2378 225.731 90.7014 222.993C90.9852 221.317 91.6503 219.298 93.3173 217.862C95.105 216.321 97.4412 215.953 99.9518 216.42C102.364 216.869 105.136 218.15 107.859 219.687C110.644 221.26 113.635 223.252 116.542 225.336C122.36 229.508 128.02 234.181 131.313 236.94C133.006 238.359 134.892 240.063 136.802 241.792L136.903 241.883L136.904 241.884C138.8 243.599 140.732 245.348 142.622 246.959C144.55 248.605 146.373 250.055 147.997 251.144C149.688 252.277 150.891 252.83 151.619 252.975C152.35 253.121 153.566 253.083 155.23 252.686C156.845 252.3 158.677 251.625 160.536 250.716C164.312 248.869 167.81 246.253 169.735 243.661C170.356 242.824 171.146 241.757 172.067 240.513L172.067 240.512L172.068 240.511C177.934 232.581 189.129 217.449 196.079 208.954C197.222 207.557 198.34 206.214 199.414 204.922C202.182 201.594 204.663 198.612 206.555 195.945C207.858 194.107 208.752 192.593 209.237 191.378C209.739 190.121 209.631 189.617 209.594 189.515C209.392 188.953 208.504 188.103 205.933 187.691C203.585 187.316 200.853 187.504 199.013 187.888C198.231 188.05 197.541 188.313 196.61 188.682L196.488 188.73L196.488 188.73L196.488 188.731L196.488 188.731C195.611 189.078 194.52 189.512 193.218 189.821C190.368 190.498 186.877 190.511 181.493 189.094C170.224 186.128 160.095 176.006 160.095 161C160.095 153.364 163.587 146.253 167.787 140.897C171.924 135.621 177.198 131.486 181.422 130.264C185.297 129.142 190.155 128.986 194.873 129.474C199.619 129.965 204.501 131.136 208.478 132.882C212.657 134.717 216.409 137.983 219.249 141.175C222.064 144.339 224.282 147.77 225.172 150.216C225.713 151.704 225.798 153.267 225.776 154.587C225.761 155.498 225.685 156.502 225.618 157.382L225.618 157.383L225.618 157.384L225.618 157.385L225.617 157.386L225.617 157.386C225.59 157.741 225.565 158.075 225.546 158.375C225.47 159.557 225.467 160.422 225.582 161.081C225.689 161.691 225.852 161.872 225.934 161.944C227.038 162.918 228.411 163.553 229.811 163.566C231.118 163.579 232.876 163.056 234.885 160.904C237.297 158.319 243.853 150.667 250.147 142.977C250.497 142.549 250.846 142.121 251.194 141.695L248.09 142.838C247.539 143.041 246.927 142.759 246.724 142.207C246.52 141.655 246.803 141.043 247.354 140.84L253.804 138.464C254.488 137.611 255.155 136.772 255.8 135.955L248.806 138.578C248.256 138.784 247.642 138.505 247.436 137.955C247.229 137.404 247.508 136.791 248.059 136.584L258.302 132.743C258.451 132.549 258.598 132.357 258.742 132.167C259.27 131.475 259.758 130.825 260.203 130.223L250.225 133.965C249.675 134.171 249.061 133.892 248.855 133.342C248.648 132.791 248.927 132.178 249.478 131.971L262.395 127.127C262.829 126.472 263.132 125.968 263.295 125.631C263.535 125.135 263.771 124.622 264 124.097L250.935 128.996C250.385 129.202 249.771 128.923 249.565 128.373C249.358 127.822 249.637 127.209 250.188 127.002L265.042 121.432C265.473 120.176 265.821 118.9 266.028 117.66L250.935 123.32C250.385 123.527 249.771 123.248 249.565 122.697C249.358 122.147 249.637 121.533 250.188 121.327L265.8 115.472C265.943 115.418 266.09 115.398 266.233 115.406C266.235 114.802 266.187 114.244 266.091 113.732L255.544 117.645C254.993 117.849 254.38 117.568 254.176 117.017C253.971 116.466 254.252 115.853 254.803 115.649L265.338 111.741C265.309 111.695 265.279 111.651 265.249 111.607C265.224 111.569 265.198 111.533 265.171 111.496C264.974 111.226 264.678 110.841 264.287 110.349C264.271 110.356 264.254 110.363 264.237 110.369L253.237 114.45C252.686 114.654 252.073 114.373 251.869 113.822C251.664 113.271 251.946 112.658 252.497 112.454L262.871 108.605C262.602 108.281 262.314 107.934 262.006 107.568L254.131 110.543C253.581 110.751 252.967 110.473 252.759 109.923C252.551 109.373 252.829 108.759 253.378 108.551L260.543 105.845C260.127 105.36 259.686 104.849 259.221 104.316L253.066 106.641C252.516 106.848 251.902 106.571 251.694 106.021C251.487 105.471 251.764 104.857 252.314 104.649L257.72 102.607C257.314 102.148 256.894 101.675 256.458 101.189L252.356 102.738C251.806 102.946 251.192 102.669 250.984 102.119C250.777 101.569 251.054 100.954 251.604 100.747L254.928 99.4909L254.647 99.1811L254.42 98.9322L248.099 101.32C247.549 101.528 246.934 101.251 246.727 100.701C246.519 100.151 246.796 99.5365 247.346 99.3288L252.87 97.2419C240.316 83.6382 219.458 63.0902 195.288 46.5587C176.538 33.7342 160.721 23.8825 149.056 17.091C143.222 13.6944 138.44 11.0706 134.858 9.22632C131.165 7.32538 128.987 6.37978 128.223 6.16577C126.912 5.79891 124.845 6.03535 122.4 6.91888ZM57.1709 77.0921C57.1688 77.0935 57.154 77.0881 57.1328 77.072C57.1624 77.0827 57.173 77.0908 57.1709 77.0921ZM144.825 227.065L144.825 227.065C144.719 227.398 144.606 227.75 144.467 228.24C144.112 229.482 143.934 230.192 144.821 230.546C145.708 230.901 146.596 230.369 147.128 228.063C147.64 225.842 147.495 225.266 147.325 224.593L147.305 224.514C147.128 223.805 145.886 223.095 145.354 225.224C145.139 226.083 144.989 226.552 144.825 227.065ZM138.434 228.063C138.612 229.127 139.321 229.837 140.031 229.659C140.741 229.482 141.096 228.24 140.741 227.708C140.386 227.175 139.854 226.998 139.144 227.175C138.576 227.317 138.434 227.826 138.434 228.063ZM151.208 231.256C151.988 230.737 152.482 230.502 153.108 230.205C153.337 230.097 153.584 229.979 153.87 229.837C154.12 229.716 154.282 229.574 154.443 229.432C154.755 229.16 155.064 228.889 155.999 228.772C157.418 228.595 157.418 228.95 157.418 229.659C157.418 230.369 156.531 231.433 155.466 232.321C154.402 233.208 152.45 234.095 151.386 233.74C150.321 233.385 150.144 231.966 151.208 231.256Z" fill="white"/>
</svg>
