<svg width="251" height="287" viewBox="0 0 251 287" fill="none" xmlns="http://www.w3.org/2000/svg">
<path fill-rule="evenodd" clip-rule="evenodd" d="M197.019 1.33684C187.346 -0.812673 177.595 -0.785044 164.828 4.53461C157.8 7.46288 154.628 12.342 153.54 17.3167C152.504 22.0518 153.405 26.6698 153.908 29.1891L153.931 29.3039C154.999 34.642 155.507 37.1802 153.445 39.9298C151.626 42.3548 148.399 42.7167 145.086 41.0601C144.431 40.7327 143.164 39.8172 141.352 38.3103C139.619 36.8684 137.604 35.071 135.522 33.1789C134.501 32.2502 133.457 31.2922 132.424 30.3446L132.424 30.3444L132.423 30.3439L132.423 30.3435C129.33 27.5062 126.341 24.7631 124.369 23.1859C121.758 21.0973 119.06 19.1979 116.421 17.8089C113.822 16.4405 111.033 15.4349 108.302 15.4349H108.133L107.966 15.4534C97.7656 16.5869 92.0708 21.2984 83.8867 29.4824C75.6989 37.6702 59.3329 57.0831 54.1061 65.4461C51.5448 69.5441 48.959 74.5637 48.3591 78.913C48.055 81.1178 48.198 83.6022 49.6098 85.6928C51.0824 87.8734 53.4936 88.9876 56.3457 89.3045C60.3979 89.7548 63.6149 89.4597 66.3517 89.2086C66.938 89.1548 67.5022 89.1031 68.0479 89.0611C71.0906 88.8271 73.9433 88.8309 77.9889 90.1794C82.2259 91.5918 85.665 93.6069 87.9483 96.513C90.1805 99.354 91.5627 103.37 91.104 109.334C90.181 121.333 83.7933 129.638 74.3503 135.303C65.5078 140.609 58.9268 136.87 57.8164 135.76C57.2832 135.227 56.4386 134.495 55.551 133.726L55.1921 133.415C54.1208 132.486 52.8997 131.417 51.6876 130.265C49.1461 127.851 47.0818 125.469 46.3425 123.621C45.302 121.02 43.9638 118.06 42.4451 115.574C41.6861 114.332 40.8356 113.132 39.8999 112.136C38.9921 111.171 37.8217 110.201 36.3861 109.722C31.4203 108.067 24.0761 110.435 17.6396 121.162C11.3908 131.577 6.2424 144.994 3.16456 155.254C0.615373 163.751 0 174.203 0 178.394V180.019L1.35215 180.92C7.38551 184.943 21.3153 193.965 27.9949 197.304C29.8903 198.252 31.849 199.183 33.8322 200.125L33.8334 200.125L33.837 200.127C36.3789 201.335 38.961 202.561 41.5019 203.868C43.6773 204.987 45.6267 206.07 47.1905 207.093C48.8153 208.156 49.7741 208.996 50.2035 209.569C51.639 211.483 52.3333 212.828 52.5736 213.95C52.7848 214.935 52.7001 216.005 51.9411 217.523C51.3024 218.8 50.0989 219.953 47.8482 221.374C46.4658 222.247 44.9511 223.072 43.1717 224.041L43.1704 224.042L43.168 224.043C41.918 224.724 40.5373 225.476 38.9802 226.366C35.3692 228.429 31.8706 230.706 29.201 234.265C26.4933 237.876 24.8422 242.518 24.3025 248.993C23.7355 255.797 25.7172 262.989 29.2541 269.11C32.7906 275.231 38.033 280.543 44.291 283.387C50.5671 286.24 58.8086 286.719 66.1547 285.517C73.3961 284.332 80.6762 281.356 84.4148 276.372C87.3899 272.405 89.6653 269.315 90.9761 266.257C92.3823 262.976 92.6423 259.86 92.0767 255.901C91.5566 252.26 91.1189 249.086 91.3376 246.461C91.5479 243.939 92.3067 242.545 93.6695 241.728C94.0341 241.509 94.8806 241.287 96.5111 241.576C98.0857 241.855 100.012 242.549 102.136 243.611C106.381 245.733 110.925 249.078 114.252 252.405C117.051 255.204 120.52 259.329 124.013 263.485C124.795 264.414 125.577 265.345 126.354 266.263C128.443 268.732 130.484 271.099 132.272 272.985C133.166 273.929 134.03 274.787 134.829 275.492C135.594 276.166 136.446 276.834 137.309 277.266C141.732 279.477 146.473 280.147 149.924 276.697C150.151 276.469 150.69 276.014 151.478 275.349C156.197 271.361 169.836 259.839 178.734 244.712C182.133 238.935 185.263 234.022 187.974 229.769L187.975 229.767L187.979 229.762C189.292 227.701 190.506 225.795 191.604 224.021C193.258 221.349 194.662 218.953 195.655 216.863C196.616 214.843 197.373 212.752 197.373 210.783L197.373 210.525V210.525C197.374 208.199 197.375 205.49 196.584 203.117C195.659 200.34 193.731 198.161 190.403 196.83C188.639 196.124 186.694 195.919 184.892 195.901C183.07 195.884 181.179 196.06 179.451 196.252C178.926 196.31 178.422 196.369 177.937 196.426C176.758 196.564 175.688 196.689 174.676 196.763C173.215 196.871 172.302 196.831 171.793 196.704C171.636 196.664 171.468 196.623 171.289 196.579L171.286 196.578C169.075 196.034 165.201 195.08 161.34 193.042C157.184 190.848 153.358 187.561 151.669 182.494C147.886 171.145 149.825 161.856 152.517 156.472C153.684 154.137 156.694 150.996 160.987 148.676C165.215 146.39 170.353 145.086 175.618 145.963C181.283 146.907 186.488 149.039 190.358 151.385C192.294 152.558 193.832 153.746 194.907 154.807C196.058 155.944 196.402 156.665 196.451 156.863C196.638 157.611 196.825 158.467 197.038 159.447L197.038 159.448L197.039 159.448L197.039 159.451L197.039 159.452L197.04 159.453C197.098 159.722 197.159 160 197.222 160.288C197.509 161.595 197.838 163.048 198.239 164.516C199.021 167.384 200.153 170.629 202.029 173.131C203.625 175.259 205.853 177.517 208.906 177.752C212.109 177.999 214.755 175.951 216.951 173.206L216.963 173.19C221.066 168.061 233.484 152.539 240.74 130.77C241.485 128.535 242.188 126.439 242.847 124.473L242.849 124.466L242.849 124.466C245.303 117.144 247.155 111.618 248.37 107.364C249.885 102.062 250.612 98.1266 249.946 94.8006L249.918 94.6581C249.418 92.1535 248.765 88.8846 245.884 85.843C243.036 82.8373 238.345 80.3719 230.544 78.2918C222.952 76.2671 215.695 74.2638 209.72 72.2721C203.605 70.2337 199.297 68.3499 197.245 66.7086C195.114 65.004 194.681 63.8752 194.563 62.985C194.413 61.8643 194.657 60.6584 195.111 58.4141L195.111 58.4138L195.112 58.4074C195.168 58.131 195.227 57.8389 195.289 57.5292C195.335 57.3031 195.56 56.8012 196.536 56.051C197.489 55.3174 198.816 54.6096 200.416 53.8708C201.184 53.5167 201.97 53.1749 202.775 52.825L202.834 52.7993C203.646 52.4462 204.483 52.0817 205.271 51.7131C206.743 51.0239 208.463 50.1375 209.642 48.9592C211.589 47.0122 213.807 43.2728 215.409 38.8668C217.036 34.3926 218.164 28.864 217.601 23.2301C216.43 11.5206 207.106 3.57842 197.019 1.33684ZM170.958 8.69334C180.603 5.36858 188.121 5.58067 195.702 7.26523C203.834 9.07232 210.705 15.3005 211.558 23.8344C212.007 28.3221 211.111 32.9152 209.702 36.7914C208.267 40.7357 206.437 43.5755 205.347 44.6649C205.007 45.0049 204.197 45.5102 202.696 46.2128C201.997 46.54 201.237 46.8714 200.412 47.2299L200.329 47.2661C199.542 47.6085 198.701 47.9739 197.872 48.3568C196.183 49.1362 194.346 50.0732 192.833 51.2374C191.341 52.3851 189.795 54.034 189.334 56.3382C189.278 56.6195 189.218 56.9078 189.157 57.2021L189.156 57.2043C188.732 59.2454 188.247 61.572 188.543 63.7876C188.93 66.693 190.521 69.1069 193.451 71.4509C196.461 73.8582 201.768 76.0231 207.799 78.0334C213.97 80.0904 221.39 82.1357 228.98 84.1597C236.362 86.1283 239.768 88.2176 241.475 90.0197C243.093 91.7279 243.484 93.4531 243.991 95.9916C244.338 97.7264 244.053 100.37 242.531 105.696C241.357 109.806 239.565 115.152 237.121 122.444L237.12 122.448C236.455 124.433 235.741 126.562 234.979 128.85C228.072 149.57 216.215 164.404 212.208 169.412C210.356 171.728 209.459 171.704 209.372 171.697C209.136 171.679 208.327 171.407 206.887 169.487C205.727 167.94 204.834 165.618 204.098 162.918C203.739 161.603 203.436 160.272 203.154 158.986C203.097 158.729 203.041 158.471 202.985 158.215C202.768 157.219 202.555 156.239 202.343 155.39C201.886 153.563 200.585 151.88 199.174 150.486C197.687 149.017 195.746 147.549 193.506 146.191C189.026 143.476 183.098 141.053 176.616 139.973C169.736 138.826 163.234 140.558 158.099 143.333C153.029 146.074 148.954 150.018 147.085 153.756C143.704 160.518 141.594 171.473 145.908 184.415C148.268 191.494 153.552 195.798 158.505 198.413C163.057 200.815 167.597 201.927 169.813 202.47C169.999 202.516 170.168 202.557 170.32 202.595C171.835 202.974 173.579 202.934 175.123 202.82C176.273 202.735 177.545 202.587 178.776 202.443L178.776 202.442C179.233 202.389 179.684 202.336 180.122 202.288C181.81 202.1 183.398 201.96 184.833 201.974C186.29 201.988 187.381 202.162 188.148 202.469C189.881 203.162 190.483 204.019 190.823 205.038C191.268 206.372 191.3 208.105 191.3 210.783C191.3 211.344 191.045 212.417 190.17 214.256C189.329 216.025 188.076 218.183 186.44 220.825C185.411 222.488 184.234 224.336 182.942 226.363L182.941 226.364C180.202 230.664 176.948 235.771 173.5 241.633C165.333 255.517 153.262 265.824 147.96 270.351C146.86 271.29 146.051 271.981 145.629 272.403C145.031 273.001 143.7 273.671 140.025 271.834C139.876 271.759 139.495 271.51 138.847 270.938C138.235 270.398 137.509 269.683 136.68 268.808C135.02 267.057 133.076 264.805 130.99 262.34C130.27 261.489 129.532 260.612 128.785 259.723L128.756 259.689L128.742 259.671L128.742 259.671C125.246 255.511 121.551 251.116 118.546 248.111C114.788 244.352 109.717 240.612 104.852 238.179C102.422 236.964 99.9196 236.013 97.572 235.596C95.2804 235.19 92.7108 235.221 90.545 236.52C86.847 238.739 85.5815 242.407 85.2856 245.957C85.0038 249.338 85.5509 253.165 86.0361 256.56L86.0648 256.76C86.5114 259.886 86.2653 261.832 85.3941 263.865C84.4276 266.12 82.6543 268.597 79.5564 272.728C77.2219 275.84 71.85 278.431 65.174 279.524C58.6028 280.599 51.6619 280.066 46.8041 277.858C41.9282 275.642 37.5551 271.338 34.5125 266.072C34.4657 265.991 34.4192 265.91 34.3731 265.828H34.4191C35.0512 265.828 35.5636 265.316 35.5636 264.684C35.5636 264.052 35.0512 263.539 34.4191 263.539H33.1884C32.9511 263.035 32.7273 262.526 32.5172 262.013H33.4653C34.0974 262.013 34.6099 261.501 34.6099 260.869C34.6099 260.237 34.0974 259.724 33.4653 259.724H31.6776C31.5132 259.217 31.3625 258.708 31.226 258.198H34.2283C34.8604 258.198 35.3729 257.686 35.3729 257.054C35.3729 256.422 34.8604 255.909 34.2283 255.909H30.7096C30.6163 255.399 30.5377 254.89 30.4744 254.383H33.4653C34.0974 254.383 34.6099 253.871 34.6099 253.239C34.6099 252.607 34.0974 252.094 33.4653 252.094H30.2924C30.2713 251.452 30.2764 250.816 30.3084 250.187H33.4653C34.0974 250.187 34.6099 249.674 34.6099 249.042C34.6099 248.41 34.0974 247.898 33.4653 247.898H30.5188C30.5841 247.368 30.6581 246.86 30.7406 246.372H34.9914C35.6235 246.372 36.1359 245.859 36.1359 245.227C36.1359 244.595 35.6235 244.083 34.9914 244.083H31.2231C31.3981 243.402 31.5927 242.768 31.8049 242.175H37.6619C38.294 242.175 38.8064 241.663 38.8064 241.031C38.8064 240.398 38.294 239.886 37.6619 239.886H32.8076C33.0986 239.337 33.4084 238.831 33.7345 238.36H41.2862C41.9183 238.36 42.4307 237.848 42.4307 237.215C42.4307 236.583 41.9183 236.071 41.2862 236.071H35.6851C36.5257 235.256 37.4691 234.51 38.5264 233.782H45.4828C46.1149 233.782 46.6273 233.269 46.6273 232.637C46.6273 232.005 46.1149 231.493 45.4828 231.493H42.2491C43.4448 230.813 44.6409 230.16 45.7945 229.53L45.7946 229.53L45.7949 229.53L45.7953 229.53L45.796 229.529L45.7975 229.529L45.7977 229.528L45.7979 229.528L45.798 229.528L45.7983 229.528L45.7984 229.528C47.7545 228.46 49.5882 227.458 51.0912 226.509C53.6483 224.894 55.9873 223.01 57.373 220.239C58.6383 217.708 59.0597 215.234 58.5118 212.677C57.993 210.256 56.663 208.06 55.0619 205.925C53.9731 204.473 52.275 203.162 50.5153 202.011C48.6946 200.82 46.5321 199.626 44.2793 198.467C41.7863 197.185 38.9174 195.819 36.2122 194.531C34.2173 193.581 32.3114 192.673 30.7108 191.873C24.8711 188.953 12.6897 181.138 6.09973 176.782C6.11257 176.357 6.13033 175.899 6.15361 175.411H8.09518C8.72728 175.411 9.2397 174.899 9.2397 174.267C9.2397 173.635 8.72728 173.122 8.09518 173.122H6.29165C6.33582 172.511 6.38758 171.874 6.44772 171.215H11.1472C11.7793 171.215 12.2918 170.702 12.2918 170.07C12.2918 169.438 11.7793 168.926 11.1472 168.926H6.68304C6.79674 167.933 6.92917 166.91 7.08263 165.874H12.6733C13.3054 165.874 13.8178 165.361 13.8178 164.729C13.8178 164.097 13.3054 163.585 12.6733 163.585H7.45415C7.61265 162.69 7.78772 161.795 7.98078 160.909C8.01841 160.912 8.05657 160.914 8.09518 160.914H13.8178C14.4499 160.914 14.9623 160.402 14.9623 159.77C14.9623 159.138 14.4499 158.625 13.8178 158.625H8.52596C8.66984 158.075 8.82154 157.532 8.98145 156.999C9.23265 156.161 9.49777 155.303 9.77619 154.429H18.0143C18.8571 154.429 19.5404 153.745 19.5404 152.903C19.5404 152.06 18.8571 151.377 18.0143 151.377L10.779 151.377C11.6577 148.782 12.639 146.083 13.7083 143.36C13.7443 143.363 13.7809 143.365 13.8178 143.365H19.1589C19.791 143.365 20.3034 142.853 20.3034 142.22C20.3034 141.588 19.791 141.076 19.1589 141.076H14.624C15.0583 140.015 15.5054 138.954 15.9643 137.897C16.1213 137.978 16.2995 138.024 16.4883 138.024H23.7369C24.369 138.024 24.8814 137.511 24.8814 136.879C24.8814 136.247 24.369 135.735 23.7369 135.735H16.9235C17.3299 134.838 17.7447 133.947 18.1672 133.064H27.9335C28.5656 133.064 29.078 132.552 29.078 131.92C29.078 131.288 28.5656 130.775 27.9335 130.775H19.2913C19.6808 130.002 20.0762 129.239 20.4769 128.486H28.6965C29.3286 128.486 29.841 127.974 29.841 127.342C29.841 126.71 29.3286 126.197 28.6965 126.197H21.7338C22.101 125.549 22.4722 124.912 22.8471 124.287C23.0884 123.885 23.3281 123.5 23.566 123.132C23.6217 123.141 23.6788 123.145 23.7369 123.145H34.4191C35.0512 123.145 35.5636 122.633 35.5636 122.001C35.5636 121.369 35.0512 120.856 34.4191 120.856H25.1739C26.0152 119.772 26.8251 118.895 27.593 118.186H34.0376C34.6697 118.186 35.1821 117.673 35.1821 117.041C35.1821 116.409 34.6697 115.897 34.0376 115.897H30.9815C32.7215 115.157 33.9675 115.318 34.4656 115.484C34.5483 115.511 34.8962 115.68 35.475 116.296C36.0258 116.882 36.6304 117.706 37.2631 118.741C38.5278 120.811 39.7201 123.417 40.7039 125.877C41.9889 129.089 44.9855 132.275 47.5048 134.668C48.8231 135.921 50.1324 137.066 51.2121 138.002L51.5353 138.283L51.5357 138.283C52.4954 139.115 53.1546 139.687 53.5221 140.054C56.4603 142.993 66.074 147.351 77.4748 140.511C88.2752 134.031 96.0579 124.116 97.1592 109.799C97.7126 102.604 96.0583 97.0052 92.7236 92.761C89.4401 88.5819 84.7818 86.0422 79.9093 84.4181C74.8454 82.7301 71.1187 82.734 67.5822 83.006C66.9175 83.0571 66.2745 83.1152 65.64 83.1725C62.9466 83.4159 60.4068 83.6454 57.0163 83.2687C55.3136 83.0795 54.8148 82.549 54.6427 82.294C54.4097 81.9491 54.1732 81.2072 54.3751 79.7428C54.3964 79.5888 54.4218 79.4317 54.4512 79.272H62.269C62.9011 79.272 63.4136 78.7595 63.4136 78.1274C63.4136 77.4953 62.9011 76.9829 62.269 76.9829H55.0707C55.3227 76.2496 55.6298 75.483 55.9828 74.6939H63.0321C63.6642 74.6939 64.1766 74.1815 64.1766 73.5494C64.1766 72.9173 63.6642 72.4049 63.0321 72.4049H57.0991C57.4956 71.6494 57.9234 70.8836 58.3752 70.1158H66.8471C67.4792 70.1158 67.9916 69.6034 67.9916 68.9713C67.9916 68.3392 67.4792 67.8268 66.8471 67.8268H59.7938C60.3908 66.9182 61.1055 65.892 61.9152 64.7747H71.0437C71.6758 64.7747 72.1882 64.2623 72.1882 63.6302C72.1882 62.9981 71.6758 62.4857 71.0437 62.4857L63.6099 62.4857C64.3453 61.5107 65.1315 60.4889 65.957 59.4336H73.7142C74.3463 59.4336 74.8587 58.9212 74.8587 58.2891C74.8587 57.657 74.3463 57.1446 73.7142 57.1446L67.7672 57.1446C68.1698 56.6406 68.5791 56.1314 68.9938 55.6186H77.5293C78.1614 55.6186 78.6738 55.1062 78.6738 54.4741C78.6738 53.842 78.1614 53.3296 77.5293 53.3296L70.8603 53.3296C71.3814 52.6956 71.9081 52.059 72.4385 51.422H81.3443C81.9764 51.422 82.4889 50.9096 82.4889 50.2775C82.4889 49.6454 81.9764 49.133 81.3443 49.133L74.3585 49.133C75.1167 48.2357 75.8773 47.3433 76.6346 46.4624H85.1594C85.7915 46.4624 86.3039 45.95 86.3039 45.3179C86.3039 44.6858 85.7915 44.1734 85.1594 44.1734L78.6178 44.1734C79.5325 43.126 80.4347 42.1045 81.314 41.1214H89.356C89.9881 41.1214 90.5005 40.6089 90.5005 39.9768C90.5005 39.3447 89.9881 38.8323 89.356 38.8323L83.383 38.8323C83.7401 38.4417 84.0915 38.0599 84.4363 37.6878H93.934C94.5661 37.6878 95.0786 37.1754 95.0786 36.5433C95.0786 35.9112 94.5661 35.3988 93.934 35.3988L86.5935 35.3988C87.1152 34.8557 87.6137 34.3455 88.0851 33.8727H97.7491C98.3812 33.8727 98.8936 33.3603 98.8936 32.7282C98.8936 32.0961 98.3812 31.5837 97.7491 31.5837H90.4076C91.2565 30.7634 92.0671 30.0015 92.8504 29.2947L101.564 29.2947C102.196 29.2947 102.709 28.7823 102.709 28.1502C102.709 27.5181 102.196 27.0056 101.564 27.0056H95.5425C96.4412 26.2948 97.3183 25.661 98.1939 25.0981L104.998 25.0981C105.63 25.0981 106.142 24.5857 106.142 23.9536C106.142 23.3215 105.63 22.8091 104.998 22.8091H102.757C104.498 22.1752 106.353 21.7553 108.454 21.5101C109.754 21.5479 111.469 22.065 113.593 23.183C115.762 24.3247 118.125 25.9681 120.575 27.9282C122.372 29.3656 125.115 31.8815 128.147 34.6638L128.148 34.6646C129.218 35.646 130.324 36.6605 131.437 37.6725C133.531 39.576 135.628 41.4477 137.468 42.9791C139.231 44.4454 141 45.8072 142.37 46.492C147.154 48.8841 154.049 49.246 158.303 43.5736C161.938 38.7276 161.03 33.7041 160.128 29.2947H163.368C164 29.2947 164.513 28.7823 164.513 28.1502C164.513 27.5181 164 27.0056 163.368 27.0056H159.671C159.625 26.7576 159.579 26.503 159.536 26.2426H163.75C164.382 26.2426 164.894 25.7302 164.894 25.0981C164.894 24.466 164.382 23.9536 163.75 23.9536H159.231C159.185 23.4545 159.153 22.9445 159.14 22.4276H166.039C166.671 22.4276 167.183 21.9151 167.183 21.283C167.183 20.6509 166.671 20.1385 166.039 20.1385H159.228C159.282 19.6302 159.362 19.121 159.473 18.6144C160.073 15.8701 161.605 13.052 165.441 10.9619C165.511 10.9753 165.583 10.9824 165.657 10.9824L173.287 10.9824C173.919 10.9824 174.432 10.47 174.432 9.83786C174.432 9.20576 173.919 8.69335 173.287 8.69334H170.958ZM228.033 97.5849C227.842 97.0126 227.27 96.2496 225.744 95.4866C224.79 94.9315 223.073 94.7236 222.501 94.9143C221.929 95.1051 222.119 96.0588 222.501 96.8219C222.755 97.3305 223.349 97.6696 223.942 98.0088L223.942 98.0088C224.239 98.1784 224.536 98.3479 224.79 98.5386C225.553 99.1109 226.316 99.3017 227.27 99.1109C228.224 98.9201 228.224 98.1571 228.033 97.5849ZM222.203 103.562L222.203 103.562L222.203 103.562C221.525 103.745 220.831 103.932 220.212 104.07C218.495 104.504 219.068 105.024 219.64 105.214C220.212 105.405 222.31 105.596 223.836 105.596C225.362 105.596 225.935 105.214 226.316 104.451C226.698 103.688 226.126 102.925 225.172 102.925C224.562 102.925 223.406 103.237 222.203 103.562ZM224.981 109.029C226.126 108.266 227.079 107.885 227.652 108.457C228.224 109.029 228.224 109.602 227.461 110.555C226.698 111.509 225.744 111.509 224.981 111.509C224.218 111.509 223.836 109.983 224.981 109.029ZM14.1993 146.417C14.1993 145.785 14.7117 145.273 15.3438 145.273H20.6849C21.317 145.273 21.8294 145.785 21.8294 146.417C21.8294 147.049 21.317 147.562 20.6849 147.562H15.3438C14.7117 147.562 14.1993 147.049 14.1993 146.417ZM161.842 15.942C161.21 15.942 160.698 16.4544 160.698 17.0865C160.698 17.7186 161.21 18.231 161.842 18.231H169.472C170.104 18.231 170.617 17.7186 170.617 17.0865C170.617 16.4544 170.104 15.942 169.472 15.942H161.842ZM163.368 13.6529C163.368 13.0208 163.881 12.5084 164.513 12.5084H172.143C172.775 12.5084 173.287 13.0208 173.287 13.6529C173.287 14.285 172.775 14.7974 172.143 14.7974L164.513 14.7974C163.881 14.7974 163.368 14.285 163.368 13.6529Z" fill="white"/>
</svg>
