<svg width="506" height="866" viewBox="0 0 506 866" fill="none" xmlns="http://www.w3.org/2000/svg">
<path d="M186.778 259.816C221.8 248.588 254.683 246.717 269.654 244.043C270.901 244.043 273.183 243.509 272.327 241.37C271.258 238.697 267.515 239.499 260.564 239.499C253.613 239.499 244.791 239.766 247.732 234.419C250.673 229.072 259.228 230.142 269.654 228.805C280.08 227.468 277.941 223.191 280.08 213.567C282.219 203.942 278.209 194.318 285.694 191.645C293.18 188.971 291.041 195.387 297.457 195.922C303.873 196.457 304.675 190.843 310.557 191.645C316.439 192.447 316.438 198.863 318.845 202.338C321.251 205.814 326.063 207.952 332.746 208.754C339.43 209.556 345.311 205.814 354.401 202.338C363.49 198.863 370.441 199.13 376.59 202.338C382.739 205.546 376.59 215.17 372.045 221.319C367.5 227.468 358.143 235.756 364.56 244.043C370.976 252.331 378.729 253.935 383.808 260.886C387.872 266.446 380.689 265.163 376.59 263.826C378.194 266.054 385.573 273.932 402.255 287.62C423.107 304.73 438.613 326.117 451.713 349.643C464.812 373.169 464.01 404.982 461.872 430.38C459.733 455.777 458.931 488.927 459.466 502.027C460 515.127 456.792 519.137 450.109 519.137C443.425 519.137 441.821 511.651 443.425 506.839C445.029 502.027 445.297 490.531 442.623 497.482C439.95 504.433 415.087 542.128 408.671 550.148C402.255 558.168 392.096 564.317 391.561 566.456C391.026 568.595 398.245 573.942 403.057 580.09C407.869 586.239 441.554 631.152 440.217 678.204C438.88 725.256 414.285 773.912 395.037 796.636C375.788 819.36 341.301 848.768 261.901 852.778C182.501 856.788 136.786 841.549 94.8131 816.954C52.8407 792.359 33.3247 759.476 21.027 730.336C8.72936 701.196 10.0661 656.282 21.027 643.985C31.988 631.687 46.9591 622.33 83.3174 634.36C119.676 646.391 117.804 655.748 146.142 685.957C174.48 716.167 197.472 720.711 225.543 718.305C253.613 715.899 279.545 696.651 286.496 680.878C293.447 665.105 294.249 642.915 275.268 625.004C256.287 607.092 230.889 600.408 203.888 586.774C176.887 573.139 157.103 541.593 157.638 527.157C158.173 512.721 163.52 503.096 190.788 489.462C218.057 475.828 246.93 481.442 260.297 480.64C273.664 479.838 292.378 476.362 301.467 463.53C310.557 450.697 312.428 432.251 304.675 415.409C298.473 401.935 288.011 396.427 283.555 395.358C285.516 391.972 290.025 383.328 292.378 375.842C295.318 366.485 297.992 352.049 304.675 324.78C311.359 297.511 320.716 298.581 326.063 300.452C331.409 302.323 334.617 308.74 332.746 322.374C330.875 336.008 323.122 356.059 316.706 375.842C310.289 395.625 316.438 400.972 320.716 404.982C324.993 408.992 333.548 411.398 341.301 400.972C349.054 390.546 351.193 372.367 350.658 363.01C350.123 353.653 352.262 346.167 355.47 346.167C358.678 346.167 358.143 348.573 362.154 349.643C365.362 350.498 367.768 347.682 368.57 346.167C369.194 346.435 371.671 347.29 376.59 348.573C382.739 350.177 387.016 347.771 392.096 340.019C397.175 332.266 388.888 324.78 387.016 326.117C385.145 327.454 385.947 334.939 381.402 337.345C376.857 339.751 375.253 333.602 372.045 331.731C368.837 329.86 366.966 333.602 364.56 337.345C362.154 341.088 359.48 340.286 358.143 338.414C356.807 336.543 357.876 331.464 354.401 330.662C350.925 329.86 348.519 334.404 345.311 341.89C342.103 349.375 339.162 374.505 337.024 385.199C334.885 395.893 330.073 400.17 326.063 398.299C322.052 396.427 320.983 393.219 323.122 382.793C325.261 372.367 331.944 352.316 334.617 344.029C337.291 335.741 347.984 295.105 327.667 291.095C307.349 287.085 299.863 305.532 294.516 326.117C289.17 346.702 278.476 385.199 273.931 398.299C269.386 411.398 259.227 409.527 259.495 403.378C259.762 397.229 260.297 390.011 257.891 387.872C255.485 385.734 240.246 384.664 225.008 385.199C209.769 385.734 189.452 398.299 175.817 403.378C162.183 408.458 152.826 408.992 142.667 413.804C132.508 418.617 131.439 429.578 126.092 429.845C120.745 430.112 119.408 424.765 121.547 419.686C123.686 414.607 125.557 408.992 119.408 405.784C113.26 402.576 105.507 403.378 96.9517 399.635C88.3968 395.893 74.4951 388.407 72.0891 362.742C69.683 337.078 83.05 321.572 105.507 303.393C127.963 285.214 151.757 271.045 186.778 259.816Z" fill="#241C21"/>
<path fill-rule="evenodd" clip-rule="evenodd" d="M260.571 239.499C260.569 239.499 260.566 239.499 260.564 239.499C260.251 239.499 259.933 239.499 259.614 239.5C259.374 239.5 259.133 239.5 258.891 239.501C258.249 239.501 257.602 239.5 256.957 239.493C251.067 239.43 245.461 238.882 247.625 234.621C247.659 234.555 247.694 234.487 247.732 234.419C249.371 231.439 252.754 230.452 257.233 229.931C258.286 229.808 259.399 229.712 260.564 229.621C261.12 229.577 261.687 229.535 262.265 229.493C264.573 229.322 267.055 229.138 269.654 228.805C271.357 228.587 272.725 228.29 273.831 227.904C278.058 226.429 278.46 223.656 279.135 218.997C279.365 217.413 279.626 215.61 280.08 213.567C280.825 210.212 280.824 206.858 280.822 203.797C280.82 198.078 280.818 193.386 285.694 191.645C289.898 190.143 291.066 191.508 292.419 193.089C293.475 194.322 294.644 195.688 297.457 195.922C300.683 196.191 302.49 194.905 304.237 193.662C305.964 192.433 307.632 191.246 310.557 191.645C314.642 192.202 315.89 195.467 317.077 198.574C317.599 199.941 318.109 201.277 318.844 202.338C321.25 205.814 326.062 207.952 332.746 208.754C337.751 209.355 342.306 207.407 348.095 204.931C350.037 204.101 352.118 203.211 354.4 202.338C363.49 198.863 370.441 199.13 376.59 202.338C382.738 205.546 376.59 215.17 372.045 221.319C371.307 222.318 370.442 223.373 369.538 224.475C364.877 230.16 359.185 237.102 364.559 244.043C365.818 245.669 367.129 247.038 368.46 248.241C370.619 250.19 372.834 251.702 374.975 253.164C375.715 253.669 376.445 254.168 377.162 254.676C377.822 255.145 378.47 255.622 379.102 256.121C380.364 257.115 381.562 258.193 382.663 259.454C383.058 259.906 383.44 260.382 383.808 260.886C387.175 265.493 382.82 265.402 378.897 264.475C378.085 264.283 377.292 264.056 376.59 263.826C376.841 264.175 377.234 264.663 377.782 265.289C379.594 267.362 383.103 270.955 388.798 276.093C392.379 279.323 396.823 283.164 402.255 287.62C423.107 304.73 438.613 326.117 451.713 349.643C464.812 373.169 464.01 404.982 461.871 430.38C459.733 455.777 458.931 488.927 459.465 502.027C460 515.127 456.792 519.137 450.108 519.137C448.122 519.137 446.584 518.475 445.446 517.419C442.947 515.101 442.375 510.883 443.208 507.584C443.272 507.33 443.344 507.081 443.425 506.839C444.177 504.584 444.635 500.86 444.634 498.256C444.634 495.303 444.043 493.789 442.623 497.482C442.071 498.918 440.572 501.665 438.484 505.192C438.325 505.461 438.163 505.733 437.997 506.011C436.124 509.148 433.834 512.834 431.356 516.728C423.003 529.852 412.519 545.338 408.671 550.148C405.074 554.644 400.302 558.551 396.708 561.494C393.89 563.802 391.796 565.516 391.561 566.456C391.247 567.711 393.602 570.069 396.573 573.046C398.667 575.144 401.067 577.549 403.057 580.09C407.869 586.239 441.554 631.152 440.217 678.204C438.88 725.256 414.285 773.912 395.036 796.636C375.788 819.36 341.301 848.768 261.901 852.778C182.501 856.788 136.785 841.549 94.8129 816.954C52.8405 792.359 33.3245 759.476 21.0268 730.336C8.72915 701.196 10.0659 656.282 21.0268 643.985C31.9878 631.687 46.9589 622.33 83.3172 634.36C110.013 643.194 116.099 650.585 128.665 665.848C133.213 671.373 138.611 677.929 146.142 685.957C174.48 716.167 197.472 720.711 225.542 718.305C253.613 715.899 279.545 696.651 286.496 680.878C293.447 665.105 294.249 642.915 275.268 625.004C262.146 612.621 245.958 605.604 228.293 597.948C220.405 594.529 212.223 590.983 203.888 586.774C176.886 573.139 157.103 541.593 157.638 527.157C158.173 512.721 163.519 503.096 190.788 489.462C211.735 478.988 233.629 479.873 248.713 480.483C253.265 480.667 257.198 480.826 260.297 480.64C273.664 479.838 292.377 476.362 301.467 463.53C310.557 450.697 312.428 432.251 304.675 415.409C301.784 409.128 297.968 404.579 294.265 401.403C291.816 399.302 289.417 397.802 287.369 396.799C285.871 396.066 284.56 395.599 283.555 395.358C284.797 393.212 287.063 388.956 289.155 384.221C290.364 381.483 291.516 378.585 292.377 375.842C294.046 370.532 295.629 363.587 297.907 353.588C299.456 346.791 301.327 338.583 303.764 328.519C304.059 327.3 304.363 326.054 304.675 324.78C311.265 297.894 320.454 298.556 325.835 300.374C325.912 300.4 325.987 300.426 326.062 300.452C331.409 302.323 334.617 308.74 332.746 322.374C331.98 327.956 330.228 334.614 327.985 341.889C326.13 347.906 323.94 354.344 321.694 360.945C320.023 365.857 318.322 370.858 316.705 375.842C316.088 377.747 315.587 379.517 315.189 381.166C311.52 396.375 316.666 401.192 320.514 404.794C320.582 404.857 320.649 404.92 320.716 404.982C321.204 405.44 321.748 405.877 322.34 406.276C326.935 409.374 334.433 410.208 341.301 400.972C344.118 397.183 346.194 392.37 347.67 387.328C350.255 378.498 350.998 368.966 350.658 363.01C350.537 360.899 350.553 358.883 350.686 357.027C350.688 356.987 350.691 356.947 350.694 356.908C350.915 353.956 351.434 351.414 352.178 349.546C352.987 347.51 354.063 346.273 355.307 346.174C355.361 346.17 355.415 346.167 355.47 346.167C355.995 346.167 356.421 346.232 356.782 346.345C357.551 346.585 358.03 347.043 358.57 347.561C359.325 348.284 360.2 349.122 362.153 349.643C365.361 350.498 367.767 347.682 368.57 346.167C368.701 346.224 368.915 346.306 369.217 346.414C369.833 346.632 370.816 346.954 372.211 347.365C373.375 347.708 374.825 348.113 376.59 348.573C380.343 349.553 383.4 349.037 386.367 346.723C388.26 345.247 390.117 343.038 392.095 340.019C392.868 338.84 393.331 337.668 393.555 336.532C393.625 336.174 393.672 335.82 393.697 335.47C394.119 329.626 388.513 325.047 387.016 326.117C386.295 326.632 385.971 328.058 385.585 329.755C385.225 331.34 384.811 333.161 383.971 334.695C383.545 335.474 383.009 336.179 382.314 336.742C382.036 336.967 381.733 337.17 381.402 337.345C380.653 337.741 379.985 337.906 379.375 337.895C377.908 337.87 376.785 336.831 375.724 335.58C375.459 335.266 375.197 334.94 374.934 334.612C374.037 333.494 373.134 332.366 372.045 331.731C370.929 331.08 369.974 331.108 369.103 331.58C368.925 331.676 368.751 331.791 368.58 331.922C368.357 332.092 368.139 332.29 367.924 332.511C367.015 333.447 366.164 334.801 365.26 336.239C365.137 336.434 365.013 336.631 364.888 336.829C364.78 337.001 364.67 337.173 364.559 337.345C364.509 337.423 364.459 337.499 364.409 337.573C362.359 340.589 360.141 340.386 358.733 339.087C358.659 339.018 358.587 338.946 358.517 338.872C358.383 338.729 358.258 338.576 358.143 338.414C357.665 337.744 357.494 336.663 357.314 335.514C357.231 334.991 357.147 334.455 357.031 333.937C356.877 333.254 356.667 332.602 356.332 332.056C355.92 331.385 355.319 330.874 354.4 330.662C354.353 330.651 354.307 330.641 354.26 330.632C354.258 330.632 354.257 330.631 354.256 330.631C352.708 330.338 351.371 331.116 350.074 332.748C349.41 333.585 348.756 334.647 348.09 335.903C347.55 336.921 347.002 338.067 346.435 339.325C346.237 339.764 346.037 340.216 345.834 340.681C345.662 341.075 345.487 341.478 345.311 341.89C344.775 343.14 344.247 344.883 343.728 346.968C342.62 351.427 341.556 357.454 340.563 363.587C340.319 365.095 340.079 366.609 339.843 368.108C339.673 369.193 339.505 370.269 339.34 371.329C338.495 376.742 337.717 381.73 337.023 385.199C336.157 389.53 334.852 392.809 333.34 395.053C331.327 398.039 328.946 399.193 326.741 398.555C326.513 398.489 326.286 398.403 326.062 398.299C322.052 396.427 320.983 393.219 323.122 382.793C323.401 381.432 323.758 379.906 324.173 378.264C325.15 374.401 326.45 369.893 327.826 365.361C329.825 358.773 331.985 352.133 333.541 347.345C333.945 346.104 334.308 344.988 334.617 344.029C335.035 342.733 335.649 340.646 336.31 338.032C337.027 335.199 337.798 331.747 338.435 328.011C338.698 326.465 338.938 324.871 339.142 323.252C340.821 309.909 340.018 294.884 329.201 291.485C328.71 291.331 328.199 291.2 327.666 291.095C308.538 287.32 300.784 303.448 295.48 322.526C295.15 323.713 294.829 324.911 294.516 326.117C291.351 338.301 286.314 356.76 281.786 372.514C279.773 379.518 277.861 385.989 276.26 391.134C275.378 393.968 274.59 396.4 273.931 398.299C273.32 400.061 272.607 401.552 271.832 402.798C271.805 402.84 271.779 402.882 271.753 402.924C271.538 403.262 271.32 403.581 271.097 403.883C270.847 404.221 270.592 404.537 270.334 404.832C265.46 410.382 259.285 408.19 259.495 403.378C259.515 402.92 259.536 402.455 259.558 401.988C259.825 396.181 260.117 389.852 257.891 387.872C255.484 385.734 240.246 384.664 225.008 385.199C214.498 385.568 201.572 391.659 190.089 397.07C184.923 399.505 180.048 401.802 175.817 403.378C169.566 405.707 164.214 407.08 159.272 408.349C153.434 409.847 148.168 411.199 142.667 413.804C138.722 415.673 136.148 418.469 134.161 421.206C133.663 421.893 133.201 422.576 132.764 423.24C132.56 423.551 132.361 423.857 132.166 424.157C132.136 424.204 132.106 424.25 132.076 424.296C130.116 427.32 128.56 429.722 126.092 429.845C120.745 430.112 119.408 424.765 121.547 419.686C121.715 419.286 121.882 418.884 122.043 418.479C122.412 417.551 122.754 416.612 123.021 415.681C124.117 411.859 123.964 408.161 119.408 405.784C116.372 404.2 112.945 403.594 109.224 402.935C105.408 402.26 101.283 401.53 96.9515 399.635C88.3966 395.893 74.4949 388.407 72.0889 362.742C69.6828 337.078 83.0498 321.572 105.506 303.393C127.963 285.214 151.756 271.045 186.778 259.816C206.396 253.526 225.344 250.173 240.847 247.97C246.027 247.234 250.822 246.626 255.129 246.08C257.04 245.838 258.854 245.608 260.564 245.384C260.611 245.378 260.657 245.372 260.703 245.366C261.547 245.255 262.366 245.146 263.157 245.038C265.587 244.706 267.763 244.381 269.654 244.043C270.901 244.043 273.183 243.509 272.327 241.37C272.256 241.193 272.174 241.032 272.08 240.884C271.832 240.496 271.502 240.204 271.087 239.986C270.688 239.777 270.211 239.636 269.654 239.544C269.397 239.502 269.123 239.469 268.833 239.445C267.662 239.349 266.212 239.388 264.466 239.434C263.301 239.464 262.004 239.498 260.571 239.499ZM234.844 236.417C234.85 233.211 235.922 230.373 236.956 228.493C241.419 220.378 249.676 218.601 254.072 217.945C256.439 217.592 258.975 217.405 261.128 217.245L261.336 217.23C263.317 217.083 265.169 216.945 267.036 216.734C267.26 215.2 267.577 213.142 268.075 210.899C268.349 209.666 268.475 208.203 268.511 206.233C268.519 205.819 268.52 205.193 268.521 204.464C268.524 202.878 268.527 200.807 268.6 199.374C268.724 196.946 269.083 193.121 270.947 189.37C273.108 185.024 276.765 181.775 281.558 180.063C284.505 179.011 288.442 178.116 292.721 179.167C295.491 179.847 297.57 181.144 299.03 182.34C299.93 181.782 301.059 181.159 302.323 180.648C305.283 179.452 308.595 178.966 312.218 179.46C316.056 179.983 319.437 181.549 322.165 183.974C324.71 186.236 326.19 188.809 327.072 190.628C327.741 192.011 328.347 193.606 328.666 194.447C328.728 194.61 328.779 194.745 328.818 194.844C328.871 194.979 328.917 195.094 328.956 195.191C329.046 195.241 329.161 195.299 329.304 195.364C330.176 195.763 331.738 196.248 334.211 196.544C334.738 196.608 335.729 196.603 338.414 195.613C339.787 195.106 341.283 194.469 343.287 193.613L343.332 193.593C345.239 192.778 347.502 191.81 350.008 190.851C361.526 186.448 372.274 186.216 382.278 191.435C387.367 194.09 390.486 198.708 391.275 203.97C391.94 208.408 390.828 212.405 389.846 215.032C387.853 220.366 384.24 225.51 381.934 228.629C381.017 229.87 379.754 231.413 378.743 232.648C378.325 233.158 377.95 233.616 377.661 233.978C376.456 235.485 375.647 236.612 375.122 237.527C376.834 239.458 378.788 240.875 381.622 242.811C381.807 242.938 381.999 243.068 382.197 243.203C385.296 245.308 389.984 248.494 393.737 253.63C394.623 254.843 395.638 256.443 396.355 258.365C397.047 260.22 397.795 263.284 396.906 266.845C400.346 269.953 404.685 273.707 410.055 278.113C432.503 296.531 448.908 319.328 462.457 343.66C477.592 370.842 476.245 406.243 474.126 431.412C472.017 456.457 471.245 489.074 471.753 501.525C472.036 508.458 471.579 515.87 468.062 521.782C466.088 525.1 463.269 527.752 459.707 529.43C456.331 531.021 452.937 531.434 450.108 531.434C445.574 531.434 441.796 530.036 438.822 527.864C438.336 528.616 437.847 529.369 437.357 530.123C430.058 541.337 421.919 553.274 418.274 557.83C415.197 561.677 411.578 565.035 408.516 567.664C409.927 569.156 411.412 570.814 412.741 572.511C415.454 575.978 425.61 589.468 434.962 608.35C444.243 627.086 453.259 652.176 452.51 678.554C451.079 728.894 425.121 780.146 404.42 804.585C394.059 816.817 379.399 831.05 356.616 842.678C333.887 854.278 303.673 862.981 262.521 865.06C180.801 869.187 132.699 853.408 88.5955 827.564C43.5568 801.172 22.6089 765.713 9.69677 735.117C2.7252 718.598 -0.171416 698.319 0.00780776 680.719C0.0981427 671.848 0.971763 663.257 2.69004 655.804C4.32544 648.711 7.04979 641.184 11.8465 635.802C18.2151 628.657 26.7243 621.298 39.714 618.107C52.4209 614.985 67.752 616.257 87.1803 622.685C106.524 629.086 117.041 635.254 126.433 644.646C130.442 648.655 134.161 653.173 138.052 657.902C138.358 658.274 138.666 658.648 138.975 659.023C143.306 664.28 148.302 670.285 155.111 677.544C168.35 691.656 179.617 699.011 190.111 702.793C200.605 706.573 211.399 707.175 224.492 706.053C236.165 705.052 247.747 700.484 257.22 694.304C266.936 687.967 273.07 680.848 275.243 675.919C280.661 663.623 281.094 647.41 266.828 633.948C258.767 626.341 249.078 620.855 237.408 615.44C233.385 613.572 228.855 611.605 224.063 609.523C215.852 605.958 206.871 602.057 198.345 597.751C182.68 589.842 169.577 577.042 160.477 564.48C155.892 558.15 152.134 551.622 149.517 545.439C147 539.494 145.119 532.891 145.349 526.702C145.679 517.771 147.632 508.871 154.648 500.248C161.141 492.267 171.202 485.506 185.288 478.463C201.093 470.56 217.079 468.38 230.355 467.947C236.987 467.731 243.088 467.95 248.123 468.151L248.807 468.179C253.766 468.378 257.104 468.511 259.56 468.364C265.639 467.999 272.447 467.043 278.488 464.966C284.58 462.872 288.907 459.986 291.432 456.422C297.805 447.424 299.55 433.684 293.504 420.551C291.255 415.664 288.321 412.393 285.724 410.291C284.675 409.442 283.689 408.791 282.842 408.31C279.249 414.568 273.727 419.308 266.499 420.251C261.923 420.848 256.966 419.723 253.048 416.403C249.022 412.991 246.985 407.992 247.209 402.844C247.232 402.313 247.255 401.81 247.277 401.322C247.326 400.265 247.371 399.286 247.404 398.271C247.407 398.173 247.41 398.076 247.412 397.981C246.762 397.915 246.06 397.852 245.308 397.794C239.832 397.368 232.683 397.235 225.439 397.489C220.418 397.665 213.457 399.996 204.785 403.831C202.147 404.998 199.191 406.387 196.157 407.813C190.585 410.431 184.746 413.175 180.11 414.902C173.225 417.467 167.287 418.99 162.365 420.252C161.904 420.37 161.452 420.486 161.009 420.6C155.733 421.96 151.857 423.059 147.931 424.918C146.137 425.768 144.894 427.157 142.869 430.256C142.769 430.409 142.654 430.589 142.523 430.792C141.686 432.094 140.257 434.317 138.711 436.06C136.687 438.344 132.774 441.824 126.706 442.127C123.258 442.3 119.529 441.587 116.17 439.426C112.811 437.264 110.678 434.202 109.514 431.132C107.431 425.641 108.25 419.946 109.944 415.579C109.13 415.415 108.147 415.234 106.939 415.02L106.742 414.985C103.027 414.328 97.6993 413.386 92.0224 410.902C87.1903 408.788 79.5887 405.097 72.9525 397.5C66.1916 389.76 61.256 378.942 59.8449 363.89C58.3903 348.375 61.7672 335.389 69.0458 323.743C76.0307 312.567 86.3373 303.089 97.7688 293.835C121.314 274.774 146.441 259.835 183.023 248.106C201.405 242.212 219.655 238.727 234.844 236.417ZM328.682 195.018C328.682 195.018 328.686 195.021 328.692 195.026C328.685 195.021 328.682 195.018 328.682 195.018ZM132.81 424.675C132.806 424.675 132.813 424.636 132.843 424.554C132.828 424.634 132.813 424.675 132.81 424.675ZM382.725 252.691C382.726 252.692 382.713 252.691 382.687 252.688C382.712 252.69 382.725 252.691 382.725 252.691ZM253.106 226.959C253.088 226.955 253.093 226.955 253.117 226.961C253.113 226.961 253.11 226.96 253.106 226.959Z" fill="#241C21"/>
<path d="M386.842 127.962C368.449 118.552 349.949 120.833 342.998 123.15L336.314 143.468L362.781 158.172C378.465 152.023 405.235 137.373 386.842 127.962Z" fill="#FFA55F"/>
<path fill-rule="evenodd" clip-rule="evenodd" d="M346.353 126.641L341.483 141.446L363.076 153.442C370.485 150.383 379.434 145.784 384.76 141.083C387.79 138.409 388.719 136.506 388.778 135.531C388.796 135.232 388.85 133.794 384.894 131.77C369.324 123.804 353.676 124.865 346.353 126.641ZM341.645 119.092C349.472 116.483 369.19 114.126 388.79 124.154C394.03 126.835 397.636 130.758 397.317 136.045C397.04 140.655 393.745 144.563 390.421 147.497C383.493 153.611 372.312 159.03 364.343 162.154L362.466 162.89L331.146 145.49L339.606 119.772L341.645 119.092Z" fill="black"/>
<path d="M214.942 201.154C249.963 189.926 282.846 188.055 297.817 185.381C299.065 185.381 301.346 184.846 300.491 182.708C299.421 180.035 295.679 180.836 288.728 180.836C281.777 180.836 272.955 181.104 275.895 175.757C278.836 170.41 287.391 171.48 297.817 170.143C308.243 168.806 306.105 164.529 308.244 154.904C310.382 145.28 306.372 135.656 313.858 132.982C321.343 130.309 319.205 136.725 325.621 137.26C332.037 137.795 332.839 132.18 338.721 132.982C344.602 133.784 344.602 140.201 347.008 143.676C349.414 147.151 354.226 149.29 360.91 150.092C367.593 150.894 373.475 147.151 382.564 143.676C391.654 140.201 398.605 140.468 404.754 143.676C410.902 146.884 404.754 156.508 400.209 162.657C395.664 168.806 386.307 177.094 392.723 185.381C399.139 193.669 406.892 195.273 411.972 202.224C416.035 207.784 408.853 206.501 404.754 205.164C406.358 207.392 413.736 215.27 430.418 228.958C451.271 246.067 466.777 267.455 479.876 290.981C492.976 314.507 492.174 346.32 490.035 371.717C487.897 397.115 487.095 430.265 487.629 443.365C488.164 456.464 484.956 460.475 478.272 460.475C471.589 460.475 469.985 452.989 471.589 448.177C473.193 443.365 473.46 431.869 470.787 438.82C468.113 445.771 443.251 483.466 436.835 491.486C430.418 499.506 420.259 505.655 419.725 507.794C419.19 509.933 426.408 515.279 431.22 521.428C436.032 527.577 469.717 572.49 468.381 619.542C467.044 666.594 442.449 715.25 423.2 737.974C403.952 760.698 369.465 790.105 290.065 794.115C210.664 798.126 164.949 782.887 122.977 758.292C81.0042 733.697 61.4883 700.814 49.1906 671.674C36.8929 642.533 38.2296 597.62 49.1906 585.323C60.1516 573.025 75.1226 563.668 111.481 575.698C147.839 587.729 145.968 597.086 174.306 627.295C202.644 657.505 225.635 662.049 253.706 659.643C281.777 657.237 307.709 637.989 314.66 622.216C321.611 606.442 322.413 584.253 303.431 566.341C284.45 548.43 259.053 541.746 232.052 528.112C205.05 514.477 185.267 482.931 185.802 468.495C186.336 454.058 191.683 444.434 218.952 430.8C246.221 417.165 275.093 422.78 288.46 421.978C301.827 421.176 320.541 417.7 329.631 404.868C338.72 392.035 340.592 373.589 332.839 356.746C326.637 343.272 316.175 337.765 311.719 336.696C313.68 333.31 318.189 324.666 320.541 317.18C323.482 307.823 326.155 293.387 332.839 266.118C339.522 238.849 348.879 239.919 354.226 241.79C359.573 243.661 362.781 250.078 360.91 263.712C359.038 277.346 351.285 297.397 344.869 317.18C338.453 336.963 344.602 342.31 348.879 346.32C353.157 350.33 361.712 352.736 369.465 342.31C377.217 331.884 379.356 313.705 378.821 304.348C378.287 294.991 380.426 287.505 383.634 287.505C386.842 287.505 386.307 289.911 390.317 290.981C393.525 291.836 395.931 289.02 396.733 287.505C397.357 287.773 399.834 288.628 404.754 289.911C410.902 291.515 415.18 289.109 420.259 281.356C425.339 273.604 417.051 266.118 415.18 267.455C413.308 268.791 414.11 276.277 409.566 278.683C405.021 281.089 403.417 274.94 400.209 273.069C397.001 271.197 395.129 274.94 392.723 278.683C390.317 282.426 387.644 281.624 386.307 279.752C384.97 277.881 386.04 272.802 382.564 271.999C379.089 271.197 376.683 275.742 373.475 283.228C370.267 290.713 367.326 315.843 365.187 326.537C363.048 337.231 358.236 341.508 354.226 339.637C350.216 337.765 349.147 334.557 351.285 324.131C353.424 313.705 360.108 293.654 362.781 285.366C365.454 277.079 376.148 236.443 355.83 232.433C335.512 228.423 328.027 246.869 322.68 267.455C317.333 288.04 306.64 326.537 302.095 339.637C297.55 352.736 287.391 350.865 287.658 344.716C287.926 338.567 288.46 331.349 286.054 329.21C283.648 327.072 268.41 326.002 253.171 326.537C237.933 327.072 217.615 339.637 203.981 344.716C190.346 349.796 180.989 350.33 170.831 355.142C160.672 359.954 159.602 370.915 154.255 371.183C148.909 371.45 147.572 366.103 149.711 361.024C151.849 355.944 153.721 350.33 147.572 347.122C141.423 343.914 133.67 344.716 125.115 340.973C116.56 337.231 102.659 329.745 100.253 304.08C97.8466 278.416 111.214 262.91 133.67 244.731C156.127 226.552 179.92 212.383 214.942 201.154Z" fill="url(#paint0_linear_753_951)"/>
<path fill-rule="evenodd" clip-rule="evenodd" d="M287.841 171.03C288.133 171.006 288.429 170.982 288.728 170.959C289.283 170.915 289.851 170.873 290.429 170.831C292.737 170.66 295.219 170.476 297.817 170.143C301.161 169.714 303.213 168.983 304.527 167.87C306.441 166.249 306.793 163.819 307.298 160.335C307.528 158.751 307.789 156.948 308.244 154.905C308.989 151.55 308.987 148.196 308.986 145.135C308.983 139.416 308.981 134.724 313.858 132.983C318.061 131.481 319.23 132.846 320.583 134.427C321.639 135.661 322.808 137.026 325.621 137.26C328.847 137.529 330.653 136.243 332.4 135C334.127 133.771 335.796 132.584 338.72 132.983C342.806 133.54 344.053 136.805 345.241 139.912C345.763 141.279 346.273 142.615 347.008 143.676C349.414 147.152 354.226 149.29 360.91 150.092C365.914 150.693 370.47 148.745 376.259 146.269C378.201 145.439 380.281 144.549 382.564 143.676C391.654 140.201 398.605 140.468 404.753 143.676C410.902 146.884 404.753 156.509 400.209 162.657C399.47 163.656 398.605 164.711 397.702 165.813C393.04 171.498 387.349 178.44 392.723 185.381C392.967 185.696 393.212 186.001 393.46 186.297C396.562 190.012 399.933 192.313 403.139 194.502C403.256 194.582 403.373 194.662 403.49 194.742C404.788 195.629 406.057 196.506 407.266 197.459C408.528 198.453 409.726 199.531 410.826 200.792C411.221 201.244 411.603 201.72 411.972 202.224C415.339 206.832 410.984 206.74 407.06 205.813C406.249 205.621 405.456 205.394 404.753 205.165C405.005 205.513 405.397 206.001 405.945 206.628C407.936 208.904 411.975 213.017 418.711 218.996C421.961 221.881 425.839 225.201 430.418 228.958C451.271 246.068 466.777 267.455 479.876 290.981C492.976 314.507 492.174 346.32 490.035 371.718C487.896 397.115 487.094 430.265 487.629 443.365C488.164 456.465 484.956 460.475 478.272 460.475C477.184 460.475 476.23 460.276 475.403 459.923C472.087 458.507 470.806 454.605 471.041 451.044C471.107 450.04 471.293 449.063 471.589 448.177C472.34 445.922 472.799 442.198 472.798 439.594C472.797 436.641 472.207 435.127 470.787 438.82C470.234 440.256 468.735 443.003 466.648 446.53C466.15 447.372 465.618 448.258 465.057 449.181C463.012 452.551 460.585 456.416 458.012 460.424C449.946 472.99 440.454 486.961 436.834 491.486C433.238 495.982 428.466 499.889 424.872 502.832C422.054 505.14 419.96 506.854 419.725 507.794C419.411 509.049 421.765 511.407 424.737 514.384C426.831 516.482 429.231 518.887 431.22 521.428C436.032 527.577 469.717 572.49 468.381 619.542C467.044 666.594 442.449 715.25 423.2 737.974C403.951 760.698 369.465 790.106 290.064 794.116C210.664 798.126 164.949 782.887 122.977 758.292C81.0041 733.697 61.4881 700.814 49.1904 671.674C36.8928 642.534 38.2295 597.62 49.1904 585.323C60.1514 573.025 75.1225 563.668 111.481 575.699C138.176 584.532 144.262 591.923 156.828 607.186C161.377 612.711 166.775 619.267 174.306 627.295C202.644 657.505 225.635 662.05 253.706 659.643C281.777 657.237 307.709 637.989 314.66 622.216C321.61 606.443 322.413 584.253 303.431 566.342C290.309 553.959 274.121 546.943 256.457 539.286C248.569 535.867 240.387 532.321 232.051 528.112C205.05 514.478 185.267 482.931 185.801 468.495C186.336 454.059 191.683 444.434 218.952 430.8C239.899 420.326 261.792 421.211 276.877 421.821C281.429 422.005 285.361 422.164 288.46 421.978C301.827 421.176 320.541 417.7 329.631 404.868C338.72 392.036 340.592 373.589 332.839 356.747C330.085 350.764 326.492 346.353 322.957 343.202C321.058 341.51 319.175 340.181 317.449 339.169C315.153 337.822 313.133 337.035 311.719 336.696C313.131 334.257 315.866 329.088 318.165 323.591C319.057 321.457 319.883 319.273 320.541 317.18C322.21 311.87 323.793 304.925 326.071 294.927C327.62 288.129 329.49 279.921 331.928 269.857C332.223 268.638 332.527 267.392 332.839 266.118C339.429 239.232 348.617 239.894 353.999 241.712C354.075 241.738 354.151 241.764 354.226 241.79C359.573 243.662 362.781 250.078 360.91 263.712C360.143 269.294 358.391 275.952 356.149 283.227C354.294 289.244 352.103 295.682 349.858 302.283C348.187 307.195 346.486 312.196 344.869 317.18C344.251 319.085 343.75 320.855 343.353 322.504C339.684 337.713 344.83 342.53 348.678 346.132C348.745 346.195 348.813 346.258 348.879 346.32C349.367 346.778 349.911 347.215 350.503 347.614C355.099 350.712 362.596 351.547 369.464 342.31C372.282 338.521 374.358 333.708 375.834 328.666C378.419 319.836 379.162 310.304 378.821 304.348C378.757 303.225 378.732 302.129 378.742 301.07C378.743 300.937 378.745 300.806 378.747 300.675C378.8 297.756 379.126 295.129 379.666 293.004C380.498 289.728 381.839 287.642 383.47 287.512C383.524 287.508 383.579 287.505 383.633 287.505C385.279 287.505 385.94 288.138 386.734 288.899C386.738 288.903 386.742 288.907 386.746 288.91C387.498 289.63 388.374 290.463 390.317 290.981C392.575 291.583 394.436 290.366 395.62 289.064C396.118 288.516 396.496 287.954 396.733 287.505C397.263 287.732 399.128 288.383 402.689 289.36C403.322 289.533 404.01 289.718 404.753 289.911C408.507 290.891 411.563 290.375 414.531 288.062C416.424 286.585 418.281 284.376 420.259 281.357C420.375 281.18 420.484 281.003 420.586 280.827C421.379 279.457 421.768 278.102 421.861 276.808C422.282 270.964 416.677 266.385 415.18 267.455C414.459 267.97 414.135 269.396 413.749 271.093C413.389 272.678 412.975 274.499 412.135 276.034C411.538 277.123 410.726 278.069 409.566 278.683C409.171 278.892 408.799 279.036 408.446 279.125C408.129 279.204 407.827 279.238 407.539 279.233C405.704 279.202 404.409 277.585 403.098 275.95C402.792 275.568 402.484 275.185 402.169 274.821C401.789 274.381 401.397 273.969 400.981 273.62C400.733 273.411 400.476 273.225 400.209 273.069C399.932 272.907 399.665 272.788 399.406 272.706C399.206 272.643 399.01 272.603 398.819 272.584C398.723 272.574 398.629 272.57 398.535 272.571C396.869 272.592 395.558 274.26 394.198 276.358C394.067 276.559 393.936 276.765 393.805 276.973C393.678 277.172 393.552 277.374 393.424 277.577C393.194 277.942 392.961 278.313 392.723 278.683C390.317 282.426 387.644 281.624 386.307 279.753C386.08 279.435 385.923 279.025 385.8 278.56C385.727 278.278 385.665 277.976 385.61 277.662C385.563 277.399 385.521 277.127 385.477 276.852C385.287 275.64 385.084 274.353 384.496 273.394C384.429 273.285 384.357 273.18 384.279 273.079C383.88 272.564 383.333 272.177 382.564 272C382.452 271.974 382.341 271.954 382.232 271.939C381.727 271.871 381.244 271.918 380.778 272.073C379.937 272.353 379.148 272.982 378.376 273.916C376.829 275.787 375.348 278.879 373.648 282.825C373.59 282.959 373.532 283.093 373.475 283.228C373.251 283.75 373.028 284.359 372.807 285.042C372.499 285.994 372.194 287.092 371.892 288.306C370.783 292.765 369.72 298.792 368.727 304.925C368.306 307.524 367.897 310.142 367.503 312.667C366.659 318.08 365.881 323.068 365.187 326.537C365.158 326.681 365.129 326.823 365.099 326.965C364.815 328.32 364.486 329.569 364.122 330.712C363.379 333.044 362.485 334.935 361.504 336.391C359.49 339.377 357.109 340.531 354.905 339.893C354.677 339.827 354.45 339.741 354.226 339.637C350.646 337.966 349.41 335.23 350.708 327.243C350.864 326.284 351.056 325.249 351.285 324.131C351.31 324.013 351.334 323.893 351.36 323.772C351.627 322.503 351.957 321.101 352.337 319.602C354.733 310.124 359.077 296.765 361.705 288.683C362.109 287.442 362.472 286.326 362.781 285.367C363.199 284.071 363.813 281.984 364.474 279.371C365.481 275.386 366.598 270.177 367.295 264.676C367.298 264.647 367.302 264.619 367.306 264.59C368.985 251.247 368.181 236.222 357.365 232.823C356.874 232.669 356.363 232.538 355.83 232.433C336.702 228.658 328.947 244.786 323.643 263.864C323.313 265.051 322.993 266.249 322.68 267.455C319.515 279.639 314.477 298.098 309.95 313.852C307.937 320.857 306.025 327.327 304.423 332.472C303.641 334.984 302.934 337.18 302.324 338.969C302.246 339.198 302.169 339.421 302.095 339.637C301.878 340.262 301.648 340.854 301.407 341.412C300.76 342.912 300.033 344.174 299.261 345.221C298.415 346.367 297.513 347.255 296.602 347.914C292.164 351.124 287.476 348.919 287.658 344.716C287.678 344.258 287.7 343.794 287.721 343.326C287.829 340.996 287.94 338.581 287.891 336.398C287.89 336.358 287.889 336.319 287.888 336.279C287.807 333.073 287.371 330.381 286.054 329.211C283.648 327.072 268.41 326.002 253.171 326.537C242.662 326.906 229.736 332.997 218.253 338.408C213.086 340.843 208.212 343.14 203.981 344.716C197.73 347.045 192.378 348.419 187.436 349.687C181.598 351.185 176.332 352.537 170.83 355.143C168.75 356.128 167.051 357.371 165.619 358.727C164.381 359.899 163.341 361.156 162.427 362.404C161.653 363.459 160.969 364.509 160.33 365.495C160.3 365.542 160.27 365.588 160.24 365.634C158.28 368.658 156.723 371.06 154.255 371.183C148.908 371.45 147.572 366.104 149.71 361.024C150.246 359.752 150.765 358.447 151.145 357.154C151.601 355.605 151.857 354.075 151.706 352.642C151.48 350.494 150.337 348.565 147.572 347.122C144.536 345.538 141.109 344.932 137.388 344.274C133.572 343.598 129.446 342.868 125.115 340.973C116.56 337.231 102.659 329.745 100.252 304.081C97.8464 278.416 111.213 262.91 133.67 244.731C156.127 226.552 179.92 212.383 214.942 201.154C233.371 195.246 251.208 191.928 266.154 189.721C272.434 188.794 278.204 188.063 283.293 187.418C284.471 187.269 285.613 187.124 286.717 186.983C287.402 186.895 288.073 186.808 288.728 186.722C289.621 186.605 290.486 186.49 291.321 186.376C293.751 186.044 295.927 185.719 297.817 185.381C298.648 185.381 299.939 185.144 300.454 184.353C300.712 183.957 300.776 183.422 300.491 182.708C300.234 182.066 299.823 181.625 299.251 181.324C298.852 181.115 298.375 180.974 297.817 180.882C297.561 180.84 297.287 180.807 296.996 180.784C295.826 180.687 294.376 180.726 292.629 180.772C291.621 180.798 290.515 180.827 289.307 180.835C289.116 180.836 288.923 180.837 288.728 180.837C288.414 180.837 288.097 180.837 287.777 180.838C287.366 180.838 286.951 180.839 286.534 180.839C286.064 180.838 285.592 180.836 285.121 180.831C279.138 180.767 273.45 180.203 275.895 175.757C276.4 174.839 277.07 174.111 277.887 173.526C280.186 171.882 283.644 171.381 287.841 171.03ZM260.975 175.904C261.299 173.017 262.301 170.518 263.246 168.8C268.229 159.739 277.422 157.839 281.92 157.168C284.368 156.803 286.974 156.61 289.108 156.452L289.341 156.435C290.737 156.332 292.048 156.234 293.334 156.114C293.538 154.836 293.801 153.347 294.151 151.773C294.38 150.744 294.502 149.445 294.536 147.533C294.543 147.191 294.544 146.625 294.545 145.943C294.548 144.336 294.553 142.085 294.628 140.604C294.755 138.096 295.131 133.91 297.196 129.756C299.609 124.903 303.701 121.281 309.002 119.387C312.136 118.268 316.537 117.235 321.395 118.428C323.845 119.03 325.817 120.056 327.346 121.116C328.053 120.73 328.842 120.344 329.685 120.003C332.986 118.669 336.674 118.134 340.671 118.679C344.92 119.258 348.698 121.001 351.749 123.713C354.587 126.236 356.216 129.084 357.16 131.034C357.844 132.446 358.47 134.079 358.795 134.936C359.525 135.203 360.755 135.534 362.63 135.759L362.634 135.759C362.7 135.769 363.35 135.862 365.838 134.944C367.15 134.46 368.594 133.846 370.609 132.984L370.666 132.96C372.568 132.146 374.863 131.165 377.408 130.192C389.347 125.627 400.757 125.308 411.431 130.877C417.138 133.855 420.665 139.066 421.553 144.991C422.296 149.948 421.05 154.346 420.013 157.119C417.905 162.758 414.129 168.112 411.818 171.238C411.033 172.301 410.206 173.326 409.504 174.186C409.254 174.493 409.023 174.775 408.803 175.042C408.345 175.602 407.935 176.102 407.495 176.652C406.886 177.413 406.398 178.054 406.009 178.6C407.294 179.804 408.835 180.91 410.992 182.384C411.181 182.513 411.38 182.647 411.587 182.788C414.678 184.886 419.648 188.26 423.628 193.706C424.58 195.009 425.713 196.785 426.522 198.955C427.22 200.826 427.991 203.845 427.41 207.411C430.67 210.329 434.691 213.79 439.575 217.797C462.3 236.443 478.862 259.485 492.489 283.958C507.978 311.775 506.537 347.8 504.421 372.929C502.317 397.913 501.55 430.438 502.053 442.776C502.339 449.775 501.92 457.733 498.064 464.213C495.883 467.88 492.75 470.833 488.782 472.703C485.034 474.469 481.302 474.911 478.272 474.911C474.151 474.911 470.588 473.865 467.617 472.16C467.516 472.316 467.415 472.472 467.313 472.627C460.023 483.828 451.829 495.853 448.107 500.505C445.471 503.8 442.464 506.736 439.742 509.165C440.714 510.243 441.687 511.378 442.589 512.531C445.355 516.066 455.603 529.683 465.043 548.739C474.397 567.624 483.575 593.079 482.811 619.952C481.365 670.865 455.17 722.568 434.216 747.305C423.726 759.689 408.853 774.131 385.752 785.921C362.713 797.679 332.196 806.443 290.793 808.534C208.67 812.681 160.152 796.809 115.678 770.748C70.1059 744.043 48.9089 708.136 35.89 677.287C28.7753 660.428 25.8515 639.842 26.0328 622.035C26.1243 613.048 27.009 604.298 28.7696 596.662C30.433 589.448 33.2592 581.5 38.4135 575.717C44.9366 568.399 53.7982 560.702 67.3674 557.368C80.6045 554.116 96.3702 555.493 116.016 561.993C135.562 568.46 146.408 574.771 156.109 584.472C160.195 588.558 163.978 593.155 167.853 597.864C168.164 598.242 168.476 598.621 168.789 599.001C173.113 604.248 178.074 610.211 184.835 617.418C197.911 631.359 208.907 638.482 219 642.119C229.092 645.755 239.543 646.368 252.473 645.26C263.735 644.295 274.983 639.873 284.216 633.851C293.732 627.643 299.503 620.809 301.449 616.394C306.601 604.703 306.97 589.53 293.523 576.841C285.711 569.469 276.267 564.099 264.672 558.718C260.751 556.898 256.267 554.95 251.496 552.877C243.232 549.287 234.105 545.322 225.544 540.999C209.504 532.899 196.155 519.838 186.909 507.073C182.244 500.633 178.4 493.964 175.711 487.611C173.14 481.536 171.129 474.598 171.375 467.961C171.717 458.732 173.754 449.331 181.153 440.236C187.938 431.896 198.331 424.97 212.496 417.888C228.677 409.797 245.002 407.586 258.449 407.148C265.165 406.929 271.333 407.151 276.372 407.352L276.94 407.375C282.009 407.578 285.249 407.708 287.596 407.567C293.57 407.209 300.166 406.272 305.957 404.282C311.805 402.271 315.677 399.592 317.85 396.523C323.751 388.193 325.474 375.272 319.725 362.783C317.624 358.218 314.904 355.203 312.542 353.292C312.242 353.048 311.951 352.826 311.673 352.624C307.825 358.384 302.222 362.76 294.939 363.71C289.835 364.376 284.257 363.125 279.829 359.372C275.274 355.513 272.984 349.865 273.235 344.089C273.259 343.545 273.283 343.034 273.305 342.544C273.326 342.106 273.345 341.684 273.363 341.269C273.344 341.267 273.325 341.266 273.305 341.264C267.924 340.846 260.857 340.713 253.678 340.965C249.108 341.125 242.482 343.291 233.814 347.125C231.284 348.244 228.388 349.605 225.382 351.016C219.747 353.663 213.729 356.49 209.021 358.244C202.025 360.851 195.985 362.399 191.064 363.66C190.602 363.779 190.149 363.895 189.707 364.009C184.437 365.368 180.736 366.425 177.01 368.189C175.787 368.769 174.817 369.713 172.823 372.764C172.735 372.9 172.628 373.066 172.505 373.257C171.685 374.534 170.145 376.933 168.475 378.817C166.275 381.299 161.867 385.257 154.976 385.601C151.161 385.792 146.972 385.005 143.176 382.562C139.38 380.119 136.981 376.663 135.678 373.228C133.735 368.105 134.071 362.888 135.301 358.566C135.117 358.533 134.927 358.499 134.73 358.464L134.495 358.422C130.78 357.766 125.242 356.786 119.329 354.2C114.4 352.043 106.453 348.199 99.5054 340.245C92.4114 332.123 87.3265 320.866 85.8791 305.428C84.3808 289.446 87.8684 275.991 95.3957 263.947C102.578 252.455 113.12 242.793 124.587 233.51C148.321 214.297 173.68 199.223 210.534 187.407C228.315 181.706 246.044 178.232 260.975 175.904ZM137.364 352.816C137.364 352.816 137.363 352.823 137.36 352.839C137.362 352.825 137.364 352.817 137.364 352.816ZM404.828 180.551C404.828 180.551 404.83 180.543 404.837 180.527C404.832 180.543 404.828 180.551 404.828 180.551ZM331.783 125.309C331.782 125.307 331.78 125.305 331.778 125.303C331.784 125.31 331.786 125.312 331.783 125.309ZM292.631 160.603C292.631 160.603 292.633 160.597 292.635 160.586C292.633 160.598 292.631 160.603 292.631 160.603ZM291.321 186.376L294.845 184.966ZM287.628 336.697C287.626 336.692 287.658 336.64 287.732 336.558C287.667 336.661 287.63 336.702 287.628 336.697ZM411.145 191.907C411.146 191.908 411.114 191.906 411.047 191.896C411.11 191.901 411.144 191.906 411.145 191.907Z" fill="black"/>
<path fill-rule="evenodd" clip-rule="evenodd" d="M163.063 243.654C163.565 242.924 163.38 241.925 162.65 241.424C161.92 240.922 160.921 241.107 160.42 241.837C159.567 243.077 158.235 245.232 156.751 248.008C155.48 248.307 154.164 248.649 152.813 249.041C152.907 248.881 152.995 248.733 153.079 248.597C153.3 248.237 153.474 247.981 153.593 247.82C153.618 247.787 153.639 247.76 153.656 247.739C154.233 247.277 154.431 246.459 154.086 245.771C153.69 244.978 152.727 244.657 151.934 245.053C151.622 245.209 151.409 245.44 151.34 245.515L151.338 245.517C151.228 245.635 151.122 245.768 151.024 245.899C150.825 246.165 150.596 246.51 150.345 246.919C149.841 247.74 149.206 248.889 148.503 250.329C148.484 250.37 148.464 250.411 148.444 250.452C145.293 251.574 142.034 252.971 138.797 254.697C138.016 255.114 137.72 256.085 138.137 256.867C138.554 257.649 139.525 257.944 140.307 257.528C142.412 256.405 144.526 255.429 146.611 254.582C146.36 255.2 146.106 255.845 145.852 256.518C143.322 257.511 141.131 258.491 139.649 259.216C138.853 259.606 138.524 260.566 138.913 261.362C139.303 262.158 140.263 262.487 141.059 262.098C141.941 261.666 143.1 261.134 144.445 260.56C144.26 261.139 144.076 261.732 143.896 262.339C143.644 263.188 144.127 264.081 144.976 264.333C145.826 264.586 146.719 264.102 146.971 263.253C147.421 261.74 147.89 260.316 148.362 258.992C149.056 258.732 149.769 258.474 150.495 258.223C151.086 258.019 151.682 257.821 152.279 257.631C151.682 259.138 151.112 260.701 150.592 262.299C150.318 263.142 150.778 264.047 151.621 264.321C152.463 264.595 153.368 264.135 153.642 263.292C154.412 260.929 155.295 258.645 156.213 256.512C158.211 256.02 160.134 255.678 161.838 255.575C162.723 255.521 163.396 254.761 163.342 253.877C163.289 252.992 162.529 252.319 161.644 252.373C160.449 252.445 159.181 252.618 157.88 252.864C158.224 252.153 158.566 251.468 158.903 250.813C164.042 249.713 168.239 249.388 170.535 249.429C171.421 249.444 172.152 248.739 172.167 247.853C172.183 246.968 171.478 246.237 170.592 246.221C168.498 246.184 165.08 246.415 160.892 247.156C161.768 245.634 162.525 244.437 163.063 243.654ZM154.829 251.806C153.511 252.167 152.153 252.577 150.769 253.042C150.485 253.661 150.192 254.328 149.893 255.039C151.197 254.596 152.547 254.174 153.902 253.8C154.21 253.117 154.52 252.452 154.829 251.806Z" fill="black"/>
<path fill-rule="evenodd" clip-rule="evenodd" d="M312.831 230.802C313.47 230.188 313.49 229.172 312.876 228.534C312.262 227.895 311.246 227.875 310.608 228.489C307.932 231.062 303.478 238.595 305.053 249.393C305.18 250.269 305.995 250.876 306.871 250.749C307.748 250.621 308.355 249.807 308.227 248.93C306.808 239.196 310.873 232.685 312.831 230.802ZM364.592 739.635C364.834 738.782 364.339 737.895 363.487 737.653C362.635 737.412 361.748 737.906 361.506 738.759L358.247 750.24C354.303 751.158 350.02 752.044 345.395 752.855C344.522 753.008 343.939 753.84 344.092 754.712C344.245 755.585 345.076 756.168 345.949 756.015C349.968 755.31 353.734 754.549 357.247 753.759L354.887 762.075C350.83 763.207 347.483 763.965 345.38 764.353C344.509 764.514 343.933 765.351 344.094 766.222C344.255 767.093 345.092 767.669 345.963 767.508C347.806 767.168 350.548 766.559 353.864 765.679L349.743 780.196C349.501 781.049 349.996 781.935 350.848 782.177C351.7 782.419 352.587 781.925 352.829 781.072L357.485 764.67C359.483 764.089 361.617 763.427 363.835 762.683L361.496 771.676C361.273 772.533 361.788 773.409 362.645 773.632C363.503 773.855 364.378 773.34 364.601 772.483L367.48 761.411C369.266 760.763 371.087 760.065 372.916 759.317L369.791 770.581C369.554 771.435 370.054 772.319 370.908 772.556C371.761 772.793 372.645 772.293 372.882 771.439L376.693 757.704C378.002 757.12 379.307 756.51 380.599 755.874C381.394 755.483 381.722 754.522 381.331 753.727C380.939 752.932 379.978 752.605 379.183 752.996C378.729 753.219 378.273 753.439 377.816 753.656L379.527 747.491C380.016 747.323 380.494 747.156 380.96 746.992C384.971 745.576 388.073 744.328 390.261 743.44L390.688 743.266L390.691 743.265C391.586 742.901 392.289 742.615 392.828 742.411C393.138 742.293 393.365 742.214 393.524 742.166C393.58 742.149 393.618 742.139 393.64 742.133C394.473 742.075 395.13 741.381 395.13 740.533C395.13 739.647 394.412 738.929 393.526 738.929C393.164 738.929 392.806 739.031 392.594 739.096C392.33 739.175 392.024 739.285 391.69 739.411C391.113 739.631 390.367 739.934 389.477 740.295L389.054 740.467C387.008 741.298 384.186 742.434 380.571 743.725L385.714 725.189C385.951 724.335 385.451 723.451 384.598 723.215C383.744 722.978 382.86 723.478 382.623 724.331L376.889 744.998C375.162 745.575 373.294 746.171 371.285 746.775L375.028 732.382C375.25 731.525 374.736 730.649 373.879 730.426C373.021 730.203 372.146 730.717 371.923 731.575L367.7 747.817C365.845 748.338 363.888 748.859 361.827 749.375L364.592 739.635ZM360.819 752.927L358.523 761.014C360.519 760.406 362.629 759.721 364.803 758.959L366.768 751.402C364.882 751.914 362.899 752.424 360.819 752.927ZM370.343 750.398C372.302 749.829 374.141 749.264 375.859 748.711L374.009 755.379C372.154 756.179 370.297 756.927 368.465 757.623L370.343 750.398Z" fill="black"/>
<path fill-rule="evenodd" clip-rule="evenodd" d="M485.409 289.275C490.147 287.767 495.274 287.391 497.253 287.391V287.926C495.312 287.926 490.243 288.298 485.571 289.785L485.409 289.275Z" fill="black"/>
<path fill-rule="evenodd" clip-rule="evenodd" d="M353.868 236.33C354.901 237.165 355.061 238.68 354.226 239.713L344.067 252.278C343.231 253.312 341.716 253.472 340.683 252.637C339.65 251.801 339.489 250.286 340.325 249.253L350.484 236.688C351.319 235.654 352.834 235.494 353.868 236.33ZM361.78 241.283C362.736 242.207 362.761 243.73 361.837 244.685L346.064 260.993C345.14 261.948 343.617 261.974 342.662 261.05C341.707 260.126 341.681 258.603 342.605 257.648L358.378 241.34C359.302 240.385 360.825 240.359 361.78 241.283ZM365.897 252.889C366.792 253.871 366.72 255.393 365.738 256.287L347.826 272.595C346.843 273.49 345.321 273.419 344.427 272.436C343.532 271.453 343.604 269.932 344.586 269.037L362.498 252.729C363.481 251.835 365.002 251.906 365.897 252.889ZM365.983 265.554C366.822 266.584 366.668 268.099 365.638 268.939L351.201 280.702C350.171 281.541 348.655 281.386 347.816 280.356C346.977 279.326 347.131 277.81 348.162 276.971L362.598 265.208C363.628 264.369 365.144 264.523 365.983 265.554ZM205.186 475.568C206.237 476.381 206.429 477.893 205.616 478.943L192.784 495.518C191.97 496.569 190.459 496.761 189.408 495.948C188.357 495.135 188.165 493.623 188.979 492.573L201.811 475.997C202.624 474.947 204.136 474.754 205.186 475.568ZM209.565 485.543C210.57 486.412 210.68 487.932 209.81 488.936L197.78 502.838C196.91 503.843 195.391 503.953 194.386 503.083C193.381 502.214 193.272 500.694 194.141 499.689L206.171 485.787C207.041 484.783 208.561 484.673 209.565 485.543ZM213.456 492.129C214.514 492.933 214.721 494.442 213.917 495.5L202.956 509.937C202.153 510.995 200.643 511.202 199.585 510.398C198.527 509.595 198.32 508.085 199.124 507.027L210.085 492.591C210.888 491.532 212.398 491.326 213.456 492.129ZM218.236 501.195C219.308 501.981 219.539 503.486 218.753 504.558L209.931 516.588C209.145 517.66 207.64 517.891 206.568 517.106C205.496 516.32 205.265 514.814 206.051 513.743L214.873 501.712C215.659 500.641 217.164 500.409 218.236 501.195ZM226.21 508.113C227.3 508.873 227.567 510.373 226.807 511.463L218.786 522.958C218.026 524.048 216.526 524.315 215.436 523.555C214.347 522.794 214.08 521.295 214.84 520.205L222.86 508.709C223.62 507.619 225.12 507.352 226.21 508.113ZM235.752 516.811C236.763 517.674 236.883 519.192 236.02 520.203L226.663 531.164C225.801 532.175 224.282 532.294 223.271 531.432C222.261 530.569 222.141 529.05 223.003 528.04L232.36 517.079C233.223 516.068 234.742 515.948 235.752 516.811ZM246.774 523.069C247.872 523.818 248.155 525.314 247.407 526.412L239.386 538.175C238.638 539.273 237.141 539.557 236.043 538.808C234.945 538.059 234.662 536.562 235.41 535.465L243.431 523.702C244.179 522.604 245.676 522.32 246.774 523.069ZM254.705 529.887C255.729 530.734 255.872 532.251 255.025 533.275L248.609 541.027C247.762 542.051 246.245 542.194 245.221 541.347C244.198 540.5 244.054 538.983 244.902 537.959L251.318 530.206C252.165 529.183 253.682 529.04 254.705 529.887ZM52.853 599.922C53.8814 600.763 54.033 602.279 53.1915 603.307L38.7551 620.952C37.9137 621.98 36.3978 622.132 35.3693 621.29C34.3409 620.449 34.1893 618.933 35.0308 617.905L49.4672 600.26C50.3086 599.232 51.8245 599.08 52.853 599.922ZM58.256 610.93C59.2583 611.802 59.3634 613.322 58.4909 614.325L38.7077 637.048C37.8351 638.051 36.3153 638.156 35.3131 637.283C34.3109 636.411 34.2057 634.891 35.0782 633.889L54.8614 611.165C55.734 610.163 57.2538 610.057 58.256 610.93ZM58.2282 626.145C59.2436 627.002 59.3719 628.52 58.5147 629.535L41.1376 650.12C40.2804 651.136 38.7624 651.264 37.747 650.407C36.7316 649.55 36.6033 648.032 37.4605 647.016L54.8376 626.431C55.6948 625.416 57.2128 625.287 58.2282 626.145ZM61.9507 637.089C62.9755 637.935 63.1204 639.451 62.2744 640.476L43.2932 663.467C42.4472 664.492 40.9307 664.637 39.9059 663.791C38.8812 662.945 38.7363 661.428 39.5823 660.403L58.5635 637.412C59.4095 636.387 60.926 636.243 61.9507 637.089ZM64.8353 646.668C65.8849 647.483 66.0751 648.994 65.2601 650.044L47.6156 672.768C46.8007 673.817 45.2891 674.008 44.2396 673.193C43.19 672.378 42.9998 670.866 43.8148 669.817L61.4592 647.093C62.2742 646.043 63.7857 645.853 64.8353 646.668ZM68.3573 663.28C69.3864 664.121 69.5391 665.636 68.6985 666.666L53.1927 685.647C52.352 686.676 50.8363 686.829 49.8072 685.988C48.7781 685.147 48.6253 683.632 49.466 682.602L64.9717 663.621C65.8124 662.592 67.3282 662.439 68.3573 663.28ZM68.559 682.446C69.486 683.398 69.4657 684.921 68.5136 685.848L58.3547 695.74C57.4026 696.667 55.8793 696.647 54.9523 695.695C54.0253 694.743 54.0456 693.219 54.9976 692.292L65.1566 682.401C66.1087 681.474 67.632 681.494 68.559 682.446Z" fill="black"/>
<path d="M366.381 108.808V120.838C367.807 116.828 371.407 108.808 374.401 108.808C378.144 108.808 390.709 108.808 394.719 78.8656C397.927 54.9119 396.056 19.3378 394.719 4.54492C393.65 10.1591 390.174 24.3281 384.828 36.0911C378.144 50.7948 355.688 74.0535 354.084 91.6979C352.8 105.814 361.747 108.986 366.381 108.808Z" fill="url(#paint1_linear_753_951)"/>
<path fill-rule="evenodd" clip-rule="evenodd" d="M394.942 0.00553514C397.206 0.116664 399.042 1.87862 399.245 4.13585C400.588 18.9917 402.503 54.9867 399.224 79.4688C397.151 94.9442 392.755 103.658 387.52 108.425C382.748 112.771 377.873 113.284 375.295 113.344C374.882 113.795 374.344 114.547 373.735 115.598C372.465 117.79 371.316 120.523 370.663 122.361C369.922 124.445 367.788 125.693 365.609 125.317C363.429 124.941 361.836 123.05 361.836 120.838V112.792C359.499 112.163 357.026 110.954 354.875 108.9C350.992 105.193 348.821 99.3811 349.557 91.2864C350.031 86.0751 352.004 80.733 354.556 75.6077C357.124 70.4487 360.421 65.2337 363.783 60.2501C365.469 57.751 367.191 55.2814 368.86 52.8918C368.972 52.7315 369.084 52.5715 369.195 52.4119C370.753 50.1832 372.256 48.0311 373.669 45.9493C376.728 41.4428 379.192 37.5064 380.69 34.2104C385.835 22.8919 389.224 9.10422 390.255 3.69447C390.679 1.46808 392.678 -0.105594 394.942 0.00553514ZM369.919 105.955C370.991 105.102 372.505 104.263 374.401 104.263H374.417C375.978 104.263 378.59 104.263 381.4 101.704C384.385 98.9862 388.277 92.729 390.215 78.2622C392.057 64.5028 392.187 46.6973 391.711 31.3609C390.859 33.5968 389.943 35.8206 388.965 37.9717C387.121 42.0275 384.272 46.5123 381.19 51.0536C379.741 53.1891 378.203 55.3904 376.654 57.6065C376.54 57.7701 376.426 57.9338 376.311 58.0975C374.64 60.4898 372.958 62.9033 371.318 65.3333C368.03 70.2078 364.995 75.0348 362.692 79.6588C360.374 84.3165 358.938 88.4984 358.61 92.1093C358.062 98.1302 359.724 100.962 361.152 102.326C362.743 103.845 364.854 104.318 366.206 104.266C367.441 104.219 368.642 104.676 369.532 105.533C369.671 105.666 369.8 105.807 369.919 105.955ZM375.643 113.018C375.643 113.02 375.62 113.04 375.575 113.068C375.621 113.029 375.643 113.015 375.643 113.018Z" fill="black"/>
<defs>
<linearGradient id="paint0_linear_753_951" x1="358.236" y1="156.776" x2="290.867" y2="504.319" gradientUnits="userSpaceOnUse">
<stop stop-color="#FFA54E"/>
<stop offset="1" stop-color="#FF66E8"/>
</linearGradient>
<linearGradient id="paint1_linear_753_951" x1="381.495" y1="64.9639" x2="370.534" y2="108.54" gradientUnits="userSpaceOnUse">
<stop stop-color="#FE7500"/>
<stop offset="1" stop-color="#FFEC00"/>
</linearGradient>
</defs>
</svg>
