<svg width="264" height="617" viewBox="0 0 264 617" fill="none" xmlns="http://www.w3.org/2000/svg">
<path fill-rule="evenodd" clip-rule="evenodd" d="M170 617H0V607H160V591H170V607V612V617ZM190 617H264V612V607V557V552V547H240V557H254V607H200V561H190V607V612V617ZM226 515V490H200V542H190V490V487V480H236V487V490V515H254L254 0H264L264 515V517V525H236V578V581V588H204V578H226V525H205V515H226ZM160 547V525V520V515H186V525H170V547H221V557H170V575H160V557H151V547H160ZM132 544V578V581V588H187V578H142V544H132Z" fill="#FFD500"/>
</svg>
