<svg width="264" height="617" viewBox="0 0 264 617" fill="none" xmlns="http://www.w3.org/2000/svg">
<path fill-rule="evenodd" clip-rule="evenodd" d="M94 617H264V607H104V591H94V607V612V617ZM74 617H0V612V607V557V552V547H24V557H10V607H64V561H74V607V612V617ZM38 515V490H64V542H74V490V487V480H28V487V490V515H10L10 0H-3.05176e-05L0 515V517V525H28V578V581V588H60V578H38V525H59V515H38ZM104 547V525V520V515H78V525H94V547H43V557H94V575H104V557H113V547H104ZM132 544V578V581V588H77V578H122V544H132Z" fill="#FFD500"/>
</svg>
