<svg width="774" height="727" viewBox="0 0 774 727" fill="none" xmlns="http://www.w3.org/2000/svg">
<path fill-rule="evenodd" clip-rule="evenodd" d="M159.646 411.696C159.646 411.696 77.6047 380.984 49.7459 359.004C21.887 337.024 -5.22673 295.3 5.33421 275.45C15.8951 255.6 72.1248 274.434 80.6082 278.461C89.0916 282.488 101.512 285.311 93.4048 266.417C85.2977 247.523 74.7218 222.006 78.35 208.456C81.9782 194.907 95.264 192.175 112.976 200.176C130.688 208.178 171.381 236.24 208.574 282.978C245.767 329.715 268.04 355.993 268.04 355.993L229.651 300.291L222.123 285.236C222.123 285.236 155.739 226.68 136.311 201.682C116.883 176.683 98.147 130.841 118.998 109.847C139.849 88.8534 190.38 128.56 195.777 133.935C201.174 139.31 215.74 147.048 212.338 126.408C208.935 105.768 206.481 73.569 210.079 62.4247C213.677 51.2804 226.361 41.8855 246.211 55.6501C266.061 69.4147 290.472 94.2401 310.947 135.441C331.421 176.641 350.089 225.769 350.089 225.769C350.089 225.769 333.642 155.388 338.798 94.0398C343.954 32.6915 361.854 10.8342 370.413 5.21649C378.972 -0.401206 394.079 3.88715 403.533 27.0459C412.988 50.2047 421.373 68.4037 423.105 72.9631C424.836 77.5224 431.332 77.5111 434.396 71.4576C437.459 65.4041 453.335 29.7829 472.033 15.0021C490.731 0.22131 506.651 5.66136 517.197 32.3151C527.314 57.8895 529.294 98.7746 512.681 140.71C496.068 182.645 486.335 209.962 486.335 209.962L497.626 206.951C497.626 206.951 509.369 136.193 530.746 100.814C552.124 65.4357 565.425 65.8948 571.394 67.6939C577.364 69.4929 589.016 82.4393 590.213 106.084C591.41 129.728 593.246 143.186 597.74 144.473C602.234 145.761 620.089 118.587 642.152 105.331C664.215 92.0751 684.795 91.6965 686.564 123.397C688.332 155.097 679.887 185.581 660.97 216.736C642.054 247.892 602.257 288.247 602.257 288.247L628.603 334.164C628.603 334.164 703.387 356.52 739.255 396.641C775.123 436.762 772.587 458.26 768.612 465.141C764.638 472.021 750.561 476.386 726.459 473.421C702.356 470.455 688.46 458.87 682.047 459.119C675.634 459.367 675.272 464.388 679.036 474.173C682.8 483.959 696.62 508.973 696.349 526.112C696.078 543.252 680.391 551.344 659.465 541.92C638.539 532.496 607.91 507.64 588.707 486.97C569.505 466.3 548.06 438.795 548.06 438.795L542.038 448.58C542.038 448.58 604.123 496.899 632.366 535.145C660.609 573.392 664.711 601.018 660.97 617.947C657.229 634.876 639.005 641.643 615.053 629.991C591.101 618.338 567.39 598.503 563.867 597.623C560.344 596.742 557.725 602.711 560.103 617.947C562.482 633.182 569.761 673.431 560.103 685.693C550.446 697.955 521.751 690.443 500.637 665.369C479.523 640.296 435.465 563.004 422.352 517.832C409.239 472.66 418.588 476.432 418.588 476.432C418.588 476.432 430.158 554.596 430.632 608.914C431.106 663.232 418.995 702.464 402.028 718.061C385.061 733.658 370.195 714.056 365.897 703.006C361.598 691.956 349.186 656.148 346.325 652.573C343.465 648.997 337.601 649.855 334.281 654.831C330.962 659.807 314.304 702.088 295.139 714.297C275.974 726.507 260.408 721.155 251.48 696.232C242.553 671.308 241.755 630.683 257.502 582.568C273.249 534.453 285.353 510.305 285.353 510.305L277.073 505.036L271.051 507.294C271.051 507.294 262.959 589.794 234.92 630.743C206.88 671.692 188.792 662.539 183.734 642.034C178.675 621.53 175.649 586.708 174.701 584.073C173.752 581.439 169.62 580.182 165.668 584.826C161.716 589.471 134.459 620.604 116.74 627.732C99.0202 634.861 81.4738 625.286 81.3609 595.364C81.248 565.443 92.6445 532.947 121.256 489.981C149.868 447.015 170.937 428.256 170.937 428.256L159.646 411.696Z" fill="#DDB31F" stroke="black" stroke-width="5.38016" stroke-linecap="round" stroke-linejoin="round"/>
<path fill-rule="evenodd" clip-rule="evenodd" d="M159.646 411.696C159.646 411.696 77.6047 380.984 49.7459 359.004C21.887 337.024 -5.22673 295.3 5.33421 275.45C15.8951 255.6 72.1248 274.434 80.6082 278.461C89.0916 282.488 101.512 285.311 93.4048 266.417C85.2977 247.523 74.7218 222.006 78.35 208.456C81.9782 194.907 95.264 192.175 112.976 200.176C130.688 208.178 171.381 236.24 208.574 282.978C245.767 329.715 268.04 355.993 268.04 355.993L229.651 300.291L222.123 285.236C222.123 285.236 155.739 226.68 136.311 201.682C116.883 176.683 98.147 130.841 118.998 109.847C139.849 88.8534 190.38 128.56 195.777 133.935C201.174 139.31 215.74 147.048 212.338 126.408C208.935 105.768 206.481 73.569 210.079 62.4247C213.677 51.2804 226.361 41.8855 246.211 55.6501C266.061 69.4147 290.472 94.2401 310.947 135.441C331.421 176.641 350.089 225.769 350.089 225.769C350.089 225.769 333.642 155.388 338.798 94.0398C343.954 32.6915 361.854 10.8342 370.413 5.21649C378.972 -0.401206 394.079 3.88715 403.533 27.0459C412.988 50.2047 421.373 68.4037 423.105 72.9631C424.836 77.5224 431.332 77.5111 434.396 71.4576C437.459 65.4041 453.335 29.7829 472.033 15.0021C490.731 0.22131 506.651 5.66136 517.197 32.3151C527.314 57.8895 529.294 98.7746 512.681 140.71C496.068 182.645 486.335 209.962 486.335 209.962L497.626 206.951C497.626 206.951 509.369 136.193 530.746 100.814C552.124 65.4357 565.425 65.8948 571.394 67.6939C577.364 69.4929 589.016 82.4393 590.213 106.084C591.41 129.728 593.246 143.186 597.74 144.473C602.234 145.761 620.089 118.587 642.152 105.331C664.215 92.0751 684.795 91.6965 686.564 123.397C688.332 155.097 679.887 185.581 660.97 216.736C642.054 247.892 602.257 288.247 602.257 288.247L628.603 334.164C628.603 334.164 703.387 356.52 739.255 396.641C775.123 436.762 772.587 458.26 768.612 465.141C764.638 472.021 750.561 476.386 726.459 473.421C702.356 470.455 688.46 458.87 682.047 459.119C675.634 459.367 675.272 464.388 679.036 474.173C682.8 483.959 696.62 508.973 696.349 526.112C696.078 543.252 680.391 551.344 659.465 541.92C638.539 532.496 607.91 507.64 588.707 486.97C569.505 466.3 548.06 438.795 548.06 438.795L542.038 448.58C542.038 448.58 604.123 496.899 632.366 535.145C660.609 573.392 664.711 601.018 660.97 617.947C657.229 634.876 639.005 641.643 615.053 629.991C591.101 618.338 567.39 598.503 563.867 597.623C560.344 596.742 557.725 602.711 560.103 617.947C562.482 633.182 569.761 673.431 560.103 685.693C550.446 697.955 521.751 690.443 500.637 665.369C479.523 640.296 435.465 563.004 422.352 517.832C409.239 472.66 418.588 476.432 418.588 476.432C418.588 476.432 430.158 554.596 430.632 608.914C431.106 663.232 418.995 702.464 402.028 718.061C385.061 733.658 370.195 714.056 365.897 703.006C361.598 691.956 349.186 656.148 346.325 652.573C343.465 648.997 337.601 649.855 334.281 654.831C330.962 659.807 314.304 702.088 295.139 714.297C275.974 726.507 260.408 721.155 251.48 696.232C242.553 671.308 241.755 630.683 257.502 582.568C273.249 534.453 285.353 510.305 285.353 510.305L277.073 505.036L271.051 507.294C271.051 507.294 262.959 589.794 234.92 630.743C206.88 671.692 188.792 662.539 183.734 642.034C178.675 621.53 175.649 586.708 174.701 584.073C173.752 581.439 169.62 580.182 165.668 584.826C161.716 589.471 134.459 620.604 116.74 627.732C99.0202 634.861 81.4738 625.286 81.3609 595.364C81.248 565.443 92.6445 532.947 121.256 489.981C149.868 447.015 170.937 428.256 170.937 428.256L159.646 411.696Z" stroke="black" stroke-width="5.38016" stroke-linecap="round" stroke-linejoin="round"/>
<path fill-rule="evenodd" clip-rule="evenodd" d="M173.952 374.056C173.952 374.056 140.282 364.624 126.529 349.969C112.777 335.313 113.055 325.294 118.249 321.365C123.443 317.435 143.142 321.508 148.359 324.376C153.575 327.243 154.787 323.638 151.37 316.848C147.952 310.058 142.412 298.933 146.853 292.76C151.295 286.588 165.333 290.02 174.705 299.535C184.076 309.05 207.073 334.914 207.073 334.914L265.034 269.426C265.034 269.426 228.398 232.105 222.127 217.486C215.857 202.868 218.221 192.232 224.386 189.635C230.551 187.038 251.243 197.275 255.248 201.679C259.253 206.082 261.548 200.234 259.764 191.141C257.98 182.047 257.958 169.65 264.281 166.3C270.604 162.95 286.773 171.607 298.154 194.904C309.536 218.202 319.231 243.08 319.231 243.08L380.203 206.948C380.203 206.948 377.049 169.921 380.956 149.74C384.862 129.559 391.245 124.222 396.01 124.147C400.775 124.071 410.019 140.278 411.818 148.234C413.617 156.191 419.104 153.579 422.356 146.729C425.608 139.879 434.347 125.645 442.68 125.652C451.013 125.66 459.195 142.852 455.477 161.031C451.758 179.21 440.422 206.195 440.422 206.195L528.492 222.756C528.492 222.756 534.236 201.34 542.795 189.635C551.353 177.93 563.126 177.012 563.871 190.388C564.616 203.764 565.798 212.782 568.388 212.97C570.977 213.158 581.32 195.424 589.464 192.646C597.609 189.868 608.727 196.974 604.519 213.723C600.311 230.471 589.969 246.098 579.679 256.629C569.389 267.16 605.272 368.034 605.272 368.034C605.272 368.034 633.507 376.217 645.92 391.369C658.332 406.522 658.34 417.58 651.942 420.726C645.543 423.873 627.417 414.313 622.585 414.704C617.752 415.096 622.705 425.935 624.843 430.512C626.981 435.088 628.554 447.012 623.338 450.083C618.121 453.154 590.759 438.468 578.926 422.232C567.093 405.995 520.212 426.748 520.212 426.748L509.674 481.698C509.674 481.698 539.189 501.977 548.064 520.841C556.939 539.704 553.378 548.873 548.816 551.703C544.255 554.533 522.546 544.936 518.707 541.165C514.868 537.393 511.511 540.216 512.685 547.186C513.859 554.157 515.282 572.396 508.921 574.285C502.561 576.174 482.184 559.486 473.543 542.67C464.901 525.854 451.713 488.473 451.713 488.473L386.225 517.077C386.225 517.077 391.757 554.338 389.236 570.521C386.714 586.705 378.517 598.584 374.181 600.631C369.845 602.678 363.349 591.636 360.632 585.576C357.914 579.517 356.469 571.959 353.104 572.027C349.739 572.095 342.129 593.781 332.78 598.373C323.431 602.965 313.758 588.339 313.209 576.543C312.659 564.748 320.608 532.734 327.511 518.582C334.414 504.431 244.71 477.934 244.71 477.934C244.71 477.934 235.564 523.362 225.138 536.648C214.713 549.934 206.711 548.323 205.567 538.906C204.423 529.49 205.251 517.197 202.556 515.571C199.861 513.946 185.175 531.944 177.716 535.143C170.256 538.342 160.538 528.699 164.919 511.055C169.3 493.411 178.852 478.416 191.265 465.891C203.678 453.365 213.095 406.424 213.095 406.424L173.952 374.056Z" fill="#C94E36" stroke="black" stroke-width="5.38016" stroke-linecap="round" stroke-linejoin="round"/>
<path fill-rule="evenodd" clip-rule="evenodd" d="M143.083 425.251C143.083 425.251 174.209 245.339 348.581 203.193C522.953 161.047 642.902 299.543 642.902 299.543C642.902 299.543 614.117 470.348 450.201 519.343C286.284 568.339 169.775 467.6 143.083 425.251Z" fill="#097985" stroke="black" stroke-width="5.38016" stroke-linecap="round" stroke-linejoin="round"/>
<path fill-rule="evenodd" clip-rule="evenodd" d="M170.937 419.229C170.937 419.229 191.133 278.919 345.572 228.786C500.012 178.654 613.547 304.813 613.547 304.813C613.547 304.813 599.366 431.687 453.967 492.245C308.567 552.803 194.896 450.844 170.937 419.229Z" fill="#B77772" stroke="black" stroke-width="5.38016" stroke-linecap="round" stroke-linejoin="round"/>
<mask id="mask0_622_702" style="mask-type:alpha" maskUnits="userSpaceOnUse" x="168" y="214" width="449" height="300">
<path fill-rule="evenodd" clip-rule="evenodd" d="M170.934 419.228C170.934 419.228 191.13 278.917 345.569 228.785C500.009 178.652 613.544 304.811 613.544 304.811C613.544 304.811 599.363 431.686 453.964 492.244C308.565 552.801 194.893 450.843 170.934 419.228Z" fill="#B77772" stroke="black" stroke-width="5.38016" stroke-linecap="round" stroke-linejoin="round"/>
</mask>
<g mask="url(#mask0_622_702)">
<path fill-rule="evenodd" clip-rule="evenodd" d="M252.228 277.713C228.727 313.197 197.639 350.412 213.085 409.442C228.532 468.472 286.891 508.209 383.957 513.32C481.023 518.431 567.55 430.587 573.648 368.794C579.745 307.002 552.714 246.993 478.802 223.516C404.891 200.038 313.2 226.526 313.2 226.526C313.2 226.526 275.728 242.229 252.228 277.713Z" fill="#E4D7B6" stroke="black" stroke-width="5.38016" stroke-linecap="round" stroke-linejoin="round"/>
</g>
<path fill-rule="evenodd" clip-rule="evenodd" d="M170.937 419.229C170.937 419.229 191.133 278.919 345.572 228.786C500.012 178.654 613.547 304.813 613.547 304.813C613.547 304.813 599.366 431.687 453.967 492.245C308.567 552.803 194.896 450.844 170.937 419.229Z" stroke="black" stroke-width="5.38016" stroke-linecap="round" stroke-linejoin="round"/>
<path fill-rule="evenodd" clip-rule="evenodd" d="M391.486 262.658C445.947 262.658 490.095 306.302 490.095 360.138C490.095 413.973 445.947 457.617 391.486 457.617C337.025 457.617 292.877 413.973 292.877 360.138C292.877 306.302 337.025 262.658 391.486 262.658Z" fill="#EF5132" stroke="black" stroke-width="5.38016" stroke-linecap="round" stroke-linejoin="round"/>
<path fill-rule="evenodd" clip-rule="evenodd" d="M391.493 291.097C430.064 291.097 461.332 322.012 461.332 360.139C461.332 398.265 430.064 429.18 391.493 429.18C352.923 429.18 321.646 398.272 321.646 360.139C321.646 322.005 352.923 291.097 391.493 291.097Z" fill="#EBC224" stroke="black" stroke-width="5.38016" stroke-linecap="round" stroke-linejoin="round"/>
<path fill-rule="evenodd" clip-rule="evenodd" d="M391.485 319.202C414.354 319.202 432.894 337.531 432.894 360.136C432.894 382.74 414.354 401.077 391.485 401.077C368.617 401.077 350.077 382.748 350.077 360.136C350.077 337.523 368.617 319.202 391.485 319.202Z" fill="black" stroke="black" stroke-width="5.38016" stroke-linecap="round" stroke-linejoin="round"/>
<path fill-rule="evenodd" clip-rule="evenodd" d="M379.219 281.181C384.764 281.245 390.167 282.947 394.747 286.074C399.327 289.201 402.879 293.613 404.958 298.755C407.036 303.896 407.546 309.538 406.426 314.969C405.305 320.4 402.602 325.379 398.659 329.277C394.715 333.176 389.706 335.821 384.262 336.88C378.819 337.939 373.183 337.363 368.066 335.226C362.949 333.09 358.578 329.487 355.503 324.871C352.429 320.256 350.788 314.834 350.788 309.288C350.831 301.791 353.851 294.618 359.183 289.347C364.515 284.076 371.722 281.139 379.219 281.181Z" fill="#D7CBBA" stroke="black" stroke-width="5.38016" stroke-linecap="round" stroke-linejoin="round"/>
<path fill-rule="evenodd" clip-rule="evenodd" d="M435.146 273.949L422.35 297.284C422.35 297.284 430.208 300.611 435.899 305.564C439.636 308.845 443.156 312.365 446.437 316.102L462.245 293.52C462.245 293.52 453.649 281.295 435.146 273.949Z" fill="#5EB5A7" stroke="black" stroke-width="5.38016"/>
<path fill-rule="evenodd" clip-rule="evenodd" d="M301.158 322.124L324.229 335.259C324.229 335.259 327.526 327.408 332.457 321.718C335.718 317.986 339.218 314.471 342.935 311.194L320.48 295.402C320.48 295.402 308.459 303.637 301.158 322.124Z" fill="#5EB5A7" stroke="black" stroke-width="5.38016"/>
<path fill-rule="evenodd" clip-rule="evenodd" d="M355.356 450.087L367.023 425.51C367.023 425.51 358.826 423.214 352.563 419.029C348.454 416.261 344.529 413.228 340.813 409.951L327.949 434.197C327.949 434.197 336.101 445.149 355.356 450.087Z" fill="#5EB5A7" stroke="black" stroke-width="5.38016"/>
<path fill-rule="evenodd" clip-rule="evenodd" d="M482.567 399.656L458.645 387.996C458.645 387.996 455.943 396.065 451.457 402.11C448.482 406.076 445.253 409.845 441.792 413.394L462.243 427.507C462.243 427.507 476.666 418.64 482.567 399.656Z" fill="#5EB5A7" stroke="black" stroke-width="5.38016"/>
</svg>
