<svg width="506" height="558" viewBox="0 0 506 558" fill="none" xmlns="http://www.w3.org/2000/svg">
<path fill-rule="evenodd" clip-rule="evenodd" d="M333.469 243.044C333.469 243.044 403.506 215.289 443.658 215.179C483.811 215.068 495.811 229.186 496.166 239.369C496.522 249.553 471.508 264.838 460.558 267.896C449.609 270.954 438.514 274.702 454.963 283.291C471.413 291.88 488.227 298.556 489.279 309.585C490.331 320.613 470.425 333.376 433.667 331.142C396.909 328.907 352.52 315.474 352.52 315.474C352.52 315.474 390.245 329.394 417.868 360.557C445.492 391.721 460.797 424.997 446.137 435.736C431.477 446.476 403.235 426.455 403.235 426.455C403.235 426.455 392.029 418.14 387.84 420.86C383.651 423.581 392.867 455.332 390.816 466.414C388.766 477.496 374.367 478.793 361.983 468.857C349.599 458.92 337.178 443.994 327.182 427.362C317.186 410.73 305.868 379.351 305.868 379.351C305.868 379.351 326.508 432.451 325.841 480.662C325.174 528.874 301.933 548.21 291.495 548.711C281.057 549.212 268.659 536.902 261.642 519.232C254.626 501.561 251.417 491.119 248.414 486.178C245.411 481.238 239.544 485.275 237.87 489.558C236.196 493.842 218.856 526.441 207.308 533.14C195.76 539.839 177.199 530.906 174.27 499.198C171.34 467.489 177.774 420.25 189.161 393.729C200.548 367.209 205.251 373.434 205.251 373.434C205.251 373.434 187.42 396.874 167.233 421.819C147.047 446.764 129.64 462.034 112.495 470.738C95.3505 479.441 77.8456 474.964 74.396 468.911C70.9464 462.859 77.7402 436.88 85.246 427.481C92.7518 418.081 95.6796 413.513 93.8325 410.468C91.9854 407.423 77.4648 413.487 65.048 414.431C52.6312 415.375 40.0638 416.37 35.8751 406.233C31.6864 396.095 55.5741 366.969 76.8355 354.711C98.0968 342.452 138.237 323.839 138.237 323.839L151.723 317.321C151.723 317.321 103.818 333.398 74.6843 334.998C45.5505 336.598 24.4472 331.414 16.4842 323.162C8.52121 314.91 2.3348 300.348 26.0568 289.38C49.7788 278.413 58.4415 277.603 60.5818 274.583C62.7222 271.563 60.9533 267.633 52.6901 265.705C44.427 263.778 24.3333 252.566 18.5201 243.972C12.7069 235.378 27.1681 220.308 58.7857 218.34C90.4032 216.372 144.347 229.302 144.347 229.302L137.976 220.376C137.976 220.376 91.0882 204.466 76.1529 190.396C61.2176 176.326 49.4164 159.859 48.8551 145.619C48.2938 131.379 69.8278 128.135 83.4772 133.862C97.1266 139.588 100.977 141.048 103.432 139.311C105.888 137.574 103.987 124.762 99.6156 115.087C95.2438 105.412 90.669 70.3169 116.449 70.4218C142.229 70.5267 177.459 143.094 189.722 173.075C201.985 203.055 192.262 204.948 192.262 204.948C192.262 204.948 182.49 120.992 179.549 92.7528C176.608 64.5139 176.314 42.4291 192.42 19.3033C208.526 -3.82255 237.962 15.4903 244.782 38.9339C251.602 62.3775 253.112 71.0635 255.116 76.6448C257.121 82.226 264.331 80.748 267.228 74.7363C270.125 68.7246 281.765 40.0962 298.179 43.3152C314.594 46.5342 318.168 76.9745 313.705 100.641C309.241 124.308 291.471 166.782 291.471 166.782C291.471 166.782 312.684 126.816 348.667 99.5249C384.649 72.2341 402.22 85.459 404.716 91.6484C407.211 97.8379 404.69 116.087 392.394 134.648C380.099 153.209 395.406 149.372 404.992 147.94C414.578 146.508 438.108 141.435 443.139 151.287C448.171 161.138 438.147 186.504 402.276 205.849C366.405 225.193 333.469 243.044 333.469 243.044Z" fill="#E94D08" stroke="black" stroke-width="5.7182" stroke-linejoin="round"/>
<path fill-rule="evenodd" clip-rule="evenodd" d="M235.568 179.218C235.568 179.218 225.906 136.357 230.732 123.072C235.557 109.786 245.021 107.368 248.73 114.889C251.287 120.25 253.496 125.77 255.344 131.415C255.344 131.415 260.217 115.785 270.06 115.729C279.903 115.673 282.622 131.716 278.631 145.888C274.64 160.06 260.035 183.001 260.035 183.001L235.568 179.218Z" fill="#E6C205" stroke="black" stroke-width="5.7182" stroke-linejoin="round"/>
<path fill-rule="evenodd" clip-rule="evenodd" d="M301.349 202.072C301.349 202.072 321.372 162.965 333.592 155.849C345.812 148.733 354.605 152.956 352.659 161.098C351.178 166.852 349.336 172.507 347.143 178.028C347.143 178.028 360.889 169.144 368.499 175.398C376.109 181.652 367.901 195.731 355.765 204.046C343.629 212.362 317.706 220.646 317.706 220.646L301.349 202.072Z" fill="#E6C205" stroke="black" stroke-width="5.7182" stroke-linejoin="round"/>
<path fill-rule="evenodd" clip-rule="evenodd" d="M345.659 260.855C345.659 260.855 386.831 245.51 400.637 248.508C414.442 251.506 418.109 260.55 411.168 265.245C406.199 268.496 401.027 271.426 395.684 274.017C395.684 274.017 411.809 276.743 413.201 286.498C414.593 296.253 399.044 301.086 384.462 299.041C369.881 296.996 345.186 285.597 345.186 285.597L345.659 260.855Z" fill="#E6C205" stroke="black" stroke-width="5.7182" stroke-linejoin="round"/>
<path fill-rule="evenodd" clip-rule="evenodd" d="M337.493 332.422C337.493 332.422 373.929 356.974 379.532 369.957C385.136 382.94 379.906 391.171 372.052 388.257C366.514 386.105 361.119 383.604 355.897 380.77C355.897 380.77 363.077 395.468 355.959 402.268C348.842 409.069 335.854 399.258 329.031 386.208C322.208 373.157 317.095 346.448 317.095 346.448L337.493 332.422Z" fill="#E6C205" stroke="black" stroke-width="5.7182" stroke-linejoin="round"/>
<path fill-rule="evenodd" clip-rule="evenodd" d="M260.189 379.867C260.189 379.867 271.813 422.238 267.603 435.733C263.393 449.227 254.065 452.066 249.997 444.74C247.201 439.497 244.741 434.081 242.631 428.526C242.631 428.526 238.496 444.362 228.652 444.874C218.808 445.386 215.379 429.488 218.71 415.139C222.041 400.79 235.576 377.214 235.576 377.214L260.189 379.867Z" fill="#E6C205" stroke="black" stroke-width="5.7182" stroke-linejoin="round"/>
<path fill-rule="evenodd" clip-rule="evenodd" d="M178.47 357.794C178.47 357.794 155.44 395.201 142.702 401.344C129.965 407.487 121.53 402.584 124.106 394.619C126.031 389.001 128.31 383.51 130.931 378.18C130.931 378.18 116.525 385.945 109.444 379.11C102.364 372.276 111.63 358.909 124.374 351.548C137.119 344.187 163.61 337.985 163.61 337.985L178.47 357.794Z" fill="#E6C205" stroke="black" stroke-width="5.7182" stroke-linejoin="round"/>
<path fill-rule="evenodd" clip-rule="evenodd" d="M151.912 280.264C151.912 280.264 111.468 297.457 97.5306 295.087C83.5928 292.717 79.5364 283.854 86.2542 278.846C91.0764 275.377 96.1136 272.218 101.336 269.387C101.336 269.387 85.0972 267.395 83.2665 257.715C81.4357 248.035 96.7338 242.494 111.386 243.883C126.038 245.271 151.244 255.513 151.244 255.513L151.912 280.264Z" fill="#E6C205" stroke="black" stroke-width="5.7182" stroke-linejoin="round"/>
<path fill-rule="evenodd" clip-rule="evenodd" d="M166.697 211.99C166.697 211.99 128.682 189.938 122.225 177.378C115.767 164.818 120.424 156.239 128.442 158.615C134.112 160.387 139.664 162.518 145.065 164.993C145.065 164.993 136.912 150.798 143.558 143.54C150.204 136.283 163.817 145.191 171.507 157.742C179.196 170.294 186.093 196.611 186.093 196.611L166.697 211.99Z" fill="#E6C205" stroke="black" stroke-width="5.7182" stroke-linejoin="round"/>
<path d="M114.076 281.99C116.435 355.868 178.237 413.845 252.115 411.486C325.993 409.126 383.97 347.324 381.61 273.446C379.251 199.569 317.449 141.592 243.571 143.951C169.693 146.311 111.716 208.113 114.076 281.99Z" fill="#F9CF00" stroke="black" stroke-width="5.7182" stroke-linejoin="round"/>
<path d="M156.635 280.633C158.27 331.844 201.111 372.032 252.321 370.397C303.532 368.761 343.721 325.921 342.085 274.71C340.45 223.5 297.61 183.311 246.399 184.947C195.188 186.582 155 229.422 156.635 280.633Z" fill="#F45412" stroke="black" stroke-width="5.7182" stroke-linejoin="round"/>
<path d="M135.768 281.307C137.771 344.045 190.254 393.279 252.991 391.276C315.729 389.272 364.963 336.789 362.96 274.052C360.956 211.314 308.473 162.08 245.736 164.084C182.999 166.087 133.764 218.57 135.768 281.307Z" stroke="black" stroke-width="5.7182" stroke-linejoin="round"/>
<path d="M202.237 279.174C203.095 306.039 225.569 327.121 252.433 326.263C279.298 325.405 300.381 302.932 299.523 276.067C298.665 249.202 276.191 228.12 249.327 228.978C222.462 229.836 201.379 252.309 202.237 279.174Z" fill="#51C5AC" stroke="black" stroke-width="5.7182" stroke-linejoin="round"/>
</svg>
