<svg width="546" height="505" viewBox="0 0 546 505" fill="none" xmlns="http://www.w3.org/2000/svg">
<path fill-rule="evenodd" clip-rule="evenodd" d="M254.014 175.682C254.014 175.682 240.729 109.456 247.056 74.0049C253.382 38.5542 267.757 30.2332 276.799 31.5471C285.841 32.861 295.338 57.3836 296.271 67.5274C297.205 77.6712 298.75 88.0629 308.959 74.9265C319.169 61.7901 327.748 48.0243 337.647 48.8562C347.547 49.6881 355.623 69.2916 347.771 101.371C339.918 133.45 320.966 170.46 320.966 170.46C320.966 170.46 339.283 139.403 371.197 120.015C403.111 100.628 434.919 92.4493 442.049 107.101C449.179 121.752 426.997 143.468 426.997 143.468C426.997 143.468 417.866 152.039 419.598 156.156C421.33 160.274 450.816 157.238 460.266 160.817C469.716 164.396 468.556 177.312 457.809 186.647C447.061 195.983 431.905 204.554 415.631 210.714C399.358 216.874 369.861 221.839 369.861 221.839C369.861 221.839 420.027 212.124 462.443 220.424C504.859 228.724 518.214 252.332 516.988 261.613C515.761 270.894 502.916 279.87 486.203 283.236C469.489 286.602 459.764 287.756 454.924 289.62C450.083 291.483 452.707 297.304 456.219 299.463C459.731 301.622 485.719 322.137 489.782 333.4C493.844 344.663 482.995 359.603 454.549 357.12C426.104 354.636 385.454 341.404 363.878 327.109C342.301 312.815 348.545 309.667 348.545 309.667C348.545 309.667 366.374 329.147 385.153 350.949C403.933 372.752 414.621 390.554 419.557 407.07C424.494 423.586 417.743 438.314 411.851 440.392C405.959 442.471 384.126 432.314 377.033 424.192C369.939 416.07 366.379 412.752 363.397 413.895C360.414 415.037 363.456 428.815 362.288 439.925C361.121 451.035 360.002 462.279 350.388 464.353C340.774 466.427 318.896 440.698 311.483 419.971C304.069 399.245 294.067 360.859 294.067 360.859L290.475 347.917C290.475 347.917 296.996 392.754 293.747 418.716C290.497 444.678 282.547 462.473 273.993 468.172C265.44 473.871 251.6 477.013 245.719 454.322C239.838 431.631 240.51 423.86 238.187 421.494C235.864 419.128 232.113 420.058 229.092 427.036C226.07 434.015 212.963 449.951 204.45 453.708C195.937 457.465 184.956 442.288 188.277 414.081C191.597 385.875 211.636 340.344 211.636 340.344L202.741 344.538C202.741 344.538 181.216 383.366 166.4 394.288C151.584 405.21 135.18 412.99 122.527 411.21C109.873 409.43 110.455 389.911 117.692 378.782C124.928 367.653 126.832 364.492 125.692 362.047C124.552 359.603 112.956 359.239 103.708 361.54C94.4604 363.841 62.776 362.278 66.9936 339.543C71.2111 316.808 140.872 297.342 169.285 291.316C197.699 285.289 197.813 294.174 197.813 294.174C197.813 294.174 122.176 289.361 96.7902 287.442C71.4042 285.524 51.8718 282.251 34.0451 264.337C16.2184 246.423 37.9793 223.551 59.7416 221.278C81.5039 219.005 89.4207 219.076 94.6668 218.193C99.9129 217.309 99.761 210.72 94.9206 207.201C90.0801 203.682 66.6829 188.836 72.1491 174.867C77.6153 160.898 105.044 162.615 125.211 170.339C145.379 178.064 180.01 200.537 180.01 200.537C180.01 200.537 148.155 175.429 129.819 139.314C111.483 103.199 125.976 89.8153 131.836 88.6025C137.696 87.3897 153.407 92.5369 167.803 106.352C182.199 120.168 181.275 106.055 181.546 97.3639C181.816 88.6729 181.104 67.1052 190.601 64.2418C200.098 61.3783 220.874 74.2856 232.204 109.024C243.534 143.761 254.014 175.682 254.014 175.682Z" fill="#16B0F0" stroke="black" stroke-width="5.18509" stroke-linejoin="round"/>
<path fill-rule="evenodd" clip-rule="evenodd" d="M182.299 251.852C182.299 251.852 142.805 253.35 131.767 246.953C120.729 240.556 120.056 231.859 127.283 229.82C132.432 228.452 137.667 227.412 142.957 226.705C142.957 226.705 129.846 219.886 131.314 211.232C132.781 202.578 147.425 202.811 159.378 208.62C171.33 214.429 189.423 230.989 189.423 230.989L182.299 251.852Z" fill="#16B0F0" stroke="black" stroke-width="5.18509" stroke-linejoin="round"/>
<path fill-rule="evenodd" clip-rule="evenodd" d="M213.015 197.408C213.015 197.408 181.362 173.416 176.926 161.519C172.49 149.621 177.601 142.572 184.534 145.618C189.418 147.854 194.158 150.394 198.725 153.221C198.725 153.221 192.954 139.689 199.685 134.027C206.416 128.365 217.659 137.867 223.186 149.897C228.714 161.928 232.046 186.052 232.046 186.052L213.015 197.408Z" fill="#16B0F0" stroke="black" stroke-width="5.18509" stroke-linejoin="round"/>
<path fill-rule="evenodd" clip-rule="evenodd" d="M271.747 167.647C271.747 167.647 264.471 128.922 269.263 117.253C274.055 105.583 282.682 103.853 285.788 110.724C287.913 115.627 289.721 120.657 291.201 125.781C291.201 125.781 296.122 112.032 305.019 112.405C313.917 112.777 315.815 127.239 311.74 139.73C307.665 152.222 293.698 172.087 293.698 172.087L271.747 167.647Z" fill="#16B0F0" stroke="black" stroke-width="5.18509" stroke-linejoin="round"/>
<path fill-rule="evenodd" clip-rule="evenodd" d="M333.389 186.264C333.389 186.264 360.802 158.265 373.191 155.458C385.581 152.651 392.08 158.589 388.282 165.014C385.518 169.526 382.466 173.857 379.144 177.98C379.144 177.98 393.298 174.075 398.236 181.44C403.175 188.806 392.464 198.612 379.827 202.475C367.19 206.339 342.695 206.465 342.695 206.465L333.389 186.264Z" fill="#16B0F0" stroke="black" stroke-width="5.18509" stroke-linejoin="round"/>
<path fill-rule="evenodd" clip-rule="evenodd" d="M362.75 262.203C362.75 262.203 402.114 258.904 413.432 264.794C424.751 270.684 425.83 279.346 418.708 281.714C413.628 283.315 408.447 284.593 403.196 285.539C403.196 285.539 416.6 291.756 415.539 300.472C414.478 309.188 399.851 309.618 387.639 304.364C375.426 299.11 356.606 283.376 356.606 283.376L362.75 262.203Z" fill="#16B0F0" stroke="black" stroke-width="5.18509" stroke-linejoin="round"/>
<path fill-rule="evenodd" clip-rule="evenodd" d="M330.177 330.86C330.177 330.86 359.866 357.217 363.359 369.413C366.853 381.609 361.189 388.238 354.51 384.664C349.813 382.058 345.285 379.16 340.952 375.989C340.952 375.989 345.642 389.916 338.473 395.034C331.304 400.153 320.843 389.815 316.271 377.395C311.699 364.976 310.29 340.69 310.29 340.69L330.177 330.86Z" fill="#16B0F0" stroke="black" stroke-width="5.18509" stroke-linejoin="round"/>
<path fill-rule="evenodd" clip-rule="evenodd" d="M257.706 341.953C257.706 341.953 266.754 380.328 262.49 392.199C258.226 404.07 249.71 406.197 246.306 399.472C243.957 394.667 241.92 389.721 240.205 384.665C240.205 384.665 235.921 398.627 227.023 398.658C218.125 398.688 215.561 384.318 219.063 371.651C222.565 358.985 235.576 338.499 235.576 338.499L257.706 341.953Z" fill="#16B0F0" stroke="black" stroke-width="5.18509" stroke-linejoin="round"/>
<path fill-rule="evenodd" clip-rule="evenodd" d="M200.05 318.026C200.05 318.026 174.607 347.824 162.457 351.457C150.308 355.091 143.411 349.594 146.759 342.925C149.208 338.232 151.955 333.702 154.986 329.362C154.986 329.362 141.138 334.211 135.706 327.186C130.275 320.16 140.298 309.65 152.628 304.945C164.958 300.239 189.389 298.466 189.389 298.466L200.05 318.026Z" fill="#16B0F0" stroke="black" stroke-width="5.18509" stroke-linejoin="round"/>
<path d="M253.281 375.491C318.841 385.227 379.88 339.974 389.617 274.415C399.353 208.855 354.1 147.816 288.541 138.079C222.982 128.343 161.942 173.596 152.206 239.155C142.469 304.715 187.722 365.754 253.281 375.491Z" fill="#1ABFE9" stroke="black" stroke-width="5.18509" stroke-linejoin="round"/>
<path d="M258.892 337.713C304.337 344.462 346.648 313.093 353.398 267.649C360.147 222.204 328.778 179.893 283.334 173.143C237.889 166.394 195.578 197.763 188.829 243.207C182.079 288.652 213.448 330.963 258.892 337.713Z" fill="#1ABFE9" stroke="black" stroke-width="5.18509" stroke-linejoin="round"/>
<path d="M256.161 356.239C311.838 364.508 363.676 326.077 371.945 270.4C380.214 214.723 341.783 162.884 286.106 154.615C230.429 146.346 178.59 184.778 170.321 240.455C162.052 296.132 200.484 347.97 256.161 356.239Z" stroke="black" stroke-width="5.18509" stroke-linejoin="round"/>
<path d="M264.892 297.246C288.731 300.786 310.928 284.33 314.468 260.491C318.009 236.651 301.553 214.455 277.713 210.914C253.874 207.374 231.678 223.829 228.137 247.669C224.596 271.509 241.052 293.705 264.892 297.246Z" fill="#C0526D" stroke="black" stroke-width="5.18509" stroke-linejoin="round"/>
</svg>
