<svg width="1082" height="1066" viewBox="0 0 1082 1066" fill="none" xmlns="http://www.w3.org/2000/svg">
<path fill-rule="evenodd" clip-rule="evenodd" d="M122.193 544.851C124.467 560.862 152.7 566.333 168.461 568.775C184.221 571.217 227.032 568.837 248.041 574.34C269.05 579.842 293.213 586.945 323.97 605.986C354.727 625.027 392.39 641.206 408.842 642.276C425.294 643.346 443.162 630.75 443.162 630.75C443.162 630.75 550.241 679.76 637.878 675.727C789.478 668.739 1059.16 642.036 1059.16 642.036L1002.71 557.03C1002.71 557.03 783.568 592.417 662.383 559.98C582.403 538.571 534.604 497.736 534.604 497.736C534.604 497.736 531.034 433.376 517.708 409.032C504.383 384.688 467.528 340.543 461.199 322.5C454.869 304.458 452.954 283.866 452.954 283.866C452.954 283.866 429.72 280.669 420.512 305.247C411.304 329.826 423.47 350.983 432.987 366.249C442.504 381.514 452.519 403.035 452.543 411.732C452.567 420.429 440.38 424.792 423.098 410.108C405.816 395.425 338.908 331.456 311.908 299.189C284.909 266.922 259.667 242.258 246.043 239.324C232.419 236.39 214.699 242.701 230.67 268.495C246.642 294.288 290.245 343.108 304.59 361.658C318.935 380.208 326.561 392.511 321.533 398.075C316.506 403.638 282.165 378.438 267.426 368.323C252.687 358.209 164.311 305.571 150.948 301.863C137.586 298.155 104.887 308.958 137.085 341.285C169.283 373.611 247.098 414.385 264.913 426.423C282.729 438.462 290.238 447.667 287.766 457.287C285.293 466.907 262.525 467.153 234.662 455.742C206.798 444.331 152.642 431.242 134.052 427.645C115.462 424.048 96.0928 426.026 94.0281 439.755C91.9634 453.484 107.386 467.061 131.5 473.915C155.614 480.769 240.131 502.822 251.439 508.957C262.748 515.091 260.355 525.651 247.993 530.07C235.63 534.489 176.675 527.948 161.265 527.431C145.854 526.915 119.708 527.357 122.193 544.851Z" fill="url(#paint0_linear_753_1020)"/>
<path fill-rule="evenodd" clip-rule="evenodd" d="M137.945 298.918C142.764 297.837 147.839 297.815 151.769 298.906C153.747 299.455 156.827 300.806 160.529 302.609C164.308 304.45 168.956 306.872 174.171 309.689C184.606 315.325 197.397 322.586 210.213 330.037C235.805 344.916 261.683 360.66 269.163 365.793C270.967 367.031 273.047 368.482 275.318 370.066C282.43 375.029 291.421 381.302 299.741 386.471C305.238 389.886 310.293 392.724 314.215 394.364C316.195 395.192 317.704 395.636 318.741 395.762C319.085 395.804 319.306 395.804 319.437 395.795C319.861 395.216 320.119 394.375 319.971 392.964C319.795 391.275 319.05 389.022 317.586 386.118C314.662 380.321 309.34 372.817 302.162 363.535C297.65 357.7 290.235 348.865 281.657 338.644C276.675 332.708 271.301 326.304 265.876 319.75C251.209 302.03 236.176 283.217 228.061 270.11C219.912 256.95 219.36 247.105 225.014 241.043C227.676 238.189 231.366 236.65 235.119 235.994C238.889 235.334 242.954 235.519 246.689 236.324C250.678 237.183 255.203 239.54 260.022 242.848C264.893 246.191 270.289 250.664 276.047 256.007C287.567 266.694 300.719 281.034 314.262 297.219C341.119 329.315 407.893 393.161 425.086 407.769C433.426 414.856 440.029 416.894 444.109 416.625C446.11 416.494 447.425 415.825 448.217 415.037C448.996 414.262 449.478 413.169 449.474 411.741C449.469 410.04 448.953 407.421 447.887 404.021C446.84 400.684 445.335 396.813 443.517 392.693C439.88 384.452 435.065 375.384 430.382 367.872C420.911 352.68 407.85 330.298 417.638 304.171C422.61 290.899 431.503 284.947 439.233 282.422C443.047 281.176 446.534 280.775 449.069 280.683C450.34 280.637 451.383 280.668 452.123 280.713C452.493 280.735 452.788 280.761 453 280.782C453.105 280.793 453.19 280.802 453.252 280.81C453.284 280.813 453.31 280.817 453.33 280.819L453.355 280.823L453.365 280.824L453.369 280.824C453.371 280.825 453.373 280.825 452.954 283.866L453.373 280.825L455.785 281.157L456.011 283.581L456.011 283.583L456.011 283.591L456.015 283.63C456.019 283.666 456.024 283.721 456.031 283.795C456.041 283.887 456.053 284.009 456.069 284.158C456.078 284.248 456.089 284.347 456.101 284.456C456.164 285.038 456.261 285.895 456.398 286.982C456.672 289.157 457.102 292.249 457.728 295.898C458.983 303.216 461.01 312.689 464.095 321.484C465.546 325.619 468.854 331.494 473.404 338.545C477.914 345.533 483.492 353.451 489.328 361.618C490.692 363.528 492.072 365.453 493.455 367.383C503.83 381.858 514.422 396.635 520.401 407.558C523.935 414.015 526.732 422.927 528.959 432.464C531.198 442.052 532.909 452.484 534.196 462.106C535.483 471.735 536.351 480.592 536.896 487.041C537.17 490.266 537.362 492.892 537.487 494.713C537.527 495.301 537.56 495.805 537.587 496.219C537.894 496.468 538.272 496.771 538.719 497.126C540.151 498.259 542.297 499.912 545.126 501.968C550.785 506.078 559.176 511.796 570.055 518.183C591.817 530.958 623.506 546.396 663.176 557.015C723.237 573.091 807.872 572.397 877.78 567.606C912.675 565.215 943.796 561.812 966.192 559.006C977.389 557.604 986.402 556.351 992.614 555.449C995.719 554.998 998.124 554.635 999.75 554.385C1000.56 554.26 1001.18 554.163 1001.6 554.098C1001.8 554.065 1001.96 554.041 1002.06 554.024L1002.21 554.001L1002.22 554C1002.22 553.999 1002.22 553.999 1002.71 557.029L1002.22 553.999L1004.17 553.684L1064.54 644.588L1059.47 645.09L1059.42 644.64C1059.46 645.091 1059.46 645.091 1059.46 645.091L1059.45 645.092L1056.4 645.392C1054.38 645.59 1051.41 645.88 1047.57 646.252C1039.9 646.996 1028.77 648.067 1014.94 649.373C987.287 651.986 948.832 655.543 905.637 659.319C819.264 666.868 713.888 675.296 638.019 678.793C593.666 680.834 544.581 669.465 506.743 657.681C487.791 651.779 471.593 645.751 460.129 641.197C454.396 638.92 449.845 637.01 446.722 635.668C445.348 635.077 444.25 634.596 443.45 634.242C442.97 634.549 442.382 634.918 441.697 635.33C439.692 636.538 436.844 638.136 433.459 639.7C426.77 642.792 417.63 645.923 408.643 645.338C399.848 644.766 385.897 640.257 370.562 633.691C355.107 627.074 337.866 618.198 322.355 608.596C291.969 589.784 268.138 582.776 247.264 577.308C237.163 574.663 221.575 573.878 206.203 573.478C202.999 573.394 199.799 573.328 196.668 573.263C185.061 573.022 174.4 572.801 167.991 571.808C160.092 570.584 148.799 568.566 139.143 564.756C129.745 561.048 120.55 555.107 119.154 545.282C118.411 540.052 119.822 535.793 122.846 532.575C125.74 529.493 129.878 527.613 134.207 526.427C142.858 524.057 153.675 524.106 161.368 524.364C165.462 524.501 172.678 525.065 181.233 525.734C188.836 526.328 197.497 527.005 205.965 527.538C215.049 528.111 223.984 528.526 231.393 528.525C235.099 528.525 238.38 528.421 241.086 528.189C243.847 527.951 245.798 527.595 246.959 527.18C252.609 525.16 255.123 522.048 255.574 519.6C255.976 517.42 254.947 514.352 249.976 511.655C248.806 511.02 246.465 510.075 243.015 508.868C239.627 507.683 235.346 506.305 230.418 504.791C220.566 501.766 208.218 498.228 195.446 494.662C182.024 490.914 168.091 487.122 156.153 483.873C145.448 480.96 136.348 478.484 130.661 476.867C118.299 473.353 107.949 468.062 100.891 461.691C93.85 455.337 89.7508 447.559 90.993 439.299C92.2902 430.673 99.1021 426.122 107.135 424.216C115.145 422.316 125.115 422.789 134.635 424.631C153.285 428.24 207.678 441.374 235.825 452.901C249.519 458.509 261.792 461.178 270.788 461.332C275.303 461.409 278.79 460.849 281.178 459.869C283.534 458.902 284.494 457.687 284.793 456.523C285.733 452.866 284.905 449.107 281.501 444.616C278.019 440.02 272.03 434.936 263.195 428.966C258.847 426.028 250.756 421.286 240.404 415.237L239.435 414.671C229.329 408.767 217.273 401.722 204.79 394.079C179.104 378.352 151.302 359.907 134.911 343.45C126.672 335.179 122.232 327.949 120.796 321.648C119.316 315.151 121.086 309.851 124.681 305.974C128.149 302.233 133.127 299.998 137.945 298.918ZM441.395 628.24L442.835 627.225L444.439 627.959L444.117 628.664C444.439 627.959 444.439 627.959 444.439 627.959L444.455 627.966L444.51 627.991C444.559 628.013 444.634 628.047 444.734 628.093C444.934 628.183 445.235 628.318 445.632 628.494C446.427 628.848 447.609 629.367 449.146 630.028C452.222 631.35 456.721 633.238 462.396 635.492C473.748 640.002 489.796 645.974 508.569 651.82C546.18 663.533 594.453 674.653 637.737 672.661C713.468 669.17 818.734 660.753 905.103 653.203C948.28 649.43 986.721 645.874 1014.37 643.262C1028.19 641.956 1039.31 640.886 1046.98 640.142C1049.69 639.88 1051.97 639.658 1053.78 639.48L1001.24 560.367C1001.07 560.394 1000.88 560.422 1000.68 560.453C999.04 560.705 996.619 561.071 993.495 561.524C987.249 562.431 978.196 563.689 966.955 565.097C944.475 567.913 913.237 571.329 878.2 573.73C808.242 578.524 722.715 579.305 661.589 562.944C621.28 552.155 589.08 536.47 566.947 523.476C555.879 516.978 547.321 511.149 541.519 506.934C538.617 504.827 536.404 503.122 534.909 501.939C534.162 501.347 533.594 500.886 533.21 500.569C533.017 500.411 532.871 500.289 532.771 500.205C532.721 500.163 532.683 500.131 532.656 500.108L532.615 500.074L532.612 500.071C532.611 500.07 532.61 500.07 534.604 497.736L532.61 500.07L531.612 499.217L531.54 497.906L532.699 497.842C531.54 497.906 531.54 497.906 531.54 497.906L531.539 497.904L531.539 497.896L531.529 497.73C531.522 497.61 531.512 497.431 531.497 497.196C531.468 496.725 531.424 496.029 531.363 495.132C531.24 493.34 531.05 490.747 530.78 487.558C530.24 481.178 529.382 472.424 528.111 462.92C526.839 453.409 525.159 443.187 522.981 433.86C520.791 424.483 518.145 416.221 515.016 410.505C509.231 399.937 498.89 385.506 488.46 370.952C487.082 369.03 485.703 367.105 484.333 365.187C478.498 357.02 472.843 348.997 468.246 341.873C463.689 334.812 460.017 328.402 458.303 323.516C455.058 314.269 452.962 304.424 451.678 296.936C451.034 293.182 450.59 289.998 450.307 287.748C450.265 287.411 450.226 287.094 450.19 286.799C449.911 286.8 449.611 286.806 449.292 286.817C447.183 286.894 444.285 287.23 441.139 288.257C434.95 290.279 427.622 295.018 423.386 306.324C414.759 329.354 426.029 349.286 435.592 364.625C440.426 372.379 445.377 381.704 449.133 390.214C451.011 394.47 452.609 398.564 453.744 402.185C454.86 405.743 455.605 409.076 455.612 411.724C455.62 414.644 454.588 417.357 452.548 419.388C450.521 421.405 447.714 422.54 444.512 422.751C438.184 423.167 430.052 420.044 421.111 412.447C403.74 397.688 336.697 333.596 309.555 301.159C296.098 285.077 283.13 270.951 271.872 260.507C266.242 255.283 261.086 251.024 256.548 247.909C251.959 244.759 248.22 242.933 245.397 242.325C242.321 241.662 239.061 241.536 236.177 242.04C233.274 242.548 230.978 243.649 229.503 245.23C226.884 248.038 225.457 254.245 233.28 266.879C241.136 279.566 255.891 298.059 270.605 315.835C275.932 322.271 281.256 328.615 286.22 334.531C294.874 344.844 302.435 353.854 307.018 359.78C314.185 369.049 319.848 376.971 323.067 383.354C324.674 386.541 325.789 389.566 326.077 392.328C326.374 395.177 325.797 397.934 323.811 400.133C322.145 401.976 319.726 402.066 317.999 401.855C316.138 401.629 314.023 400.937 311.847 400.027C307.456 398.191 302.062 395.14 296.502 391.685C288.026 386.419 278.819 379.996 271.694 375.024C269.459 373.464 267.428 372.047 265.689 370.854C258.43 365.872 232.75 350.24 207.128 335.344C194.338 327.908 181.609 320.683 171.254 315.09C166.075 312.293 161.511 309.915 157.841 308.128C154.095 306.304 151.49 305.199 150.128 304.821C147.377 304.057 143.354 303.995 139.289 304.907C135.224 305.819 131.535 307.61 129.183 310.148C126.957 312.548 125.755 315.779 126.781 320.284C127.853 324.984 131.4 331.227 139.26 339.118C155.067 354.989 182.271 373.093 207.995 388.844C220.423 396.453 232.433 403.471 242.546 409.379L243.501 409.937C253.755 415.929 262.072 420.799 266.632 423.88C275.613 429.949 282.286 435.487 286.394 440.908C290.581 446.434 292.271 452.087 290.738 458.051C289.801 461.696 286.988 464.12 283.509 465.548C280.061 466.963 275.652 467.555 270.683 467.47C260.71 467.299 247.668 464.384 233.498 458.582C205.918 447.287 151.999 434.244 133.469 430.658C124.399 428.903 115.389 428.567 108.551 430.189C101.736 431.806 97.8309 435.108 97.0634 440.211C96.2409 445.68 98.8209 451.554 105.004 457.134C111.169 462.698 120.588 467.622 132.339 470.962C138.046 472.584 147.081 475.043 157.731 477.941C169.635 481.18 183.556 484.968 197.097 488.75C209.883 492.32 222.292 495.874 232.22 498.923C237.183 500.447 241.548 501.852 245.042 503.074C248.472 504.274 251.246 505.36 252.903 506.259C259.24 509.696 262.669 514.975 261.611 520.713C260.603 526.183 255.739 530.56 249.026 532.96C247.096 533.65 244.501 534.056 241.612 534.305C238.666 534.558 235.194 534.664 231.393 534.664C223.79 534.664 214.704 534.24 205.579 533.665C196.816 533.113 188.079 532.428 180.499 531.834C172.14 531.179 165.188 530.634 161.162 530.499C153.444 530.24 143.482 530.251 135.829 532.347C132.006 533.394 129.11 534.872 127.32 536.778C125.658 538.546 124.733 540.903 125.232 544.419C126.111 550.605 132.168 555.405 141.396 559.046C150.365 562.585 161.068 564.523 168.931 565.742C174.894 566.666 184.939 566.876 196.459 567.117C199.664 567.184 202.985 567.253 206.363 567.341C221.588 567.737 237.91 568.513 248.819 571.37C269.963 576.908 294.458 584.105 325.586 603.376C340.831 612.815 357.8 621.549 372.979 628.048C388.278 634.599 401.385 638.715 409.041 639.213C416.506 639.698 424.526 637.067 430.884 634.128C434.022 632.677 436.67 631.192 438.529 630.072C439.457 629.513 440.186 629.047 440.676 628.724C440.921 628.563 441.107 628.438 441.228 628.355C441.289 628.314 441.333 628.283 441.361 628.264L441.39 628.244L441.395 628.24ZM319.595 395.771C319.596 395.771 319.589 395.774 319.575 395.777C319.588 395.772 319.595 395.771 319.595 395.771Z" fill="black"/>
<path fill-rule="evenodd" clip-rule="evenodd" d="M463.624 357.377C463.624 357.377 534.222 451.055 477.241 551.629C420.259 652.204 302.588 647.823 302.588 647.823C302.588 647.823 235.226 559.253 284.399 460.588C333.571 361.923 432.036 351.337 463.624 357.377Z" fill="#BCBC0A" stroke="black" stroke-width="6.13861" stroke-linecap="round" stroke-linejoin="round"/>
<path fill-rule="evenodd" clip-rule="evenodd" d="M454.183 373.13C454.183 373.13 511.038 444.266 466.567 538.973C422.095 633.681 313.033 631.697 313.033 631.697C313.033 631.697 259.835 569.291 295.436 474.261C331.038 379.231 428.827 370.52 454.183 373.13Z" fill="#B77772" stroke="black" stroke-width="6.13861" stroke-linecap="round" stroke-linejoin="round"/>
<mask id="mask0_753_1020" style="mask-type:alpha" maskUnits="userSpaceOnUse" x="280" y="369" width="207" height="266">
<path fill-rule="evenodd" clip-rule="evenodd" d="M454.013 373.237C454.013 373.237 511.021 444.474 466.68 539.114C422.339 633.754 313.207 631.588 313.207 631.588C313.207 631.588 259.873 569.09 295.338 474.112C330.803 379.134 428.637 370.585 454.013 373.237Z" fill="#B77772" stroke="black" stroke-width="6.13861" stroke-linecap="round" stroke-linejoin="round"/>
</mask>
<g mask="url(#mask0_753_1020)">
<path fill-rule="evenodd" clip-rule="evenodd" d="M484.758 473.716C478.424 447.066 474.615 416.087 440.102 397.376C405.589 378.664 361.27 388.601 316.195 431.959C271.12 475.318 274.335 554.614 300.675 584.66C327.016 614.706 367.078 628.41 410.6 604.01C454.121 579.61 481.991 524.88 481.991 524.88C481.991 524.88 491.092 500.366 484.758 473.716Z" fill="#E4D7B6" stroke="black" stroke-width="6.13861" stroke-linecap="round" stroke-linejoin="round"/>
</g>
<path fill-rule="evenodd" clip-rule="evenodd" d="M454.183 373.13C454.183 373.13 511.038 444.266 466.567 538.973C422.095 633.681 313.033 631.697 313.033 631.697C313.033 631.697 259.835 569.291 295.436 474.261C331.038 379.231 428.827 370.52 454.183 373.13Z" stroke="black" stroke-width="6.13861" stroke-linecap="round" stroke-linejoin="round"/>
<path fill-rule="evenodd" clip-rule="evenodd" d="M430.535 545.686C406.549 571.315 366.643 572.927 341.401 549.287C316.16 525.646 315.142 485.706 339.127 460.077C363.113 434.448 403.02 432.836 428.262 456.477C453.503 480.117 454.521 520.058 430.535 545.686Z" fill="#EF5132" stroke="black" stroke-width="6.13861" stroke-linecap="round" stroke-linejoin="round"/>
<path fill-rule="evenodd" clip-rule="evenodd" d="M417.202 533.198C400.213 551.35 371.95 552.49 354.072 535.746C336.194 519.002 335.474 490.711 352.46 472.562C369.446 454.413 397.712 453.27 415.59 470.014C433.468 486.758 434.191 515.045 417.202 533.198Z" fill="#EBC224" stroke="black" stroke-width="6.13861" stroke-linecap="round" stroke-linejoin="round"/>
<path d="M404.25 521.068C414.325 510.302 413.798 493.431 403.072 483.386C392.345 473.34 375.482 473.924 365.406 484.689C355.33 495.455 355.858 512.326 366.584 522.371C377.31 532.417 394.174 531.833 404.25 521.068Z" fill="black" stroke="black" stroke-width="6.13861" stroke-linecap="round" stroke-linejoin="round"/>
<path fill-rule="evenodd" clip-rule="evenodd" d="M427.325 531.742C424.852 534.323 421.675 536.117 418.192 536.899C414.709 537.681 411.076 537.415 407.75 536.135C404.425 534.855 401.555 532.618 399.503 529.706C397.45 526.794 396.306 523.336 396.215 519.769C396.125 516.201 397.09 512.683 398.992 509.657C400.893 506.631 403.644 504.232 406.9 502.762C410.155 501.293 413.769 500.818 417.287 501.398C420.805 501.978 424.069 503.587 426.669 506.022C430.165 509.335 432.198 513.905 432.321 518.729C432.444 523.552 430.647 528.233 427.325 531.742Z" fill="#D7CBBA" stroke="black" stroke-width="6.13861" stroke-linecap="round" stroke-linejoin="round"/>
<path fill-rule="evenodd" clip-rule="evenodd" d="M406.242 561.238L400.937 544.97C400.937 544.97 395.918 547.208 391.085 547.71C387.901 548.029 384.699 548.14 381.501 548.044L385.126 565.398C385.126 565.398 394.645 566.722 406.242 561.238Z" fill="#5EB5A7" stroke="black" stroke-width="6.13861"/>
<path fill-rule="evenodd" clip-rule="evenodd" d="M442.385 477.02L426.069 482.109C426.069 482.109 428.295 487.11 428.791 491.927C429.105 495.101 429.212 498.293 429.112 501.482L446.403 497.854C446.403 497.854 447.838 488.575 442.385 477.02Z" fill="#5EB5A7" stroke="black" stroke-width="6.13861"/>
<path fill-rule="evenodd" clip-rule="evenodd" d="M358.346 446.417L364.732 462.702C364.732 462.702 369.42 459.852 374.137 458.742C377.246 458.023 380.398 457.507 383.572 457.198L377.87 440.496C377.87 440.496 369.142 439.523 358.346 446.417Z" fill="#5EB5A7" stroke="black" stroke-width="6.13861"/>
<path fill-rule="evenodd" clip-rule="evenodd" d="M326.236 528.438L342.239 522.305C342.239 522.305 339.645 517.486 338.79 512.721C338.239 509.58 337.893 506.407 337.753 503.22L322.129 506.643C321.032 514.171 322.477 521.842 326.236 528.438Z" fill="#5EB5A7" stroke="black" stroke-width="6.13861"/>
<defs>
<linearGradient id="paint0_linear_753_1020" x1="539.338" y1="584.113" x2="1330.34" y2="701.613" gradientUnits="userSpaceOnUse">
<stop stop-color="#6EB8BF"/>
<stop offset="1" stop-color="#335659"/>
</linearGradient>
</defs>
</svg>
