<svg width="406" height="168" viewBox="0 0 406 168" fill="none" xmlns="http://www.w3.org/2000/svg">
<path d="M20.9657 166.686C33.4657 168.186 38.9657 165.186 59.4657 152.186C61.9655 150.603 66.4658 144.686 115.966 111.686C165.466 78.6855 232.466 55.1855 298.466 48.1855C351.266 42.5855 392.132 50.5189 405.966 55.1855C400.632 51.1855 386.966 42.5855 374.966 40.1855C359.966 37.1855 350.466 41.6855 339.966 42.1855C329.466 42.6855 320.466 37.6855 311.966 32.6855C303.466 27.6855 300.966 15.6855 280.466 9.68555C259.966 3.68555 249.466 16.1855 247.966 20.1855C246.766 23.3855 251.466 29.8522 253.966 32.6855C252.966 31.8522 250.166 29.2856 246.966 25.6856C242.966 21.1856 241.966 -2.31437 207.966 0.18563C173.966 2.68563 160.966 28.1856 159.466 30.1856C157.966 32.1856 154.966 37.6856 157.466 39.1855C159.966 40.6854 171.466 44.6856 174.966 46.1856C178.466 47.6856 187.466 53.6856 182.966 60.6856C178.466 67.6856 167.466 73.1856 157.466 73.1856C147.466 73.1856 142.466 72.6856 139.966 70.1856C137.466 67.6856 137.966 61.1856 142.466 58.6856C146.066 56.6856 148.966 56.1856 149.966 56.1856C146.632 56.8523 139.866 59.4856 139.466 64.6856C138.966 71.1856 142.966 71.6856 152.966 72.1856C162.966 72.6856 173.966 67.6856 177.966 64.1856C181.966 60.6856 183.466 56.1855 178.966 51.6855C174.466 47.1855 158.966 38.6855 138.966 39.1855C118.966 39.6855 87.4658 41.1855 51.9658 65.6855C16.4658 90.1855 5.46568 109.186 0.96568 129.686C-3.53432 150.186 8.46568 165.186 20.9657 166.686Z" fill="white"/>
</svg>
