<svg width="355" height="106" viewBox="0 0 355 106" fill="none" xmlns="http://www.w3.org/2000/svg">
<path d="M41.0967 75.9852C41.8967 81.5852 46.43 82.6518 48.5967 82.4852C47.2633 82.3185 44.1967 81.1851 42.5967 77.9851C40.5967 73.9851 42.5967 70.4851 45.0967 68.4851C47.5967 66.4851 52.5967 63.9851 58.0967 64.4851C63.5967 64.9851 65.5967 69.4851 66.0967 71.4851C66.5967 73.4851 67.5967 79.9851 63.5967 86.9851C59.5967 93.9851 50.0967 101.985 41.0967 103.985C32.0967 105.985 19.0967 107.985 6.59666 92.4851C-5.90334 76.9851 -0.403337 56.9851 21.0967 45.4851C38.2967 36.2851 50.2633 40.3184 54.0967 43.4851V37.4851C54.0967 34.4851 57.5967 3.98515 97.5967 0.485153C137.597 -3.01485 151.097 13.4852 154.097 15.9852C157.097 18.4852 157.097 19.4852 156.597 20.4852C156.197 21.2852 151.43 25.4852 149.097 27.4853C156.597 21.4852 177.997 10.8853 209.597 20.4853C249.097 32.4853 231.597 43.9853 280.597 52.9852C319.797 60.1852 345.93 67.6519 354.097 70.4853C342.097 67.8186 311.197 61.2852 283.597 56.4852C249.097 50.4852 217.097 47.4852 164.097 52.9852C111.097 58.4852 81.5967 72.9852 76.0967 74.9852C70.5967 76.9852 69.0967 78.4852 68.0967 77.4852C67.0967 76.4852 68.5967 75.9852 67.5967 69.4852C66.5967 62.9852 58.0967 61.9852 52.5967 63.4852C47.0967 64.9852 40.0967 68.9852 41.0967 75.9852Z" fill="white"/>
</svg>
