<svg width="940" height="583" viewBox="0 0 940 583" fill="none" xmlns="http://www.w3.org/2000/svg">
<path d="M17.1369 325.481C13.4561 326.218 10.5539 329.052 9.73105 332.715C8.90822 336.377 10.3191 340.181 13.3313 342.42C23.3361 349.86 33.534 356.939 49.1358 362.231C64.5433 367.457 84.6918 370.775 114.678 371.791C130.28 372.32 143.242 370.759 154.661 368.81C159.17 368.04 163.222 367.258 167.033 366.523C173.26 365.321 178.846 364.243 184.744 363.543C193.693 362.482 202.217 362.505 211.733 364.843C221.322 367.199 232.412 372.029 246.246 381.212C260.02 390.355 268.474 398.557 274.397 406.159C280.37 413.826 284.025 421.182 288.109 429.444L288.181 429.59C292.213 437.748 296.667 446.759 304.044 456.257C311.507 465.866 321.715 475.683 337.169 486.16C386.875 519.859 427.518 512.744 443.67 502.267C447.375 499.864 448.935 495.224 447.435 491.07C443.158 479.225 433.354 449.681 428.285 426.285C427.977 424.864 427.662 423.437 427.345 422.001C424.246 407.958 420.946 393.008 422.107 374.065C423.378 353.325 430.089 327.232 449.737 293.029C489.632 223.583 531.607 186.836 592.929 187.297C658.036 187.786 706.924 205.418 735.434 237.146C763.328 268.19 770.663 321.398 745.399 375.263C720.537 428.27 669.219 449.991 637.289 447.33C619.886 445.879 603.937 442.435 590.997 434.704C578.388 427.17 567.974 415.177 562.119 395.133C556.386 375.509 560.723 361.605 568.114 353.084C575.75 344.281 587.516 340.138 598.68 341.705C607.767 342.98 611.728 348.637 616.23 358.121C616.634 358.972 617.059 359.893 617.504 360.862C619.293 364.748 621.425 369.381 623.959 373.163C627.403 378.304 632.505 383.401 640.543 385.093C652.41 387.591 665.681 385.567 676.932 377.988C688.306 370.327 696.923 357.472 700.332 339.574C707.4 302.468 682.067 267.126 645.865 253.413C626.232 245.976 605.813 249.53 587.531 257.003C569.227 264.485 551.932 276.345 537.714 287.262C522.484 298.957 510.349 313.64 503.972 334.664C497.678 355.412 497.257 381.468 503.664 415.552C510.031 449.426 518.626 471.851 529.659 487.214C540.952 502.938 554.256 510.51 568.183 515.699C583.235 521.306 595.057 517.615 604.02 514.816C604.705 514.603 605.372 514.394 606.023 514.196C610.737 512.757 614.519 511.788 618.48 511.725C622.243 511.665 626.625 512.43 632.19 515.263C637.254 517.841 641.828 522.321 646.972 528.599C648.651 530.648 650.539 533.095 652.549 535.702C656.017 540.198 659.849 545.165 663.596 549.369C669.975 556.524 677.735 563.536 687.989 568.077C698.366 572.672 710.593 574.428 725.418 572.19C739.954 569.996 751.614 565.23 760.79 558.131C769.98 551.021 776.154 541.974 780.323 532.033C788.438 512.683 789.26 488.929 789.994 467.624C790.714 446.745 795.375 437.003 800.605 432.296C805.763 427.653 813.781 425.824 826.811 426.772C830.77 427.06 834.248 427.519 838.004 428.015C840.87 428.393 843.897 428.792 847.422 429.154C854.781 429.908 862.911 430.263 871.222 428.616C888.797 425.132 904.378 413.319 917.531 386.477C930.088 360.851 933.821 342.757 927.393 325.644C924.329 317.486 919.206 310.273 913.167 303.116C909.078 298.269 904.2 293.038 898.916 287.371C896.515 284.796 894.031 282.132 891.499 279.373C883.665 270.838 879.539 263.968 877.579 258.306C875.686 252.839 875.664 248.081 876.802 243.318C878 238.306 880.531 233.078 884.192 226.821C885.749 224.159 887.425 221.451 889.228 218.536C889.534 218.043 889.842 217.543 890.155 217.037C892.285 213.59 894.545 209.898 896.765 205.98C905.821 189.999 911.397 172.804 908.165 154.691C904.923 136.522 893.181 119.402 871.832 102.798C860.659 94.1075 850.171 89.5052 839.812 87.6355C829.576 85.7877 820.101 86.7334 811.336 88.1724C808.243 88.6802 805.242 89.2378 802.291 89.7864C788.154 92.414 775.133 94.8339 758.328 90.5865C747.439 87.8344 741.388 85.1211 737.672 82.5325C734.257 80.1543 732.342 77.5639 730.412 73.7538C729.562 72.0758 728.715 70.1285 727.759 67.9294C724.044 59.3872 718.676 47.0459 705.056 31.9362C686.43 11.2727 661.384 6.26645 638.736 11.339C616.402 16.3414 595.827 31.2035 584.701 51.1732C580.114 59.406 576.489 66.9224 573.355 73.4217C573.047 74.0591 572.745 74.6867 572.446 75.3042C569.03 82.3742 566.299 87.8471 563.346 92.2772C560.483 96.5703 557.656 99.4931 554.29 101.554C550.921 103.616 546.394 105.193 539.599 105.84C527.488 106.993 520.131 102.633 507.77 94.3925C507.389 94.139 507.006 93.883 506.619 93.6247C494.283 85.3896 478.418 74.7987 451.825 68.086C437.735 64.5293 425.18 64.3111 414.01 67.2016C402.798 70.1033 393.583 75.9837 385.985 83.6899C371.126 98.7615 362.218 121.1 355.427 142.981C347.802 167.55 353.049 190.414 358.067 209.355C358.533 211.116 358.995 212.831 359.446 214.507C361.5 222.144 363.332 228.955 364.406 235.506C365.694 243.358 365.688 249.827 363.93 255.472C355.064 283.935 327.121 325.297 273 325.297C231.75 325.297 216.693 314.902 200.068 303.424C193.709 299.034 187.12 294.486 178.749 290.3C147.661 274.756 118.975 282.263 91.8391 299.821C82.7575 305.697 68.6453 311.266 54.0514 315.876C39.6458 320.425 25.5812 323.793 17.1369 325.481Z" fill="white" stroke="black" stroke-width="19" stroke-linecap="round" stroke-linejoin="round"/>
</svg>
