<svg width="1379" height="459" viewBox="0 0 1379 459" fill="none" xmlns="http://www.w3.org/2000/svg">
<path d="M10.5157 439.839C10.7586 444.089 13.7994 447.659 17.9571 448.574C22.1147 449.49 26.3738 447.528 28.3797 443.773C70.1023 365.664 127.887 325.11 197.955 307.382C268.624 289.502 352.278 294.722 445.495 309.677C537.846 324.493 583.188 345.965 617.668 366.689C624.898 371.035 631.771 375.438 638.592 379.807C664.364 396.318 689.39 412.351 730.098 422.988C794.668 439.861 831.844 425.175 848.473 406.274C851.377 408.979 854.988 411.354 859.376 413.129C871.813 418.159 889.122 417.845 912.318 409.199C937.202 399.924 952.027 381.812 960.342 363.439C966.977 348.781 969.608 333.702 970.035 322.04C976.409 320.282 985.888 317.638 997.11 314.431C997.582 314.296 998.073 314.157 998.579 314.014C1008.88 311.092 1025.97 306.244 1039.17 294.356C1053.9 281.096 1062.6 260.362 1056.85 228.605C1054 212.863 1048.64 200.713 1040.98 191.191C1033.32 181.683 1023.83 175.38 1013.64 170.625C1003.72 165.997 992.713 162.661 981.879 159.378L981.49 159.26C970.322 155.875 959.072 152.455 947.764 147.575C936.34 142.644 929.259 138.129 925.227 134.223C921.376 130.493 920.936 127.999 921.041 126.433C921.178 124.393 922.435 121.172 926.627 116.567C930.735 112.054 936.85 107.102 944.852 101.646C959.653 91.554 980.52 84.6154 1008.4 81.0319C1036.22 77.4557 1070.4 77.2966 1111.31 80.2719C1140.6 82.402 1167.17 90.3556 1193.56 98.2567C1203.27 101.165 1212.96 104.065 1222.75 106.666C1258.44 116.145 1294.59 121.148 1331.8 102.269C1346.26 94.9323 1356.31 86.745 1362.35 77.7322C1368.56 68.4732 1370.2 58.82 1368.56 49.7072C1365.47 32.4358 1351.05 18.9311 1340.19 11.8422C1336.55 9.46041 1331.74 9.86532 1328.55 12.8245C1325.35 15.7837 1324.57 20.5386 1326.67 24.3598C1329.49 29.5133 1331.08 37.4321 1327.67 44.7262C1324.39 51.7508 1315.17 60.9242 1290.58 65.9924C1260.02 72.2917 1239.9 67.8184 1219.29 59.8709C1213.62 57.6809 1207.71 55.1248 1201.44 52.4097C1185.02 45.3038 1166.08 37.1095 1142.15 31.5438C1076.81 16.3484 976.177 -0.536915 849.176 46.8973C798.43 65.8506 773.753 88.7545 766.007 112.134C760.241 129.539 764.437 145.293 771.607 156.982C763.929 160.071 754.582 164.136 746.543 168.407C736.61 173.684 721.743 187.831 713.9 206.038C709.889 215.35 707.542 226.118 708.945 237.577C710.361 249.133 715.516 260.737 725.471 271.687C741.123 288.905 757.285 294.08 771.87 290.948C785.561 288.007 795.436 278.219 800.468 270.471C801.873 268.306 802.338 265.662 801.754 263.148C801.17 260.634 799.588 258.465 797.372 257.141C792.041 253.956 784.932 247.75 781.008 240.021C777.372 232.858 776.337 224.343 782.57 214.31C786.745 207.588 791.585 203.776 796.575 201.764C801.65 199.719 807.564 199.264 814.197 200.409C827.711 202.741 842.85 211.512 855.546 223.268C867.061 233.931 874.291 250.509 872.255 267.478C870.271 284.015 859.231 302.713 830.669 317.342C803.169 331.427 776.618 329.418 740.974 317.942C723.677 312.372 704.676 304.72 682.638 295.844L680.134 294.836C657.135 285.575 631.094 275.151 601.095 264.815C480.688 223.33 326.275 203.392 167.075 264.936C38.7893 314.529 8.23697 399.961 10.5157 439.839Z" fill="white" stroke="black" stroke-width="19" stroke-linecap="round" stroke-linejoin="round"/>
</svg>
