<svg width="1168" height="544" viewBox="0 0 1168 544" fill="none" xmlns="http://www.w3.org/2000/svg">
<path d="M21.1408 364.541C16.5131 363.471 11.8061 365.983 10.1193 370.423C8.43243 374.863 10.2842 379.867 14.4552 382.139C84.6206 420.364 145.586 409.265 185.9 396.344C196.354 392.993 207.731 386.408 219.915 379.356C220.498 379.019 221.083 378.68 221.67 378.341C234.877 370.704 249.965 362.068 268.301 354.218C304.755 338.612 354.563 325.905 426.666 332.26C499.451 338.675 543.919 353.401 577.123 372.246C603.317 387.113 622.672 404.547 644.009 423.766C650.035 429.195 656.22 434.766 662.762 440.462C721.265 491.4 798.266 540.052 886.177 533.773C928.289 530.765 977.652 525.449 1023.56 502.952C1069.85 480.262 1111.97 440.448 1140.32 369.836C1182.3 265.248 1139.14 199.152 1103.74 173.204C1110.51 163.474 1116.02 149.738 1116.59 132.909C1117.39 109.68 1108.78 81.4306 1082.8 50.22C1055.57 17.501 1022.3 10.4514 992.334 15.2541C966.256 19.4341 942.767 32.5026 927.204 44.6496C914.509 37.0235 892.759 25.0361 875.504 19.2843C862.616 14.9884 831.526 7.56342 795.898 10.7726C760.063 14.0003 719.081 28.079 688.042 67.4118C663.349 98.704 658.332 127.499 663.439 151.163C667.919 171.926 679.968 187.682 691.092 196.999C691.459 208.854 692.927 225.842 696.28 243.46C700.062 263.329 706.434 285.075 717.096 301.066C729.733 320.023 744.823 334.771 763.995 342.539C783.281 350.354 805.45 350.604 831.221 342.899C856.511 335.338 876.015 324.291 888.846 308.306C901.819 292.144 907.068 272.068 905.99 248.365C905.075 228.231 897.092 214.564 886.656 206.049C876.555 197.807 864.799 194.905 856.625 194.798C852.387 194.742 848.624 197.501 847.403 201.56C846.182 205.619 847.797 209.996 851.363 212.288C851.301 212.248 851.271 212.228 851.269 212.23C851.259 212.243 852.023 212.873 852.968 214.494C853.994 216.255 855.114 218.998 855.563 222.886C856.732 233.022 854.731 243.525 843.127 257.806C841.484 259.829 836.946 263.047 829.73 265.335C822.788 267.536 814.402 268.529 805.947 267.168C797.588 265.822 789.117 262.178 781.643 254.984C774.142 247.763 767.209 236.539 762.686 219.376C753.612 184.939 760.496 159.154 774.66 140.708C789.084 121.922 811.856 109.741 835.984 104.587C860.552 99.34 903.414 97.0999 941.934 109.643C979.892 122.003 1013.07 148.377 1021.62 200.825C1030.5 255.265 1018.08 300.541 992.919 333.115C967.717 365.743 929.213 386.305 884.644 390.335C793.958 398.536 737.752 365.552 682.72 329.36C674.678 324.071 666.634 318.399 658.355 312.562C639.138 299.014 618.658 284.575 594.015 271.965C558.165 253.62 512.968 238.684 446.837 232.834C379.534 226.88 326.324 244.423 280.822 268.392C258.172 280.323 237.384 293.874 217.865 306.798C216.2 307.9 214.545 308.998 212.9 310.088C195.124 321.875 178.474 332.914 161.939 341.964C105.247 372.991 43.9415 369.815 21.1408 364.541Z" fill="white" stroke="black" stroke-width="19" stroke-linecap="round" stroke-linejoin="round"/>
</svg>
