<svg width="1063" height="521" viewBox="0 0 1063 521" fill="none" xmlns="http://www.w3.org/2000/svg">
<path d="M17.3946 325.946C13.0696 326.929 10.0003 330.774 10 335.209C9.99965 339.644 13.0683 343.49 17.3931 344.473C87.5493 360.429 130.172 359.697 159.058 355.091C171.476 353.111 181.242 350.423 189.025 348.281C190.226 347.951 191.379 347.633 192.488 347.333C201.098 345.005 206.138 344.029 210.779 344.631C216.674 345.395 218.942 346.586 220.266 347.676C221.84 348.973 223.356 351.133 226.075 356.54C226.75 357.883 227.461 359.34 228.23 360.916C233.584 371.891 241.766 388.663 260.467 412.998C278.778 436.824 304.756 449.356 329.061 455.495C353.334 461.626 376.766 461.606 391.286 459.622C395.438 459.055 398.727 455.835 399.383 451.696C400.039 447.558 397.906 443.478 394.133 441.656C368.183 429.118 318.766 380.449 346.115 287.388C359.829 240.722 383.498 219.87 406.189 211.569C429.439 203.063 453.438 207.079 468.252 213.439C470.919 214.584 473.962 214.447 476.515 213.068C479.068 211.689 480.851 209.218 481.355 206.36C485.242 184.334 510.879 133.898 583.952 122.598C655.849 111.48 690.98 158.106 699.562 181.929C700.578 184.749 702.865 186.924 705.732 187.797C708.599 188.671 711.709 188.14 714.125 186.365C717.589 183.82 724.351 179.692 732.665 176.229C741.015 172.752 750.303 170.209 759 170.209C771.758 170.209 782.546 170.738 794.536 175.73C806.599 180.751 820.736 190.678 838.914 211.037C873.39 249.65 881.146 302.445 851.843 367.298C841.242 390.758 822.522 400.836 802.545 404.015C782.144 407.261 760.916 403.133 747.784 398.295C744.307 397.014 740.403 397.872 737.782 400.492C730.617 407.658 713.921 423.431 703.107 430.889C700.219 432.88 697.768 434.861 695.369 436.799C690.096 441.058 685.077 445.113 676.235 448.634C664.12 453.458 645.042 456.651 611.872 451.809C580.039 447.162 550.762 429.888 530.672 407.221C510.486 384.446 500.523 357.405 504.849 333.394C509.56 307.251 521.599 282.063 537.408 263.57C553.339 244.936 572.057 234.209 590 234.209C609.426 234.209 624.858 240.478 637.62 252.254C650.628 264.257 661.331 282.432 670.051 306.899C686.424 352.834 658.802 377.709 639.5 377.709C628.384 377.709 622.451 373.544 619.557 368.49C616.412 362.996 615.547 354.172 619.477 342.817C621.842 335.987 623.404 329.83 623.74 324.405C624.079 318.909 623.204 313.274 619.687 308.543C616.184 303.83 611.15 301.483 606.27 300.26C601.45 299.052 595.869 298.709 590 298.709C572.58 298.709 560.934 313.619 556.232 328.919C551.327 344.877 552.342 365.077 562.854 382.597C572.996 399.501 586.991 410.712 605.204 416.183C623.06 421.546 644.262 421.187 668.769 416.543C682.194 414 692.35 408.788 700.096 401.833C707.768 394.946 712.605 386.772 716.056 379.005C718.487 373.537 720.431 367.732 722.074 362.825C722.676 361.03 723.237 359.355 723.766 357.861C726.015 351.518 727.741 348.276 729.473 346.662C731.992 344.317 733.426 343.534 733.994 343.29C734.389 343.471 734.886 343.75 735.825 344.31C735.912 344.361 736.003 344.416 736.098 344.473C736.914 344.961 738.047 345.639 739.263 346.263C742.195 347.768 746.043 349.209 751 349.209C757.292 349.209 778.562 348.398 795.319 337.642C804.031 332.049 811.767 323.604 815.207 311.25C818.6 299.063 817.483 284.255 810.914 266.425C804.39 248.718 795.929 236.735 785.667 229.748C775.173 222.602 763.944 221.457 753.7 223.222C743.705 224.944 734.471 229.442 727.058 233.832C721.989 236.834 717.045 240.266 713.447 242.763C711.973 243.786 710.726 244.652 709.788 245.267C701.576 250.656 699.824 250.021 698.933 249.631C697.939 249.196 696.061 247.93 693.163 244.315C690.307 240.752 686.951 235.535 682.798 228.084C673.541 211.476 661.06 198.191 644.248 189.154C627.52 180.163 607.125 175.71 582.5 175.71C570.576 175.71 559.046 180.51 548.656 187.247C538.198 194.028 528.201 203.222 519.146 213.104C503.174 230.535 489.405 250.914 480.475 266.285C472.321 265.184 461.858 264.446 451.316 264.997C438.001 265.694 422.355 268.54 411.847 277.471C386.008 299.434 381.136 357.537 430.9 413.521C455.768 441.497 489.534 466.986 526.154 484.814C562.719 502.614 602.808 513.101 640.239 510.181C677.611 507.265 703.395 493.811 722.45 481.347C727.157 478.268 731.462 475.244 735.337 472.522L735.352 472.511C739.288 469.746 742.697 467.352 745.858 465.336C752.482 461.112 756.332 459.709 759 459.709C761.526 459.709 763.529 460.556 766.689 463.163C768.062 464.295 769.399 465.541 771.055 467.084C771.487 467.487 771.942 467.911 772.425 468.358C774.637 470.407 777.234 472.751 780.286 475.049C793.312 484.857 812.131 491.909 847.413 486.604C882.356 481.349 903.883 468.616 916.68 452.894C929.389 437.281 932.441 419.993 932.991 407.631C933.449 397.311 935.225 390.121 939.816 383.637C944.583 376.903 953.128 369.887 969.299 361.681C971.628 360.499 973.963 359.331 976.294 358.165C990.157 351.229 1003.89 344.36 1015.28 335.165C1029.15 323.972 1039.71 309.326 1045.22 286.987L1045.36 286.436L1036.14 284.158L1045.36 286.436L1045.56 285.609C1050.41 265.988 1055.9 243.789 1050.44 220.155C1044.8 195.728 1028 171.421 991.985 145.953C955.348 120.046 926.844 115.044 902.209 118.423C890.229 120.066 879.57 123.641 870.084 127.051C868.683 127.554 867.316 128.05 865.98 128.535C857.991 131.435 851.061 133.951 844.062 135.409C828.31 138.691 819.576 135.295 813.98 130.075C807.746 124.26 803.646 114.595 800.757 102.073C800.289 100.047 799.848 97.8097 799.374 95.4081C797.155 84.1563 794.225 69.3016 784.554 55.7035C772.417 38.6375 750.693 24.2563 710.649 14.9559C670.127 5.54435 640.6 10.092 618.731 19.9193C598.387 29.0614 585.425 42.4979 577.194 51.0301C576.671 51.5717 576.168 52.0934 575.683 52.5931C558.405 70.3951 540.125 89.1068 512.576 82.939C506.145 81.4994 499.554 77.7592 491.748 72.1241C488.296 69.6322 484.801 66.9183 481.049 64.0048C480.6 63.6562 480.147 63.3047 479.69 62.9504C475.474 59.68 470.974 56.2172 466.209 52.8719C446.898 39.3146 422.634 27.2784 388.475 32.8327C371.577 35.5804 358.347 41.8002 348.181 50.5233C338.052 59.2144 331.421 69.9962 327.078 81.2184C318.53 103.307 318.5 128.187 318.5 144.71C318.5 160.597 315.223 167.359 311.775 170.57C308.21 173.891 302.082 175.71 290.5 175.71C285.537 175.71 279.369 174.708 271.835 173.218C270.116 172.878 268.327 172.513 266.486 172.138C260.598 170.936 254.176 169.626 247.827 168.687C231.405 166.259 211.738 165.636 196.178 177.703C182.534 188.284 174.58 203.444 166.248 219.324C165.904 219.978 165.561 220.634 165.216 221.29C156.278 238.297 145.829 257.832 126.86 279.443C108.748 300.076 84.7738 311.111 63.429 317.269C52.8009 320.336 42.9692 322.152 35.0476 323.357C31.5399 323.891 28.4368 324.301 25.7522 324.655C25.3973 324.702 25.0496 324.748 24.7094 324.793C22.006 325.152 19.2943 325.514 17.3946 325.946Z" fill="white" stroke="black" stroke-width="19" stroke-linecap="round" stroke-linejoin="round"/>
</svg>
