<svg width="494" height="509" viewBox="0 0 494 509" fill="none" xmlns="http://www.w3.org/2000/svg">
<path d="M285.108 174.394C347.908 78.7944 449.942 18.8944 493.108 0.894427C488.108 -0.105573 475.208 -1.10557 463.608 2.89443C449.108 7.89443 451.608 11.8944 435.608 24.8944C419.608 37.8944 394.608 41.8944 377.608 41.3944C360.608 40.8944 358.108 32.3944 344.608 27.8944C331.261 23.4453 321.335 30.2378 302.749 42.9562L302.108 43.3944C283.108 56.3944 261.108 55.8944 235.608 53.3944C210.108 50.8944 200.108 38.3944 165.108 47.8944C130.108 57.3944 111.108 81.8944 108.108 89.3944C105.108 96.8944 107.108 97.3944 109.608 97.3944C112.108 97.3944 131.608 94.3944 145.608 109.394C159.608 124.394 165.608 141.894 165.108 160.394C164.608 178.894 158.108 195.394 155.108 201.894C152.108 208.394 139.608 231.394 123.108 234.894C106.608 238.394 99.6084 232.394 95.1084 228.394C90.6084 224.394 82.6084 213.894 82.6084 202.894C82.6084 191.894 88.6084 184.394 91.1084 181.894C93.1084 179.894 97.6084 177.728 99.6084 176.894C98.4417 177.561 95.8084 179.094 94.6084 179.894C93.1084 180.894 87.6084 185.394 85.6084 192.394C83.6084 199.394 82.6084 209.894 90.6084 220.394C98.6084 230.894 109.108 235.894 118.608 233.394C128.108 230.894 139.108 224.394 149.608 207.394C160.108 190.394 168.108 154.894 154.608 127.894C141.108 100.894 118.108 97.3944 98.6084 100.894C79.1084 104.394 31.1083 122.394 13.1083 157.894C-4.89173 193.394 -1.39173 240.394 6.10827 263.394C13.6083 286.394 26.6083 299.394 40.6083 306.894C54.6083 314.394 63.6083 316.394 77.6083 333.394C91.6083 350.394 90.6083 371.394 90.6083 376.894C90.6083 382.394 90.1083 383.894 91.6083 384.894C93.1083 385.894 94.1083 384.894 96.6083 382.894C99.1083 380.894 106.108 378.394 112.608 379.394C119.108 380.394 125.608 385.894 131.608 393.394C137.608 400.894 140.608 412.394 139.608 419.394C138.608 426.394 136.108 432.894 127.108 433.394C119.908 433.794 114.442 425.228 112.608 420.894C113.608 422.394 116.308 426.194 119.108 429.394C122.608 433.394 131.608 433.394 134.108 429.394C136.608 425.394 140.608 415.394 131.608 398.894C122.608 382.394 109.608 382.394 101.108 384.894C92.6082 387.394 73.6082 398.894 85.1082 444.394C96.6082 489.894 113.108 498.894 123.608 504.394C134.108 509.894 157.608 515.394 170.108 489.394C182.608 463.394 189.108 435.894 197.608 393.394C206.108 350.894 206.608 293.894 285.108 174.394Z" fill="white"/>
</svg>
