<svg width="1006" height="1186" viewBox="0 0 1006 1186" fill="none" xmlns="http://www.w3.org/2000/svg">
<path fill-rule="evenodd" clip-rule="evenodd" d="M191.145 183.429L506.335 78.4168C603.842 45.9304 709.999 100.981 743.447 201.375L930.304 762.219C963.753 862.614 911.826 970.333 814.319 1002.82L499.129 1107.83C401.624 1140.32 295.466 1085.27 262.017 984.873L75.1599 424.03C41.7114 323.635 93.6395 215.915 191.145 183.429Z" fill="#F4F100"/>
<path fill-rule="evenodd" clip-rule="evenodd" d="M192.043 186.127C96.1018 218.092 44.8805 324.152 77.8574 423.131L264.714 983.974C297.692 1082.96 402.288 1137.1 498.23 1105.13L813.421 1000.12C909.364 968.156 960.584 862.099 927.607 763.118L740.75 202.275C707.773 103.295 603.177 49.1493 507.234 81.1147L192.043 186.127ZM72.4624 424.929C38.5425 323.12 91.1773 213.739 190.246 180.732L505.437 75.7197C604.507 42.7124 712.225 98.668 746.145 200.477L933.002 761.32C966.922 863.131 914.288 972.51 815.218 1005.52L500.027 1110.53C400.959 1143.54 293.24 1087.58 259.319 985.772L72.4624 424.929Z" fill="black"/>
<path fill-rule="evenodd" clip-rule="evenodd" d="M197.714 212.723L518.617 105.807C597.482 79.5316 683.345 124.058 710.399 205.259L900.106 774.657C927.16 855.859 885.16 942.984 806.294 969.26L485.392 1076.18C406.528 1102.45 320.664 1057.93 293.61 976.723L103.903 407.326C76.8495 326.125 118.85 238.998 197.714 212.723Z" fill="#01F67E"/>
<path fill-rule="evenodd" clip-rule="evenodd" d="M198.613 215.421C121.313 241.175 80.0185 326.642 106.601 406.428L296.308 975.825C322.89 1055.61 407.192 1099.23 484.493 1073.48L805.396 966.563C882.697 940.808 923.991 855.343 897.408 775.556L707.701 206.158C681.119 126.372 596.817 82.7505 519.516 108.505L198.613 215.421ZM101.206 408.225C73.6806 325.609 116.388 236.822 196.816 210.026L517.718 103.11C598.147 76.3137 685.571 121.745 713.096 204.361L902.803 773.758C930.329 856.375 887.622 945.161 807.193 971.958L486.291 1078.87C405.863 1105.67 318.438 1060.24 290.913 977.623L101.206 408.225Z" fill="black"/>
<path fill-rule="evenodd" clip-rule="evenodd" d="M199.17 252.119L542.349 137.781C599.036 118.895 660.789 150.999 680.276 209.489L874.341 791.965C893.827 850.453 863.669 913.181 806.982 932.067L463.803 1046.4C407.115 1065.29 345.362 1033.19 325.876 974.698L131.811 392.221C112.324 333.732 142.482 271.006 199.17 252.119Z" fill="#00E6F5"/>
<path fill-rule="evenodd" clip-rule="evenodd" d="M200.068 254.817C144.949 273.181 115.492 334.243 134.509 391.323L328.573 973.799C347.59 1030.88 407.785 1062.07 462.904 1043.71L806.083 929.37C861.202 911.007 890.66 849.943 871.643 792.864L677.579 210.388C658.561 153.308 598.366 122.116 543.248 140.479L200.068 254.817ZM129.114 393.12C109.157 333.221 140.014 268.831 198.271 249.422L541.45 135.084C599.706 115.675 663.017 148.691 682.974 208.59L877.038 791.067C896.994 850.965 866.136 915.356 807.881 934.765L464.702 1049.1C406.445 1068.51 343.134 1035.49 323.178 975.597L129.114 393.12Z" fill="black"/>
</svg>
